G04 #@! TF.GenerationSoftware,KiCad,Pcbnew,8.0.3*
G04 #@! TF.CreationDate,2024-08-13T11:44:20+03:00*
G04 #@! TF.ProjectId,Keyboard_stm32,4b657962-6f61-4726-945f-73746d33322e,rev?*
G04 #@! TF.SameCoordinates,Original*
G04 #@! TF.FileFunction,Paste,Bot*
G04 #@! TF.FilePolarity,Positive*
%FSLAX46Y46*%
G04 Gerber Fmt 4.6, Leading zero omitted, Abs format (unit mm)*
G04 Created by KiCad (PCBNEW 8.0.3) date 2024-08-13 11:44:20*
%MOMM*%
%LPD*%
G01*
G04 APERTURE LIST*
G04 Aperture macros list*
%AMRoundRect*
0 Rectangle with rounded corners*
0 $1 Rounding radius*
0 $2 $3 $4 $5 $6 $7 $8 $9 X,Y pos of 4 corners*
0 Add a 4 corners polygon primitive as box body*
4,1,4,$2,$3,$4,$5,$6,$7,$8,$9,$2,$3,0*
0 Add four circle primitives for the rounded corners*
1,1,$1+$1,$2,$3*
1,1,$1+$1,$4,$5*
1,1,$1+$1,$6,$7*
1,1,$1+$1,$8,$9*
0 Add four rect primitives between the rounded corners*
20,1,$1+$1,$2,$3,$4,$5,0*
20,1,$1+$1,$4,$5,$6,$7,0*
20,1,$1+$1,$6,$7,$8,$9,0*
20,1,$1+$1,$8,$9,$2,$3,0*%
G04 Aperture macros list end*
%ADD10R,2.550000X2.500000*%
%ADD11R,0.740000X1.020000*%
%ADD12RoundRect,0.250000X0.475000X-0.337500X0.475000X0.337500X-0.475000X0.337500X-0.475000X-0.337500X0*%
%ADD13RoundRect,0.237500X-0.237500X0.250000X-0.237500X-0.250000X0.237500X-0.250000X0.237500X0.250000X0*%
%ADD14RoundRect,0.250000X-0.475000X0.337500X-0.475000X-0.337500X0.475000X-0.337500X0.475000X0.337500X0*%
%ADD15RoundRect,0.250000X0.337500X0.475000X-0.337500X0.475000X-0.337500X-0.475000X0.337500X-0.475000X0*%
%ADD16RoundRect,0.250000X0.650000X-0.412500X0.650000X0.412500X-0.650000X0.412500X-0.650000X-0.412500X0*%
%ADD17R,1.700000X2.100000*%
%ADD18RoundRect,0.200000X0.200000X-0.750000X0.200000X0.750000X-0.200000X0.750000X-0.200000X-0.750000X0*%
%ADD19R,1.020000X0.740000*%
%ADD20RoundRect,0.250000X-0.337500X-0.475000X0.337500X-0.475000X0.337500X0.475000X-0.337500X0.475000X0*%
%ADD21RoundRect,0.250000X-0.250000X0.250000X-0.250000X-0.250000X0.250000X-0.250000X0.250000X0.250000X0*%
%ADD22R,0.600000X1.200000*%
%ADD23R,0.450000X1.400000*%
%ADD24RoundRect,0.237500X0.237500X-0.250000X0.237500X0.250000X-0.237500X0.250000X-0.237500X-0.250000X0*%
%ADD25R,2.850000X2.850000*%
G04 APERTURE END LIST*
D10*
X201740000Y-61810000D03*
X215165000Y-59270000D03*
X164740000Y-98810000D03*
X178165000Y-96270000D03*
X70240000Y-38810000D03*
X83665000Y-36270000D03*
X70240000Y-135310000D03*
X83665000Y-132770000D03*
X183240000Y-135810000D03*
X196665000Y-133270000D03*
X146240000Y-80310000D03*
X159665000Y-77770000D03*
X88740000Y-135310000D03*
X102165000Y-132770000D03*
X70240000Y-61810000D03*
X83665000Y-59270000D03*
X201740000Y-127810000D03*
X215165000Y-125270000D03*
X88740000Y-80310000D03*
X102165000Y-77770000D03*
X88740000Y-61810000D03*
X102165000Y-59270000D03*
X164740000Y-80310000D03*
X178165000Y-77770000D03*
X155240000Y-135810000D03*
X168665000Y-133270000D03*
X146240000Y-117310000D03*
X159665000Y-114770000D03*
X88740000Y-38810000D03*
X102165000Y-36270000D03*
X183240000Y-80310000D03*
X196665000Y-77770000D03*
X183240000Y-61810000D03*
X196665000Y-59270000D03*
X164740000Y-117310000D03*
X178165000Y-114770000D03*
X107240000Y-38810000D03*
X120665000Y-36270000D03*
X183240000Y-117310000D03*
X196665000Y-114770000D03*
X146240000Y-98810000D03*
X159665000Y-96270000D03*
X107240000Y-135310000D03*
X120665000Y-132770000D03*
X201740000Y-89810000D03*
X215165000Y-87270000D03*
X164740000Y-61810000D03*
X178165000Y-59270000D03*
X146240000Y-61810000D03*
X159665000Y-59270000D03*
X107240000Y-80310000D03*
X120665000Y-77770000D03*
X88740000Y-116810000D03*
X102165000Y-114270000D03*
X183240000Y-98810000D03*
X196665000Y-96270000D03*
X107240000Y-61810000D03*
X120665000Y-59270000D03*
X70240000Y-80310000D03*
X83665000Y-77770000D03*
D11*
X88750000Y-70350000D03*
X88750000Y-66950000D03*
X183250000Y-88350000D03*
X183250000Y-84950000D03*
D12*
X132050000Y-112987500D03*
X132050000Y-110912500D03*
D13*
X216950000Y-115437500D03*
X216950000Y-117262500D03*
D11*
X144950000Y-105450000D03*
X144950000Y-102050000D03*
D14*
X74850000Y-116912500D03*
X74850000Y-118987500D03*
D11*
X107250000Y-143850000D03*
X107250000Y-140450000D03*
X183250000Y-143850000D03*
X183250000Y-140450000D03*
D15*
X137650000Y-110750000D03*
X135575000Y-110750000D03*
D16*
X70650000Y-109475000D03*
X70650000Y-106350000D03*
D11*
X201650000Y-72050000D03*
X201650000Y-68650000D03*
X70250000Y-70350000D03*
X70250000Y-66950000D03*
D17*
X106300000Y-95290000D03*
X111000000Y-95290000D03*
D11*
X70250000Y-143850000D03*
X70250000Y-140450000D03*
X181750000Y-105450000D03*
X181750000Y-102050000D03*
X88650000Y-48250000D03*
X88650000Y-44850000D03*
D18*
X225000000Y-117150000D03*
X223100000Y-117150000D03*
X224050000Y-114150000D03*
D14*
X74850000Y-112912500D03*
X74850000Y-114987500D03*
D11*
X70250000Y-89550000D03*
X70250000Y-86150000D03*
X183250000Y-126150000D03*
X183250000Y-122750000D03*
D13*
X219350000Y-115437500D03*
X219350000Y-117262500D03*
D11*
X107250000Y-89450000D03*
X107250000Y-86050000D03*
D12*
X129150000Y-94725000D03*
X129150000Y-92650000D03*
D11*
X107250000Y-70350000D03*
X107250000Y-66950000D03*
D14*
X137450000Y-106112500D03*
X137450000Y-108187500D03*
D19*
X198350000Y-85450000D03*
X201750000Y-85450000D03*
D20*
X130412500Y-105950000D03*
X132487500Y-105950000D03*
D15*
X226061250Y-110950000D03*
X223986250Y-110950000D03*
D11*
X146250000Y-88350000D03*
X146250000Y-84950000D03*
X164750000Y-126050000D03*
X164750000Y-122650000D03*
X88750000Y-143850000D03*
X88750000Y-140450000D03*
D15*
X226025000Y-108650000D03*
X223950000Y-108650000D03*
D21*
X139450000Y-110950000D03*
X139450000Y-112550000D03*
D11*
X163150000Y-105450000D03*
X163150000Y-102050000D03*
D22*
X133970000Y-37640000D03*
X134920000Y-37640000D03*
X135870000Y-37640000D03*
X135870000Y-40140000D03*
X134920000Y-40140000D03*
X133970000Y-40140000D03*
D14*
X216950000Y-106412500D03*
X216950000Y-108487500D03*
D11*
X88750000Y-89450000D03*
X88750000Y-86050000D03*
X107250000Y-48250000D03*
X107250000Y-44850000D03*
D15*
X137687500Y-113000000D03*
X135612500Y-113000000D03*
D11*
X146250000Y-72050000D03*
X146250000Y-68650000D03*
X164650000Y-72050000D03*
X164650000Y-68650000D03*
X164750000Y-88350000D03*
X164750000Y-84950000D03*
D14*
X135250000Y-106075000D03*
X135250000Y-108150000D03*
D17*
X106300000Y-107090000D03*
X111000000Y-107090000D03*
D11*
X201550000Y-133650000D03*
X201550000Y-130250000D03*
X146250000Y-126150000D03*
X146250000Y-122750000D03*
D12*
X129800000Y-112987500D03*
X129800000Y-110912500D03*
D17*
X106300000Y-103090000D03*
X111000000Y-103090000D03*
D20*
X130412500Y-108150000D03*
X132487500Y-108150000D03*
D23*
X72625000Y-116112500D03*
X71975000Y-116112500D03*
X71325000Y-116112500D03*
X70675000Y-116112500D03*
X70675000Y-111712500D03*
X71325000Y-111712500D03*
X71975000Y-111712500D03*
X72625000Y-111712500D03*
D14*
X219350000Y-106412500D03*
X219350000Y-108487500D03*
D15*
X137687500Y-115150000D03*
X135612500Y-115150000D03*
D24*
X140850000Y-123012500D03*
X140850000Y-121187500D03*
D11*
X88750000Y-124550000D03*
X88750000Y-121150000D03*
X183250000Y-72050000D03*
X183250000Y-68650000D03*
D14*
X221750000Y-106400000D03*
X221750000Y-108475000D03*
D17*
X106300000Y-99090000D03*
X111000000Y-99090000D03*
D11*
X70250000Y-48250000D03*
X70250000Y-44850000D03*
D25*
X77375000Y-103075000D03*
X77375000Y-96425000D03*
X70725000Y-103075000D03*
X70725000Y-96425000D03*
D11*
X155250000Y-143850000D03*
X155250000Y-140450000D03*
M02*
