G04 #@! TF.GenerationSoftware,KiCad,Pcbnew,8.0.3*
G04 #@! TF.CreationDate,2024-08-13T11:44:20+03:00*
G04 #@! TF.ProjectId,Keyboard_stm32,4b657962-6f61-4726-945f-73746d33322e,rev?*
G04 #@! TF.SameCoordinates,Original*
G04 #@! TF.FileFunction,Legend,Bot*
G04 #@! TF.FilePolarity,Positive*
%FSLAX46Y46*%
G04 Gerber Fmt 4.6, Leading zero omitted, Abs format (unit mm)*
G04 Created by KiCad (PCBNEW 8.0.3) date 2024-08-13 11:44:20*
%MOMM*%
%LPD*%
G01*
G04 APERTURE LIST*
G04 Aperture macros list*
%AMRoundRect*
0 Rectangle with rounded corners*
0 $1 Rounding radius*
0 $2 $3 $4 $5 $6 $7 $8 $9 X,Y pos of 4 corners*
0 Add a 4 corners polygon primitive as box body*
4,1,4,$2,$3,$4,$5,$6,$7,$8,$9,$2,$3,0*
0 Add four circle primitives for the rounded corners*
1,1,$1+$1,$2,$3*
1,1,$1+$1,$4,$5*
1,1,$1+$1,$6,$7*
1,1,$1+$1,$8,$9*
0 Add four rect primitives between the rounded corners*
20,1,$1+$1,$2,$3,$4,$5,0*
20,1,$1+$1,$4,$5,$6,$7,0*
20,1,$1+$1,$6,$7,$8,$9,0*
20,1,$1+$1,$8,$9,$2,$3,0*%
G04 Aperture macros list end*
%ADD10C,0.180000*%
%ADD11C,0.120000*%
%ADD12C,0.100000*%
%ADD13C,0.200000*%
%ADD14C,0.352076*%
%ADD15C,1.700000*%
%ADD16C,3.000000*%
%ADD17C,4.000000*%
%ADD18R,2.550000X2.500000*%
%ADD19C,5.000000*%
%ADD20R,1.500000X1.500000*%
%ADD21C,1.500000*%
%ADD22O,1.000000X1.800000*%
%ADD23O,1.000000X2.200000*%
%ADD24C,1.550000*%
%ADD25C,4.350000*%
%ADD26R,1.100000X1.100000*%
%ADD27C,1.100000*%
%ADD28R,0.740000X1.020000*%
%ADD29RoundRect,0.250000X0.475000X-0.337500X0.475000X0.337500X-0.475000X0.337500X-0.475000X-0.337500X0*%
%ADD30RoundRect,0.237500X-0.237500X0.250000X-0.237500X-0.250000X0.237500X-0.250000X0.237500X0.250000X0*%
%ADD31RoundRect,0.250000X-0.475000X0.337500X-0.475000X-0.337500X0.475000X-0.337500X0.475000X0.337500X0*%
%ADD32RoundRect,0.250000X0.337500X0.475000X-0.337500X0.475000X-0.337500X-0.475000X0.337500X-0.475000X0*%
%ADD33RoundRect,0.250000X0.650000X-0.412500X0.650000X0.412500X-0.650000X0.412500X-0.650000X-0.412500X0*%
%ADD34R,1.700000X2.100000*%
%ADD35RoundRect,0.200000X0.200000X-0.750000X0.200000X0.750000X-0.200000X0.750000X-0.200000X-0.750000X0*%
%ADD36R,1.020000X0.740000*%
%ADD37RoundRect,0.250000X-0.337500X-0.475000X0.337500X-0.475000X0.337500X0.475000X-0.337500X0.475000X0*%
%ADD38C,1.524000*%
%ADD39RoundRect,0.250000X-0.250000X0.250000X-0.250000X-0.250000X0.250000X-0.250000X0.250000X0.250000X0*%
%ADD40R,0.600000X1.200000*%
%ADD41R,0.450000X1.400000*%
%ADD42RoundRect,0.237500X0.237500X-0.250000X0.237500X0.250000X-0.237500X0.250000X-0.237500X-0.250000X0*%
%ADD43R,2.850000X2.850000*%
G04 APERTURE END LIST*
D10*
X139074436Y-146271354D02*
X138860150Y-146342782D01*
X138860150Y-146342782D02*
X138788721Y-146414211D01*
X138788721Y-146414211D02*
X138717293Y-146557068D01*
X138717293Y-146557068D02*
X138717293Y-146771354D01*
X138717293Y-146771354D02*
X138788721Y-146914211D01*
X138788721Y-146914211D02*
X138860150Y-146985640D01*
X138860150Y-146985640D02*
X139003007Y-147057068D01*
X139003007Y-147057068D02*
X139574436Y-147057068D01*
X139574436Y-147057068D02*
X139574436Y-145557068D01*
X139574436Y-145557068D02*
X139074436Y-145557068D01*
X139074436Y-145557068D02*
X138931579Y-145628497D01*
X138931579Y-145628497D02*
X138860150Y-145699925D01*
X138860150Y-145699925D02*
X138788721Y-145842782D01*
X138788721Y-145842782D02*
X138788721Y-145985640D01*
X138788721Y-145985640D02*
X138860150Y-146128497D01*
X138860150Y-146128497D02*
X138931579Y-146199925D01*
X138931579Y-146199925D02*
X139074436Y-146271354D01*
X139074436Y-146271354D02*
X139574436Y-146271354D01*
X137788721Y-145557068D02*
X137503007Y-145557068D01*
X137503007Y-145557068D02*
X137360150Y-145628497D01*
X137360150Y-145628497D02*
X137217293Y-145771354D01*
X137217293Y-145771354D02*
X137145864Y-146057068D01*
X137145864Y-146057068D02*
X137145864Y-146557068D01*
X137145864Y-146557068D02*
X137217293Y-146842782D01*
X137217293Y-146842782D02*
X137360150Y-146985640D01*
X137360150Y-146985640D02*
X137503007Y-147057068D01*
X137503007Y-147057068D02*
X137788721Y-147057068D01*
X137788721Y-147057068D02*
X137931579Y-146985640D01*
X137931579Y-146985640D02*
X138074436Y-146842782D01*
X138074436Y-146842782D02*
X138145864Y-146557068D01*
X138145864Y-146557068D02*
X138145864Y-146057068D01*
X138145864Y-146057068D02*
X138074436Y-145771354D01*
X138074436Y-145771354D02*
X137931579Y-145628497D01*
X137931579Y-145628497D02*
X137788721Y-145557068D01*
X136217292Y-145557068D02*
X135931578Y-145557068D01*
X135931578Y-145557068D02*
X135788721Y-145628497D01*
X135788721Y-145628497D02*
X135645864Y-145771354D01*
X135645864Y-145771354D02*
X135574435Y-146057068D01*
X135574435Y-146057068D02*
X135574435Y-146557068D01*
X135574435Y-146557068D02*
X135645864Y-146842782D01*
X135645864Y-146842782D02*
X135788721Y-146985640D01*
X135788721Y-146985640D02*
X135931578Y-147057068D01*
X135931578Y-147057068D02*
X136217292Y-147057068D01*
X136217292Y-147057068D02*
X136360150Y-146985640D01*
X136360150Y-146985640D02*
X136503007Y-146842782D01*
X136503007Y-146842782D02*
X136574435Y-146557068D01*
X136574435Y-146557068D02*
X136574435Y-146057068D01*
X136574435Y-146057068D02*
X136503007Y-145771354D01*
X136503007Y-145771354D02*
X136360150Y-145628497D01*
X136360150Y-145628497D02*
X136217292Y-145557068D01*
X135145863Y-145557068D02*
X134288721Y-145557068D01*
X134717292Y-147057068D02*
X134717292Y-145557068D01*
X133503006Y-145557068D02*
X133360149Y-145557068D01*
X133360149Y-145557068D02*
X133217292Y-145628497D01*
X133217292Y-145628497D02*
X133145864Y-145699925D01*
X133145864Y-145699925D02*
X133074435Y-145842782D01*
X133074435Y-145842782D02*
X133003006Y-146128497D01*
X133003006Y-146128497D02*
X133003006Y-146485640D01*
X133003006Y-146485640D02*
X133074435Y-146771354D01*
X133074435Y-146771354D02*
X133145864Y-146914211D01*
X133145864Y-146914211D02*
X133217292Y-146985640D01*
X133217292Y-146985640D02*
X133360149Y-147057068D01*
X133360149Y-147057068D02*
X133503006Y-147057068D01*
X133503006Y-147057068D02*
X133645864Y-146985640D01*
X133645864Y-146985640D02*
X133717292Y-146914211D01*
X133717292Y-146914211D02*
X133788721Y-146771354D01*
X133788721Y-146771354D02*
X133860149Y-146485640D01*
X133860149Y-146485640D02*
X133860149Y-146128497D01*
X133860149Y-146128497D02*
X133788721Y-145842782D01*
X133788721Y-145842782D02*
X133717292Y-145699925D01*
X133717292Y-145699925D02*
X133645864Y-145628497D01*
X133645864Y-145628497D02*
X133503006Y-145557068D01*
X80392857Y-110508020D02*
X80440476Y-110555640D01*
X80440476Y-110555640D02*
X80583333Y-110603259D01*
X80583333Y-110603259D02*
X80678571Y-110603259D01*
X80678571Y-110603259D02*
X80821428Y-110555640D01*
X80821428Y-110555640D02*
X80916666Y-110460401D01*
X80916666Y-110460401D02*
X80964285Y-110365163D01*
X80964285Y-110365163D02*
X81011904Y-110174687D01*
X81011904Y-110174687D02*
X81011904Y-110031830D01*
X81011904Y-110031830D02*
X80964285Y-109841354D01*
X80964285Y-109841354D02*
X80916666Y-109746116D01*
X80916666Y-109746116D02*
X80821428Y-109650878D01*
X80821428Y-109650878D02*
X80678571Y-109603259D01*
X80678571Y-109603259D02*
X80583333Y-109603259D01*
X80583333Y-109603259D02*
X80440476Y-109650878D01*
X80440476Y-109650878D02*
X80392857Y-109698497D01*
X79440476Y-110603259D02*
X80011904Y-110603259D01*
X79726190Y-110603259D02*
X79726190Y-109603259D01*
X79726190Y-109603259D02*
X79821428Y-109746116D01*
X79821428Y-109746116D02*
X79916666Y-109841354D01*
X79916666Y-109841354D02*
X80011904Y-109888973D01*
X78583333Y-109603259D02*
X78773809Y-109603259D01*
X78773809Y-109603259D02*
X78869047Y-109650878D01*
X78869047Y-109650878D02*
X78916666Y-109698497D01*
X78916666Y-109698497D02*
X79011904Y-109841354D01*
X79011904Y-109841354D02*
X79059523Y-110031830D01*
X79059523Y-110031830D02*
X79059523Y-110412782D01*
X79059523Y-110412782D02*
X79011904Y-110508020D01*
X79011904Y-110508020D02*
X78964285Y-110555640D01*
X78964285Y-110555640D02*
X78869047Y-110603259D01*
X78869047Y-110603259D02*
X78678571Y-110603259D01*
X78678571Y-110603259D02*
X78583333Y-110555640D01*
X78583333Y-110555640D02*
X78535714Y-110508020D01*
X78535714Y-110508020D02*
X78488095Y-110412782D01*
X78488095Y-110412782D02*
X78488095Y-110174687D01*
X78488095Y-110174687D02*
X78535714Y-110079449D01*
X78535714Y-110079449D02*
X78583333Y-110031830D01*
X78583333Y-110031830D02*
X78678571Y-109984211D01*
X78678571Y-109984211D02*
X78869047Y-109984211D01*
X78869047Y-109984211D02*
X78964285Y-110031830D01*
X78964285Y-110031830D02*
X79011904Y-110079449D01*
X79011904Y-110079449D02*
X79059523Y-110174687D01*
X91503259Y-67911905D02*
X90503259Y-67911905D01*
X90503259Y-67911905D02*
X90503259Y-68150000D01*
X90503259Y-68150000D02*
X90550878Y-68292857D01*
X90550878Y-68292857D02*
X90646116Y-68388095D01*
X90646116Y-68388095D02*
X90741354Y-68435714D01*
X90741354Y-68435714D02*
X90931830Y-68483333D01*
X90931830Y-68483333D02*
X91074687Y-68483333D01*
X91074687Y-68483333D02*
X91265163Y-68435714D01*
X91265163Y-68435714D02*
X91360401Y-68388095D01*
X91360401Y-68388095D02*
X91455640Y-68292857D01*
X91455640Y-68292857D02*
X91503259Y-68150000D01*
X91503259Y-68150000D02*
X91503259Y-67911905D01*
X90931830Y-69054762D02*
X90884211Y-68959524D01*
X90884211Y-68959524D02*
X90836592Y-68911905D01*
X90836592Y-68911905D02*
X90741354Y-68864286D01*
X90741354Y-68864286D02*
X90693735Y-68864286D01*
X90693735Y-68864286D02*
X90598497Y-68911905D01*
X90598497Y-68911905D02*
X90550878Y-68959524D01*
X90550878Y-68959524D02*
X90503259Y-69054762D01*
X90503259Y-69054762D02*
X90503259Y-69245238D01*
X90503259Y-69245238D02*
X90550878Y-69340476D01*
X90550878Y-69340476D02*
X90598497Y-69388095D01*
X90598497Y-69388095D02*
X90693735Y-69435714D01*
X90693735Y-69435714D02*
X90741354Y-69435714D01*
X90741354Y-69435714D02*
X90836592Y-69388095D01*
X90836592Y-69388095D02*
X90884211Y-69340476D01*
X90884211Y-69340476D02*
X90931830Y-69245238D01*
X90931830Y-69245238D02*
X90931830Y-69054762D01*
X90931830Y-69054762D02*
X90979449Y-68959524D01*
X90979449Y-68959524D02*
X91027068Y-68911905D01*
X91027068Y-68911905D02*
X91122306Y-68864286D01*
X91122306Y-68864286D02*
X91312782Y-68864286D01*
X91312782Y-68864286D02*
X91408020Y-68911905D01*
X91408020Y-68911905D02*
X91455640Y-68959524D01*
X91455640Y-68959524D02*
X91503259Y-69054762D01*
X91503259Y-69054762D02*
X91503259Y-69245238D01*
X91503259Y-69245238D02*
X91455640Y-69340476D01*
X91455640Y-69340476D02*
X91408020Y-69388095D01*
X91408020Y-69388095D02*
X91312782Y-69435714D01*
X91312782Y-69435714D02*
X91122306Y-69435714D01*
X91122306Y-69435714D02*
X91027068Y-69388095D01*
X91027068Y-69388095D02*
X90979449Y-69340476D01*
X90979449Y-69340476D02*
X90931830Y-69245238D01*
X186603259Y-85435714D02*
X185603259Y-85435714D01*
X185603259Y-85435714D02*
X185603259Y-85673809D01*
X185603259Y-85673809D02*
X185650878Y-85816666D01*
X185650878Y-85816666D02*
X185746116Y-85911904D01*
X185746116Y-85911904D02*
X185841354Y-85959523D01*
X185841354Y-85959523D02*
X186031830Y-86007142D01*
X186031830Y-86007142D02*
X186174687Y-86007142D01*
X186174687Y-86007142D02*
X186365163Y-85959523D01*
X186365163Y-85959523D02*
X186460401Y-85911904D01*
X186460401Y-85911904D02*
X186555640Y-85816666D01*
X186555640Y-85816666D02*
X186603259Y-85673809D01*
X186603259Y-85673809D02*
X186603259Y-85435714D01*
X185698497Y-86388095D02*
X185650878Y-86435714D01*
X185650878Y-86435714D02*
X185603259Y-86530952D01*
X185603259Y-86530952D02*
X185603259Y-86769047D01*
X185603259Y-86769047D02*
X185650878Y-86864285D01*
X185650878Y-86864285D02*
X185698497Y-86911904D01*
X185698497Y-86911904D02*
X185793735Y-86959523D01*
X185793735Y-86959523D02*
X185888973Y-86959523D01*
X185888973Y-86959523D02*
X186031830Y-86911904D01*
X186031830Y-86911904D02*
X186603259Y-86340476D01*
X186603259Y-86340476D02*
X186603259Y-86959523D01*
X186031830Y-87530952D02*
X185984211Y-87435714D01*
X185984211Y-87435714D02*
X185936592Y-87388095D01*
X185936592Y-87388095D02*
X185841354Y-87340476D01*
X185841354Y-87340476D02*
X185793735Y-87340476D01*
X185793735Y-87340476D02*
X185698497Y-87388095D01*
X185698497Y-87388095D02*
X185650878Y-87435714D01*
X185650878Y-87435714D02*
X185603259Y-87530952D01*
X185603259Y-87530952D02*
X185603259Y-87721428D01*
X185603259Y-87721428D02*
X185650878Y-87816666D01*
X185650878Y-87816666D02*
X185698497Y-87864285D01*
X185698497Y-87864285D02*
X185793735Y-87911904D01*
X185793735Y-87911904D02*
X185841354Y-87911904D01*
X185841354Y-87911904D02*
X185936592Y-87864285D01*
X185936592Y-87864285D02*
X185984211Y-87816666D01*
X185984211Y-87816666D02*
X186031830Y-87721428D01*
X186031830Y-87721428D02*
X186031830Y-87530952D01*
X186031830Y-87530952D02*
X186079449Y-87435714D01*
X186079449Y-87435714D02*
X186127068Y-87388095D01*
X186127068Y-87388095D02*
X186222306Y-87340476D01*
X186222306Y-87340476D02*
X186412782Y-87340476D01*
X186412782Y-87340476D02*
X186508020Y-87388095D01*
X186508020Y-87388095D02*
X186555640Y-87435714D01*
X186555640Y-87435714D02*
X186603259Y-87530952D01*
X186603259Y-87530952D02*
X186603259Y-87721428D01*
X186603259Y-87721428D02*
X186555640Y-87816666D01*
X186555640Y-87816666D02*
X186508020Y-87864285D01*
X186508020Y-87864285D02*
X186412782Y-87911904D01*
X186412782Y-87911904D02*
X186222306Y-87911904D01*
X186222306Y-87911904D02*
X186127068Y-87864285D01*
X186127068Y-87864285D02*
X186079449Y-87816666D01*
X186079449Y-87816666D02*
X186031830Y-87721428D01*
X132408020Y-114883333D02*
X132455640Y-114835714D01*
X132455640Y-114835714D02*
X132503259Y-114692857D01*
X132503259Y-114692857D02*
X132503259Y-114597619D01*
X132503259Y-114597619D02*
X132455640Y-114454762D01*
X132455640Y-114454762D02*
X132360401Y-114359524D01*
X132360401Y-114359524D02*
X132265163Y-114311905D01*
X132265163Y-114311905D02*
X132074687Y-114264286D01*
X132074687Y-114264286D02*
X131931830Y-114264286D01*
X131931830Y-114264286D02*
X131741354Y-114311905D01*
X131741354Y-114311905D02*
X131646116Y-114359524D01*
X131646116Y-114359524D02*
X131550878Y-114454762D01*
X131550878Y-114454762D02*
X131503259Y-114597619D01*
X131503259Y-114597619D02*
X131503259Y-114692857D01*
X131503259Y-114692857D02*
X131550878Y-114835714D01*
X131550878Y-114835714D02*
X131598497Y-114883333D01*
X131503259Y-115216667D02*
X131503259Y-115883333D01*
X131503259Y-115883333D02*
X132503259Y-115454762D01*
X217403259Y-119207142D02*
X216927068Y-118873809D01*
X217403259Y-118635714D02*
X216403259Y-118635714D01*
X216403259Y-118635714D02*
X216403259Y-119016666D01*
X216403259Y-119016666D02*
X216450878Y-119111904D01*
X216450878Y-119111904D02*
X216498497Y-119159523D01*
X216498497Y-119159523D02*
X216593735Y-119207142D01*
X216593735Y-119207142D02*
X216736592Y-119207142D01*
X216736592Y-119207142D02*
X216831830Y-119159523D01*
X216831830Y-119159523D02*
X216879449Y-119111904D01*
X216879449Y-119111904D02*
X216927068Y-119016666D01*
X216927068Y-119016666D02*
X216927068Y-118635714D01*
X216498497Y-119588095D02*
X216450878Y-119635714D01*
X216450878Y-119635714D02*
X216403259Y-119730952D01*
X216403259Y-119730952D02*
X216403259Y-119969047D01*
X216403259Y-119969047D02*
X216450878Y-120064285D01*
X216450878Y-120064285D02*
X216498497Y-120111904D01*
X216498497Y-120111904D02*
X216593735Y-120159523D01*
X216593735Y-120159523D02*
X216688973Y-120159523D01*
X216688973Y-120159523D02*
X216831830Y-120111904D01*
X216831830Y-120111904D02*
X217403259Y-119540476D01*
X217403259Y-119540476D02*
X217403259Y-120159523D01*
X216403259Y-120492857D02*
X216403259Y-121111904D01*
X216403259Y-121111904D02*
X216784211Y-120778571D01*
X216784211Y-120778571D02*
X216784211Y-120921428D01*
X216784211Y-120921428D02*
X216831830Y-121016666D01*
X216831830Y-121016666D02*
X216879449Y-121064285D01*
X216879449Y-121064285D02*
X216974687Y-121111904D01*
X216974687Y-121111904D02*
X217212782Y-121111904D01*
X217212782Y-121111904D02*
X217308020Y-121064285D01*
X217308020Y-121064285D02*
X217355640Y-121016666D01*
X217355640Y-121016666D02*
X217403259Y-120921428D01*
X217403259Y-120921428D02*
X217403259Y-120635714D01*
X217403259Y-120635714D02*
X217355640Y-120540476D01*
X217355640Y-120540476D02*
X217308020Y-120492857D01*
X148103259Y-104035714D02*
X147103259Y-104035714D01*
X147103259Y-104035714D02*
X147103259Y-104273809D01*
X147103259Y-104273809D02*
X147150878Y-104416666D01*
X147150878Y-104416666D02*
X147246116Y-104511904D01*
X147246116Y-104511904D02*
X147341354Y-104559523D01*
X147341354Y-104559523D02*
X147531830Y-104607142D01*
X147531830Y-104607142D02*
X147674687Y-104607142D01*
X147674687Y-104607142D02*
X147865163Y-104559523D01*
X147865163Y-104559523D02*
X147960401Y-104511904D01*
X147960401Y-104511904D02*
X148055640Y-104416666D01*
X148055640Y-104416666D02*
X148103259Y-104273809D01*
X148103259Y-104273809D02*
X148103259Y-104035714D01*
X148103259Y-105559523D02*
X148103259Y-104988095D01*
X148103259Y-105273809D02*
X147103259Y-105273809D01*
X147103259Y-105273809D02*
X147246116Y-105178571D01*
X147246116Y-105178571D02*
X147341354Y-105083333D01*
X147341354Y-105083333D02*
X147388973Y-104988095D01*
X147531830Y-106130952D02*
X147484211Y-106035714D01*
X147484211Y-106035714D02*
X147436592Y-105988095D01*
X147436592Y-105988095D02*
X147341354Y-105940476D01*
X147341354Y-105940476D02*
X147293735Y-105940476D01*
X147293735Y-105940476D02*
X147198497Y-105988095D01*
X147198497Y-105988095D02*
X147150878Y-106035714D01*
X147150878Y-106035714D02*
X147103259Y-106130952D01*
X147103259Y-106130952D02*
X147103259Y-106321428D01*
X147103259Y-106321428D02*
X147150878Y-106416666D01*
X147150878Y-106416666D02*
X147198497Y-106464285D01*
X147198497Y-106464285D02*
X147293735Y-106511904D01*
X147293735Y-106511904D02*
X147341354Y-106511904D01*
X147341354Y-106511904D02*
X147436592Y-106464285D01*
X147436592Y-106464285D02*
X147484211Y-106416666D01*
X147484211Y-106416666D02*
X147531830Y-106321428D01*
X147531830Y-106321428D02*
X147531830Y-106130952D01*
X147531830Y-106130952D02*
X147579449Y-106035714D01*
X147579449Y-106035714D02*
X147627068Y-105988095D01*
X147627068Y-105988095D02*
X147722306Y-105940476D01*
X147722306Y-105940476D02*
X147912782Y-105940476D01*
X147912782Y-105940476D02*
X148008020Y-105988095D01*
X148008020Y-105988095D02*
X148055640Y-106035714D01*
X148055640Y-106035714D02*
X148103259Y-106130952D01*
X148103259Y-106130952D02*
X148103259Y-106321428D01*
X148103259Y-106321428D02*
X148055640Y-106416666D01*
X148055640Y-106416666D02*
X148008020Y-106464285D01*
X148008020Y-106464285D02*
X147912782Y-106511904D01*
X147912782Y-106511904D02*
X147722306Y-106511904D01*
X147722306Y-106511904D02*
X147627068Y-106464285D01*
X147627068Y-106464285D02*
X147579449Y-106416666D01*
X147579449Y-106416666D02*
X147531830Y-106321428D01*
X74507142Y-110491979D02*
X74459523Y-110444360D01*
X74459523Y-110444360D02*
X74316666Y-110396740D01*
X74316666Y-110396740D02*
X74221428Y-110396740D01*
X74221428Y-110396740D02*
X74078571Y-110444360D01*
X74078571Y-110444360D02*
X73983333Y-110539598D01*
X73983333Y-110539598D02*
X73935714Y-110634836D01*
X73935714Y-110634836D02*
X73888095Y-110825312D01*
X73888095Y-110825312D02*
X73888095Y-110968169D01*
X73888095Y-110968169D02*
X73935714Y-111158645D01*
X73935714Y-111158645D02*
X73983333Y-111253883D01*
X73983333Y-111253883D02*
X74078571Y-111349121D01*
X74078571Y-111349121D02*
X74221428Y-111396740D01*
X74221428Y-111396740D02*
X74316666Y-111396740D01*
X74316666Y-111396740D02*
X74459523Y-111349121D01*
X74459523Y-111349121D02*
X74507142Y-111301502D01*
X75459523Y-110396740D02*
X74888095Y-110396740D01*
X75173809Y-110396740D02*
X75173809Y-111396740D01*
X75173809Y-111396740D02*
X75078571Y-111253883D01*
X75078571Y-111253883D02*
X74983333Y-111158645D01*
X74983333Y-111158645D02*
X74888095Y-111111026D01*
X75792857Y-111396740D02*
X76411904Y-111396740D01*
X76411904Y-111396740D02*
X76078571Y-111015788D01*
X76078571Y-111015788D02*
X76221428Y-111015788D01*
X76221428Y-111015788D02*
X76316666Y-110968169D01*
X76316666Y-110968169D02*
X76364285Y-110920550D01*
X76364285Y-110920550D02*
X76411904Y-110825312D01*
X76411904Y-110825312D02*
X76411904Y-110587217D01*
X76411904Y-110587217D02*
X76364285Y-110491979D01*
X76364285Y-110491979D02*
X76316666Y-110444360D01*
X76316666Y-110444360D02*
X76221428Y-110396740D01*
X76221428Y-110396740D02*
X75935714Y-110396740D01*
X75935714Y-110396740D02*
X75840476Y-110444360D01*
X75840476Y-110444360D02*
X75792857Y-110491979D01*
X110803259Y-140935714D02*
X109803259Y-140935714D01*
X109803259Y-140935714D02*
X109803259Y-141173809D01*
X109803259Y-141173809D02*
X109850878Y-141316666D01*
X109850878Y-141316666D02*
X109946116Y-141411904D01*
X109946116Y-141411904D02*
X110041354Y-141459523D01*
X110041354Y-141459523D02*
X110231830Y-141507142D01*
X110231830Y-141507142D02*
X110374687Y-141507142D01*
X110374687Y-141507142D02*
X110565163Y-141459523D01*
X110565163Y-141459523D02*
X110660401Y-141411904D01*
X110660401Y-141411904D02*
X110755640Y-141316666D01*
X110755640Y-141316666D02*
X110803259Y-141173809D01*
X110803259Y-141173809D02*
X110803259Y-140935714D01*
X110803259Y-142459523D02*
X110803259Y-141888095D01*
X110803259Y-142173809D02*
X109803259Y-142173809D01*
X109803259Y-142173809D02*
X109946116Y-142078571D01*
X109946116Y-142078571D02*
X110041354Y-141983333D01*
X110041354Y-141983333D02*
X110088973Y-141888095D01*
X109803259Y-143364285D02*
X109803259Y-142888095D01*
X109803259Y-142888095D02*
X110279449Y-142840476D01*
X110279449Y-142840476D02*
X110231830Y-142888095D01*
X110231830Y-142888095D02*
X110184211Y-142983333D01*
X110184211Y-142983333D02*
X110184211Y-143221428D01*
X110184211Y-143221428D02*
X110231830Y-143316666D01*
X110231830Y-143316666D02*
X110279449Y-143364285D01*
X110279449Y-143364285D02*
X110374687Y-143411904D01*
X110374687Y-143411904D02*
X110612782Y-143411904D01*
X110612782Y-143411904D02*
X110708020Y-143364285D01*
X110708020Y-143364285D02*
X110755640Y-143316666D01*
X110755640Y-143316666D02*
X110803259Y-143221428D01*
X110803259Y-143221428D02*
X110803259Y-142983333D01*
X110803259Y-142983333D02*
X110755640Y-142888095D01*
X110755640Y-142888095D02*
X110708020Y-142840476D01*
X186603259Y-142035714D02*
X185603259Y-142035714D01*
X185603259Y-142035714D02*
X185603259Y-142273809D01*
X185603259Y-142273809D02*
X185650878Y-142416666D01*
X185650878Y-142416666D02*
X185746116Y-142511904D01*
X185746116Y-142511904D02*
X185841354Y-142559523D01*
X185841354Y-142559523D02*
X186031830Y-142607142D01*
X186031830Y-142607142D02*
X186174687Y-142607142D01*
X186174687Y-142607142D02*
X186365163Y-142559523D01*
X186365163Y-142559523D02*
X186460401Y-142511904D01*
X186460401Y-142511904D02*
X186555640Y-142416666D01*
X186555640Y-142416666D02*
X186603259Y-142273809D01*
X186603259Y-142273809D02*
X186603259Y-142035714D01*
X185698497Y-142988095D02*
X185650878Y-143035714D01*
X185650878Y-143035714D02*
X185603259Y-143130952D01*
X185603259Y-143130952D02*
X185603259Y-143369047D01*
X185603259Y-143369047D02*
X185650878Y-143464285D01*
X185650878Y-143464285D02*
X185698497Y-143511904D01*
X185698497Y-143511904D02*
X185793735Y-143559523D01*
X185793735Y-143559523D02*
X185888973Y-143559523D01*
X185888973Y-143559523D02*
X186031830Y-143511904D01*
X186031830Y-143511904D02*
X186603259Y-142940476D01*
X186603259Y-142940476D02*
X186603259Y-143559523D01*
X185603259Y-143892857D02*
X185603259Y-144559523D01*
X185603259Y-144559523D02*
X186603259Y-144130952D01*
X140692857Y-109808020D02*
X140740476Y-109855640D01*
X140740476Y-109855640D02*
X140883333Y-109903259D01*
X140883333Y-109903259D02*
X140978571Y-109903259D01*
X140978571Y-109903259D02*
X141121428Y-109855640D01*
X141121428Y-109855640D02*
X141216666Y-109760401D01*
X141216666Y-109760401D02*
X141264285Y-109665163D01*
X141264285Y-109665163D02*
X141311904Y-109474687D01*
X141311904Y-109474687D02*
X141311904Y-109331830D01*
X141311904Y-109331830D02*
X141264285Y-109141354D01*
X141264285Y-109141354D02*
X141216666Y-109046116D01*
X141216666Y-109046116D02*
X141121428Y-108950878D01*
X141121428Y-108950878D02*
X140978571Y-108903259D01*
X140978571Y-108903259D02*
X140883333Y-108903259D01*
X140883333Y-108903259D02*
X140740476Y-108950878D01*
X140740476Y-108950878D02*
X140692857Y-108998497D01*
X140311904Y-108998497D02*
X140264285Y-108950878D01*
X140264285Y-108950878D02*
X140169047Y-108903259D01*
X140169047Y-108903259D02*
X139930952Y-108903259D01*
X139930952Y-108903259D02*
X139835714Y-108950878D01*
X139835714Y-108950878D02*
X139788095Y-108998497D01*
X139788095Y-108998497D02*
X139740476Y-109093735D01*
X139740476Y-109093735D02*
X139740476Y-109188973D01*
X139740476Y-109188973D02*
X139788095Y-109331830D01*
X139788095Y-109331830D02*
X140359523Y-109903259D01*
X140359523Y-109903259D02*
X139740476Y-109903259D01*
X139407142Y-108903259D02*
X138788095Y-108903259D01*
X138788095Y-108903259D02*
X139121428Y-109284211D01*
X139121428Y-109284211D02*
X138978571Y-109284211D01*
X138978571Y-109284211D02*
X138883333Y-109331830D01*
X138883333Y-109331830D02*
X138835714Y-109379449D01*
X138835714Y-109379449D02*
X138788095Y-109474687D01*
X138788095Y-109474687D02*
X138788095Y-109712782D01*
X138788095Y-109712782D02*
X138835714Y-109808020D01*
X138835714Y-109808020D02*
X138883333Y-109855640D01*
X138883333Y-109855640D02*
X138978571Y-109903259D01*
X138978571Y-109903259D02*
X139264285Y-109903259D01*
X139264285Y-109903259D02*
X139359523Y-109855640D01*
X139359523Y-109855640D02*
X139407142Y-109808020D01*
X67491979Y-108592857D02*
X67444360Y-108640476D01*
X67444360Y-108640476D02*
X67396740Y-108783333D01*
X67396740Y-108783333D02*
X67396740Y-108878571D01*
X67396740Y-108878571D02*
X67444360Y-109021428D01*
X67444360Y-109021428D02*
X67539598Y-109116666D01*
X67539598Y-109116666D02*
X67634836Y-109164285D01*
X67634836Y-109164285D02*
X67825312Y-109211904D01*
X67825312Y-109211904D02*
X67968169Y-109211904D01*
X67968169Y-109211904D02*
X68158645Y-109164285D01*
X68158645Y-109164285D02*
X68253883Y-109116666D01*
X68253883Y-109116666D02*
X68349121Y-109021428D01*
X68349121Y-109021428D02*
X68396740Y-108878571D01*
X68396740Y-108878571D02*
X68396740Y-108783333D01*
X68396740Y-108783333D02*
X68349121Y-108640476D01*
X68349121Y-108640476D02*
X68301502Y-108592857D01*
X67396740Y-107640476D02*
X67396740Y-108211904D01*
X67396740Y-107926190D02*
X68396740Y-107926190D01*
X68396740Y-107926190D02*
X68253883Y-108021428D01*
X68253883Y-108021428D02*
X68158645Y-108116666D01*
X68158645Y-108116666D02*
X68111026Y-108211904D01*
X68396740Y-107307142D02*
X68396740Y-106640476D01*
X68396740Y-106640476D02*
X67396740Y-107069047D01*
X204903259Y-69135714D02*
X203903259Y-69135714D01*
X203903259Y-69135714D02*
X203903259Y-69373809D01*
X203903259Y-69373809D02*
X203950878Y-69516666D01*
X203950878Y-69516666D02*
X204046116Y-69611904D01*
X204046116Y-69611904D02*
X204141354Y-69659523D01*
X204141354Y-69659523D02*
X204331830Y-69707142D01*
X204331830Y-69707142D02*
X204474687Y-69707142D01*
X204474687Y-69707142D02*
X204665163Y-69659523D01*
X204665163Y-69659523D02*
X204760401Y-69611904D01*
X204760401Y-69611904D02*
X204855640Y-69516666D01*
X204855640Y-69516666D02*
X204903259Y-69373809D01*
X204903259Y-69373809D02*
X204903259Y-69135714D01*
X203903259Y-70040476D02*
X203903259Y-70659523D01*
X203903259Y-70659523D02*
X204284211Y-70326190D01*
X204284211Y-70326190D02*
X204284211Y-70469047D01*
X204284211Y-70469047D02*
X204331830Y-70564285D01*
X204331830Y-70564285D02*
X204379449Y-70611904D01*
X204379449Y-70611904D02*
X204474687Y-70659523D01*
X204474687Y-70659523D02*
X204712782Y-70659523D01*
X204712782Y-70659523D02*
X204808020Y-70611904D01*
X204808020Y-70611904D02*
X204855640Y-70564285D01*
X204855640Y-70564285D02*
X204903259Y-70469047D01*
X204903259Y-70469047D02*
X204903259Y-70183333D01*
X204903259Y-70183333D02*
X204855640Y-70088095D01*
X204855640Y-70088095D02*
X204808020Y-70040476D01*
X203903259Y-71278571D02*
X203903259Y-71373809D01*
X203903259Y-71373809D02*
X203950878Y-71469047D01*
X203950878Y-71469047D02*
X203998497Y-71516666D01*
X203998497Y-71516666D02*
X204093735Y-71564285D01*
X204093735Y-71564285D02*
X204284211Y-71611904D01*
X204284211Y-71611904D02*
X204522306Y-71611904D01*
X204522306Y-71611904D02*
X204712782Y-71564285D01*
X204712782Y-71564285D02*
X204808020Y-71516666D01*
X204808020Y-71516666D02*
X204855640Y-71469047D01*
X204855640Y-71469047D02*
X204903259Y-71373809D01*
X204903259Y-71373809D02*
X204903259Y-71278571D01*
X204903259Y-71278571D02*
X204855640Y-71183333D01*
X204855640Y-71183333D02*
X204808020Y-71135714D01*
X204808020Y-71135714D02*
X204712782Y-71088095D01*
X204712782Y-71088095D02*
X204522306Y-71040476D01*
X204522306Y-71040476D02*
X204284211Y-71040476D01*
X204284211Y-71040476D02*
X204093735Y-71088095D01*
X204093735Y-71088095D02*
X203998497Y-71135714D01*
X203998497Y-71135714D02*
X203950878Y-71183333D01*
X203950878Y-71183333D02*
X203903259Y-71278571D01*
X73103259Y-67911905D02*
X72103259Y-67911905D01*
X72103259Y-67911905D02*
X72103259Y-68150000D01*
X72103259Y-68150000D02*
X72150878Y-68292857D01*
X72150878Y-68292857D02*
X72246116Y-68388095D01*
X72246116Y-68388095D02*
X72341354Y-68435714D01*
X72341354Y-68435714D02*
X72531830Y-68483333D01*
X72531830Y-68483333D02*
X72674687Y-68483333D01*
X72674687Y-68483333D02*
X72865163Y-68435714D01*
X72865163Y-68435714D02*
X72960401Y-68388095D01*
X72960401Y-68388095D02*
X73055640Y-68292857D01*
X73055640Y-68292857D02*
X73103259Y-68150000D01*
X73103259Y-68150000D02*
X73103259Y-67911905D01*
X72436592Y-69340476D02*
X73103259Y-69340476D01*
X72055640Y-69102381D02*
X72769925Y-68864286D01*
X72769925Y-68864286D02*
X72769925Y-69483333D01*
X104264285Y-95603259D02*
X104264285Y-94603259D01*
X104264285Y-94603259D02*
X104026190Y-94603259D01*
X104026190Y-94603259D02*
X103883333Y-94650878D01*
X103883333Y-94650878D02*
X103788095Y-94746116D01*
X103788095Y-94746116D02*
X103740476Y-94841354D01*
X103740476Y-94841354D02*
X103692857Y-95031830D01*
X103692857Y-95031830D02*
X103692857Y-95174687D01*
X103692857Y-95174687D02*
X103740476Y-95365163D01*
X103740476Y-95365163D02*
X103788095Y-95460401D01*
X103788095Y-95460401D02*
X103883333Y-95555640D01*
X103883333Y-95555640D02*
X104026190Y-95603259D01*
X104026190Y-95603259D02*
X104264285Y-95603259D01*
X103359523Y-94603259D02*
X102740476Y-94603259D01*
X102740476Y-94603259D02*
X103073809Y-94984211D01*
X103073809Y-94984211D02*
X102930952Y-94984211D01*
X102930952Y-94984211D02*
X102835714Y-95031830D01*
X102835714Y-95031830D02*
X102788095Y-95079449D01*
X102788095Y-95079449D02*
X102740476Y-95174687D01*
X102740476Y-95174687D02*
X102740476Y-95412782D01*
X102740476Y-95412782D02*
X102788095Y-95508020D01*
X102788095Y-95508020D02*
X102835714Y-95555640D01*
X102835714Y-95555640D02*
X102930952Y-95603259D01*
X102930952Y-95603259D02*
X103216666Y-95603259D01*
X103216666Y-95603259D02*
X103311904Y-95555640D01*
X103311904Y-95555640D02*
X103359523Y-95508020D01*
X101883333Y-94936592D02*
X101883333Y-95603259D01*
X102121428Y-94555640D02*
X102359523Y-95269925D01*
X102359523Y-95269925D02*
X101740476Y-95269925D01*
X73503259Y-141411905D02*
X72503259Y-141411905D01*
X72503259Y-141411905D02*
X72503259Y-141650000D01*
X72503259Y-141650000D02*
X72550878Y-141792857D01*
X72550878Y-141792857D02*
X72646116Y-141888095D01*
X72646116Y-141888095D02*
X72741354Y-141935714D01*
X72741354Y-141935714D02*
X72931830Y-141983333D01*
X72931830Y-141983333D02*
X73074687Y-141983333D01*
X73074687Y-141983333D02*
X73265163Y-141935714D01*
X73265163Y-141935714D02*
X73360401Y-141888095D01*
X73360401Y-141888095D02*
X73455640Y-141792857D01*
X73455640Y-141792857D02*
X73503259Y-141650000D01*
X73503259Y-141650000D02*
X73503259Y-141411905D01*
X72503259Y-142840476D02*
X72503259Y-142650000D01*
X72503259Y-142650000D02*
X72550878Y-142554762D01*
X72550878Y-142554762D02*
X72598497Y-142507143D01*
X72598497Y-142507143D02*
X72741354Y-142411905D01*
X72741354Y-142411905D02*
X72931830Y-142364286D01*
X72931830Y-142364286D02*
X73312782Y-142364286D01*
X73312782Y-142364286D02*
X73408020Y-142411905D01*
X73408020Y-142411905D02*
X73455640Y-142459524D01*
X73455640Y-142459524D02*
X73503259Y-142554762D01*
X73503259Y-142554762D02*
X73503259Y-142745238D01*
X73503259Y-142745238D02*
X73455640Y-142840476D01*
X73455640Y-142840476D02*
X73408020Y-142888095D01*
X73408020Y-142888095D02*
X73312782Y-142935714D01*
X73312782Y-142935714D02*
X73074687Y-142935714D01*
X73074687Y-142935714D02*
X72979449Y-142888095D01*
X72979449Y-142888095D02*
X72931830Y-142840476D01*
X72931830Y-142840476D02*
X72884211Y-142745238D01*
X72884211Y-142745238D02*
X72884211Y-142554762D01*
X72884211Y-142554762D02*
X72931830Y-142459524D01*
X72931830Y-142459524D02*
X72979449Y-142411905D01*
X72979449Y-142411905D02*
X73074687Y-142364286D01*
X185503259Y-104335714D02*
X184503259Y-104335714D01*
X184503259Y-104335714D02*
X184503259Y-104573809D01*
X184503259Y-104573809D02*
X184550878Y-104716666D01*
X184550878Y-104716666D02*
X184646116Y-104811904D01*
X184646116Y-104811904D02*
X184741354Y-104859523D01*
X184741354Y-104859523D02*
X184931830Y-104907142D01*
X184931830Y-104907142D02*
X185074687Y-104907142D01*
X185074687Y-104907142D02*
X185265163Y-104859523D01*
X185265163Y-104859523D02*
X185360401Y-104811904D01*
X185360401Y-104811904D02*
X185455640Y-104716666D01*
X185455640Y-104716666D02*
X185503259Y-104573809D01*
X185503259Y-104573809D02*
X185503259Y-104335714D01*
X184598497Y-105288095D02*
X184550878Y-105335714D01*
X184550878Y-105335714D02*
X184503259Y-105430952D01*
X184503259Y-105430952D02*
X184503259Y-105669047D01*
X184503259Y-105669047D02*
X184550878Y-105764285D01*
X184550878Y-105764285D02*
X184598497Y-105811904D01*
X184598497Y-105811904D02*
X184693735Y-105859523D01*
X184693735Y-105859523D02*
X184788973Y-105859523D01*
X184788973Y-105859523D02*
X184931830Y-105811904D01*
X184931830Y-105811904D02*
X185503259Y-105240476D01*
X185503259Y-105240476D02*
X185503259Y-105859523D01*
X185503259Y-106335714D02*
X185503259Y-106526190D01*
X185503259Y-106526190D02*
X185455640Y-106621428D01*
X185455640Y-106621428D02*
X185408020Y-106669047D01*
X185408020Y-106669047D02*
X185265163Y-106764285D01*
X185265163Y-106764285D02*
X185074687Y-106811904D01*
X185074687Y-106811904D02*
X184693735Y-106811904D01*
X184693735Y-106811904D02*
X184598497Y-106764285D01*
X184598497Y-106764285D02*
X184550878Y-106716666D01*
X184550878Y-106716666D02*
X184503259Y-106621428D01*
X184503259Y-106621428D02*
X184503259Y-106430952D01*
X184503259Y-106430952D02*
X184550878Y-106335714D01*
X184550878Y-106335714D02*
X184598497Y-106288095D01*
X184598497Y-106288095D02*
X184693735Y-106240476D01*
X184693735Y-106240476D02*
X184931830Y-106240476D01*
X184931830Y-106240476D02*
X185027068Y-106288095D01*
X185027068Y-106288095D02*
X185074687Y-106335714D01*
X185074687Y-106335714D02*
X185122306Y-106430952D01*
X185122306Y-106430952D02*
X185122306Y-106621428D01*
X185122306Y-106621428D02*
X185074687Y-106716666D01*
X185074687Y-106716666D02*
X185027068Y-106764285D01*
X185027068Y-106764285D02*
X184931830Y-106811904D01*
X91603259Y-45911905D02*
X90603259Y-45911905D01*
X90603259Y-45911905D02*
X90603259Y-46150000D01*
X90603259Y-46150000D02*
X90650878Y-46292857D01*
X90650878Y-46292857D02*
X90746116Y-46388095D01*
X90746116Y-46388095D02*
X90841354Y-46435714D01*
X90841354Y-46435714D02*
X91031830Y-46483333D01*
X91031830Y-46483333D02*
X91174687Y-46483333D01*
X91174687Y-46483333D02*
X91365163Y-46435714D01*
X91365163Y-46435714D02*
X91460401Y-46388095D01*
X91460401Y-46388095D02*
X91555640Y-46292857D01*
X91555640Y-46292857D02*
X91603259Y-46150000D01*
X91603259Y-46150000D02*
X91603259Y-45911905D01*
X90603259Y-46816667D02*
X90603259Y-47483333D01*
X90603259Y-47483333D02*
X91603259Y-47054762D01*
X224198497Y-119554761D02*
X224150878Y-119459523D01*
X224150878Y-119459523D02*
X224055640Y-119364285D01*
X224055640Y-119364285D02*
X223912782Y-119221428D01*
X223912782Y-119221428D02*
X223865163Y-119126190D01*
X223865163Y-119126190D02*
X223865163Y-119030952D01*
X224103259Y-119078571D02*
X224055640Y-118983333D01*
X224055640Y-118983333D02*
X223960401Y-118888095D01*
X223960401Y-118888095D02*
X223769925Y-118840476D01*
X223769925Y-118840476D02*
X223436592Y-118840476D01*
X223436592Y-118840476D02*
X223246116Y-118888095D01*
X223246116Y-118888095D02*
X223150878Y-118983333D01*
X223150878Y-118983333D02*
X223103259Y-119078571D01*
X223103259Y-119078571D02*
X223103259Y-119269047D01*
X223103259Y-119269047D02*
X223150878Y-119364285D01*
X223150878Y-119364285D02*
X223246116Y-119459523D01*
X223246116Y-119459523D02*
X223436592Y-119507142D01*
X223436592Y-119507142D02*
X223769925Y-119507142D01*
X223769925Y-119507142D02*
X223960401Y-119459523D01*
X223960401Y-119459523D02*
X224055640Y-119364285D01*
X224055640Y-119364285D02*
X224103259Y-119269047D01*
X224103259Y-119269047D02*
X224103259Y-119078571D01*
X224103259Y-120459523D02*
X224103259Y-119888095D01*
X224103259Y-120173809D02*
X223103259Y-120173809D01*
X223103259Y-120173809D02*
X223246116Y-120078571D01*
X223246116Y-120078571D02*
X223341354Y-119983333D01*
X223341354Y-119983333D02*
X223388973Y-119888095D01*
X74507142Y-108691979D02*
X74459523Y-108644360D01*
X74459523Y-108644360D02*
X74316666Y-108596740D01*
X74316666Y-108596740D02*
X74221428Y-108596740D01*
X74221428Y-108596740D02*
X74078571Y-108644360D01*
X74078571Y-108644360D02*
X73983333Y-108739598D01*
X73983333Y-108739598D02*
X73935714Y-108834836D01*
X73935714Y-108834836D02*
X73888095Y-109025312D01*
X73888095Y-109025312D02*
X73888095Y-109168169D01*
X73888095Y-109168169D02*
X73935714Y-109358645D01*
X73935714Y-109358645D02*
X73983333Y-109453883D01*
X73983333Y-109453883D02*
X74078571Y-109549121D01*
X74078571Y-109549121D02*
X74221428Y-109596740D01*
X74221428Y-109596740D02*
X74316666Y-109596740D01*
X74316666Y-109596740D02*
X74459523Y-109549121D01*
X74459523Y-109549121D02*
X74507142Y-109501502D01*
X75459523Y-108596740D02*
X74888095Y-108596740D01*
X75173809Y-108596740D02*
X75173809Y-109596740D01*
X75173809Y-109596740D02*
X75078571Y-109453883D01*
X75078571Y-109453883D02*
X74983333Y-109358645D01*
X74983333Y-109358645D02*
X74888095Y-109311026D01*
X76364285Y-109596740D02*
X75888095Y-109596740D01*
X75888095Y-109596740D02*
X75840476Y-109120550D01*
X75840476Y-109120550D02*
X75888095Y-109168169D01*
X75888095Y-109168169D02*
X75983333Y-109215788D01*
X75983333Y-109215788D02*
X76221428Y-109215788D01*
X76221428Y-109215788D02*
X76316666Y-109168169D01*
X76316666Y-109168169D02*
X76364285Y-109120550D01*
X76364285Y-109120550D02*
X76411904Y-109025312D01*
X76411904Y-109025312D02*
X76411904Y-108787217D01*
X76411904Y-108787217D02*
X76364285Y-108691979D01*
X76364285Y-108691979D02*
X76316666Y-108644360D01*
X76316666Y-108644360D02*
X76221428Y-108596740D01*
X76221428Y-108596740D02*
X75983333Y-108596740D01*
X75983333Y-108596740D02*
X75888095Y-108644360D01*
X75888095Y-108644360D02*
X75840476Y-108691979D01*
X73303259Y-87111905D02*
X72303259Y-87111905D01*
X72303259Y-87111905D02*
X72303259Y-87350000D01*
X72303259Y-87350000D02*
X72350878Y-87492857D01*
X72350878Y-87492857D02*
X72446116Y-87588095D01*
X72446116Y-87588095D02*
X72541354Y-87635714D01*
X72541354Y-87635714D02*
X72731830Y-87683333D01*
X72731830Y-87683333D02*
X72874687Y-87683333D01*
X72874687Y-87683333D02*
X73065163Y-87635714D01*
X73065163Y-87635714D02*
X73160401Y-87588095D01*
X73160401Y-87588095D02*
X73255640Y-87492857D01*
X73255640Y-87492857D02*
X73303259Y-87350000D01*
X73303259Y-87350000D02*
X73303259Y-87111905D01*
X72303259Y-88588095D02*
X72303259Y-88111905D01*
X72303259Y-88111905D02*
X72779449Y-88064286D01*
X72779449Y-88064286D02*
X72731830Y-88111905D01*
X72731830Y-88111905D02*
X72684211Y-88207143D01*
X72684211Y-88207143D02*
X72684211Y-88445238D01*
X72684211Y-88445238D02*
X72731830Y-88540476D01*
X72731830Y-88540476D02*
X72779449Y-88588095D01*
X72779449Y-88588095D02*
X72874687Y-88635714D01*
X72874687Y-88635714D02*
X73112782Y-88635714D01*
X73112782Y-88635714D02*
X73208020Y-88588095D01*
X73208020Y-88588095D02*
X73255640Y-88540476D01*
X73255640Y-88540476D02*
X73303259Y-88445238D01*
X73303259Y-88445238D02*
X73303259Y-88207143D01*
X73303259Y-88207143D02*
X73255640Y-88111905D01*
X73255640Y-88111905D02*
X73208020Y-88064286D01*
X186503259Y-123935714D02*
X185503259Y-123935714D01*
X185503259Y-123935714D02*
X185503259Y-124173809D01*
X185503259Y-124173809D02*
X185550878Y-124316666D01*
X185550878Y-124316666D02*
X185646116Y-124411904D01*
X185646116Y-124411904D02*
X185741354Y-124459523D01*
X185741354Y-124459523D02*
X185931830Y-124507142D01*
X185931830Y-124507142D02*
X186074687Y-124507142D01*
X186074687Y-124507142D02*
X186265163Y-124459523D01*
X186265163Y-124459523D02*
X186360401Y-124411904D01*
X186360401Y-124411904D02*
X186455640Y-124316666D01*
X186455640Y-124316666D02*
X186503259Y-124173809D01*
X186503259Y-124173809D02*
X186503259Y-123935714D01*
X185598497Y-124888095D02*
X185550878Y-124935714D01*
X185550878Y-124935714D02*
X185503259Y-125030952D01*
X185503259Y-125030952D02*
X185503259Y-125269047D01*
X185503259Y-125269047D02*
X185550878Y-125364285D01*
X185550878Y-125364285D02*
X185598497Y-125411904D01*
X185598497Y-125411904D02*
X185693735Y-125459523D01*
X185693735Y-125459523D02*
X185788973Y-125459523D01*
X185788973Y-125459523D02*
X185931830Y-125411904D01*
X185931830Y-125411904D02*
X186503259Y-124840476D01*
X186503259Y-124840476D02*
X186503259Y-125459523D01*
X185503259Y-126316666D02*
X185503259Y-126126190D01*
X185503259Y-126126190D02*
X185550878Y-126030952D01*
X185550878Y-126030952D02*
X185598497Y-125983333D01*
X185598497Y-125983333D02*
X185741354Y-125888095D01*
X185741354Y-125888095D02*
X185931830Y-125840476D01*
X185931830Y-125840476D02*
X186312782Y-125840476D01*
X186312782Y-125840476D02*
X186408020Y-125888095D01*
X186408020Y-125888095D02*
X186455640Y-125935714D01*
X186455640Y-125935714D02*
X186503259Y-126030952D01*
X186503259Y-126030952D02*
X186503259Y-126221428D01*
X186503259Y-126221428D02*
X186455640Y-126316666D01*
X186455640Y-126316666D02*
X186408020Y-126364285D01*
X186408020Y-126364285D02*
X186312782Y-126411904D01*
X186312782Y-126411904D02*
X186074687Y-126411904D01*
X186074687Y-126411904D02*
X185979449Y-126364285D01*
X185979449Y-126364285D02*
X185931830Y-126316666D01*
X185931830Y-126316666D02*
X185884211Y-126221428D01*
X185884211Y-126221428D02*
X185884211Y-126030952D01*
X185884211Y-126030952D02*
X185931830Y-125935714D01*
X185931830Y-125935714D02*
X185979449Y-125888095D01*
X185979449Y-125888095D02*
X186074687Y-125840476D01*
X219803259Y-119107142D02*
X219327068Y-118773809D01*
X219803259Y-118535714D02*
X218803259Y-118535714D01*
X218803259Y-118535714D02*
X218803259Y-118916666D01*
X218803259Y-118916666D02*
X218850878Y-119011904D01*
X218850878Y-119011904D02*
X218898497Y-119059523D01*
X218898497Y-119059523D02*
X218993735Y-119107142D01*
X218993735Y-119107142D02*
X219136592Y-119107142D01*
X219136592Y-119107142D02*
X219231830Y-119059523D01*
X219231830Y-119059523D02*
X219279449Y-119011904D01*
X219279449Y-119011904D02*
X219327068Y-118916666D01*
X219327068Y-118916666D02*
X219327068Y-118535714D01*
X218898497Y-119488095D02*
X218850878Y-119535714D01*
X218850878Y-119535714D02*
X218803259Y-119630952D01*
X218803259Y-119630952D02*
X218803259Y-119869047D01*
X218803259Y-119869047D02*
X218850878Y-119964285D01*
X218850878Y-119964285D02*
X218898497Y-120011904D01*
X218898497Y-120011904D02*
X218993735Y-120059523D01*
X218993735Y-120059523D02*
X219088973Y-120059523D01*
X219088973Y-120059523D02*
X219231830Y-120011904D01*
X219231830Y-120011904D02*
X219803259Y-119440476D01*
X219803259Y-119440476D02*
X219803259Y-120059523D01*
X218898497Y-120440476D02*
X218850878Y-120488095D01*
X218850878Y-120488095D02*
X218803259Y-120583333D01*
X218803259Y-120583333D02*
X218803259Y-120821428D01*
X218803259Y-120821428D02*
X218850878Y-120916666D01*
X218850878Y-120916666D02*
X218898497Y-120964285D01*
X218898497Y-120964285D02*
X218993735Y-121011904D01*
X218993735Y-121011904D02*
X219088973Y-121011904D01*
X219088973Y-121011904D02*
X219231830Y-120964285D01*
X219231830Y-120964285D02*
X219803259Y-120392857D01*
X219803259Y-120392857D02*
X219803259Y-121011904D01*
X110303259Y-86535714D02*
X109303259Y-86535714D01*
X109303259Y-86535714D02*
X109303259Y-86773809D01*
X109303259Y-86773809D02*
X109350878Y-86916666D01*
X109350878Y-86916666D02*
X109446116Y-87011904D01*
X109446116Y-87011904D02*
X109541354Y-87059523D01*
X109541354Y-87059523D02*
X109731830Y-87107142D01*
X109731830Y-87107142D02*
X109874687Y-87107142D01*
X109874687Y-87107142D02*
X110065163Y-87059523D01*
X110065163Y-87059523D02*
X110160401Y-87011904D01*
X110160401Y-87011904D02*
X110255640Y-86916666D01*
X110255640Y-86916666D02*
X110303259Y-86773809D01*
X110303259Y-86773809D02*
X110303259Y-86535714D01*
X110303259Y-88059523D02*
X110303259Y-87488095D01*
X110303259Y-87773809D02*
X109303259Y-87773809D01*
X109303259Y-87773809D02*
X109446116Y-87678571D01*
X109446116Y-87678571D02*
X109541354Y-87583333D01*
X109541354Y-87583333D02*
X109588973Y-87488095D01*
X109636592Y-88916666D02*
X110303259Y-88916666D01*
X109255640Y-88678571D02*
X109969925Y-88440476D01*
X109969925Y-88440476D02*
X109969925Y-89059523D01*
X131508020Y-94283333D02*
X131555640Y-94235714D01*
X131555640Y-94235714D02*
X131603259Y-94092857D01*
X131603259Y-94092857D02*
X131603259Y-93997619D01*
X131603259Y-93997619D02*
X131555640Y-93854762D01*
X131555640Y-93854762D02*
X131460401Y-93759524D01*
X131460401Y-93759524D02*
X131365163Y-93711905D01*
X131365163Y-93711905D02*
X131174687Y-93664286D01*
X131174687Y-93664286D02*
X131031830Y-93664286D01*
X131031830Y-93664286D02*
X130841354Y-93711905D01*
X130841354Y-93711905D02*
X130746116Y-93759524D01*
X130746116Y-93759524D02*
X130650878Y-93854762D01*
X130650878Y-93854762D02*
X130603259Y-93997619D01*
X130603259Y-93997619D02*
X130603259Y-94092857D01*
X130603259Y-94092857D02*
X130650878Y-94235714D01*
X130650878Y-94235714D02*
X130698497Y-94283333D01*
X131603259Y-95235714D02*
X131603259Y-94664286D01*
X131603259Y-94950000D02*
X130603259Y-94950000D01*
X130603259Y-94950000D02*
X130746116Y-94854762D01*
X130746116Y-94854762D02*
X130841354Y-94759524D01*
X130841354Y-94759524D02*
X130888973Y-94664286D01*
X110103259Y-67535714D02*
X109103259Y-67535714D01*
X109103259Y-67535714D02*
X109103259Y-67773809D01*
X109103259Y-67773809D02*
X109150878Y-67916666D01*
X109150878Y-67916666D02*
X109246116Y-68011904D01*
X109246116Y-68011904D02*
X109341354Y-68059523D01*
X109341354Y-68059523D02*
X109531830Y-68107142D01*
X109531830Y-68107142D02*
X109674687Y-68107142D01*
X109674687Y-68107142D02*
X109865163Y-68059523D01*
X109865163Y-68059523D02*
X109960401Y-68011904D01*
X109960401Y-68011904D02*
X110055640Y-67916666D01*
X110055640Y-67916666D02*
X110103259Y-67773809D01*
X110103259Y-67773809D02*
X110103259Y-67535714D01*
X110103259Y-69059523D02*
X110103259Y-68488095D01*
X110103259Y-68773809D02*
X109103259Y-68773809D01*
X109103259Y-68773809D02*
X109246116Y-68678571D01*
X109246116Y-68678571D02*
X109341354Y-68583333D01*
X109341354Y-68583333D02*
X109388973Y-68488095D01*
X109103259Y-69392857D02*
X109103259Y-70011904D01*
X109103259Y-70011904D02*
X109484211Y-69678571D01*
X109484211Y-69678571D02*
X109484211Y-69821428D01*
X109484211Y-69821428D02*
X109531830Y-69916666D01*
X109531830Y-69916666D02*
X109579449Y-69964285D01*
X109579449Y-69964285D02*
X109674687Y-70011904D01*
X109674687Y-70011904D02*
X109912782Y-70011904D01*
X109912782Y-70011904D02*
X110008020Y-69964285D01*
X110008020Y-69964285D02*
X110055640Y-69916666D01*
X110055640Y-69916666D02*
X110103259Y-69821428D01*
X110103259Y-69821428D02*
X110103259Y-69535714D01*
X110103259Y-69535714D02*
X110055640Y-69440476D01*
X110055640Y-69440476D02*
X110008020Y-69392857D01*
X139708020Y-107083333D02*
X139755640Y-107035714D01*
X139755640Y-107035714D02*
X139803259Y-106892857D01*
X139803259Y-106892857D02*
X139803259Y-106797619D01*
X139803259Y-106797619D02*
X139755640Y-106654762D01*
X139755640Y-106654762D02*
X139660401Y-106559524D01*
X139660401Y-106559524D02*
X139565163Y-106511905D01*
X139565163Y-106511905D02*
X139374687Y-106464286D01*
X139374687Y-106464286D02*
X139231830Y-106464286D01*
X139231830Y-106464286D02*
X139041354Y-106511905D01*
X139041354Y-106511905D02*
X138946116Y-106559524D01*
X138946116Y-106559524D02*
X138850878Y-106654762D01*
X138850878Y-106654762D02*
X138803259Y-106797619D01*
X138803259Y-106797619D02*
X138803259Y-106892857D01*
X138803259Y-106892857D02*
X138850878Y-107035714D01*
X138850878Y-107035714D02*
X138898497Y-107083333D01*
X138803259Y-107940476D02*
X138803259Y-107750000D01*
X138803259Y-107750000D02*
X138850878Y-107654762D01*
X138850878Y-107654762D02*
X138898497Y-107607143D01*
X138898497Y-107607143D02*
X139041354Y-107511905D01*
X139041354Y-107511905D02*
X139231830Y-107464286D01*
X139231830Y-107464286D02*
X139612782Y-107464286D01*
X139612782Y-107464286D02*
X139708020Y-107511905D01*
X139708020Y-107511905D02*
X139755640Y-107559524D01*
X139755640Y-107559524D02*
X139803259Y-107654762D01*
X139803259Y-107654762D02*
X139803259Y-107845238D01*
X139803259Y-107845238D02*
X139755640Y-107940476D01*
X139755640Y-107940476D02*
X139708020Y-107988095D01*
X139708020Y-107988095D02*
X139612782Y-108035714D01*
X139612782Y-108035714D02*
X139374687Y-108035714D01*
X139374687Y-108035714D02*
X139279449Y-107988095D01*
X139279449Y-107988095D02*
X139231830Y-107940476D01*
X139231830Y-107940476D02*
X139184211Y-107845238D01*
X139184211Y-107845238D02*
X139184211Y-107654762D01*
X139184211Y-107654762D02*
X139231830Y-107559524D01*
X139231830Y-107559524D02*
X139279449Y-107511905D01*
X139279449Y-107511905D02*
X139374687Y-107464286D01*
X201264285Y-83403259D02*
X201264285Y-82403259D01*
X201264285Y-82403259D02*
X201026190Y-82403259D01*
X201026190Y-82403259D02*
X200883333Y-82450878D01*
X200883333Y-82450878D02*
X200788095Y-82546116D01*
X200788095Y-82546116D02*
X200740476Y-82641354D01*
X200740476Y-82641354D02*
X200692857Y-82831830D01*
X200692857Y-82831830D02*
X200692857Y-82974687D01*
X200692857Y-82974687D02*
X200740476Y-83165163D01*
X200740476Y-83165163D02*
X200788095Y-83260401D01*
X200788095Y-83260401D02*
X200883333Y-83355640D01*
X200883333Y-83355640D02*
X201026190Y-83403259D01*
X201026190Y-83403259D02*
X201264285Y-83403259D01*
X200359523Y-82403259D02*
X199740476Y-82403259D01*
X199740476Y-82403259D02*
X200073809Y-82784211D01*
X200073809Y-82784211D02*
X199930952Y-82784211D01*
X199930952Y-82784211D02*
X199835714Y-82831830D01*
X199835714Y-82831830D02*
X199788095Y-82879449D01*
X199788095Y-82879449D02*
X199740476Y-82974687D01*
X199740476Y-82974687D02*
X199740476Y-83212782D01*
X199740476Y-83212782D02*
X199788095Y-83308020D01*
X199788095Y-83308020D02*
X199835714Y-83355640D01*
X199835714Y-83355640D02*
X199930952Y-83403259D01*
X199930952Y-83403259D02*
X200216666Y-83403259D01*
X200216666Y-83403259D02*
X200311904Y-83355640D01*
X200311904Y-83355640D02*
X200359523Y-83308020D01*
X198788095Y-83403259D02*
X199359523Y-83403259D01*
X199073809Y-83403259D02*
X199073809Y-82403259D01*
X199073809Y-82403259D02*
X199169047Y-82546116D01*
X199169047Y-82546116D02*
X199264285Y-82641354D01*
X199264285Y-82641354D02*
X199359523Y-82688973D01*
X128116666Y-107008020D02*
X128164285Y-107055640D01*
X128164285Y-107055640D02*
X128307142Y-107103259D01*
X128307142Y-107103259D02*
X128402380Y-107103259D01*
X128402380Y-107103259D02*
X128545237Y-107055640D01*
X128545237Y-107055640D02*
X128640475Y-106960401D01*
X128640475Y-106960401D02*
X128688094Y-106865163D01*
X128688094Y-106865163D02*
X128735713Y-106674687D01*
X128735713Y-106674687D02*
X128735713Y-106531830D01*
X128735713Y-106531830D02*
X128688094Y-106341354D01*
X128688094Y-106341354D02*
X128640475Y-106246116D01*
X128640475Y-106246116D02*
X128545237Y-106150878D01*
X128545237Y-106150878D02*
X128402380Y-106103259D01*
X128402380Y-106103259D02*
X128307142Y-106103259D01*
X128307142Y-106103259D02*
X128164285Y-106150878D01*
X128164285Y-106150878D02*
X128116666Y-106198497D01*
X127259523Y-106436592D02*
X127259523Y-107103259D01*
X127497618Y-106055640D02*
X127735713Y-106769925D01*
X127735713Y-106769925D02*
X127116666Y-106769925D01*
X222129107Y-111308020D02*
X222176726Y-111355640D01*
X222176726Y-111355640D02*
X222319583Y-111403259D01*
X222319583Y-111403259D02*
X222414821Y-111403259D01*
X222414821Y-111403259D02*
X222557678Y-111355640D01*
X222557678Y-111355640D02*
X222652916Y-111260401D01*
X222652916Y-111260401D02*
X222700535Y-111165163D01*
X222700535Y-111165163D02*
X222748154Y-110974687D01*
X222748154Y-110974687D02*
X222748154Y-110831830D01*
X222748154Y-110831830D02*
X222700535Y-110641354D01*
X222700535Y-110641354D02*
X222652916Y-110546116D01*
X222652916Y-110546116D02*
X222557678Y-110450878D01*
X222557678Y-110450878D02*
X222414821Y-110403259D01*
X222414821Y-110403259D02*
X222319583Y-110403259D01*
X222319583Y-110403259D02*
X222176726Y-110450878D01*
X222176726Y-110450878D02*
X222129107Y-110498497D01*
X221748154Y-110498497D02*
X221700535Y-110450878D01*
X221700535Y-110450878D02*
X221605297Y-110403259D01*
X221605297Y-110403259D02*
X221367202Y-110403259D01*
X221367202Y-110403259D02*
X221271964Y-110450878D01*
X221271964Y-110450878D02*
X221224345Y-110498497D01*
X221224345Y-110498497D02*
X221176726Y-110593735D01*
X221176726Y-110593735D02*
X221176726Y-110688973D01*
X221176726Y-110688973D02*
X221224345Y-110831830D01*
X221224345Y-110831830D02*
X221795773Y-111403259D01*
X221795773Y-111403259D02*
X221176726Y-111403259D01*
X220605297Y-110831830D02*
X220700535Y-110784211D01*
X220700535Y-110784211D02*
X220748154Y-110736592D01*
X220748154Y-110736592D02*
X220795773Y-110641354D01*
X220795773Y-110641354D02*
X220795773Y-110593735D01*
X220795773Y-110593735D02*
X220748154Y-110498497D01*
X220748154Y-110498497D02*
X220700535Y-110450878D01*
X220700535Y-110450878D02*
X220605297Y-110403259D01*
X220605297Y-110403259D02*
X220414821Y-110403259D01*
X220414821Y-110403259D02*
X220319583Y-110450878D01*
X220319583Y-110450878D02*
X220271964Y-110498497D01*
X220271964Y-110498497D02*
X220224345Y-110593735D01*
X220224345Y-110593735D02*
X220224345Y-110641354D01*
X220224345Y-110641354D02*
X220271964Y-110736592D01*
X220271964Y-110736592D02*
X220319583Y-110784211D01*
X220319583Y-110784211D02*
X220414821Y-110831830D01*
X220414821Y-110831830D02*
X220605297Y-110831830D01*
X220605297Y-110831830D02*
X220700535Y-110879449D01*
X220700535Y-110879449D02*
X220748154Y-110927068D01*
X220748154Y-110927068D02*
X220795773Y-111022306D01*
X220795773Y-111022306D02*
X220795773Y-111212782D01*
X220795773Y-111212782D02*
X220748154Y-111308020D01*
X220748154Y-111308020D02*
X220700535Y-111355640D01*
X220700535Y-111355640D02*
X220605297Y-111403259D01*
X220605297Y-111403259D02*
X220414821Y-111403259D01*
X220414821Y-111403259D02*
X220319583Y-111355640D01*
X220319583Y-111355640D02*
X220271964Y-111308020D01*
X220271964Y-111308020D02*
X220224345Y-111212782D01*
X220224345Y-111212782D02*
X220224345Y-111022306D01*
X220224345Y-111022306D02*
X220271964Y-110927068D01*
X220271964Y-110927068D02*
X220319583Y-110879449D01*
X220319583Y-110879449D02*
X220414821Y-110831830D01*
X149603259Y-85435714D02*
X148603259Y-85435714D01*
X148603259Y-85435714D02*
X148603259Y-85673809D01*
X148603259Y-85673809D02*
X148650878Y-85816666D01*
X148650878Y-85816666D02*
X148746116Y-85911904D01*
X148746116Y-85911904D02*
X148841354Y-85959523D01*
X148841354Y-85959523D02*
X149031830Y-86007142D01*
X149031830Y-86007142D02*
X149174687Y-86007142D01*
X149174687Y-86007142D02*
X149365163Y-85959523D01*
X149365163Y-85959523D02*
X149460401Y-85911904D01*
X149460401Y-85911904D02*
X149555640Y-85816666D01*
X149555640Y-85816666D02*
X149603259Y-85673809D01*
X149603259Y-85673809D02*
X149603259Y-85435714D01*
X149603259Y-86959523D02*
X149603259Y-86388095D01*
X149603259Y-86673809D02*
X148603259Y-86673809D01*
X148603259Y-86673809D02*
X148746116Y-86578571D01*
X148746116Y-86578571D02*
X148841354Y-86483333D01*
X148841354Y-86483333D02*
X148888973Y-86388095D01*
X148603259Y-87292857D02*
X148603259Y-87959523D01*
X148603259Y-87959523D02*
X149603259Y-87530952D01*
X168203259Y-124035714D02*
X167203259Y-124035714D01*
X167203259Y-124035714D02*
X167203259Y-124273809D01*
X167203259Y-124273809D02*
X167250878Y-124416666D01*
X167250878Y-124416666D02*
X167346116Y-124511904D01*
X167346116Y-124511904D02*
X167441354Y-124559523D01*
X167441354Y-124559523D02*
X167631830Y-124607142D01*
X167631830Y-124607142D02*
X167774687Y-124607142D01*
X167774687Y-124607142D02*
X167965163Y-124559523D01*
X167965163Y-124559523D02*
X168060401Y-124511904D01*
X168060401Y-124511904D02*
X168155640Y-124416666D01*
X168155640Y-124416666D02*
X168203259Y-124273809D01*
X168203259Y-124273809D02*
X168203259Y-124035714D01*
X167298497Y-124988095D02*
X167250878Y-125035714D01*
X167250878Y-125035714D02*
X167203259Y-125130952D01*
X167203259Y-125130952D02*
X167203259Y-125369047D01*
X167203259Y-125369047D02*
X167250878Y-125464285D01*
X167250878Y-125464285D02*
X167298497Y-125511904D01*
X167298497Y-125511904D02*
X167393735Y-125559523D01*
X167393735Y-125559523D02*
X167488973Y-125559523D01*
X167488973Y-125559523D02*
X167631830Y-125511904D01*
X167631830Y-125511904D02*
X168203259Y-124940476D01*
X168203259Y-124940476D02*
X168203259Y-125559523D01*
X167536592Y-126416666D02*
X168203259Y-126416666D01*
X167155640Y-126178571D02*
X167869925Y-125940476D01*
X167869925Y-125940476D02*
X167869925Y-126559523D01*
X92503259Y-140935714D02*
X91503259Y-140935714D01*
X91503259Y-140935714D02*
X91503259Y-141173809D01*
X91503259Y-141173809D02*
X91550878Y-141316666D01*
X91550878Y-141316666D02*
X91646116Y-141411904D01*
X91646116Y-141411904D02*
X91741354Y-141459523D01*
X91741354Y-141459523D02*
X91931830Y-141507142D01*
X91931830Y-141507142D02*
X92074687Y-141507142D01*
X92074687Y-141507142D02*
X92265163Y-141459523D01*
X92265163Y-141459523D02*
X92360401Y-141411904D01*
X92360401Y-141411904D02*
X92455640Y-141316666D01*
X92455640Y-141316666D02*
X92503259Y-141173809D01*
X92503259Y-141173809D02*
X92503259Y-140935714D01*
X92503259Y-142459523D02*
X92503259Y-141888095D01*
X92503259Y-142173809D02*
X91503259Y-142173809D01*
X91503259Y-142173809D02*
X91646116Y-142078571D01*
X91646116Y-142078571D02*
X91741354Y-141983333D01*
X91741354Y-141983333D02*
X91788973Y-141888095D01*
X92503259Y-143411904D02*
X92503259Y-142840476D01*
X92503259Y-143126190D02*
X91503259Y-143126190D01*
X91503259Y-143126190D02*
X91646116Y-143030952D01*
X91646116Y-143030952D02*
X91741354Y-142935714D01*
X91741354Y-142935714D02*
X91788973Y-142840476D01*
X225630357Y-107008020D02*
X225677976Y-107055640D01*
X225677976Y-107055640D02*
X225820833Y-107103259D01*
X225820833Y-107103259D02*
X225916071Y-107103259D01*
X225916071Y-107103259D02*
X226058928Y-107055640D01*
X226058928Y-107055640D02*
X226154166Y-106960401D01*
X226154166Y-106960401D02*
X226201785Y-106865163D01*
X226201785Y-106865163D02*
X226249404Y-106674687D01*
X226249404Y-106674687D02*
X226249404Y-106531830D01*
X226249404Y-106531830D02*
X226201785Y-106341354D01*
X226201785Y-106341354D02*
X226154166Y-106246116D01*
X226154166Y-106246116D02*
X226058928Y-106150878D01*
X226058928Y-106150878D02*
X225916071Y-106103259D01*
X225916071Y-106103259D02*
X225820833Y-106103259D01*
X225820833Y-106103259D02*
X225677976Y-106150878D01*
X225677976Y-106150878D02*
X225630357Y-106198497D01*
X225297023Y-106103259D02*
X224677976Y-106103259D01*
X224677976Y-106103259D02*
X225011309Y-106484211D01*
X225011309Y-106484211D02*
X224868452Y-106484211D01*
X224868452Y-106484211D02*
X224773214Y-106531830D01*
X224773214Y-106531830D02*
X224725595Y-106579449D01*
X224725595Y-106579449D02*
X224677976Y-106674687D01*
X224677976Y-106674687D02*
X224677976Y-106912782D01*
X224677976Y-106912782D02*
X224725595Y-107008020D01*
X224725595Y-107008020D02*
X224773214Y-107055640D01*
X224773214Y-107055640D02*
X224868452Y-107103259D01*
X224868452Y-107103259D02*
X225154166Y-107103259D01*
X225154166Y-107103259D02*
X225249404Y-107055640D01*
X225249404Y-107055640D02*
X225297023Y-107008020D01*
X224058928Y-106103259D02*
X223963690Y-106103259D01*
X223963690Y-106103259D02*
X223868452Y-106150878D01*
X223868452Y-106150878D02*
X223820833Y-106198497D01*
X223820833Y-106198497D02*
X223773214Y-106293735D01*
X223773214Y-106293735D02*
X223725595Y-106484211D01*
X223725595Y-106484211D02*
X223725595Y-106722306D01*
X223725595Y-106722306D02*
X223773214Y-106912782D01*
X223773214Y-106912782D02*
X223820833Y-107008020D01*
X223820833Y-107008020D02*
X223868452Y-107055640D01*
X223868452Y-107055640D02*
X223963690Y-107103259D01*
X223963690Y-107103259D02*
X224058928Y-107103259D01*
X224058928Y-107103259D02*
X224154166Y-107055640D01*
X224154166Y-107055640D02*
X224201785Y-107008020D01*
X224201785Y-107008020D02*
X224249404Y-106912782D01*
X224249404Y-106912782D02*
X224297023Y-106722306D01*
X224297023Y-106722306D02*
X224297023Y-106484211D01*
X224297023Y-106484211D02*
X224249404Y-106293735D01*
X224249404Y-106293735D02*
X224201785Y-106198497D01*
X224201785Y-106198497D02*
X224154166Y-106150878D01*
X224154166Y-106150878D02*
X224058928Y-106103259D01*
X141579449Y-110816666D02*
X141579449Y-110483333D01*
X142103259Y-110483333D02*
X141103259Y-110483333D01*
X141103259Y-110483333D02*
X141103259Y-110959523D01*
X141579449Y-111673809D02*
X141627068Y-111816666D01*
X141627068Y-111816666D02*
X141674687Y-111864285D01*
X141674687Y-111864285D02*
X141769925Y-111911904D01*
X141769925Y-111911904D02*
X141912782Y-111911904D01*
X141912782Y-111911904D02*
X142008020Y-111864285D01*
X142008020Y-111864285D02*
X142055640Y-111816666D01*
X142055640Y-111816666D02*
X142103259Y-111721428D01*
X142103259Y-111721428D02*
X142103259Y-111340476D01*
X142103259Y-111340476D02*
X141103259Y-111340476D01*
X141103259Y-111340476D02*
X141103259Y-111673809D01*
X141103259Y-111673809D02*
X141150878Y-111769047D01*
X141150878Y-111769047D02*
X141198497Y-111816666D01*
X141198497Y-111816666D02*
X141293735Y-111864285D01*
X141293735Y-111864285D02*
X141388973Y-111864285D01*
X141388973Y-111864285D02*
X141484211Y-111816666D01*
X141484211Y-111816666D02*
X141531830Y-111769047D01*
X141531830Y-111769047D02*
X141579449Y-111673809D01*
X141579449Y-111673809D02*
X141579449Y-111340476D01*
X141198497Y-112292857D02*
X141150878Y-112340476D01*
X141150878Y-112340476D02*
X141103259Y-112435714D01*
X141103259Y-112435714D02*
X141103259Y-112673809D01*
X141103259Y-112673809D02*
X141150878Y-112769047D01*
X141150878Y-112769047D02*
X141198497Y-112816666D01*
X141198497Y-112816666D02*
X141293735Y-112864285D01*
X141293735Y-112864285D02*
X141388973Y-112864285D01*
X141388973Y-112864285D02*
X141531830Y-112816666D01*
X141531830Y-112816666D02*
X142103259Y-112245238D01*
X142103259Y-112245238D02*
X142103259Y-112864285D01*
X166703259Y-104035714D02*
X165703259Y-104035714D01*
X165703259Y-104035714D02*
X165703259Y-104273809D01*
X165703259Y-104273809D02*
X165750878Y-104416666D01*
X165750878Y-104416666D02*
X165846116Y-104511904D01*
X165846116Y-104511904D02*
X165941354Y-104559523D01*
X165941354Y-104559523D02*
X166131830Y-104607142D01*
X166131830Y-104607142D02*
X166274687Y-104607142D01*
X166274687Y-104607142D02*
X166465163Y-104559523D01*
X166465163Y-104559523D02*
X166560401Y-104511904D01*
X166560401Y-104511904D02*
X166655640Y-104416666D01*
X166655640Y-104416666D02*
X166703259Y-104273809D01*
X166703259Y-104273809D02*
X166703259Y-104035714D01*
X165798497Y-104988095D02*
X165750878Y-105035714D01*
X165750878Y-105035714D02*
X165703259Y-105130952D01*
X165703259Y-105130952D02*
X165703259Y-105369047D01*
X165703259Y-105369047D02*
X165750878Y-105464285D01*
X165750878Y-105464285D02*
X165798497Y-105511904D01*
X165798497Y-105511904D02*
X165893735Y-105559523D01*
X165893735Y-105559523D02*
X165988973Y-105559523D01*
X165988973Y-105559523D02*
X166131830Y-105511904D01*
X166131830Y-105511904D02*
X166703259Y-104940476D01*
X166703259Y-104940476D02*
X166703259Y-105559523D01*
X165703259Y-105892857D02*
X165703259Y-106511904D01*
X165703259Y-106511904D02*
X166084211Y-106178571D01*
X166084211Y-106178571D02*
X166084211Y-106321428D01*
X166084211Y-106321428D02*
X166131830Y-106416666D01*
X166131830Y-106416666D02*
X166179449Y-106464285D01*
X166179449Y-106464285D02*
X166274687Y-106511904D01*
X166274687Y-106511904D02*
X166512782Y-106511904D01*
X166512782Y-106511904D02*
X166608020Y-106464285D01*
X166608020Y-106464285D02*
X166655640Y-106416666D01*
X166655640Y-106416666D02*
X166703259Y-106321428D01*
X166703259Y-106321428D02*
X166703259Y-106035714D01*
X166703259Y-106035714D02*
X166655640Y-105940476D01*
X166655640Y-105940476D02*
X166608020Y-105892857D01*
X139626189Y-41603259D02*
X139626189Y-40603259D01*
X138578571Y-41508020D02*
X138626190Y-41555640D01*
X138626190Y-41555640D02*
X138769047Y-41603259D01*
X138769047Y-41603259D02*
X138864285Y-41603259D01*
X138864285Y-41603259D02*
X139007142Y-41555640D01*
X139007142Y-41555640D02*
X139102380Y-41460401D01*
X139102380Y-41460401D02*
X139149999Y-41365163D01*
X139149999Y-41365163D02*
X139197618Y-41174687D01*
X139197618Y-41174687D02*
X139197618Y-41031830D01*
X139197618Y-41031830D02*
X139149999Y-40841354D01*
X139149999Y-40841354D02*
X139102380Y-40746116D01*
X139102380Y-40746116D02*
X139007142Y-40650878D01*
X139007142Y-40650878D02*
X138864285Y-40603259D01*
X138864285Y-40603259D02*
X138769047Y-40603259D01*
X138769047Y-40603259D02*
X138626190Y-40650878D01*
X138626190Y-40650878D02*
X138578571Y-40698497D01*
X137673809Y-40603259D02*
X138149999Y-40603259D01*
X138149999Y-40603259D02*
X138197618Y-41079449D01*
X138197618Y-41079449D02*
X138149999Y-41031830D01*
X138149999Y-41031830D02*
X138054761Y-40984211D01*
X138054761Y-40984211D02*
X137816666Y-40984211D01*
X137816666Y-40984211D02*
X137721428Y-41031830D01*
X137721428Y-41031830D02*
X137673809Y-41079449D01*
X137673809Y-41079449D02*
X137626190Y-41174687D01*
X137626190Y-41174687D02*
X137626190Y-41412782D01*
X137626190Y-41412782D02*
X137673809Y-41508020D01*
X137673809Y-41508020D02*
X137721428Y-41555640D01*
X137721428Y-41555640D02*
X137816666Y-41603259D01*
X137816666Y-41603259D02*
X138054761Y-41603259D01*
X138054761Y-41603259D02*
X138149999Y-41555640D01*
X138149999Y-41555640D02*
X138197618Y-41508020D01*
X217308020Y-103207142D02*
X217355640Y-103159523D01*
X217355640Y-103159523D02*
X217403259Y-103016666D01*
X217403259Y-103016666D02*
X217403259Y-102921428D01*
X217403259Y-102921428D02*
X217355640Y-102778571D01*
X217355640Y-102778571D02*
X217260401Y-102683333D01*
X217260401Y-102683333D02*
X217165163Y-102635714D01*
X217165163Y-102635714D02*
X216974687Y-102588095D01*
X216974687Y-102588095D02*
X216831830Y-102588095D01*
X216831830Y-102588095D02*
X216641354Y-102635714D01*
X216641354Y-102635714D02*
X216546116Y-102683333D01*
X216546116Y-102683333D02*
X216450878Y-102778571D01*
X216450878Y-102778571D02*
X216403259Y-102921428D01*
X216403259Y-102921428D02*
X216403259Y-103016666D01*
X216403259Y-103016666D02*
X216450878Y-103159523D01*
X216450878Y-103159523D02*
X216498497Y-103207142D01*
X216403259Y-103540476D02*
X216403259Y-104159523D01*
X216403259Y-104159523D02*
X216784211Y-103826190D01*
X216784211Y-103826190D02*
X216784211Y-103969047D01*
X216784211Y-103969047D02*
X216831830Y-104064285D01*
X216831830Y-104064285D02*
X216879449Y-104111904D01*
X216879449Y-104111904D02*
X216974687Y-104159523D01*
X216974687Y-104159523D02*
X217212782Y-104159523D01*
X217212782Y-104159523D02*
X217308020Y-104111904D01*
X217308020Y-104111904D02*
X217355640Y-104064285D01*
X217355640Y-104064285D02*
X217403259Y-103969047D01*
X217403259Y-103969047D02*
X217403259Y-103683333D01*
X217403259Y-103683333D02*
X217355640Y-103588095D01*
X217355640Y-103588095D02*
X217308020Y-103540476D01*
X216498497Y-104540476D02*
X216450878Y-104588095D01*
X216450878Y-104588095D02*
X216403259Y-104683333D01*
X216403259Y-104683333D02*
X216403259Y-104921428D01*
X216403259Y-104921428D02*
X216450878Y-105016666D01*
X216450878Y-105016666D02*
X216498497Y-105064285D01*
X216498497Y-105064285D02*
X216593735Y-105111904D01*
X216593735Y-105111904D02*
X216688973Y-105111904D01*
X216688973Y-105111904D02*
X216831830Y-105064285D01*
X216831830Y-105064285D02*
X217403259Y-104492857D01*
X217403259Y-104492857D02*
X217403259Y-105111904D01*
X91603259Y-87011905D02*
X90603259Y-87011905D01*
X90603259Y-87011905D02*
X90603259Y-87250000D01*
X90603259Y-87250000D02*
X90650878Y-87392857D01*
X90650878Y-87392857D02*
X90746116Y-87488095D01*
X90746116Y-87488095D02*
X90841354Y-87535714D01*
X90841354Y-87535714D02*
X91031830Y-87583333D01*
X91031830Y-87583333D02*
X91174687Y-87583333D01*
X91174687Y-87583333D02*
X91365163Y-87535714D01*
X91365163Y-87535714D02*
X91460401Y-87488095D01*
X91460401Y-87488095D02*
X91555640Y-87392857D01*
X91555640Y-87392857D02*
X91603259Y-87250000D01*
X91603259Y-87250000D02*
X91603259Y-87011905D01*
X91603259Y-88059524D02*
X91603259Y-88250000D01*
X91603259Y-88250000D02*
X91555640Y-88345238D01*
X91555640Y-88345238D02*
X91508020Y-88392857D01*
X91508020Y-88392857D02*
X91365163Y-88488095D01*
X91365163Y-88488095D02*
X91174687Y-88535714D01*
X91174687Y-88535714D02*
X90793735Y-88535714D01*
X90793735Y-88535714D02*
X90698497Y-88488095D01*
X90698497Y-88488095D02*
X90650878Y-88440476D01*
X90650878Y-88440476D02*
X90603259Y-88345238D01*
X90603259Y-88345238D02*
X90603259Y-88154762D01*
X90603259Y-88154762D02*
X90650878Y-88059524D01*
X90650878Y-88059524D02*
X90698497Y-88011905D01*
X90698497Y-88011905D02*
X90793735Y-87964286D01*
X90793735Y-87964286D02*
X91031830Y-87964286D01*
X91031830Y-87964286D02*
X91127068Y-88011905D01*
X91127068Y-88011905D02*
X91174687Y-88059524D01*
X91174687Y-88059524D02*
X91222306Y-88154762D01*
X91222306Y-88154762D02*
X91222306Y-88345238D01*
X91222306Y-88345238D02*
X91174687Y-88440476D01*
X91174687Y-88440476D02*
X91127068Y-88488095D01*
X91127068Y-88488095D02*
X91031830Y-88535714D01*
X110303259Y-45535714D02*
X109303259Y-45535714D01*
X109303259Y-45535714D02*
X109303259Y-45773809D01*
X109303259Y-45773809D02*
X109350878Y-45916666D01*
X109350878Y-45916666D02*
X109446116Y-46011904D01*
X109446116Y-46011904D02*
X109541354Y-46059523D01*
X109541354Y-46059523D02*
X109731830Y-46107142D01*
X109731830Y-46107142D02*
X109874687Y-46107142D01*
X109874687Y-46107142D02*
X110065163Y-46059523D01*
X110065163Y-46059523D02*
X110160401Y-46011904D01*
X110160401Y-46011904D02*
X110255640Y-45916666D01*
X110255640Y-45916666D02*
X110303259Y-45773809D01*
X110303259Y-45773809D02*
X110303259Y-45535714D01*
X110303259Y-47059523D02*
X110303259Y-46488095D01*
X110303259Y-46773809D02*
X109303259Y-46773809D01*
X109303259Y-46773809D02*
X109446116Y-46678571D01*
X109446116Y-46678571D02*
X109541354Y-46583333D01*
X109541354Y-46583333D02*
X109588973Y-46488095D01*
X109398497Y-47440476D02*
X109350878Y-47488095D01*
X109350878Y-47488095D02*
X109303259Y-47583333D01*
X109303259Y-47583333D02*
X109303259Y-47821428D01*
X109303259Y-47821428D02*
X109350878Y-47916666D01*
X109350878Y-47916666D02*
X109398497Y-47964285D01*
X109398497Y-47964285D02*
X109493735Y-48011904D01*
X109493735Y-48011904D02*
X109588973Y-48011904D01*
X109588973Y-48011904D02*
X109731830Y-47964285D01*
X109731830Y-47964285D02*
X110303259Y-47392857D01*
X110303259Y-47392857D02*
X110303259Y-48011904D01*
X140892857Y-114808020D02*
X140940476Y-114855640D01*
X140940476Y-114855640D02*
X141083333Y-114903259D01*
X141083333Y-114903259D02*
X141178571Y-114903259D01*
X141178571Y-114903259D02*
X141321428Y-114855640D01*
X141321428Y-114855640D02*
X141416666Y-114760401D01*
X141416666Y-114760401D02*
X141464285Y-114665163D01*
X141464285Y-114665163D02*
X141511904Y-114474687D01*
X141511904Y-114474687D02*
X141511904Y-114331830D01*
X141511904Y-114331830D02*
X141464285Y-114141354D01*
X141464285Y-114141354D02*
X141416666Y-114046116D01*
X141416666Y-114046116D02*
X141321428Y-113950878D01*
X141321428Y-113950878D02*
X141178571Y-113903259D01*
X141178571Y-113903259D02*
X141083333Y-113903259D01*
X141083333Y-113903259D02*
X140940476Y-113950878D01*
X140940476Y-113950878D02*
X140892857Y-113998497D01*
X140511904Y-113998497D02*
X140464285Y-113950878D01*
X140464285Y-113950878D02*
X140369047Y-113903259D01*
X140369047Y-113903259D02*
X140130952Y-113903259D01*
X140130952Y-113903259D02*
X140035714Y-113950878D01*
X140035714Y-113950878D02*
X139988095Y-113998497D01*
X139988095Y-113998497D02*
X139940476Y-114093735D01*
X139940476Y-114093735D02*
X139940476Y-114188973D01*
X139940476Y-114188973D02*
X139988095Y-114331830D01*
X139988095Y-114331830D02*
X140559523Y-114903259D01*
X140559523Y-114903259D02*
X139940476Y-114903259D01*
X139035714Y-113903259D02*
X139511904Y-113903259D01*
X139511904Y-113903259D02*
X139559523Y-114379449D01*
X139559523Y-114379449D02*
X139511904Y-114331830D01*
X139511904Y-114331830D02*
X139416666Y-114284211D01*
X139416666Y-114284211D02*
X139178571Y-114284211D01*
X139178571Y-114284211D02*
X139083333Y-114331830D01*
X139083333Y-114331830D02*
X139035714Y-114379449D01*
X139035714Y-114379449D02*
X138988095Y-114474687D01*
X138988095Y-114474687D02*
X138988095Y-114712782D01*
X138988095Y-114712782D02*
X139035714Y-114808020D01*
X139035714Y-114808020D02*
X139083333Y-114855640D01*
X139083333Y-114855640D02*
X139178571Y-114903259D01*
X139178571Y-114903259D02*
X139416666Y-114903259D01*
X139416666Y-114903259D02*
X139511904Y-114855640D01*
X139511904Y-114855640D02*
X139559523Y-114808020D01*
X149503259Y-69135714D02*
X148503259Y-69135714D01*
X148503259Y-69135714D02*
X148503259Y-69373809D01*
X148503259Y-69373809D02*
X148550878Y-69516666D01*
X148550878Y-69516666D02*
X148646116Y-69611904D01*
X148646116Y-69611904D02*
X148741354Y-69659523D01*
X148741354Y-69659523D02*
X148931830Y-69707142D01*
X148931830Y-69707142D02*
X149074687Y-69707142D01*
X149074687Y-69707142D02*
X149265163Y-69659523D01*
X149265163Y-69659523D02*
X149360401Y-69611904D01*
X149360401Y-69611904D02*
X149455640Y-69516666D01*
X149455640Y-69516666D02*
X149503259Y-69373809D01*
X149503259Y-69373809D02*
X149503259Y-69135714D01*
X149503259Y-70659523D02*
X149503259Y-70088095D01*
X149503259Y-70373809D02*
X148503259Y-70373809D01*
X148503259Y-70373809D02*
X148646116Y-70278571D01*
X148646116Y-70278571D02*
X148741354Y-70183333D01*
X148741354Y-70183333D02*
X148788973Y-70088095D01*
X148503259Y-71516666D02*
X148503259Y-71326190D01*
X148503259Y-71326190D02*
X148550878Y-71230952D01*
X148550878Y-71230952D02*
X148598497Y-71183333D01*
X148598497Y-71183333D02*
X148741354Y-71088095D01*
X148741354Y-71088095D02*
X148931830Y-71040476D01*
X148931830Y-71040476D02*
X149312782Y-71040476D01*
X149312782Y-71040476D02*
X149408020Y-71088095D01*
X149408020Y-71088095D02*
X149455640Y-71135714D01*
X149455640Y-71135714D02*
X149503259Y-71230952D01*
X149503259Y-71230952D02*
X149503259Y-71421428D01*
X149503259Y-71421428D02*
X149455640Y-71516666D01*
X149455640Y-71516666D02*
X149408020Y-71564285D01*
X149408020Y-71564285D02*
X149312782Y-71611904D01*
X149312782Y-71611904D02*
X149074687Y-71611904D01*
X149074687Y-71611904D02*
X148979449Y-71564285D01*
X148979449Y-71564285D02*
X148931830Y-71516666D01*
X148931830Y-71516666D02*
X148884211Y-71421428D01*
X148884211Y-71421428D02*
X148884211Y-71230952D01*
X148884211Y-71230952D02*
X148931830Y-71135714D01*
X148931830Y-71135714D02*
X148979449Y-71088095D01*
X148979449Y-71088095D02*
X149074687Y-71040476D01*
X167903259Y-69135714D02*
X166903259Y-69135714D01*
X166903259Y-69135714D02*
X166903259Y-69373809D01*
X166903259Y-69373809D02*
X166950878Y-69516666D01*
X166950878Y-69516666D02*
X167046116Y-69611904D01*
X167046116Y-69611904D02*
X167141354Y-69659523D01*
X167141354Y-69659523D02*
X167331830Y-69707142D01*
X167331830Y-69707142D02*
X167474687Y-69707142D01*
X167474687Y-69707142D02*
X167665163Y-69659523D01*
X167665163Y-69659523D02*
X167760401Y-69611904D01*
X167760401Y-69611904D02*
X167855640Y-69516666D01*
X167855640Y-69516666D02*
X167903259Y-69373809D01*
X167903259Y-69373809D02*
X167903259Y-69135714D01*
X166998497Y-70088095D02*
X166950878Y-70135714D01*
X166950878Y-70135714D02*
X166903259Y-70230952D01*
X166903259Y-70230952D02*
X166903259Y-70469047D01*
X166903259Y-70469047D02*
X166950878Y-70564285D01*
X166950878Y-70564285D02*
X166998497Y-70611904D01*
X166998497Y-70611904D02*
X167093735Y-70659523D01*
X167093735Y-70659523D02*
X167188973Y-70659523D01*
X167188973Y-70659523D02*
X167331830Y-70611904D01*
X167331830Y-70611904D02*
X167903259Y-70040476D01*
X167903259Y-70040476D02*
X167903259Y-70659523D01*
X167903259Y-71611904D02*
X167903259Y-71040476D01*
X167903259Y-71326190D02*
X166903259Y-71326190D01*
X166903259Y-71326190D02*
X167046116Y-71230952D01*
X167046116Y-71230952D02*
X167141354Y-71135714D01*
X167141354Y-71135714D02*
X167188973Y-71040476D01*
X168303259Y-85435714D02*
X167303259Y-85435714D01*
X167303259Y-85435714D02*
X167303259Y-85673809D01*
X167303259Y-85673809D02*
X167350878Y-85816666D01*
X167350878Y-85816666D02*
X167446116Y-85911904D01*
X167446116Y-85911904D02*
X167541354Y-85959523D01*
X167541354Y-85959523D02*
X167731830Y-86007142D01*
X167731830Y-86007142D02*
X167874687Y-86007142D01*
X167874687Y-86007142D02*
X168065163Y-85959523D01*
X168065163Y-85959523D02*
X168160401Y-85911904D01*
X168160401Y-85911904D02*
X168255640Y-85816666D01*
X168255640Y-85816666D02*
X168303259Y-85673809D01*
X168303259Y-85673809D02*
X168303259Y-85435714D01*
X167398497Y-86388095D02*
X167350878Y-86435714D01*
X167350878Y-86435714D02*
X167303259Y-86530952D01*
X167303259Y-86530952D02*
X167303259Y-86769047D01*
X167303259Y-86769047D02*
X167350878Y-86864285D01*
X167350878Y-86864285D02*
X167398497Y-86911904D01*
X167398497Y-86911904D02*
X167493735Y-86959523D01*
X167493735Y-86959523D02*
X167588973Y-86959523D01*
X167588973Y-86959523D02*
X167731830Y-86911904D01*
X167731830Y-86911904D02*
X168303259Y-86340476D01*
X168303259Y-86340476D02*
X168303259Y-86959523D01*
X167398497Y-87340476D02*
X167350878Y-87388095D01*
X167350878Y-87388095D02*
X167303259Y-87483333D01*
X167303259Y-87483333D02*
X167303259Y-87721428D01*
X167303259Y-87721428D02*
X167350878Y-87816666D01*
X167350878Y-87816666D02*
X167398497Y-87864285D01*
X167398497Y-87864285D02*
X167493735Y-87911904D01*
X167493735Y-87911904D02*
X167588973Y-87911904D01*
X167588973Y-87911904D02*
X167731830Y-87864285D01*
X167731830Y-87864285D02*
X168303259Y-87292857D01*
X168303259Y-87292857D02*
X168303259Y-87911904D01*
X135608020Y-103983333D02*
X135655640Y-103935714D01*
X135655640Y-103935714D02*
X135703259Y-103792857D01*
X135703259Y-103792857D02*
X135703259Y-103697619D01*
X135703259Y-103697619D02*
X135655640Y-103554762D01*
X135655640Y-103554762D02*
X135560401Y-103459524D01*
X135560401Y-103459524D02*
X135465163Y-103411905D01*
X135465163Y-103411905D02*
X135274687Y-103364286D01*
X135274687Y-103364286D02*
X135131830Y-103364286D01*
X135131830Y-103364286D02*
X134941354Y-103411905D01*
X134941354Y-103411905D02*
X134846116Y-103459524D01*
X134846116Y-103459524D02*
X134750878Y-103554762D01*
X134750878Y-103554762D02*
X134703259Y-103697619D01*
X134703259Y-103697619D02*
X134703259Y-103792857D01*
X134703259Y-103792857D02*
X134750878Y-103935714D01*
X134750878Y-103935714D02*
X134798497Y-103983333D01*
X135703259Y-104459524D02*
X135703259Y-104650000D01*
X135703259Y-104650000D02*
X135655640Y-104745238D01*
X135655640Y-104745238D02*
X135608020Y-104792857D01*
X135608020Y-104792857D02*
X135465163Y-104888095D01*
X135465163Y-104888095D02*
X135274687Y-104935714D01*
X135274687Y-104935714D02*
X134893735Y-104935714D01*
X134893735Y-104935714D02*
X134798497Y-104888095D01*
X134798497Y-104888095D02*
X134750878Y-104840476D01*
X134750878Y-104840476D02*
X134703259Y-104745238D01*
X134703259Y-104745238D02*
X134703259Y-104554762D01*
X134703259Y-104554762D02*
X134750878Y-104459524D01*
X134750878Y-104459524D02*
X134798497Y-104411905D01*
X134798497Y-104411905D02*
X134893735Y-104364286D01*
X134893735Y-104364286D02*
X135131830Y-104364286D01*
X135131830Y-104364286D02*
X135227068Y-104411905D01*
X135227068Y-104411905D02*
X135274687Y-104459524D01*
X135274687Y-104459524D02*
X135322306Y-104554762D01*
X135322306Y-104554762D02*
X135322306Y-104745238D01*
X135322306Y-104745238D02*
X135274687Y-104840476D01*
X135274687Y-104840476D02*
X135227068Y-104888095D01*
X135227068Y-104888095D02*
X135131830Y-104935714D01*
X104364285Y-107603259D02*
X104364285Y-106603259D01*
X104364285Y-106603259D02*
X104126190Y-106603259D01*
X104126190Y-106603259D02*
X103983333Y-106650878D01*
X103983333Y-106650878D02*
X103888095Y-106746116D01*
X103888095Y-106746116D02*
X103840476Y-106841354D01*
X103840476Y-106841354D02*
X103792857Y-107031830D01*
X103792857Y-107031830D02*
X103792857Y-107174687D01*
X103792857Y-107174687D02*
X103840476Y-107365163D01*
X103840476Y-107365163D02*
X103888095Y-107460401D01*
X103888095Y-107460401D02*
X103983333Y-107555640D01*
X103983333Y-107555640D02*
X104126190Y-107603259D01*
X104126190Y-107603259D02*
X104364285Y-107603259D01*
X103459523Y-106603259D02*
X102840476Y-106603259D01*
X102840476Y-106603259D02*
X103173809Y-106984211D01*
X103173809Y-106984211D02*
X103030952Y-106984211D01*
X103030952Y-106984211D02*
X102935714Y-107031830D01*
X102935714Y-107031830D02*
X102888095Y-107079449D01*
X102888095Y-107079449D02*
X102840476Y-107174687D01*
X102840476Y-107174687D02*
X102840476Y-107412782D01*
X102840476Y-107412782D02*
X102888095Y-107508020D01*
X102888095Y-107508020D02*
X102935714Y-107555640D01*
X102935714Y-107555640D02*
X103030952Y-107603259D01*
X103030952Y-107603259D02*
X103316666Y-107603259D01*
X103316666Y-107603259D02*
X103411904Y-107555640D01*
X103411904Y-107555640D02*
X103459523Y-107508020D01*
X101983333Y-106603259D02*
X102173809Y-106603259D01*
X102173809Y-106603259D02*
X102269047Y-106650878D01*
X102269047Y-106650878D02*
X102316666Y-106698497D01*
X102316666Y-106698497D02*
X102411904Y-106841354D01*
X102411904Y-106841354D02*
X102459523Y-107031830D01*
X102459523Y-107031830D02*
X102459523Y-107412782D01*
X102459523Y-107412782D02*
X102411904Y-107508020D01*
X102411904Y-107508020D02*
X102364285Y-107555640D01*
X102364285Y-107555640D02*
X102269047Y-107603259D01*
X102269047Y-107603259D02*
X102078571Y-107603259D01*
X102078571Y-107603259D02*
X101983333Y-107555640D01*
X101983333Y-107555640D02*
X101935714Y-107508020D01*
X101935714Y-107508020D02*
X101888095Y-107412782D01*
X101888095Y-107412782D02*
X101888095Y-107174687D01*
X101888095Y-107174687D02*
X101935714Y-107079449D01*
X101935714Y-107079449D02*
X101983333Y-107031830D01*
X101983333Y-107031830D02*
X102078571Y-106984211D01*
X102078571Y-106984211D02*
X102269047Y-106984211D01*
X102269047Y-106984211D02*
X102364285Y-107031830D01*
X102364285Y-107031830D02*
X102411904Y-107079449D01*
X102411904Y-107079449D02*
X102459523Y-107174687D01*
X205003259Y-133635714D02*
X204003259Y-133635714D01*
X204003259Y-133635714D02*
X204003259Y-133873809D01*
X204003259Y-133873809D02*
X204050878Y-134016666D01*
X204050878Y-134016666D02*
X204146116Y-134111904D01*
X204146116Y-134111904D02*
X204241354Y-134159523D01*
X204241354Y-134159523D02*
X204431830Y-134207142D01*
X204431830Y-134207142D02*
X204574687Y-134207142D01*
X204574687Y-134207142D02*
X204765163Y-134159523D01*
X204765163Y-134159523D02*
X204860401Y-134111904D01*
X204860401Y-134111904D02*
X204955640Y-134016666D01*
X204955640Y-134016666D02*
X205003259Y-133873809D01*
X205003259Y-133873809D02*
X205003259Y-133635714D01*
X204003259Y-134540476D02*
X204003259Y-135159523D01*
X204003259Y-135159523D02*
X204384211Y-134826190D01*
X204384211Y-134826190D02*
X204384211Y-134969047D01*
X204384211Y-134969047D02*
X204431830Y-135064285D01*
X204431830Y-135064285D02*
X204479449Y-135111904D01*
X204479449Y-135111904D02*
X204574687Y-135159523D01*
X204574687Y-135159523D02*
X204812782Y-135159523D01*
X204812782Y-135159523D02*
X204908020Y-135111904D01*
X204908020Y-135111904D02*
X204955640Y-135064285D01*
X204955640Y-135064285D02*
X205003259Y-134969047D01*
X205003259Y-134969047D02*
X205003259Y-134683333D01*
X205003259Y-134683333D02*
X204955640Y-134588095D01*
X204955640Y-134588095D02*
X204908020Y-134540476D01*
X204098497Y-135540476D02*
X204050878Y-135588095D01*
X204050878Y-135588095D02*
X204003259Y-135683333D01*
X204003259Y-135683333D02*
X204003259Y-135921428D01*
X204003259Y-135921428D02*
X204050878Y-136016666D01*
X204050878Y-136016666D02*
X204098497Y-136064285D01*
X204098497Y-136064285D02*
X204193735Y-136111904D01*
X204193735Y-136111904D02*
X204288973Y-136111904D01*
X204288973Y-136111904D02*
X204431830Y-136064285D01*
X204431830Y-136064285D02*
X205003259Y-135492857D01*
X205003259Y-135492857D02*
X205003259Y-136111904D01*
X149503259Y-124235714D02*
X148503259Y-124235714D01*
X148503259Y-124235714D02*
X148503259Y-124473809D01*
X148503259Y-124473809D02*
X148550878Y-124616666D01*
X148550878Y-124616666D02*
X148646116Y-124711904D01*
X148646116Y-124711904D02*
X148741354Y-124759523D01*
X148741354Y-124759523D02*
X148931830Y-124807142D01*
X148931830Y-124807142D02*
X149074687Y-124807142D01*
X149074687Y-124807142D02*
X149265163Y-124759523D01*
X149265163Y-124759523D02*
X149360401Y-124711904D01*
X149360401Y-124711904D02*
X149455640Y-124616666D01*
X149455640Y-124616666D02*
X149503259Y-124473809D01*
X149503259Y-124473809D02*
X149503259Y-124235714D01*
X149503259Y-125759523D02*
X149503259Y-125188095D01*
X149503259Y-125473809D02*
X148503259Y-125473809D01*
X148503259Y-125473809D02*
X148646116Y-125378571D01*
X148646116Y-125378571D02*
X148741354Y-125283333D01*
X148741354Y-125283333D02*
X148788973Y-125188095D01*
X149503259Y-126235714D02*
X149503259Y-126426190D01*
X149503259Y-126426190D02*
X149455640Y-126521428D01*
X149455640Y-126521428D02*
X149408020Y-126569047D01*
X149408020Y-126569047D02*
X149265163Y-126664285D01*
X149265163Y-126664285D02*
X149074687Y-126711904D01*
X149074687Y-126711904D02*
X148693735Y-126711904D01*
X148693735Y-126711904D02*
X148598497Y-126664285D01*
X148598497Y-126664285D02*
X148550878Y-126616666D01*
X148550878Y-126616666D02*
X148503259Y-126521428D01*
X148503259Y-126521428D02*
X148503259Y-126330952D01*
X148503259Y-126330952D02*
X148550878Y-126235714D01*
X148550878Y-126235714D02*
X148598497Y-126188095D01*
X148598497Y-126188095D02*
X148693735Y-126140476D01*
X148693735Y-126140476D02*
X148931830Y-126140476D01*
X148931830Y-126140476D02*
X149027068Y-126188095D01*
X149027068Y-126188095D02*
X149074687Y-126235714D01*
X149074687Y-126235714D02*
X149122306Y-126330952D01*
X149122306Y-126330952D02*
X149122306Y-126521428D01*
X149122306Y-126521428D02*
X149074687Y-126616666D01*
X149074687Y-126616666D02*
X149027068Y-126664285D01*
X149027068Y-126664285D02*
X148931830Y-126711904D01*
X130008020Y-114983333D02*
X130055640Y-114935714D01*
X130055640Y-114935714D02*
X130103259Y-114792857D01*
X130103259Y-114792857D02*
X130103259Y-114697619D01*
X130103259Y-114697619D02*
X130055640Y-114554762D01*
X130055640Y-114554762D02*
X129960401Y-114459524D01*
X129960401Y-114459524D02*
X129865163Y-114411905D01*
X129865163Y-114411905D02*
X129674687Y-114364286D01*
X129674687Y-114364286D02*
X129531830Y-114364286D01*
X129531830Y-114364286D02*
X129341354Y-114411905D01*
X129341354Y-114411905D02*
X129246116Y-114459524D01*
X129246116Y-114459524D02*
X129150878Y-114554762D01*
X129150878Y-114554762D02*
X129103259Y-114697619D01*
X129103259Y-114697619D02*
X129103259Y-114792857D01*
X129103259Y-114792857D02*
X129150878Y-114935714D01*
X129150878Y-114935714D02*
X129198497Y-114983333D01*
X129103259Y-115316667D02*
X129103259Y-115935714D01*
X129103259Y-115935714D02*
X129484211Y-115602381D01*
X129484211Y-115602381D02*
X129484211Y-115745238D01*
X129484211Y-115745238D02*
X129531830Y-115840476D01*
X129531830Y-115840476D02*
X129579449Y-115888095D01*
X129579449Y-115888095D02*
X129674687Y-115935714D01*
X129674687Y-115935714D02*
X129912782Y-115935714D01*
X129912782Y-115935714D02*
X130008020Y-115888095D01*
X130008020Y-115888095D02*
X130055640Y-115840476D01*
X130055640Y-115840476D02*
X130103259Y-115745238D01*
X130103259Y-115745238D02*
X130103259Y-115459524D01*
X130103259Y-115459524D02*
X130055640Y-115364286D01*
X130055640Y-115364286D02*
X130008020Y-115316667D01*
X104264285Y-103503259D02*
X104264285Y-102503259D01*
X104264285Y-102503259D02*
X104026190Y-102503259D01*
X104026190Y-102503259D02*
X103883333Y-102550878D01*
X103883333Y-102550878D02*
X103788095Y-102646116D01*
X103788095Y-102646116D02*
X103740476Y-102741354D01*
X103740476Y-102741354D02*
X103692857Y-102931830D01*
X103692857Y-102931830D02*
X103692857Y-103074687D01*
X103692857Y-103074687D02*
X103740476Y-103265163D01*
X103740476Y-103265163D02*
X103788095Y-103360401D01*
X103788095Y-103360401D02*
X103883333Y-103455640D01*
X103883333Y-103455640D02*
X104026190Y-103503259D01*
X104026190Y-103503259D02*
X104264285Y-103503259D01*
X103359523Y-102503259D02*
X102740476Y-102503259D01*
X102740476Y-102503259D02*
X103073809Y-102884211D01*
X103073809Y-102884211D02*
X102930952Y-102884211D01*
X102930952Y-102884211D02*
X102835714Y-102931830D01*
X102835714Y-102931830D02*
X102788095Y-102979449D01*
X102788095Y-102979449D02*
X102740476Y-103074687D01*
X102740476Y-103074687D02*
X102740476Y-103312782D01*
X102740476Y-103312782D02*
X102788095Y-103408020D01*
X102788095Y-103408020D02*
X102835714Y-103455640D01*
X102835714Y-103455640D02*
X102930952Y-103503259D01*
X102930952Y-103503259D02*
X103216666Y-103503259D01*
X103216666Y-103503259D02*
X103311904Y-103455640D01*
X103311904Y-103455640D02*
X103359523Y-103408020D01*
X102407142Y-102503259D02*
X101740476Y-102503259D01*
X101740476Y-102503259D02*
X102169047Y-103503259D01*
X128392857Y-108608020D02*
X128440476Y-108655640D01*
X128440476Y-108655640D02*
X128583333Y-108703259D01*
X128583333Y-108703259D02*
X128678571Y-108703259D01*
X128678571Y-108703259D02*
X128821428Y-108655640D01*
X128821428Y-108655640D02*
X128916666Y-108560401D01*
X128916666Y-108560401D02*
X128964285Y-108465163D01*
X128964285Y-108465163D02*
X129011904Y-108274687D01*
X129011904Y-108274687D02*
X129011904Y-108131830D01*
X129011904Y-108131830D02*
X128964285Y-107941354D01*
X128964285Y-107941354D02*
X128916666Y-107846116D01*
X128916666Y-107846116D02*
X128821428Y-107750878D01*
X128821428Y-107750878D02*
X128678571Y-107703259D01*
X128678571Y-107703259D02*
X128583333Y-107703259D01*
X128583333Y-107703259D02*
X128440476Y-107750878D01*
X128440476Y-107750878D02*
X128392857Y-107798497D01*
X127440476Y-108703259D02*
X128011904Y-108703259D01*
X127726190Y-108703259D02*
X127726190Y-107703259D01*
X127726190Y-107703259D02*
X127821428Y-107846116D01*
X127821428Y-107846116D02*
X127916666Y-107941354D01*
X127916666Y-107941354D02*
X128011904Y-107988973D01*
X126488095Y-108703259D02*
X127059523Y-108703259D01*
X126773809Y-108703259D02*
X126773809Y-107703259D01*
X126773809Y-107703259D02*
X126869047Y-107846116D01*
X126869047Y-107846116D02*
X126964285Y-107941354D01*
X126964285Y-107941354D02*
X127059523Y-107988973D01*
X68903259Y-113073810D02*
X67903259Y-113073810D01*
X68808020Y-114121428D02*
X68855640Y-114073809D01*
X68855640Y-114073809D02*
X68903259Y-113930952D01*
X68903259Y-113930952D02*
X68903259Y-113835714D01*
X68903259Y-113835714D02*
X68855640Y-113692857D01*
X68855640Y-113692857D02*
X68760401Y-113597619D01*
X68760401Y-113597619D02*
X68665163Y-113550000D01*
X68665163Y-113550000D02*
X68474687Y-113502381D01*
X68474687Y-113502381D02*
X68331830Y-113502381D01*
X68331830Y-113502381D02*
X68141354Y-113550000D01*
X68141354Y-113550000D02*
X68046116Y-113597619D01*
X68046116Y-113597619D02*
X67950878Y-113692857D01*
X67950878Y-113692857D02*
X67903259Y-113835714D01*
X67903259Y-113835714D02*
X67903259Y-113930952D01*
X67903259Y-113930952D02*
X67950878Y-114073809D01*
X67950878Y-114073809D02*
X67998497Y-114121428D01*
X67998497Y-114502381D02*
X67950878Y-114550000D01*
X67950878Y-114550000D02*
X67903259Y-114645238D01*
X67903259Y-114645238D02*
X67903259Y-114883333D01*
X67903259Y-114883333D02*
X67950878Y-114978571D01*
X67950878Y-114978571D02*
X67998497Y-115026190D01*
X67998497Y-115026190D02*
X68093735Y-115073809D01*
X68093735Y-115073809D02*
X68188973Y-115073809D01*
X68188973Y-115073809D02*
X68331830Y-115026190D01*
X68331830Y-115026190D02*
X68903259Y-114454762D01*
X68903259Y-114454762D02*
X68903259Y-115073809D01*
X219708020Y-103207142D02*
X219755640Y-103159523D01*
X219755640Y-103159523D02*
X219803259Y-103016666D01*
X219803259Y-103016666D02*
X219803259Y-102921428D01*
X219803259Y-102921428D02*
X219755640Y-102778571D01*
X219755640Y-102778571D02*
X219660401Y-102683333D01*
X219660401Y-102683333D02*
X219565163Y-102635714D01*
X219565163Y-102635714D02*
X219374687Y-102588095D01*
X219374687Y-102588095D02*
X219231830Y-102588095D01*
X219231830Y-102588095D02*
X219041354Y-102635714D01*
X219041354Y-102635714D02*
X218946116Y-102683333D01*
X218946116Y-102683333D02*
X218850878Y-102778571D01*
X218850878Y-102778571D02*
X218803259Y-102921428D01*
X218803259Y-102921428D02*
X218803259Y-103016666D01*
X218803259Y-103016666D02*
X218850878Y-103159523D01*
X218850878Y-103159523D02*
X218898497Y-103207142D01*
X218803259Y-103540476D02*
X218803259Y-104159523D01*
X218803259Y-104159523D02*
X219184211Y-103826190D01*
X219184211Y-103826190D02*
X219184211Y-103969047D01*
X219184211Y-103969047D02*
X219231830Y-104064285D01*
X219231830Y-104064285D02*
X219279449Y-104111904D01*
X219279449Y-104111904D02*
X219374687Y-104159523D01*
X219374687Y-104159523D02*
X219612782Y-104159523D01*
X219612782Y-104159523D02*
X219708020Y-104111904D01*
X219708020Y-104111904D02*
X219755640Y-104064285D01*
X219755640Y-104064285D02*
X219803259Y-103969047D01*
X219803259Y-103969047D02*
X219803259Y-103683333D01*
X219803259Y-103683333D02*
X219755640Y-103588095D01*
X219755640Y-103588095D02*
X219708020Y-103540476D01*
X218803259Y-104492857D02*
X218803259Y-105111904D01*
X218803259Y-105111904D02*
X219184211Y-104778571D01*
X219184211Y-104778571D02*
X219184211Y-104921428D01*
X219184211Y-104921428D02*
X219231830Y-105016666D01*
X219231830Y-105016666D02*
X219279449Y-105064285D01*
X219279449Y-105064285D02*
X219374687Y-105111904D01*
X219374687Y-105111904D02*
X219612782Y-105111904D01*
X219612782Y-105111904D02*
X219708020Y-105064285D01*
X219708020Y-105064285D02*
X219755640Y-105016666D01*
X219755640Y-105016666D02*
X219803259Y-104921428D01*
X219803259Y-104921428D02*
X219803259Y-104635714D01*
X219803259Y-104635714D02*
X219755640Y-104540476D01*
X219755640Y-104540476D02*
X219708020Y-104492857D01*
X140892857Y-116408020D02*
X140940476Y-116455640D01*
X140940476Y-116455640D02*
X141083333Y-116503259D01*
X141083333Y-116503259D02*
X141178571Y-116503259D01*
X141178571Y-116503259D02*
X141321428Y-116455640D01*
X141321428Y-116455640D02*
X141416666Y-116360401D01*
X141416666Y-116360401D02*
X141464285Y-116265163D01*
X141464285Y-116265163D02*
X141511904Y-116074687D01*
X141511904Y-116074687D02*
X141511904Y-115931830D01*
X141511904Y-115931830D02*
X141464285Y-115741354D01*
X141464285Y-115741354D02*
X141416666Y-115646116D01*
X141416666Y-115646116D02*
X141321428Y-115550878D01*
X141321428Y-115550878D02*
X141178571Y-115503259D01*
X141178571Y-115503259D02*
X141083333Y-115503259D01*
X141083333Y-115503259D02*
X140940476Y-115550878D01*
X140940476Y-115550878D02*
X140892857Y-115598497D01*
X140511904Y-115598497D02*
X140464285Y-115550878D01*
X140464285Y-115550878D02*
X140369047Y-115503259D01*
X140369047Y-115503259D02*
X140130952Y-115503259D01*
X140130952Y-115503259D02*
X140035714Y-115550878D01*
X140035714Y-115550878D02*
X139988095Y-115598497D01*
X139988095Y-115598497D02*
X139940476Y-115693735D01*
X139940476Y-115693735D02*
X139940476Y-115788973D01*
X139940476Y-115788973D02*
X139988095Y-115931830D01*
X139988095Y-115931830D02*
X140559523Y-116503259D01*
X140559523Y-116503259D02*
X139940476Y-116503259D01*
X139083333Y-115503259D02*
X139273809Y-115503259D01*
X139273809Y-115503259D02*
X139369047Y-115550878D01*
X139369047Y-115550878D02*
X139416666Y-115598497D01*
X139416666Y-115598497D02*
X139511904Y-115741354D01*
X139511904Y-115741354D02*
X139559523Y-115931830D01*
X139559523Y-115931830D02*
X139559523Y-116312782D01*
X139559523Y-116312782D02*
X139511904Y-116408020D01*
X139511904Y-116408020D02*
X139464285Y-116455640D01*
X139464285Y-116455640D02*
X139369047Y-116503259D01*
X139369047Y-116503259D02*
X139178571Y-116503259D01*
X139178571Y-116503259D02*
X139083333Y-116455640D01*
X139083333Y-116455640D02*
X139035714Y-116408020D01*
X139035714Y-116408020D02*
X138988095Y-116312782D01*
X138988095Y-116312782D02*
X138988095Y-116074687D01*
X138988095Y-116074687D02*
X139035714Y-115979449D01*
X139035714Y-115979449D02*
X139083333Y-115931830D01*
X139083333Y-115931830D02*
X139178571Y-115884211D01*
X139178571Y-115884211D02*
X139369047Y-115884211D01*
X139369047Y-115884211D02*
X139464285Y-115931830D01*
X139464285Y-115931830D02*
X139511904Y-115979449D01*
X139511904Y-115979449D02*
X139559523Y-116074687D01*
X142733259Y-121457142D02*
X142257068Y-121123809D01*
X142733259Y-120885714D02*
X141733259Y-120885714D01*
X141733259Y-120885714D02*
X141733259Y-121266666D01*
X141733259Y-121266666D02*
X141780878Y-121361904D01*
X141780878Y-121361904D02*
X141828497Y-121409523D01*
X141828497Y-121409523D02*
X141923735Y-121457142D01*
X141923735Y-121457142D02*
X142066592Y-121457142D01*
X142066592Y-121457142D02*
X142161830Y-121409523D01*
X142161830Y-121409523D02*
X142209449Y-121361904D01*
X142209449Y-121361904D02*
X142257068Y-121266666D01*
X142257068Y-121266666D02*
X142257068Y-120885714D01*
X142733259Y-122409523D02*
X142733259Y-121838095D01*
X142733259Y-122123809D02*
X141733259Y-122123809D01*
X141733259Y-122123809D02*
X141876116Y-122028571D01*
X141876116Y-122028571D02*
X141971354Y-121933333D01*
X141971354Y-121933333D02*
X142018973Y-121838095D01*
X141733259Y-123028571D02*
X141733259Y-123123809D01*
X141733259Y-123123809D02*
X141780878Y-123219047D01*
X141780878Y-123219047D02*
X141828497Y-123266666D01*
X141828497Y-123266666D02*
X141923735Y-123314285D01*
X141923735Y-123314285D02*
X142114211Y-123361904D01*
X142114211Y-123361904D02*
X142352306Y-123361904D01*
X142352306Y-123361904D02*
X142542782Y-123314285D01*
X142542782Y-123314285D02*
X142638020Y-123266666D01*
X142638020Y-123266666D02*
X142685640Y-123219047D01*
X142685640Y-123219047D02*
X142733259Y-123123809D01*
X142733259Y-123123809D02*
X142733259Y-123028571D01*
X142733259Y-123028571D02*
X142685640Y-122933333D01*
X142685640Y-122933333D02*
X142638020Y-122885714D01*
X142638020Y-122885714D02*
X142542782Y-122838095D01*
X142542782Y-122838095D02*
X142352306Y-122790476D01*
X142352306Y-122790476D02*
X142114211Y-122790476D01*
X142114211Y-122790476D02*
X141923735Y-122838095D01*
X141923735Y-122838095D02*
X141828497Y-122885714D01*
X141828497Y-122885714D02*
X141780878Y-122933333D01*
X141780878Y-122933333D02*
X141733259Y-123028571D01*
X92003259Y-121635714D02*
X91003259Y-121635714D01*
X91003259Y-121635714D02*
X91003259Y-121873809D01*
X91003259Y-121873809D02*
X91050878Y-122016666D01*
X91050878Y-122016666D02*
X91146116Y-122111904D01*
X91146116Y-122111904D02*
X91241354Y-122159523D01*
X91241354Y-122159523D02*
X91431830Y-122207142D01*
X91431830Y-122207142D02*
X91574687Y-122207142D01*
X91574687Y-122207142D02*
X91765163Y-122159523D01*
X91765163Y-122159523D02*
X91860401Y-122111904D01*
X91860401Y-122111904D02*
X91955640Y-122016666D01*
X91955640Y-122016666D02*
X92003259Y-121873809D01*
X92003259Y-121873809D02*
X92003259Y-121635714D01*
X92003259Y-123159523D02*
X92003259Y-122588095D01*
X92003259Y-122873809D02*
X91003259Y-122873809D01*
X91003259Y-122873809D02*
X91146116Y-122778571D01*
X91146116Y-122778571D02*
X91241354Y-122683333D01*
X91241354Y-122683333D02*
X91288973Y-122588095D01*
X91003259Y-123778571D02*
X91003259Y-123873809D01*
X91003259Y-123873809D02*
X91050878Y-123969047D01*
X91050878Y-123969047D02*
X91098497Y-124016666D01*
X91098497Y-124016666D02*
X91193735Y-124064285D01*
X91193735Y-124064285D02*
X91384211Y-124111904D01*
X91384211Y-124111904D02*
X91622306Y-124111904D01*
X91622306Y-124111904D02*
X91812782Y-124064285D01*
X91812782Y-124064285D02*
X91908020Y-124016666D01*
X91908020Y-124016666D02*
X91955640Y-123969047D01*
X91955640Y-123969047D02*
X92003259Y-123873809D01*
X92003259Y-123873809D02*
X92003259Y-123778571D01*
X92003259Y-123778571D02*
X91955640Y-123683333D01*
X91955640Y-123683333D02*
X91908020Y-123635714D01*
X91908020Y-123635714D02*
X91812782Y-123588095D01*
X91812782Y-123588095D02*
X91622306Y-123540476D01*
X91622306Y-123540476D02*
X91384211Y-123540476D01*
X91384211Y-123540476D02*
X91193735Y-123588095D01*
X91193735Y-123588095D02*
X91098497Y-123635714D01*
X91098497Y-123635714D02*
X91050878Y-123683333D01*
X91050878Y-123683333D02*
X91003259Y-123778571D01*
X186503259Y-69135714D02*
X185503259Y-69135714D01*
X185503259Y-69135714D02*
X185503259Y-69373809D01*
X185503259Y-69373809D02*
X185550878Y-69516666D01*
X185550878Y-69516666D02*
X185646116Y-69611904D01*
X185646116Y-69611904D02*
X185741354Y-69659523D01*
X185741354Y-69659523D02*
X185931830Y-69707142D01*
X185931830Y-69707142D02*
X186074687Y-69707142D01*
X186074687Y-69707142D02*
X186265163Y-69659523D01*
X186265163Y-69659523D02*
X186360401Y-69611904D01*
X186360401Y-69611904D02*
X186455640Y-69516666D01*
X186455640Y-69516666D02*
X186503259Y-69373809D01*
X186503259Y-69373809D02*
X186503259Y-69135714D01*
X185598497Y-70088095D02*
X185550878Y-70135714D01*
X185550878Y-70135714D02*
X185503259Y-70230952D01*
X185503259Y-70230952D02*
X185503259Y-70469047D01*
X185503259Y-70469047D02*
X185550878Y-70564285D01*
X185550878Y-70564285D02*
X185598497Y-70611904D01*
X185598497Y-70611904D02*
X185693735Y-70659523D01*
X185693735Y-70659523D02*
X185788973Y-70659523D01*
X185788973Y-70659523D02*
X185931830Y-70611904D01*
X185931830Y-70611904D02*
X186503259Y-70040476D01*
X186503259Y-70040476D02*
X186503259Y-70659523D01*
X185503259Y-71564285D02*
X185503259Y-71088095D01*
X185503259Y-71088095D02*
X185979449Y-71040476D01*
X185979449Y-71040476D02*
X185931830Y-71088095D01*
X185931830Y-71088095D02*
X185884211Y-71183333D01*
X185884211Y-71183333D02*
X185884211Y-71421428D01*
X185884211Y-71421428D02*
X185931830Y-71516666D01*
X185931830Y-71516666D02*
X185979449Y-71564285D01*
X185979449Y-71564285D02*
X186074687Y-71611904D01*
X186074687Y-71611904D02*
X186312782Y-71611904D01*
X186312782Y-71611904D02*
X186408020Y-71564285D01*
X186408020Y-71564285D02*
X186455640Y-71516666D01*
X186455640Y-71516666D02*
X186503259Y-71421428D01*
X186503259Y-71421428D02*
X186503259Y-71183333D01*
X186503259Y-71183333D02*
X186455640Y-71088095D01*
X186455640Y-71088095D02*
X186408020Y-71040476D01*
X222108020Y-103307142D02*
X222155640Y-103259523D01*
X222155640Y-103259523D02*
X222203259Y-103116666D01*
X222203259Y-103116666D02*
X222203259Y-103021428D01*
X222203259Y-103021428D02*
X222155640Y-102878571D01*
X222155640Y-102878571D02*
X222060401Y-102783333D01*
X222060401Y-102783333D02*
X221965163Y-102735714D01*
X221965163Y-102735714D02*
X221774687Y-102688095D01*
X221774687Y-102688095D02*
X221631830Y-102688095D01*
X221631830Y-102688095D02*
X221441354Y-102735714D01*
X221441354Y-102735714D02*
X221346116Y-102783333D01*
X221346116Y-102783333D02*
X221250878Y-102878571D01*
X221250878Y-102878571D02*
X221203259Y-103021428D01*
X221203259Y-103021428D02*
X221203259Y-103116666D01*
X221203259Y-103116666D02*
X221250878Y-103259523D01*
X221250878Y-103259523D02*
X221298497Y-103307142D01*
X221203259Y-103640476D02*
X221203259Y-104259523D01*
X221203259Y-104259523D02*
X221584211Y-103926190D01*
X221584211Y-103926190D02*
X221584211Y-104069047D01*
X221584211Y-104069047D02*
X221631830Y-104164285D01*
X221631830Y-104164285D02*
X221679449Y-104211904D01*
X221679449Y-104211904D02*
X221774687Y-104259523D01*
X221774687Y-104259523D02*
X222012782Y-104259523D01*
X222012782Y-104259523D02*
X222108020Y-104211904D01*
X222108020Y-104211904D02*
X222155640Y-104164285D01*
X222155640Y-104164285D02*
X222203259Y-104069047D01*
X222203259Y-104069047D02*
X222203259Y-103783333D01*
X222203259Y-103783333D02*
X222155640Y-103688095D01*
X222155640Y-103688095D02*
X222108020Y-103640476D01*
X222203259Y-105211904D02*
X222203259Y-104640476D01*
X222203259Y-104926190D02*
X221203259Y-104926190D01*
X221203259Y-104926190D02*
X221346116Y-104830952D01*
X221346116Y-104830952D02*
X221441354Y-104735714D01*
X221441354Y-104735714D02*
X221488973Y-104640476D01*
X104464285Y-99503259D02*
X104464285Y-98503259D01*
X104464285Y-98503259D02*
X104226190Y-98503259D01*
X104226190Y-98503259D02*
X104083333Y-98550878D01*
X104083333Y-98550878D02*
X103988095Y-98646116D01*
X103988095Y-98646116D02*
X103940476Y-98741354D01*
X103940476Y-98741354D02*
X103892857Y-98931830D01*
X103892857Y-98931830D02*
X103892857Y-99074687D01*
X103892857Y-99074687D02*
X103940476Y-99265163D01*
X103940476Y-99265163D02*
X103988095Y-99360401D01*
X103988095Y-99360401D02*
X104083333Y-99455640D01*
X104083333Y-99455640D02*
X104226190Y-99503259D01*
X104226190Y-99503259D02*
X104464285Y-99503259D01*
X103559523Y-98503259D02*
X102940476Y-98503259D01*
X102940476Y-98503259D02*
X103273809Y-98884211D01*
X103273809Y-98884211D02*
X103130952Y-98884211D01*
X103130952Y-98884211D02*
X103035714Y-98931830D01*
X103035714Y-98931830D02*
X102988095Y-98979449D01*
X102988095Y-98979449D02*
X102940476Y-99074687D01*
X102940476Y-99074687D02*
X102940476Y-99312782D01*
X102940476Y-99312782D02*
X102988095Y-99408020D01*
X102988095Y-99408020D02*
X103035714Y-99455640D01*
X103035714Y-99455640D02*
X103130952Y-99503259D01*
X103130952Y-99503259D02*
X103416666Y-99503259D01*
X103416666Y-99503259D02*
X103511904Y-99455640D01*
X103511904Y-99455640D02*
X103559523Y-99408020D01*
X102035714Y-98503259D02*
X102511904Y-98503259D01*
X102511904Y-98503259D02*
X102559523Y-98979449D01*
X102559523Y-98979449D02*
X102511904Y-98931830D01*
X102511904Y-98931830D02*
X102416666Y-98884211D01*
X102416666Y-98884211D02*
X102178571Y-98884211D01*
X102178571Y-98884211D02*
X102083333Y-98931830D01*
X102083333Y-98931830D02*
X102035714Y-98979449D01*
X102035714Y-98979449D02*
X101988095Y-99074687D01*
X101988095Y-99074687D02*
X101988095Y-99312782D01*
X101988095Y-99312782D02*
X102035714Y-99408020D01*
X102035714Y-99408020D02*
X102083333Y-99455640D01*
X102083333Y-99455640D02*
X102178571Y-99503259D01*
X102178571Y-99503259D02*
X102416666Y-99503259D01*
X102416666Y-99503259D02*
X102511904Y-99455640D01*
X102511904Y-99455640D02*
X102559523Y-99408020D01*
X73303259Y-45811905D02*
X72303259Y-45811905D01*
X72303259Y-45811905D02*
X72303259Y-46050000D01*
X72303259Y-46050000D02*
X72350878Y-46192857D01*
X72350878Y-46192857D02*
X72446116Y-46288095D01*
X72446116Y-46288095D02*
X72541354Y-46335714D01*
X72541354Y-46335714D02*
X72731830Y-46383333D01*
X72731830Y-46383333D02*
X72874687Y-46383333D01*
X72874687Y-46383333D02*
X73065163Y-46335714D01*
X73065163Y-46335714D02*
X73160401Y-46288095D01*
X73160401Y-46288095D02*
X73255640Y-46192857D01*
X73255640Y-46192857D02*
X73303259Y-46050000D01*
X73303259Y-46050000D02*
X73303259Y-45811905D01*
X72303259Y-46716667D02*
X72303259Y-47335714D01*
X72303259Y-47335714D02*
X72684211Y-47002381D01*
X72684211Y-47002381D02*
X72684211Y-47145238D01*
X72684211Y-47145238D02*
X72731830Y-47240476D01*
X72731830Y-47240476D02*
X72779449Y-47288095D01*
X72779449Y-47288095D02*
X72874687Y-47335714D01*
X72874687Y-47335714D02*
X73112782Y-47335714D01*
X73112782Y-47335714D02*
X73208020Y-47288095D01*
X73208020Y-47288095D02*
X73255640Y-47240476D01*
X73255640Y-47240476D02*
X73303259Y-47145238D01*
X73303259Y-47145238D02*
X73303259Y-46859524D01*
X73303259Y-46859524D02*
X73255640Y-46764286D01*
X73255640Y-46764286D02*
X73208020Y-46716667D01*
X79896740Y-100492857D02*
X79896740Y-100969047D01*
X79896740Y-100969047D02*
X80896740Y-100969047D01*
X79944360Y-100207142D02*
X79896740Y-100064285D01*
X79896740Y-100064285D02*
X79896740Y-99826190D01*
X79896740Y-99826190D02*
X79944360Y-99730952D01*
X79944360Y-99730952D02*
X79991979Y-99683333D01*
X79991979Y-99683333D02*
X80087217Y-99635714D01*
X80087217Y-99635714D02*
X80182455Y-99635714D01*
X80182455Y-99635714D02*
X80277693Y-99683333D01*
X80277693Y-99683333D02*
X80325312Y-99730952D01*
X80325312Y-99730952D02*
X80372931Y-99826190D01*
X80372931Y-99826190D02*
X80420550Y-100016666D01*
X80420550Y-100016666D02*
X80468169Y-100111904D01*
X80468169Y-100111904D02*
X80515788Y-100159523D01*
X80515788Y-100159523D02*
X80611026Y-100207142D01*
X80611026Y-100207142D02*
X80706264Y-100207142D01*
X80706264Y-100207142D02*
X80801502Y-100159523D01*
X80801502Y-100159523D02*
X80849121Y-100111904D01*
X80849121Y-100111904D02*
X80896740Y-100016666D01*
X80896740Y-100016666D02*
X80896740Y-99778571D01*
X80896740Y-99778571D02*
X80849121Y-99635714D01*
X79896740Y-98683333D02*
X79896740Y-99254761D01*
X79896740Y-98969047D02*
X80896740Y-98969047D01*
X80896740Y-98969047D02*
X80753883Y-99064285D01*
X80753883Y-99064285D02*
X80658645Y-99159523D01*
X80658645Y-99159523D02*
X80611026Y-99254761D01*
X158403259Y-141935714D02*
X157403259Y-141935714D01*
X157403259Y-141935714D02*
X157403259Y-142173809D01*
X157403259Y-142173809D02*
X157450878Y-142316666D01*
X157450878Y-142316666D02*
X157546116Y-142411904D01*
X157546116Y-142411904D02*
X157641354Y-142459523D01*
X157641354Y-142459523D02*
X157831830Y-142507142D01*
X157831830Y-142507142D02*
X157974687Y-142507142D01*
X157974687Y-142507142D02*
X158165163Y-142459523D01*
X158165163Y-142459523D02*
X158260401Y-142411904D01*
X158260401Y-142411904D02*
X158355640Y-142316666D01*
X158355640Y-142316666D02*
X158403259Y-142173809D01*
X158403259Y-142173809D02*
X158403259Y-141935714D01*
X157498497Y-142888095D02*
X157450878Y-142935714D01*
X157450878Y-142935714D02*
X157403259Y-143030952D01*
X157403259Y-143030952D02*
X157403259Y-143269047D01*
X157403259Y-143269047D02*
X157450878Y-143364285D01*
X157450878Y-143364285D02*
X157498497Y-143411904D01*
X157498497Y-143411904D02*
X157593735Y-143459523D01*
X157593735Y-143459523D02*
X157688973Y-143459523D01*
X157688973Y-143459523D02*
X157831830Y-143411904D01*
X157831830Y-143411904D02*
X158403259Y-142840476D01*
X158403259Y-142840476D02*
X158403259Y-143459523D01*
X157403259Y-144078571D02*
X157403259Y-144173809D01*
X157403259Y-144173809D02*
X157450878Y-144269047D01*
X157450878Y-144269047D02*
X157498497Y-144316666D01*
X157498497Y-144316666D02*
X157593735Y-144364285D01*
X157593735Y-144364285D02*
X157784211Y-144411904D01*
X157784211Y-144411904D02*
X158022306Y-144411904D01*
X158022306Y-144411904D02*
X158212782Y-144364285D01*
X158212782Y-144364285D02*
X158308020Y-144316666D01*
X158308020Y-144316666D02*
X158355640Y-144269047D01*
X158355640Y-144269047D02*
X158403259Y-144173809D01*
X158403259Y-144173809D02*
X158403259Y-144078571D01*
X158403259Y-144078571D02*
X158355640Y-143983333D01*
X158355640Y-143983333D02*
X158308020Y-143935714D01*
X158308020Y-143935714D02*
X158212782Y-143888095D01*
X158212782Y-143888095D02*
X158022306Y-143840476D01*
X158022306Y-143840476D02*
X157784211Y-143840476D01*
X157784211Y-143840476D02*
X157593735Y-143888095D01*
X157593735Y-143888095D02*
X157498497Y-143935714D01*
X157498497Y-143935714D02*
X157450878Y-143983333D01*
X157450878Y-143983333D02*
X157403259Y-144078571D01*
D11*
X207450000Y-67600000D02*
X207150000Y-67600000D01*
X170450000Y-104600000D02*
X170150000Y-104600000D01*
X75950000Y-44600000D02*
X75650000Y-44600000D01*
X75950000Y-141100000D02*
X75650000Y-141100000D01*
X188950000Y-141600000D02*
X188650000Y-141600000D01*
X151950000Y-86100000D02*
X151650000Y-86100000D01*
X94450000Y-141100000D02*
X94150000Y-141100000D01*
X75950000Y-67600000D02*
X75650000Y-67600000D01*
X207450000Y-133600000D02*
X207150000Y-133600000D01*
X94450000Y-86100000D02*
X94150000Y-86100000D01*
X94450000Y-67600000D02*
X94150000Y-67600000D01*
X170450000Y-86100000D02*
X170150000Y-86100000D01*
X160950000Y-141600000D02*
X160650000Y-141600000D01*
X151950000Y-123100000D02*
X151650000Y-123100000D01*
X94450000Y-44600000D02*
X94150000Y-44600000D01*
X188950000Y-86100000D02*
X188650000Y-86100000D01*
X188950000Y-67600000D02*
X188650000Y-67600000D01*
X170450000Y-123100000D02*
X170150000Y-123100000D01*
X112950000Y-44600000D02*
X112650000Y-44600000D01*
X188950000Y-123100000D02*
X188650000Y-123100000D01*
X151950000Y-104600000D02*
X151650000Y-104600000D01*
X112950000Y-141100000D02*
X112650000Y-141100000D01*
D12*
X77150000Y-114150000D02*
X77150000Y-125150000D01*
X77150000Y-125150000D02*
X82150000Y-125150000D01*
X82150000Y-125150000D02*
X82150000Y-114150000D01*
X77150000Y-114150000D02*
G75*
G02*
X82150000Y-114150000I2500000J0D01*
G01*
D11*
X207450000Y-95600000D02*
X207150000Y-95600000D01*
X170450000Y-67600000D02*
X170150000Y-67600000D01*
X151950000Y-67600000D02*
X151650000Y-67600000D01*
X112950000Y-86100000D02*
X112650000Y-86100000D01*
X94450000Y-122600000D02*
X94150000Y-122600000D01*
X188950000Y-104600000D02*
X188650000Y-104600000D01*
X112950000Y-67600000D02*
X112650000Y-67600000D01*
X75950000Y-86100000D02*
X75650000Y-86100000D01*
D13*
X87950000Y-67300000D02*
X87950000Y-70000000D01*
X89550000Y-67300000D02*
X89550000Y-70860000D01*
X182450000Y-85300000D02*
X182450000Y-88000000D01*
X184050000Y-85300000D02*
X184050000Y-88860000D01*
D11*
X131315000Y-111688748D02*
X131315000Y-112211252D01*
X132785000Y-111688748D02*
X132785000Y-112211252D01*
X216427500Y-116604724D02*
X216427500Y-116095276D01*
X217472500Y-116604724D02*
X217472500Y-116095276D01*
D13*
X144150000Y-102400000D02*
X144150000Y-105100000D01*
X145750000Y-102400000D02*
X145750000Y-105960000D01*
D11*
X74115000Y-118211252D02*
X74115000Y-117688748D01*
X75585000Y-118211252D02*
X75585000Y-117688748D01*
D13*
X106450000Y-140800000D02*
X106450000Y-143500000D01*
X108050000Y-140800000D02*
X108050000Y-144360000D01*
X182450000Y-140800000D02*
X182450000Y-143500000D01*
X184050000Y-140800000D02*
X184050000Y-144360000D01*
D11*
X136351248Y-110015000D02*
X136873752Y-110015000D01*
X136351248Y-111485000D02*
X136873752Y-111485000D01*
X69740000Y-107201248D02*
X69740000Y-108623752D01*
X71560000Y-107201248D02*
X71560000Y-108623752D01*
D13*
X200850000Y-69000000D02*
X200850000Y-71700000D01*
X202450000Y-69000000D02*
X202450000Y-72560000D01*
X69450000Y-67300000D02*
X69450000Y-70000000D01*
X71050000Y-67300000D02*
X71050000Y-70860000D01*
D12*
X106150000Y-96790000D02*
X111150000Y-96790000D01*
X111150000Y-93790000D02*
X106150000Y-93790000D01*
D14*
X112426038Y-93590000D02*
G75*
G02*
X112073962Y-93590000I-176038J0D01*
G01*
X112073962Y-93590000D02*
G75*
G02*
X112426038Y-93590000I176038J0D01*
G01*
D13*
X69450000Y-140800000D02*
X69450000Y-143500000D01*
X71050000Y-140800000D02*
X71050000Y-144360000D01*
X180950000Y-102400000D02*
X180950000Y-105100000D01*
X182550000Y-102400000D02*
X182550000Y-105960000D01*
X87850000Y-45200000D02*
X87850000Y-47900000D01*
X89450000Y-45200000D02*
X89450000Y-48760000D01*
D11*
X222470000Y-116350000D02*
X222470000Y-114890000D01*
X223400000Y-114890000D02*
X222470000Y-114890000D01*
X224700000Y-114890000D02*
X225630000Y-114890000D01*
X225630000Y-114890000D02*
X225630000Y-115690000D01*
X225630000Y-116490000D02*
X225630000Y-115690000D01*
X225990000Y-117230000D02*
X225660000Y-116990000D01*
X225990000Y-116750000D01*
X225990000Y-117230000D01*
G36*
X225990000Y-117230000D02*
G01*
X225660000Y-116990000D01*
X225990000Y-116750000D01*
X225990000Y-117230000D01*
G37*
X74115000Y-114211252D02*
X74115000Y-113688748D01*
X75585000Y-114211252D02*
X75585000Y-113688748D01*
D13*
X69450000Y-86500000D02*
X69450000Y-89200000D01*
X71050000Y-86500000D02*
X71050000Y-90060000D01*
X182450000Y-123100000D02*
X182450000Y-125800000D01*
X184050000Y-123100000D02*
X184050000Y-126660000D01*
D11*
X218827500Y-116604724D02*
X218827500Y-116095276D01*
X219872500Y-116604724D02*
X219872500Y-116095276D01*
D13*
X106450000Y-86400000D02*
X106450000Y-89100000D01*
X108050000Y-86400000D02*
X108050000Y-89960000D01*
D11*
X128415000Y-93426248D02*
X128415000Y-93948752D01*
X129885000Y-93426248D02*
X129885000Y-93948752D01*
D13*
X106450000Y-67300000D02*
X106450000Y-70000000D01*
X108050000Y-67300000D02*
X108050000Y-70860000D01*
D11*
X136715000Y-107411252D02*
X136715000Y-106888748D01*
X138185000Y-107411252D02*
X138185000Y-106888748D01*
D13*
X201400000Y-84650000D02*
X198700000Y-84650000D01*
X201400000Y-86250000D02*
X197840000Y-86250000D01*
D11*
X131711252Y-105215000D02*
X131188748Y-105215000D01*
X131711252Y-106685000D02*
X131188748Y-106685000D01*
X224762498Y-110215000D02*
X225285002Y-110215000D01*
X224762498Y-111685000D02*
X225285002Y-111685000D01*
D13*
X145450000Y-85300000D02*
X145450000Y-88000000D01*
X147050000Y-85300000D02*
X147050000Y-88860000D01*
D12*
X141337500Y-138687500D02*
X131937500Y-138687500D01*
X131937500Y-142387500D01*
X141337500Y-142387500D01*
X141337500Y-138687500D01*
D13*
X163950000Y-123000000D02*
X163950000Y-125700000D01*
X165550000Y-123000000D02*
X165550000Y-126560000D01*
X87950000Y-140800000D02*
X87950000Y-143500000D01*
X89550000Y-140800000D02*
X89550000Y-144360000D01*
D11*
X224726248Y-107915000D02*
X225248752Y-107915000D01*
X224726248Y-109385000D02*
X225248752Y-109385000D01*
D13*
X162350000Y-102400000D02*
X162350000Y-105100000D01*
X163950000Y-102400000D02*
X163950000Y-105960000D01*
X133320000Y-38240000D02*
X133320000Y-37040000D01*
X133458000Y-38590000D02*
X136382000Y-38590000D01*
X133458000Y-39190000D02*
X133458000Y-38590000D01*
X136382000Y-38590000D02*
X136382000Y-39190000D01*
X136382000Y-39190000D02*
X133458000Y-39190000D01*
D11*
X216215000Y-107711252D02*
X216215000Y-107188748D01*
X217685000Y-107711252D02*
X217685000Y-107188748D01*
D13*
X87950000Y-86400000D02*
X87950000Y-89100000D01*
X89550000Y-86400000D02*
X89550000Y-89960000D01*
X106450000Y-45200000D02*
X106450000Y-47900000D01*
X108050000Y-45200000D02*
X108050000Y-48760000D01*
D11*
X136388748Y-112265000D02*
X136911252Y-112265000D01*
X136388748Y-113735000D02*
X136911252Y-113735000D01*
D13*
X145450000Y-69000000D02*
X145450000Y-71700000D01*
X147050000Y-69000000D02*
X147050000Y-72560000D01*
X163850000Y-69000000D02*
X163850000Y-71700000D01*
X165450000Y-69000000D02*
X165450000Y-72560000D01*
X163950000Y-85300000D02*
X163950000Y-88000000D01*
X165550000Y-85300000D02*
X165550000Y-88860000D01*
D11*
X134515000Y-107373752D02*
X134515000Y-106851248D01*
X135985000Y-107373752D02*
X135985000Y-106851248D01*
D12*
X106150000Y-108590000D02*
X111150000Y-108590000D01*
X111150000Y-105590000D02*
X106150000Y-105590000D01*
D14*
X112426038Y-105390000D02*
G75*
G02*
X112073962Y-105390000I-176038J0D01*
G01*
X112073962Y-105390000D02*
G75*
G02*
X112426038Y-105390000I176038J0D01*
G01*
D13*
X200750000Y-130600000D02*
X200750000Y-133300000D01*
X202350000Y-130600000D02*
X202350000Y-134160000D01*
X145450000Y-123100000D02*
X145450000Y-125800000D01*
X147050000Y-123100000D02*
X147050000Y-126660000D01*
D11*
X129065000Y-111688748D02*
X129065000Y-112211252D01*
X130535000Y-111688748D02*
X130535000Y-112211252D01*
D12*
X106150000Y-104590000D02*
X111150000Y-104590000D01*
X111150000Y-101590000D02*
X106150000Y-101590000D01*
D14*
X112426038Y-101390000D02*
G75*
G02*
X112073962Y-101390000I-176038J0D01*
G01*
X112073962Y-101390000D02*
G75*
G02*
X112426038Y-101390000I176038J0D01*
G01*
D11*
X131711252Y-107415000D02*
X131188748Y-107415000D01*
X131711252Y-108885000D02*
X131188748Y-108885000D01*
D13*
X70150000Y-112762500D02*
X73150000Y-112762500D01*
X70150000Y-115062500D02*
X70150000Y-112762500D01*
X73150000Y-112762500D02*
X73150000Y-115062500D01*
X73150000Y-115062500D02*
X70150000Y-115062500D01*
X73200000Y-115412500D02*
X73200000Y-116812500D01*
D11*
X218615000Y-107711252D02*
X218615000Y-107188748D01*
X220085000Y-107711252D02*
X220085000Y-107188748D01*
X136388748Y-114415000D02*
X136911252Y-114415000D01*
X136388748Y-115885000D02*
X136911252Y-115885000D01*
X140327500Y-121845276D02*
X140327500Y-122354724D01*
X141372500Y-121845276D02*
X141372500Y-122354724D01*
D13*
X87950000Y-121500000D02*
X87950000Y-124200000D01*
X89550000Y-121500000D02*
X89550000Y-125060000D01*
X182450000Y-69000000D02*
X182450000Y-71700000D01*
X184050000Y-69000000D02*
X184050000Y-72560000D01*
D11*
X221015000Y-107698752D02*
X221015000Y-107176248D01*
X222485000Y-107698752D02*
X222485000Y-107176248D01*
D12*
X106150000Y-100590000D02*
X111150000Y-100590000D01*
X111150000Y-97590000D02*
X106150000Y-97590000D01*
D14*
X112426038Y-97390000D02*
G75*
G02*
X112073962Y-97390000I-176038J0D01*
G01*
X112073962Y-97390000D02*
G75*
G02*
X112426038Y-97390000I176038J0D01*
G01*
D13*
X69450000Y-45200000D02*
X69450000Y-47900000D01*
X71050000Y-45200000D02*
X71050000Y-48760000D01*
X154450000Y-140800000D02*
X154450000Y-143500000D01*
X156050000Y-140800000D02*
X156050000Y-144360000D01*
%LPC*%
D15*
X204070000Y-64350000D03*
D16*
X205340000Y-61810000D03*
D17*
X209150000Y-64350000D03*
D16*
X211690000Y-59270000D03*
D15*
X214230000Y-64350000D03*
D18*
X201740000Y-61810000D03*
X215165000Y-59270000D03*
D15*
X167070000Y-101350000D03*
D16*
X168340000Y-98810000D03*
D17*
X172150000Y-101350000D03*
D16*
X174690000Y-96270000D03*
D15*
X177230000Y-101350000D03*
D18*
X164740000Y-98810000D03*
X178165000Y-96270000D03*
D19*
X67650000Y-31350000D03*
D20*
X109550000Y-116550000D03*
D21*
X116050000Y-116550000D03*
X109550000Y-121050000D03*
X116050000Y-121050000D03*
D15*
X72570000Y-41350000D03*
D16*
X73840000Y-38810000D03*
D17*
X77650000Y-41350000D03*
D16*
X80190000Y-36270000D03*
D15*
X82730000Y-41350000D03*
D18*
X70240000Y-38810000D03*
X83665000Y-36270000D03*
D19*
X67650000Y-148050000D03*
D15*
X72570000Y-137850000D03*
D16*
X73840000Y-135310000D03*
D17*
X77650000Y-137850000D03*
D16*
X80190000Y-132770000D03*
D15*
X82730000Y-137850000D03*
D18*
X70240000Y-135310000D03*
X83665000Y-132770000D03*
D15*
X185570000Y-138350000D03*
D16*
X186840000Y-135810000D03*
D17*
X190650000Y-138350000D03*
D16*
X193190000Y-133270000D03*
D15*
X195730000Y-138350000D03*
D18*
X183240000Y-135810000D03*
X196665000Y-133270000D03*
D15*
X148570000Y-82850000D03*
D16*
X149840000Y-80310000D03*
D17*
X153650000Y-82850000D03*
D16*
X156190000Y-77770000D03*
D15*
X158730000Y-82850000D03*
D18*
X146240000Y-80310000D03*
X159665000Y-77770000D03*
D19*
X226950000Y-148050000D03*
D15*
X91070000Y-137850000D03*
D16*
X92340000Y-135310000D03*
D17*
X96150000Y-137850000D03*
D16*
X98690000Y-132770000D03*
D15*
X101230000Y-137850000D03*
D18*
X88740000Y-135310000D03*
X102165000Y-132770000D03*
D15*
X72570000Y-64350000D03*
D16*
X73840000Y-61810000D03*
D17*
X77650000Y-64350000D03*
D16*
X80190000Y-59270000D03*
D15*
X82730000Y-64350000D03*
D18*
X70240000Y-61810000D03*
X83665000Y-59270000D03*
D15*
X204070000Y-130350000D03*
D16*
X205340000Y-127810000D03*
D17*
X209150000Y-130350000D03*
D16*
X211690000Y-125270000D03*
D15*
X214230000Y-130350000D03*
D18*
X201740000Y-127810000D03*
X215165000Y-125270000D03*
D22*
X140620000Y-33090000D03*
D23*
X140620000Y-29090000D03*
D22*
X129380000Y-33090000D03*
D23*
X129380000Y-29090000D03*
D15*
X91070000Y-82850000D03*
D16*
X92340000Y-80310000D03*
D17*
X96150000Y-82850000D03*
D16*
X98690000Y-77770000D03*
D15*
X101230000Y-82850000D03*
D18*
X88740000Y-80310000D03*
X102165000Y-77770000D03*
D24*
X115250000Y-95270000D03*
X115250000Y-97810000D03*
X115250000Y-100350000D03*
X115250000Y-102890000D03*
X115250000Y-105430000D03*
X115250000Y-107970000D03*
D20*
X179650000Y-42850000D03*
D21*
X186150000Y-42850000D03*
X179650000Y-47350000D03*
X186150000Y-47350000D03*
D19*
X92650000Y-99750000D03*
D15*
X91070000Y-64350000D03*
D16*
X92340000Y-61810000D03*
D17*
X96150000Y-64350000D03*
D16*
X98690000Y-59270000D03*
D15*
X101230000Y-64350000D03*
D18*
X88740000Y-61810000D03*
X102165000Y-59270000D03*
D19*
X226950000Y-31350000D03*
D15*
X167070000Y-82850000D03*
D16*
X168340000Y-80310000D03*
D17*
X172150000Y-82850000D03*
D16*
X174690000Y-77770000D03*
D15*
X177230000Y-82850000D03*
D18*
X164740000Y-80310000D03*
X178165000Y-77770000D03*
D15*
X157570000Y-138350000D03*
D16*
X158840000Y-135810000D03*
D17*
X162650000Y-138350000D03*
D16*
X165190000Y-133270000D03*
D15*
X167730000Y-138350000D03*
D18*
X155240000Y-135810000D03*
X168665000Y-133270000D03*
D15*
X148570000Y-119850000D03*
D16*
X149840000Y-117310000D03*
D17*
X153650000Y-119850000D03*
D16*
X156190000Y-114770000D03*
D15*
X158730000Y-119850000D03*
D18*
X146240000Y-117310000D03*
X159665000Y-114770000D03*
D15*
X91070000Y-41350000D03*
D16*
X92340000Y-38810000D03*
D17*
X96150000Y-41350000D03*
D16*
X98690000Y-36270000D03*
D15*
X101230000Y-41350000D03*
D18*
X88740000Y-38810000D03*
X102165000Y-36270000D03*
D15*
X185570000Y-82850000D03*
D16*
X186840000Y-80310000D03*
D17*
X190650000Y-82850000D03*
D16*
X193190000Y-77770000D03*
D15*
X195730000Y-82850000D03*
D18*
X183240000Y-80310000D03*
X196665000Y-77770000D03*
D15*
X185570000Y-64350000D03*
D16*
X186840000Y-61810000D03*
D17*
X190650000Y-64350000D03*
D16*
X193190000Y-59270000D03*
D15*
X195730000Y-64350000D03*
D18*
X183240000Y-61810000D03*
X196665000Y-59270000D03*
D15*
X167070000Y-119850000D03*
D16*
X168340000Y-117310000D03*
D17*
X172150000Y-119850000D03*
D16*
X174690000Y-114770000D03*
D15*
X177230000Y-119850000D03*
D18*
X164740000Y-117310000D03*
X178165000Y-114770000D03*
D21*
X201825000Y-37850000D03*
X201825000Y-40350000D03*
X201825000Y-42850000D03*
D20*
X216325000Y-37850000D03*
D21*
X216325000Y-42850000D03*
D25*
X209325000Y-34750000D03*
X209325000Y-45950000D03*
D15*
X109570000Y-41350000D03*
D16*
X110840000Y-38810000D03*
D17*
X114650000Y-41350000D03*
D16*
X117190000Y-36270000D03*
D15*
X119730000Y-41350000D03*
D18*
X107240000Y-38810000D03*
X120665000Y-36270000D03*
D15*
X185570000Y-119850000D03*
D16*
X186840000Y-117310000D03*
D17*
X190650000Y-119850000D03*
D16*
X193190000Y-114770000D03*
D15*
X195730000Y-119850000D03*
D18*
X183240000Y-117310000D03*
X196665000Y-114770000D03*
D15*
X148570000Y-101350000D03*
D16*
X149840000Y-98810000D03*
D17*
X153650000Y-101350000D03*
D16*
X156190000Y-96270000D03*
D15*
X158730000Y-101350000D03*
D18*
X146240000Y-98810000D03*
X159665000Y-96270000D03*
D15*
X109570000Y-137850000D03*
D16*
X110840000Y-135310000D03*
D17*
X114650000Y-137850000D03*
D16*
X117190000Y-132770000D03*
D15*
X119730000Y-137850000D03*
D18*
X107240000Y-135310000D03*
X120665000Y-132770000D03*
D26*
X80650000Y-114150000D03*
D27*
X78650000Y-114150000D03*
D19*
X202950000Y-104150000D03*
D15*
X204070000Y-92350000D03*
D16*
X205340000Y-89810000D03*
D17*
X209150000Y-92350000D03*
D16*
X211690000Y-87270000D03*
D15*
X214230000Y-92350000D03*
D18*
X201740000Y-89810000D03*
X215165000Y-87270000D03*
D15*
X167070000Y-64350000D03*
D16*
X168340000Y-61810000D03*
D17*
X172150000Y-64350000D03*
D16*
X174690000Y-59270000D03*
D15*
X177230000Y-64350000D03*
D18*
X164740000Y-61810000D03*
X178165000Y-59270000D03*
D15*
X148570000Y-64350000D03*
D16*
X149840000Y-61810000D03*
D17*
X153650000Y-64350000D03*
D16*
X156190000Y-59270000D03*
D15*
X158730000Y-64350000D03*
D18*
X146240000Y-61810000D03*
X159665000Y-59270000D03*
D15*
X109570000Y-82850000D03*
D16*
X110840000Y-80310000D03*
D17*
X114650000Y-82850000D03*
D16*
X117190000Y-77770000D03*
D15*
X119730000Y-82850000D03*
D18*
X107240000Y-80310000D03*
X120665000Y-77770000D03*
D15*
X91070000Y-119350000D03*
D16*
X92340000Y-116810000D03*
D17*
X96150000Y-119350000D03*
D16*
X98690000Y-114270000D03*
D15*
X101230000Y-119350000D03*
D18*
X88740000Y-116810000D03*
X102165000Y-114270000D03*
D15*
X185570000Y-101350000D03*
D16*
X186840000Y-98810000D03*
D17*
X190650000Y-101350000D03*
D16*
X193190000Y-96270000D03*
D15*
X195730000Y-101350000D03*
D18*
X183240000Y-98810000D03*
X196665000Y-96270000D03*
D15*
X109570000Y-64350000D03*
D16*
X110840000Y-61810000D03*
D17*
X114650000Y-64350000D03*
D16*
X117190000Y-59270000D03*
D15*
X119730000Y-64350000D03*
D18*
X107240000Y-61810000D03*
X120665000Y-59270000D03*
D15*
X72570000Y-82850000D03*
D16*
X73840000Y-80310000D03*
D17*
X77650000Y-82850000D03*
D16*
X80190000Y-77770000D03*
D15*
X82730000Y-82850000D03*
D18*
X70240000Y-80310000D03*
X83665000Y-77770000D03*
D28*
X88750000Y-70350000D03*
X88750000Y-66950000D03*
X183250000Y-88350000D03*
X183250000Y-84950000D03*
D29*
X132050000Y-112987500D03*
X132050000Y-110912500D03*
D30*
X216950000Y-115437500D03*
X216950000Y-117262500D03*
D28*
X144950000Y-105450000D03*
X144950000Y-102050000D03*
D31*
X74850000Y-116912500D03*
X74850000Y-118987500D03*
D28*
X107250000Y-143850000D03*
X107250000Y-140450000D03*
X183250000Y-143850000D03*
X183250000Y-140450000D03*
D32*
X137650000Y-110750000D03*
X135575000Y-110750000D03*
D33*
X70650000Y-109475000D03*
X70650000Y-106350000D03*
D28*
X201650000Y-72050000D03*
X201650000Y-68650000D03*
X70250000Y-70350000D03*
X70250000Y-66950000D03*
D34*
X106300000Y-95290000D03*
X111000000Y-95290000D03*
D28*
X70250000Y-143850000D03*
X70250000Y-140450000D03*
X181750000Y-105450000D03*
X181750000Y-102050000D03*
X88650000Y-48250000D03*
X88650000Y-44850000D03*
D35*
X225000000Y-117150000D03*
X223100000Y-117150000D03*
X224050000Y-114150000D03*
D31*
X74850000Y-112912500D03*
X74850000Y-114987500D03*
D28*
X70250000Y-89550000D03*
X70250000Y-86150000D03*
X183250000Y-126150000D03*
X183250000Y-122750000D03*
D30*
X219350000Y-115437500D03*
X219350000Y-117262500D03*
D28*
X107250000Y-89450000D03*
X107250000Y-86050000D03*
D29*
X129150000Y-94725000D03*
X129150000Y-92650000D03*
D28*
X107250000Y-70350000D03*
X107250000Y-66950000D03*
D31*
X137450000Y-106112500D03*
X137450000Y-108187500D03*
D36*
X198350000Y-85450000D03*
X201750000Y-85450000D03*
D37*
X130412500Y-105950000D03*
X132487500Y-105950000D03*
D32*
X226061250Y-110950000D03*
X223986250Y-110950000D03*
D28*
X146250000Y-88350000D03*
X146250000Y-84950000D03*
D38*
X134137500Y-139787500D03*
X136637500Y-139787500D03*
X139137500Y-139787500D03*
D28*
X164750000Y-126050000D03*
X164750000Y-122650000D03*
X88750000Y-143850000D03*
X88750000Y-140450000D03*
D32*
X226025000Y-108650000D03*
X223950000Y-108650000D03*
D39*
X139450000Y-110950000D03*
X139450000Y-112550000D03*
D28*
X163150000Y-105450000D03*
X163150000Y-102050000D03*
D40*
X133970000Y-37640000D03*
X134920000Y-37640000D03*
X135870000Y-37640000D03*
X135870000Y-40140000D03*
X134920000Y-40140000D03*
X133970000Y-40140000D03*
D31*
X216950000Y-106412500D03*
X216950000Y-108487500D03*
D28*
X88750000Y-89450000D03*
X88750000Y-86050000D03*
X107250000Y-48250000D03*
X107250000Y-44850000D03*
D32*
X137687500Y-113000000D03*
X135612500Y-113000000D03*
D28*
X146250000Y-72050000D03*
X146250000Y-68650000D03*
X164650000Y-72050000D03*
X164650000Y-68650000D03*
X164750000Y-88350000D03*
X164750000Y-84950000D03*
D31*
X135250000Y-106075000D03*
X135250000Y-108150000D03*
D34*
X106300000Y-107090000D03*
X111000000Y-107090000D03*
D28*
X201550000Y-133650000D03*
X201550000Y-130250000D03*
X146250000Y-126150000D03*
X146250000Y-122750000D03*
D29*
X129800000Y-112987500D03*
X129800000Y-110912500D03*
D34*
X106300000Y-103090000D03*
X111000000Y-103090000D03*
D37*
X130412500Y-108150000D03*
X132487500Y-108150000D03*
D41*
X72625000Y-116112500D03*
X71975000Y-116112500D03*
X71325000Y-116112500D03*
X70675000Y-116112500D03*
X70675000Y-111712500D03*
X71325000Y-111712500D03*
X71975000Y-111712500D03*
X72625000Y-111712500D03*
D31*
X219350000Y-106412500D03*
X219350000Y-108487500D03*
D32*
X137687500Y-115150000D03*
X135612500Y-115150000D03*
D42*
X140850000Y-123012500D03*
X140850000Y-121187500D03*
D28*
X88750000Y-124550000D03*
X88750000Y-121150000D03*
X183250000Y-72050000D03*
X183250000Y-68650000D03*
D31*
X221750000Y-106400000D03*
X221750000Y-108475000D03*
D34*
X106300000Y-99090000D03*
X111000000Y-99090000D03*
D28*
X70250000Y-48250000D03*
X70250000Y-44850000D03*
D43*
X77375000Y-103075000D03*
X77375000Y-96425000D03*
X70725000Y-103075000D03*
X70725000Y-96425000D03*
D28*
X155250000Y-143850000D03*
X155250000Y-140450000D03*
%LPD*%
M02*
