%TF.GenerationSoftware,KiCad,Pcbnew,8.0.3*%
%TF.CreationDate,2024-08-13T11:45:48+03:00*%
%TF.ProjectId,Keyboard_stm32,4b657962-6f61-4726-945f-73746d33322e,rev?*%
%TF.SameCoordinates,Original*%
%TF.FileFunction,Drillmap*%
%TF.FilePolarity,Positive*%
%FSLAX45Y45*%
G04 Gerber Fmt 4.5, Leading zero omitted, Abs format (unit mm)*
G04 Created by KiCad (PCBNEW 8.0.3) date 2024-08-13 11:45:48*
%MOMM*%
%LPD*%
G01*
G04 APERTURE LIST*
%ADD10C,0.050000*%
%ADD11C,0.200000*%
%ADD12C,0.100000*%
%ADD13C,0.102000*%
%ADD14C,0.290000*%
%ADD15C,0.300000*%
G04 APERTURE END LIST*
D10*
X6315000Y-2685000D02*
X23145000Y-2685000D01*
X23145000Y-15255000D01*
X6315000Y-15255000D01*
X6315000Y-2685000D01*
D11*
D12*
X7030000Y-11840000D02*
X7060000Y-11870000D01*
X7060000Y-11840000D02*
X7030000Y-11870000D01*
X7060000Y-9940000D02*
X7090000Y-9970000D01*
X7090000Y-9940000D02*
X7060000Y-9970000D01*
X7130000Y-11840000D02*
X7160000Y-11870000D01*
X7160000Y-11840000D02*
X7130000Y-11870000D01*
X7377500Y-9627500D02*
X7407500Y-9657500D01*
X7407500Y-9627500D02*
X7377500Y-9657500D01*
X7470000Y-12040000D02*
X7500000Y-12070000D01*
X7500000Y-12040000D02*
X7470000Y-12070000D01*
X8050000Y-5080000D02*
X8080000Y-5110000D01*
X8080000Y-5080000D02*
X8050000Y-5110000D01*
X8050000Y-5610000D02*
X8080000Y-5640000D01*
X8080000Y-5610000D02*
X8050000Y-5640000D01*
X8050000Y-6840000D02*
X8080000Y-6870000D01*
X8080000Y-6840000D02*
X8050000Y-6870000D01*
X8050000Y-7220000D02*
X8080000Y-7250000D01*
X8080000Y-7220000D02*
X8050000Y-7250000D01*
X8050000Y-8750000D02*
X8080000Y-8780000D01*
X8080000Y-8750000D02*
X8050000Y-8780000D01*
X8520000Y-12530000D02*
X8550000Y-12560000D01*
X8550000Y-12530000D02*
X8520000Y-12560000D01*
X8860000Y-12630000D02*
X8890000Y-12660000D01*
X8890000Y-12630000D02*
X8860000Y-12660000D01*
X9890000Y-8840000D02*
X9920000Y-8870000D01*
X9920000Y-8840000D02*
X9890000Y-8870000D01*
X9890000Y-9250000D02*
X9920000Y-9280000D01*
X9920000Y-9250000D02*
X9890000Y-9280000D01*
X9900000Y-5000000D02*
X9930000Y-5030000D01*
X9930000Y-5000000D02*
X9900000Y-5030000D01*
X9900000Y-5610000D02*
X9930000Y-5640000D01*
X9930000Y-5610000D02*
X9900000Y-5640000D01*
X9900000Y-6880000D02*
X9930000Y-6910000D01*
X9930000Y-6880000D02*
X9900000Y-6910000D01*
X9900000Y-7220000D02*
X9930000Y-7250000D01*
X9930000Y-7220000D02*
X9900000Y-7250000D01*
X9900000Y-12500000D02*
X9930000Y-12530000D01*
X9930000Y-12500000D02*
X9900000Y-12530000D01*
X10410000Y-9700000D02*
X10440000Y-9730000D01*
X10440000Y-9700000D02*
X10410000Y-9730000D01*
X10410000Y-10480000D02*
X10440000Y-10510000D01*
X10440000Y-10480000D02*
X10410000Y-10510000D01*
X11750000Y-5020000D02*
X11780000Y-5050000D01*
X11780000Y-5020000D02*
X11750000Y-5050000D01*
X11750000Y-5610000D02*
X11780000Y-5640000D01*
X11780000Y-5610000D02*
X11750000Y-5640000D01*
X11750000Y-6860000D02*
X11780000Y-6890000D01*
X11780000Y-6860000D02*
X11750000Y-6890000D01*
X11750000Y-7220000D02*
X11780000Y-7250000D01*
X11780000Y-7220000D02*
X11750000Y-7250000D01*
X11825000Y-8770000D02*
X11855000Y-8800000D01*
X11855000Y-8770000D02*
X11825000Y-8800000D01*
X11825000Y-9270000D02*
X11855000Y-9300000D01*
X11855000Y-9270000D02*
X11825000Y-9300000D01*
X12050000Y-12580000D02*
X12080000Y-12610000D01*
X12080000Y-12580000D02*
X12050000Y-12610000D01*
X12200000Y-11230000D02*
X12230000Y-11260000D01*
X12230000Y-11230000D02*
X12200000Y-11260000D01*
X12270000Y-9520000D02*
X12300000Y-9550000D01*
X12300000Y-9520000D02*
X12270000Y-9550000D01*
X12300000Y-10530000D02*
X12330000Y-10560000D01*
X12330000Y-10530000D02*
X12300000Y-10560000D01*
X12370000Y-9450000D02*
X12400000Y-9480000D01*
X12400000Y-9450000D02*
X12370000Y-9480000D01*
X12370000Y-11776250D02*
X12400000Y-11806250D01*
X12400000Y-11776250D02*
X12370000Y-11806250D01*
X12425000Y-10535000D02*
X12455000Y-10565000D01*
X12455000Y-10535000D02*
X12425000Y-10565000D01*
X12430000Y-13380000D02*
X12460000Y-13410000D01*
X12460000Y-13380000D02*
X12430000Y-13410000D01*
X12470000Y-9380000D02*
X12500000Y-9410000D01*
X12500000Y-9380000D02*
X12470000Y-9410000D01*
X12545000Y-10535000D02*
X12575000Y-10565000D01*
X12575000Y-10535000D02*
X12545000Y-10565000D01*
X12560000Y-4860000D02*
X12590000Y-4890000D01*
X12590000Y-4860000D02*
X12560000Y-4890000D01*
X12570000Y-9320000D02*
X12600000Y-9350000D01*
X12600000Y-9320000D02*
X12570000Y-9350000D01*
X12640000Y-11960000D02*
X12670000Y-11990000D01*
X12670000Y-11960000D02*
X12640000Y-11990000D01*
X12670000Y-5000000D02*
X12700000Y-5030000D01*
X12700000Y-5000000D02*
X12670000Y-5030000D01*
X12670000Y-5180000D02*
X12700000Y-5210000D01*
X12700000Y-5180000D02*
X12670000Y-5210000D01*
X12670000Y-10540000D02*
X12700000Y-10570000D01*
X12700000Y-10540000D02*
X12670000Y-10570000D01*
X12690000Y-5300000D02*
X12720000Y-5330000D01*
X12720000Y-5300000D02*
X12690000Y-5330000D01*
X12710000Y-10945000D02*
X12740000Y-10975000D01*
X12740000Y-10945000D02*
X12710000Y-10975000D01*
X12740000Y-9420000D02*
X12770000Y-9450000D01*
X12770000Y-9420000D02*
X12740000Y-9450000D01*
X12740000Y-11060000D02*
X12770000Y-11090000D01*
X12770000Y-11060000D02*
X12740000Y-11090000D01*
X12740000Y-12130000D02*
X12770000Y-12160000D01*
X12770000Y-12130000D02*
X12740000Y-12160000D01*
X12750000Y-9220000D02*
X12780000Y-9250000D01*
X12780000Y-9220000D02*
X12750000Y-9250000D01*
X12750000Y-11180000D02*
X12780000Y-11210000D01*
X12780000Y-11180000D02*
X12750000Y-11210000D01*
X12790000Y-4860000D02*
X12820000Y-4890000D01*
X12820000Y-4860000D02*
X12790000Y-4890000D01*
X12850000Y-5240000D02*
X12880000Y-5270000D01*
X12880000Y-5240000D02*
X12850000Y-5270000D01*
X12950000Y-10380000D02*
X12980000Y-10410000D01*
X12980000Y-10380000D02*
X12950000Y-10410000D01*
X13050000Y-10280000D02*
X13080000Y-10310000D01*
X13080000Y-10280000D02*
X13050000Y-10310000D01*
X13057500Y-10941199D02*
X13087500Y-10971199D01*
X13087500Y-10941199D02*
X13057500Y-10971199D01*
X13163125Y-3893125D02*
X13193125Y-3923125D01*
X13193125Y-3893125D02*
X13163125Y-3923125D01*
X13180000Y-4106250D02*
X13210000Y-4136250D01*
X13210000Y-4106250D02*
X13180000Y-4136250D01*
X13230000Y-10940000D02*
X13260000Y-10970000D01*
X13260000Y-10940000D02*
X13230000Y-10970000D01*
X13340000Y-11610000D02*
X13370000Y-11640000D01*
X13370000Y-11610000D02*
X13340000Y-11640000D01*
X13370000Y-10600000D02*
X13400000Y-10630000D01*
X13400000Y-10600000D02*
X13370000Y-10630000D01*
X13370000Y-10780000D02*
X13400000Y-10810000D01*
X13400000Y-10780000D02*
X13370000Y-10810000D01*
X13390000Y-10960000D02*
X13420000Y-10990000D01*
X13420000Y-10960000D02*
X13390000Y-10990000D01*
X13390000Y-11080000D02*
X13420000Y-11110000D01*
X13420000Y-11080000D02*
X13390000Y-11110000D01*
X13400000Y-11540000D02*
X13430000Y-11570000D01*
X13430000Y-11540000D02*
X13400000Y-11570000D01*
X13400000Y-11700000D02*
X13430000Y-11730000D01*
X13430000Y-11700000D02*
X13400000Y-11730000D01*
X13410000Y-3621000D02*
X13440000Y-3651000D01*
X13440000Y-3621000D02*
X13410000Y-3651000D01*
X13410000Y-12600000D02*
X13440000Y-12630000D01*
X13440000Y-12600000D02*
X13410000Y-12630000D01*
X13430000Y-4140000D02*
X13460000Y-4170000D01*
X13460000Y-4140000D02*
X13430000Y-4170000D01*
X13520000Y-4140000D02*
X13550000Y-4170000D01*
X13550000Y-4140000D02*
X13520000Y-4170000D01*
X13542000Y-3619000D02*
X13572000Y-3649000D01*
X13572000Y-3619000D02*
X13542000Y-3649000D01*
X13550000Y-10140000D02*
X13580000Y-10170000D01*
X13580000Y-10140000D02*
X13550000Y-10170000D01*
X13630000Y-10920000D02*
X13660000Y-10950000D01*
X13660000Y-10920000D02*
X13630000Y-10950000D01*
X13666664Y-8128336D02*
X13696664Y-8158336D01*
X13696664Y-8128336D02*
X13666664Y-8158336D01*
X13670000Y-6600000D02*
X13700000Y-6630000D01*
X13700000Y-6600000D02*
X13670000Y-6630000D01*
X13700000Y-10050000D02*
X13730000Y-10080000D01*
X13730000Y-10050000D02*
X13700000Y-10080000D01*
X13710000Y-3664000D02*
X13740000Y-3694000D01*
X13740000Y-3664000D02*
X13710000Y-3694000D01*
X13790000Y-10440000D02*
X13820000Y-10470000D01*
X13820000Y-10440000D02*
X13790000Y-10470000D01*
X13812000Y-3539000D02*
X13842000Y-3569000D01*
X13842000Y-3539000D02*
X13812000Y-3569000D01*
X13822500Y-9917500D02*
X13852500Y-9947500D01*
X13852500Y-9917500D02*
X13822500Y-9947500D01*
X13830000Y-13153750D02*
X13860000Y-13183750D01*
X13860000Y-13153750D02*
X13830000Y-13183750D01*
X13860000Y-5000000D02*
X13890000Y-5030000D01*
X13890000Y-5000000D02*
X13860000Y-5030000D01*
X13860000Y-5120000D02*
X13890000Y-5150000D01*
X13890000Y-5120000D02*
X13860000Y-5150000D01*
X13860000Y-5240000D02*
X13890000Y-5270000D01*
X13890000Y-5240000D02*
X13860000Y-5270000D01*
X13860000Y-5340000D02*
X13890000Y-5370000D01*
X13890000Y-5340000D02*
X13860000Y-5370000D01*
X13930000Y-10570000D02*
X13960000Y-10600000D01*
X13960000Y-10570000D02*
X13930000Y-10600000D01*
X14210000Y-11640000D02*
X14240000Y-11670000D01*
X14240000Y-11640000D02*
X14210000Y-11670000D01*
X14545000Y-3900000D02*
X14575000Y-3930000D01*
X14575000Y-3900000D02*
X14545000Y-3930000D01*
X14550000Y-14370000D02*
X14580000Y-14400000D01*
X14580000Y-14370000D02*
X14550000Y-14400000D01*
X14620000Y-4465000D02*
X14650000Y-4495000D01*
X14650000Y-4465000D02*
X14620000Y-4495000D01*
X14870000Y-4465000D02*
X14900000Y-4495000D01*
X14900000Y-4465000D02*
X14870000Y-4495000D01*
X15470000Y-3495000D02*
X15500000Y-3525000D01*
X15500000Y-3495000D02*
X15470000Y-3525000D01*
X15550000Y-3750000D02*
X15580000Y-3780000D01*
X15580000Y-3750000D02*
X15550000Y-3780000D01*
X15550000Y-4240000D02*
X15580000Y-4270000D01*
X15580000Y-4240000D02*
X15550000Y-4270000D01*
X15650000Y-8700000D02*
X15680000Y-8730000D01*
X15680000Y-8700000D02*
X15650000Y-8730000D01*
X15650000Y-8940000D02*
X15680000Y-8970000D01*
X15680000Y-8940000D02*
X15650000Y-8970000D01*
X15700000Y-3900000D02*
X15730000Y-3930000D01*
X15730000Y-3900000D02*
X15700000Y-3930000D01*
X15700000Y-4100000D02*
X15730000Y-4130000D01*
X15730000Y-4100000D02*
X15700000Y-4130000D01*
X15700000Y-7000000D02*
X15730000Y-7030000D01*
X15730000Y-7000000D02*
X15700000Y-7030000D01*
X15700000Y-7420000D02*
X15730000Y-7450000D01*
X15730000Y-7420000D02*
X15700000Y-7450000D01*
X15700000Y-10210000D02*
X15730000Y-10240000D01*
X15730000Y-10210000D02*
X15700000Y-10240000D01*
X15700000Y-10480000D02*
X15730000Y-10510000D01*
X15730000Y-10480000D02*
X15700000Y-10510000D01*
X15700000Y-10670000D02*
X15730000Y-10700000D01*
X15730000Y-10670000D02*
X15700000Y-10700000D01*
X15720000Y-12385000D02*
X15750000Y-12415000D01*
X15750000Y-12385000D02*
X15720000Y-12415000D01*
X15730000Y-12820000D02*
X15760000Y-12850000D01*
X15760000Y-12820000D02*
X15730000Y-12850000D01*
X17475000Y-10370000D02*
X17505000Y-10400000D01*
X17505000Y-10370000D02*
X17475000Y-10400000D01*
X17475000Y-10595000D02*
X17505000Y-10625000D01*
X17505000Y-10595000D02*
X17475000Y-10625000D01*
X17490000Y-4080000D02*
X17520000Y-4110000D01*
X17520000Y-4080000D02*
X17490000Y-4110000D01*
X17500000Y-6940000D02*
X17530000Y-6970000D01*
X17530000Y-6940000D02*
X17500000Y-6970000D01*
X17500000Y-7360000D02*
X17530000Y-7390000D01*
X17530000Y-7360000D02*
X17500000Y-7390000D01*
X17525000Y-8700000D02*
X17555000Y-8730000D01*
X17555000Y-8700000D02*
X17525000Y-8730000D01*
X17525000Y-8940000D02*
X17555000Y-8970000D01*
X17555000Y-8940000D02*
X17525000Y-8970000D01*
X19350000Y-8700000D02*
X19380000Y-8730000D01*
X19380000Y-8700000D02*
X19350000Y-8730000D01*
X19350000Y-8945000D02*
X19380000Y-8975000D01*
X19380000Y-8945000D02*
X19350000Y-8975000D01*
X19350000Y-9245000D02*
X19380000Y-9275000D01*
X19380000Y-9245000D02*
X19350000Y-9275000D01*
X19350000Y-12390000D02*
X19380000Y-12420000D01*
X19380000Y-12390000D02*
X19350000Y-12420000D01*
X19350000Y-12790000D02*
X19380000Y-12820000D01*
X19380000Y-12790000D02*
X19350000Y-12820000D01*
X19400000Y-6980000D02*
X19430000Y-7010000D01*
X19430000Y-6980000D02*
X19400000Y-7010000D01*
X19400000Y-7360000D02*
X19430000Y-7390000D01*
X19430000Y-7360000D02*
X19400000Y-7390000D01*
X19533750Y-3953750D02*
X19563750Y-3983750D01*
X19563750Y-3953750D02*
X19533750Y-3983750D01*
X19960000Y-10680000D02*
X19990000Y-10710000D01*
X19990000Y-10680000D02*
X19960000Y-10710000D01*
X19960000Y-11270000D02*
X19990000Y-11300000D01*
X19990000Y-11270000D02*
X19960000Y-11300000D01*
X21200000Y-9720000D02*
X21230000Y-9750000D01*
X21230000Y-9720000D02*
X21200000Y-9750000D01*
X21480000Y-10660000D02*
X21510000Y-10690000D01*
X21510000Y-10660000D02*
X21480000Y-10690000D01*
X21480000Y-10800000D02*
X21510000Y-10830000D01*
X21510000Y-10800000D02*
X21480000Y-10830000D01*
X21683625Y-11180000D02*
X21713625Y-11210000D01*
X21713625Y-11180000D02*
X21683625Y-11210000D01*
X21790000Y-11880000D02*
X21820000Y-11910000D01*
X21820000Y-11880000D02*
X21790000Y-11910000D01*
X21970000Y-3420000D02*
X22000000Y-3450000D01*
X22000000Y-3420000D02*
X21970000Y-3450000D01*
X22083625Y-11240000D02*
X22113625Y-11270000D01*
X22113625Y-11240000D02*
X22083625Y-11270000D01*
X22083625Y-11565000D02*
X22113625Y-11595000D01*
X22113625Y-11565000D02*
X22083625Y-11595000D01*
X22510000Y-11980000D02*
X22540000Y-12010000D01*
X22540000Y-11980000D02*
X22510000Y-12010000D01*
X22560000Y-10490000D02*
X22590000Y-10520000D01*
X22590000Y-10490000D02*
X22560000Y-10520000D01*
X22580000Y-11460000D02*
X22610000Y-11490000D01*
X22610000Y-11460000D02*
X22580000Y-11490000D01*
X22590000Y-11240000D02*
X22620000Y-11270000D01*
X22620000Y-11240000D02*
X22590000Y-11270000D01*
X22740000Y-11610000D02*
X22770000Y-11640000D01*
X22770000Y-11610000D02*
X22740000Y-11640000D01*
X12968000Y-2909000D02*
G75*
G02*
X12908000Y-2909000I-30000J0D01*
G01*
X12908000Y-2909000D02*
G75*
G02*
X12968000Y-2909000I30000J0D01*
G01*
X12968000Y-2969000D02*
X12968000Y-2849000D01*
X12908000Y-2849000D02*
G75*
G02*
X12968000Y-2849000I30000J0D01*
G01*
X12908000Y-2849000D02*
X12908000Y-2969000D01*
X12908000Y-2969000D02*
G75*
G03*
X12968000Y-2969000I30000J0D01*
G01*
X12968000Y-3309000D02*
G75*
G02*
X12908000Y-3309000I-30000J0D01*
G01*
X12908000Y-3309000D02*
G75*
G02*
X12968000Y-3309000I30000J0D01*
G01*
X12968000Y-3349000D02*
X12968000Y-3269000D01*
X12908000Y-3269000D02*
G75*
G02*
X12968000Y-3269000I30000J0D01*
G01*
X12908000Y-3269000D02*
X12908000Y-3349000D01*
X12908000Y-3349000D02*
G75*
G03*
X12968000Y-3349000I30000J0D01*
G01*
X14092000Y-2909000D02*
G75*
G02*
X14032000Y-2909000I-30000J0D01*
G01*
X14032000Y-2909000D02*
G75*
G02*
X14092000Y-2909000I30000J0D01*
G01*
X14092000Y-2969000D02*
X14092000Y-2849000D01*
X14032000Y-2849000D02*
G75*
G02*
X14092000Y-2849000I30000J0D01*
G01*
X14032000Y-2849000D02*
X14032000Y-2969000D01*
X14032000Y-2969000D02*
G75*
G03*
X14092000Y-2969000I30000J0D01*
G01*
X14092000Y-3309000D02*
G75*
G02*
X14032000Y-3309000I-30000J0D01*
G01*
X14032000Y-3309000D02*
G75*
G02*
X14092000Y-3309000I30000J0D01*
G01*
X14092000Y-3349000D02*
X14092000Y-3269000D01*
X14032000Y-3269000D02*
G75*
G02*
X14092000Y-3269000I30000J0D01*
G01*
X14032000Y-3269000D02*
X14032000Y-3349000D01*
X14032000Y-3349000D02*
G75*
G03*
X14092000Y-3349000I30000J0D01*
G01*
X7865000Y-11380000D02*
X7865000Y-11450000D01*
X7830000Y-11415000D02*
X7900000Y-11415000D01*
X8065000Y-11380000D02*
X8065000Y-11450000D01*
X8030000Y-11415000D02*
X8100000Y-11415000D01*
X13445570Y-14010570D02*
X13445570Y-13946930D01*
X13381930Y-13946930D01*
X13381930Y-14010570D01*
X13445570Y-14010570D01*
X13695570Y-14010570D02*
X13695570Y-13946930D01*
X13631930Y-13946930D01*
X13631930Y-14010570D01*
X13695570Y-14010570D01*
X13945570Y-14010570D02*
X13945570Y-13946930D01*
X13881930Y-13946930D01*
X13881930Y-14010570D01*
X13945570Y-14010570D01*
X10955000Y-11705000D02*
X11005000Y-11655000D01*
X10955000Y-11605000D01*
X10905000Y-11655000D01*
X10955000Y-11705000D01*
X10955000Y-12155000D02*
X11005000Y-12105000D01*
X10955000Y-12055000D01*
X10905000Y-12105000D01*
X10955000Y-12155000D01*
X11605000Y-11705000D02*
X11655000Y-11655000D01*
X11605000Y-11605000D01*
X11555000Y-11655000D01*
X11605000Y-11705000D01*
X11605000Y-12155000D02*
X11655000Y-12105000D01*
X11605000Y-12055000D01*
X11555000Y-12105000D01*
X11605000Y-12155000D01*
X17965000Y-4335000D02*
X18015000Y-4285000D01*
X17965000Y-4235000D01*
X17915000Y-4285000D01*
X17965000Y-4335000D01*
X17965000Y-4785000D02*
X18015000Y-4735000D01*
X17965000Y-4685000D01*
X17915000Y-4735000D01*
X17965000Y-4785000D01*
X18615000Y-4335000D02*
X18665000Y-4285000D01*
X18615000Y-4235000D01*
X18565000Y-4285000D01*
X18615000Y-4335000D01*
X18615000Y-4785000D02*
X18665000Y-4735000D01*
X18615000Y-4685000D01*
X18565000Y-4735000D01*
X18615000Y-4785000D01*
X20182500Y-3835000D02*
X20232500Y-3785000D01*
X20182500Y-3735000D01*
X20132500Y-3785000D01*
X20182500Y-3835000D01*
X20182500Y-4085000D02*
X20232500Y-4035000D01*
X20182500Y-3985000D01*
X20132500Y-4035000D01*
X20182500Y-4085000D01*
X20182500Y-4335000D02*
X20232500Y-4285000D01*
X20182500Y-4235000D01*
X20132500Y-4285000D01*
X20182500Y-4335000D01*
X21632500Y-3835000D02*
X21682500Y-3785000D01*
X21632500Y-3735000D01*
X21582500Y-3785000D01*
X21632500Y-3835000D01*
X21632500Y-4335000D02*
X21682500Y-4285000D01*
X21632500Y-4235000D01*
X21582500Y-4285000D01*
X21632500Y-4335000D01*
D13*
X11474000Y-9476000D02*
X11576000Y-9578000D01*
X11576000Y-9476000D02*
X11474000Y-9578000D01*
X11576000Y-9527000D02*
G75*
G02*
X11474000Y-9527000I-51000J0D01*
G01*
X11474000Y-9527000D02*
G75*
G02*
X11576000Y-9527000I51000J0D01*
G01*
X11474000Y-9730000D02*
X11576000Y-9832000D01*
X11576000Y-9730000D02*
X11474000Y-9832000D01*
X11576000Y-9781000D02*
G75*
G02*
X11474000Y-9781000I-51000J0D01*
G01*
X11474000Y-9781000D02*
G75*
G02*
X11576000Y-9781000I51000J0D01*
G01*
X11474000Y-9984000D02*
X11576000Y-10086000D01*
X11576000Y-9984000D02*
X11474000Y-10086000D01*
X11576000Y-10035000D02*
G75*
G02*
X11474000Y-10035000I-51000J0D01*
G01*
X11474000Y-10035000D02*
G75*
G02*
X11576000Y-10035000I51000J0D01*
G01*
X11474000Y-10238000D02*
X11576000Y-10340000D01*
X11576000Y-10238000D02*
X11474000Y-10340000D01*
X11576000Y-10289000D02*
G75*
G02*
X11474000Y-10289000I-51000J0D01*
G01*
X11474000Y-10289000D02*
G75*
G02*
X11576000Y-10289000I51000J0D01*
G01*
X11474000Y-10492000D02*
X11576000Y-10594000D01*
X11576000Y-10492000D02*
X11474000Y-10594000D01*
X11576000Y-10543000D02*
G75*
G02*
X11474000Y-10543000I-51000J0D01*
G01*
X11474000Y-10543000D02*
G75*
G02*
X11576000Y-10543000I51000J0D01*
G01*
X11474000Y-10746000D02*
X11576000Y-10848000D01*
X11576000Y-10746000D02*
X11474000Y-10848000D01*
X11576000Y-10797000D02*
G75*
G02*
X11474000Y-10797000I-51000J0D01*
G01*
X11474000Y-10797000D02*
G75*
G02*
X11576000Y-10797000I51000J0D01*
G01*
D14*
X20787500Y-3330000D02*
X21077500Y-3620000D01*
X21077500Y-3330000D02*
X20787500Y-3620000D01*
X20932500Y-3330000D02*
X20932500Y-3620000D01*
X20787500Y-3475000D02*
X21077500Y-3475000D01*
X20787500Y-4450000D02*
X21077500Y-4740000D01*
X21077500Y-4450000D02*
X20787500Y-4740000D01*
X20932500Y-4450000D02*
X20932500Y-4740000D01*
X20787500Y-4595000D02*
X21077500Y-4595000D01*
D15*
X6615000Y-2985000D02*
X6915000Y-3285000D01*
X6915000Y-2985000D02*
X6615000Y-3285000D01*
X6871067Y-3241067D02*
X6871067Y-3028933D01*
X6658933Y-3028933D01*
X6658933Y-3241067D01*
X6871067Y-3241067D01*
X6615000Y-14655000D02*
X6915000Y-14955000D01*
X6915000Y-14655000D02*
X6615000Y-14955000D01*
X6871067Y-14911067D02*
X6871067Y-14698933D01*
X6658933Y-14698933D01*
X6658933Y-14911067D01*
X6871067Y-14911067D01*
X9115000Y-9825000D02*
X9415000Y-10125000D01*
X9415000Y-9825000D02*
X9115000Y-10125000D01*
X9371067Y-10081067D02*
X9371067Y-9868933D01*
X9158933Y-9868933D01*
X9158933Y-10081067D01*
X9371067Y-10081067D01*
X20145000Y-10265000D02*
X20445000Y-10565000D01*
X20445000Y-10265000D02*
X20145000Y-10565000D01*
X20401067Y-10521067D02*
X20401067Y-10308933D01*
X20188933Y-10308933D01*
X20188933Y-10521067D01*
X20401067Y-10521067D01*
X22545000Y-2985000D02*
X22845000Y-3285000D01*
X22845000Y-2985000D02*
X22545000Y-3285000D01*
X22801067Y-3241067D02*
X22801067Y-3028933D01*
X22588933Y-3028933D01*
X22588933Y-3241067D01*
X22801067Y-3241067D01*
X22545000Y-14655000D02*
X22845000Y-14955000D01*
X22845000Y-14655000D02*
X22545000Y-14955000D01*
X22801067Y-14911067D02*
X22801067Y-14698933D01*
X22588933Y-14698933D01*
X22588933Y-14911067D01*
X22801067Y-14911067D01*
D11*
X6573277Y-15568984D02*
X6573277Y-15368984D01*
X6573277Y-15368984D02*
X6620896Y-15368984D01*
X6620896Y-15368984D02*
X6649467Y-15378508D01*
X6649467Y-15378508D02*
X6668515Y-15397555D01*
X6668515Y-15397555D02*
X6678039Y-15416603D01*
X6678039Y-15416603D02*
X6687562Y-15454698D01*
X6687562Y-15454698D02*
X6687562Y-15483269D01*
X6687562Y-15483269D02*
X6678039Y-15521365D01*
X6678039Y-15521365D02*
X6668515Y-15540412D01*
X6668515Y-15540412D02*
X6649467Y-15559460D01*
X6649467Y-15559460D02*
X6620896Y-15568984D01*
X6620896Y-15568984D02*
X6573277Y-15568984D01*
X6773277Y-15568984D02*
X6773277Y-15435650D01*
X6773277Y-15473746D02*
X6782801Y-15454698D01*
X6782801Y-15454698D02*
X6792324Y-15445174D01*
X6792324Y-15445174D02*
X6811372Y-15435650D01*
X6811372Y-15435650D02*
X6830420Y-15435650D01*
X6897086Y-15568984D02*
X6897086Y-15435650D01*
X6897086Y-15368984D02*
X6887562Y-15378508D01*
X6887562Y-15378508D02*
X6897086Y-15388031D01*
X6897086Y-15388031D02*
X6906610Y-15378508D01*
X6906610Y-15378508D02*
X6897086Y-15368984D01*
X6897086Y-15368984D02*
X6897086Y-15388031D01*
X7020896Y-15568984D02*
X7001848Y-15559460D01*
X7001848Y-15559460D02*
X6992324Y-15540412D01*
X6992324Y-15540412D02*
X6992324Y-15368984D01*
X7125658Y-15568984D02*
X7106610Y-15559460D01*
X7106610Y-15559460D02*
X7097086Y-15540412D01*
X7097086Y-15540412D02*
X7097086Y-15368984D01*
X7354229Y-15568984D02*
X7354229Y-15368984D01*
X7354229Y-15368984D02*
X7420896Y-15511841D01*
X7420896Y-15511841D02*
X7487562Y-15368984D01*
X7487562Y-15368984D02*
X7487562Y-15568984D01*
X7668515Y-15568984D02*
X7668515Y-15464222D01*
X7668515Y-15464222D02*
X7658991Y-15445174D01*
X7658991Y-15445174D02*
X7639943Y-15435650D01*
X7639943Y-15435650D02*
X7601848Y-15435650D01*
X7601848Y-15435650D02*
X7582801Y-15445174D01*
X7668515Y-15559460D02*
X7649467Y-15568984D01*
X7649467Y-15568984D02*
X7601848Y-15568984D01*
X7601848Y-15568984D02*
X7582801Y-15559460D01*
X7582801Y-15559460D02*
X7573277Y-15540412D01*
X7573277Y-15540412D02*
X7573277Y-15521365D01*
X7573277Y-15521365D02*
X7582801Y-15502317D01*
X7582801Y-15502317D02*
X7601848Y-15492793D01*
X7601848Y-15492793D02*
X7649467Y-15492793D01*
X7649467Y-15492793D02*
X7668515Y-15483269D01*
X7763753Y-15435650D02*
X7763753Y-15635650D01*
X7763753Y-15445174D02*
X7782801Y-15435650D01*
X7782801Y-15435650D02*
X7820896Y-15435650D01*
X7820896Y-15435650D02*
X7839943Y-15445174D01*
X7839943Y-15445174D02*
X7849467Y-15454698D01*
X7849467Y-15454698D02*
X7858991Y-15473746D01*
X7858991Y-15473746D02*
X7858991Y-15530888D01*
X7858991Y-15530888D02*
X7849467Y-15549936D01*
X7849467Y-15549936D02*
X7839943Y-15559460D01*
X7839943Y-15559460D02*
X7820896Y-15568984D01*
X7820896Y-15568984D02*
X7782801Y-15568984D01*
X7782801Y-15568984D02*
X7763753Y-15559460D01*
X7944705Y-15549936D02*
X7954229Y-15559460D01*
X7954229Y-15559460D02*
X7944705Y-15568984D01*
X7944705Y-15568984D02*
X7935182Y-15559460D01*
X7935182Y-15559460D02*
X7944705Y-15549936D01*
X7944705Y-15549936D02*
X7944705Y-15568984D01*
X7944705Y-15445174D02*
X7954229Y-15454698D01*
X7954229Y-15454698D02*
X7944705Y-15464222D01*
X7944705Y-15464222D02*
X7935182Y-15454698D01*
X7935182Y-15454698D02*
X7944705Y-15445174D01*
X7944705Y-15445174D02*
X7944705Y-15464222D01*
D12*
X6282500Y-15882500D02*
X6312500Y-15912500D01*
X6312500Y-15882500D02*
X6282500Y-15912500D01*
D11*
X6611372Y-15788984D02*
X6630420Y-15788984D01*
X6630420Y-15788984D02*
X6649467Y-15798508D01*
X6649467Y-15798508D02*
X6658991Y-15808031D01*
X6658991Y-15808031D02*
X6668515Y-15827079D01*
X6668515Y-15827079D02*
X6678039Y-15865174D01*
X6678039Y-15865174D02*
X6678039Y-15912793D01*
X6678039Y-15912793D02*
X6668515Y-15950888D01*
X6668515Y-15950888D02*
X6658991Y-15969936D01*
X6658991Y-15969936D02*
X6649467Y-15979460D01*
X6649467Y-15979460D02*
X6630420Y-15988984D01*
X6630420Y-15988984D02*
X6611372Y-15988984D01*
X6611372Y-15988984D02*
X6592324Y-15979460D01*
X6592324Y-15979460D02*
X6582801Y-15969936D01*
X6582801Y-15969936D02*
X6573277Y-15950888D01*
X6573277Y-15950888D02*
X6563753Y-15912793D01*
X6563753Y-15912793D02*
X6563753Y-15865174D01*
X6563753Y-15865174D02*
X6573277Y-15827079D01*
X6573277Y-15827079D02*
X6582801Y-15808031D01*
X6582801Y-15808031D02*
X6592324Y-15798508D01*
X6592324Y-15798508D02*
X6611372Y-15788984D01*
X6763753Y-15969936D02*
X6773277Y-15979460D01*
X6773277Y-15979460D02*
X6763753Y-15988984D01*
X6763753Y-15988984D02*
X6754229Y-15979460D01*
X6754229Y-15979460D02*
X6763753Y-15969936D01*
X6763753Y-15969936D02*
X6763753Y-15988984D01*
X6839943Y-15788984D02*
X6963753Y-15788984D01*
X6963753Y-15788984D02*
X6897086Y-15865174D01*
X6897086Y-15865174D02*
X6925658Y-15865174D01*
X6925658Y-15865174D02*
X6944705Y-15874698D01*
X6944705Y-15874698D02*
X6954229Y-15884222D01*
X6954229Y-15884222D02*
X6963753Y-15903269D01*
X6963753Y-15903269D02*
X6963753Y-15950888D01*
X6963753Y-15950888D02*
X6954229Y-15969936D01*
X6954229Y-15969936D02*
X6944705Y-15979460D01*
X6944705Y-15979460D02*
X6925658Y-15988984D01*
X6925658Y-15988984D02*
X6868515Y-15988984D01*
X6868515Y-15988984D02*
X6849467Y-15979460D01*
X6849467Y-15979460D02*
X6839943Y-15969936D01*
X7087562Y-15788984D02*
X7106610Y-15788984D01*
X7106610Y-15788984D02*
X7125658Y-15798508D01*
X7125658Y-15798508D02*
X7135182Y-15808031D01*
X7135182Y-15808031D02*
X7144705Y-15827079D01*
X7144705Y-15827079D02*
X7154229Y-15865174D01*
X7154229Y-15865174D02*
X7154229Y-15912793D01*
X7154229Y-15912793D02*
X7144705Y-15950888D01*
X7144705Y-15950888D02*
X7135182Y-15969936D01*
X7135182Y-15969936D02*
X7125658Y-15979460D01*
X7125658Y-15979460D02*
X7106610Y-15988984D01*
X7106610Y-15988984D02*
X7087562Y-15988984D01*
X7087562Y-15988984D02*
X7068515Y-15979460D01*
X7068515Y-15979460D02*
X7058991Y-15969936D01*
X7058991Y-15969936D02*
X7049467Y-15950888D01*
X7049467Y-15950888D02*
X7039943Y-15912793D01*
X7039943Y-15912793D02*
X7039943Y-15865174D01*
X7039943Y-15865174D02*
X7049467Y-15827079D01*
X7049467Y-15827079D02*
X7058991Y-15808031D01*
X7058991Y-15808031D02*
X7068515Y-15798508D01*
X7068515Y-15798508D02*
X7087562Y-15788984D01*
X7278039Y-15788984D02*
X7297086Y-15788984D01*
X7297086Y-15788984D02*
X7316134Y-15798508D01*
X7316134Y-15798508D02*
X7325658Y-15808031D01*
X7325658Y-15808031D02*
X7335182Y-15827079D01*
X7335182Y-15827079D02*
X7344705Y-15865174D01*
X7344705Y-15865174D02*
X7344705Y-15912793D01*
X7344705Y-15912793D02*
X7335182Y-15950888D01*
X7335182Y-15950888D02*
X7325658Y-15969936D01*
X7325658Y-15969936D02*
X7316134Y-15979460D01*
X7316134Y-15979460D02*
X7297086Y-15988984D01*
X7297086Y-15988984D02*
X7278039Y-15988984D01*
X7278039Y-15988984D02*
X7258991Y-15979460D01*
X7258991Y-15979460D02*
X7249467Y-15969936D01*
X7249467Y-15969936D02*
X7239943Y-15950888D01*
X7239943Y-15950888D02*
X7230420Y-15912793D01*
X7230420Y-15912793D02*
X7230420Y-15865174D01*
X7230420Y-15865174D02*
X7239943Y-15827079D01*
X7239943Y-15827079D02*
X7249467Y-15808031D01*
X7249467Y-15808031D02*
X7258991Y-15798508D01*
X7258991Y-15798508D02*
X7278039Y-15788984D01*
X7430420Y-15988984D02*
X7430420Y-15855650D01*
X7430420Y-15874698D02*
X7439943Y-15865174D01*
X7439943Y-15865174D02*
X7458991Y-15855650D01*
X7458991Y-15855650D02*
X7487563Y-15855650D01*
X7487563Y-15855650D02*
X7506610Y-15865174D01*
X7506610Y-15865174D02*
X7516134Y-15884222D01*
X7516134Y-15884222D02*
X7516134Y-15988984D01*
X7516134Y-15884222D02*
X7525658Y-15865174D01*
X7525658Y-15865174D02*
X7544705Y-15855650D01*
X7544705Y-15855650D02*
X7573277Y-15855650D01*
X7573277Y-15855650D02*
X7592324Y-15865174D01*
X7592324Y-15865174D02*
X7601848Y-15884222D01*
X7601848Y-15884222D02*
X7601848Y-15988984D01*
X7697086Y-15988984D02*
X7697086Y-15855650D01*
X7697086Y-15874698D02*
X7706610Y-15865174D01*
X7706610Y-15865174D02*
X7725658Y-15855650D01*
X7725658Y-15855650D02*
X7754229Y-15855650D01*
X7754229Y-15855650D02*
X7773277Y-15865174D01*
X7773277Y-15865174D02*
X7782801Y-15884222D01*
X7782801Y-15884222D02*
X7782801Y-15988984D01*
X7782801Y-15884222D02*
X7792324Y-15865174D01*
X7792324Y-15865174D02*
X7811372Y-15855650D01*
X7811372Y-15855650D02*
X7839943Y-15855650D01*
X7839943Y-15855650D02*
X7858991Y-15865174D01*
X7858991Y-15865174D02*
X7868515Y-15884222D01*
X7868515Y-15884222D02*
X7868515Y-15988984D01*
X8258991Y-15779460D02*
X8087563Y-16036603D01*
X8516134Y-15788984D02*
X8535182Y-15788984D01*
X8535182Y-15788984D02*
X8554229Y-15798508D01*
X8554229Y-15798508D02*
X8563753Y-15808031D01*
X8563753Y-15808031D02*
X8573277Y-15827079D01*
X8573277Y-15827079D02*
X8582801Y-15865174D01*
X8582801Y-15865174D02*
X8582801Y-15912793D01*
X8582801Y-15912793D02*
X8573277Y-15950888D01*
X8573277Y-15950888D02*
X8563753Y-15969936D01*
X8563753Y-15969936D02*
X8554229Y-15979460D01*
X8554229Y-15979460D02*
X8535182Y-15988984D01*
X8535182Y-15988984D02*
X8516134Y-15988984D01*
X8516134Y-15988984D02*
X8497087Y-15979460D01*
X8497087Y-15979460D02*
X8487563Y-15969936D01*
X8487563Y-15969936D02*
X8478039Y-15950888D01*
X8478039Y-15950888D02*
X8468515Y-15912793D01*
X8468515Y-15912793D02*
X8468515Y-15865174D01*
X8468515Y-15865174D02*
X8478039Y-15827079D01*
X8478039Y-15827079D02*
X8487563Y-15808031D01*
X8487563Y-15808031D02*
X8497087Y-15798508D01*
X8497087Y-15798508D02*
X8516134Y-15788984D01*
X8668515Y-15969936D02*
X8678039Y-15979460D01*
X8678039Y-15979460D02*
X8668515Y-15988984D01*
X8668515Y-15988984D02*
X8658991Y-15979460D01*
X8658991Y-15979460D02*
X8668515Y-15969936D01*
X8668515Y-15969936D02*
X8668515Y-15988984D01*
X8801848Y-15788984D02*
X8820896Y-15788984D01*
X8820896Y-15788984D02*
X8839944Y-15798508D01*
X8839944Y-15798508D02*
X8849468Y-15808031D01*
X8849468Y-15808031D02*
X8858991Y-15827079D01*
X8858991Y-15827079D02*
X8868515Y-15865174D01*
X8868515Y-15865174D02*
X8868515Y-15912793D01*
X8868515Y-15912793D02*
X8858991Y-15950888D01*
X8858991Y-15950888D02*
X8849468Y-15969936D01*
X8849468Y-15969936D02*
X8839944Y-15979460D01*
X8839944Y-15979460D02*
X8820896Y-15988984D01*
X8820896Y-15988984D02*
X8801848Y-15988984D01*
X8801848Y-15988984D02*
X8782801Y-15979460D01*
X8782801Y-15979460D02*
X8773277Y-15969936D01*
X8773277Y-15969936D02*
X8763753Y-15950888D01*
X8763753Y-15950888D02*
X8754229Y-15912793D01*
X8754229Y-15912793D02*
X8754229Y-15865174D01*
X8754229Y-15865174D02*
X8763753Y-15827079D01*
X8763753Y-15827079D02*
X8773277Y-15808031D01*
X8773277Y-15808031D02*
X8782801Y-15798508D01*
X8782801Y-15798508D02*
X8801848Y-15788984D01*
X9058991Y-15988984D02*
X8944706Y-15988984D01*
X9001848Y-15988984D02*
X9001848Y-15788984D01*
X9001848Y-15788984D02*
X8982801Y-15817555D01*
X8982801Y-15817555D02*
X8963753Y-15836603D01*
X8963753Y-15836603D02*
X8944706Y-15846127D01*
X9249468Y-15988984D02*
X9135182Y-15988984D01*
X9192325Y-15988984D02*
X9192325Y-15788984D01*
X9192325Y-15788984D02*
X9173277Y-15817555D01*
X9173277Y-15817555D02*
X9154229Y-15836603D01*
X9154229Y-15836603D02*
X9135182Y-15846127D01*
X9363753Y-15874698D02*
X9344706Y-15865174D01*
X9344706Y-15865174D02*
X9335182Y-15855650D01*
X9335182Y-15855650D02*
X9325658Y-15836603D01*
X9325658Y-15836603D02*
X9325658Y-15827079D01*
X9325658Y-15827079D02*
X9335182Y-15808031D01*
X9335182Y-15808031D02*
X9344706Y-15798508D01*
X9344706Y-15798508D02*
X9363753Y-15788984D01*
X9363753Y-15788984D02*
X9401849Y-15788984D01*
X9401849Y-15788984D02*
X9420896Y-15798508D01*
X9420896Y-15798508D02*
X9430420Y-15808031D01*
X9430420Y-15808031D02*
X9439944Y-15827079D01*
X9439944Y-15827079D02*
X9439944Y-15836603D01*
X9439944Y-15836603D02*
X9430420Y-15855650D01*
X9430420Y-15855650D02*
X9420896Y-15865174D01*
X9420896Y-15865174D02*
X9401849Y-15874698D01*
X9401849Y-15874698D02*
X9363753Y-15874698D01*
X9363753Y-15874698D02*
X9344706Y-15884222D01*
X9344706Y-15884222D02*
X9335182Y-15893746D01*
X9335182Y-15893746D02*
X9325658Y-15912793D01*
X9325658Y-15912793D02*
X9325658Y-15950888D01*
X9325658Y-15950888D02*
X9335182Y-15969936D01*
X9335182Y-15969936D02*
X9344706Y-15979460D01*
X9344706Y-15979460D02*
X9363753Y-15988984D01*
X9363753Y-15988984D02*
X9401849Y-15988984D01*
X9401849Y-15988984D02*
X9420896Y-15979460D01*
X9420896Y-15979460D02*
X9430420Y-15969936D01*
X9430420Y-15969936D02*
X9439944Y-15950888D01*
X9439944Y-15950888D02*
X9439944Y-15912793D01*
X9439944Y-15912793D02*
X9430420Y-15893746D01*
X9430420Y-15893746D02*
X9420896Y-15884222D01*
X9420896Y-15884222D02*
X9401849Y-15874698D01*
X9516134Y-15788984D02*
X9516134Y-15827079D01*
X9592325Y-15788984D02*
X9592325Y-15827079D01*
X9887563Y-16065174D02*
X9878039Y-16055650D01*
X9878039Y-16055650D02*
X9858991Y-16027079D01*
X9858991Y-16027079D02*
X9849468Y-16008031D01*
X9849468Y-16008031D02*
X9839944Y-15979460D01*
X9839944Y-15979460D02*
X9830420Y-15931841D01*
X9830420Y-15931841D02*
X9830420Y-15893746D01*
X9830420Y-15893746D02*
X9839944Y-15846127D01*
X9839944Y-15846127D02*
X9849468Y-15817555D01*
X9849468Y-15817555D02*
X9858991Y-15798508D01*
X9858991Y-15798508D02*
X9878039Y-15769936D01*
X9878039Y-15769936D02*
X9887563Y-15760412D01*
X10068515Y-15988984D02*
X9954230Y-15988984D01*
X10011372Y-15988984D02*
X10011372Y-15788984D01*
X10011372Y-15788984D02*
X9992325Y-15817555D01*
X9992325Y-15817555D02*
X9973277Y-15836603D01*
X9973277Y-15836603D02*
X9954230Y-15846127D01*
X10135182Y-15788984D02*
X10258991Y-15788984D01*
X10258991Y-15788984D02*
X10192325Y-15865174D01*
X10192325Y-15865174D02*
X10220896Y-15865174D01*
X10220896Y-15865174D02*
X10239944Y-15874698D01*
X10239944Y-15874698D02*
X10249468Y-15884222D01*
X10249468Y-15884222D02*
X10258991Y-15903269D01*
X10258991Y-15903269D02*
X10258991Y-15950888D01*
X10258991Y-15950888D02*
X10249468Y-15969936D01*
X10249468Y-15969936D02*
X10239944Y-15979460D01*
X10239944Y-15979460D02*
X10220896Y-15988984D01*
X10220896Y-15988984D02*
X10163753Y-15988984D01*
X10163753Y-15988984D02*
X10144706Y-15979460D01*
X10144706Y-15979460D02*
X10135182Y-15969936D01*
X10430420Y-15855650D02*
X10430420Y-15988984D01*
X10382801Y-15779460D02*
X10335182Y-15922317D01*
X10335182Y-15922317D02*
X10458991Y-15922317D01*
X10687563Y-15988984D02*
X10687563Y-15788984D01*
X10773277Y-15988984D02*
X10773277Y-15884222D01*
X10773277Y-15884222D02*
X10763753Y-15865174D01*
X10763753Y-15865174D02*
X10744706Y-15855650D01*
X10744706Y-15855650D02*
X10716134Y-15855650D01*
X10716134Y-15855650D02*
X10697087Y-15865174D01*
X10697087Y-15865174D02*
X10687563Y-15874698D01*
X10897087Y-15988984D02*
X10878039Y-15979460D01*
X10878039Y-15979460D02*
X10868515Y-15969936D01*
X10868515Y-15969936D02*
X10858992Y-15950888D01*
X10858992Y-15950888D02*
X10858992Y-15893746D01*
X10858992Y-15893746D02*
X10868515Y-15874698D01*
X10868515Y-15874698D02*
X10878039Y-15865174D01*
X10878039Y-15865174D02*
X10897087Y-15855650D01*
X10897087Y-15855650D02*
X10925658Y-15855650D01*
X10925658Y-15855650D02*
X10944706Y-15865174D01*
X10944706Y-15865174D02*
X10954230Y-15874698D01*
X10954230Y-15874698D02*
X10963753Y-15893746D01*
X10963753Y-15893746D02*
X10963753Y-15950888D01*
X10963753Y-15950888D02*
X10954230Y-15969936D01*
X10954230Y-15969936D02*
X10944706Y-15979460D01*
X10944706Y-15979460D02*
X10925658Y-15988984D01*
X10925658Y-15988984D02*
X10897087Y-15988984D01*
X11078039Y-15988984D02*
X11058992Y-15979460D01*
X11058992Y-15979460D02*
X11049468Y-15960412D01*
X11049468Y-15960412D02*
X11049468Y-15788984D01*
X11230420Y-15979460D02*
X11211372Y-15988984D01*
X11211372Y-15988984D02*
X11173277Y-15988984D01*
X11173277Y-15988984D02*
X11154230Y-15979460D01*
X11154230Y-15979460D02*
X11144706Y-15960412D01*
X11144706Y-15960412D02*
X11144706Y-15884222D01*
X11144706Y-15884222D02*
X11154230Y-15865174D01*
X11154230Y-15865174D02*
X11173277Y-15855650D01*
X11173277Y-15855650D02*
X11211372Y-15855650D01*
X11211372Y-15855650D02*
X11230420Y-15865174D01*
X11230420Y-15865174D02*
X11239944Y-15884222D01*
X11239944Y-15884222D02*
X11239944Y-15903269D01*
X11239944Y-15903269D02*
X11144706Y-15922317D01*
X11316134Y-15979460D02*
X11335182Y-15988984D01*
X11335182Y-15988984D02*
X11373277Y-15988984D01*
X11373277Y-15988984D02*
X11392325Y-15979460D01*
X11392325Y-15979460D02*
X11401849Y-15960412D01*
X11401849Y-15960412D02*
X11401849Y-15950888D01*
X11401849Y-15950888D02*
X11392325Y-15931841D01*
X11392325Y-15931841D02*
X11373277Y-15922317D01*
X11373277Y-15922317D02*
X11344706Y-15922317D01*
X11344706Y-15922317D02*
X11325658Y-15912793D01*
X11325658Y-15912793D02*
X11316134Y-15893746D01*
X11316134Y-15893746D02*
X11316134Y-15884222D01*
X11316134Y-15884222D02*
X11325658Y-15865174D01*
X11325658Y-15865174D02*
X11344706Y-15855650D01*
X11344706Y-15855650D02*
X11373277Y-15855650D01*
X11373277Y-15855650D02*
X11392325Y-15865174D01*
X11468515Y-16065174D02*
X11478039Y-16055650D01*
X11478039Y-16055650D02*
X11497087Y-16027079D01*
X11497087Y-16027079D02*
X11506611Y-16008031D01*
X11506611Y-16008031D02*
X11516134Y-15979460D01*
X11516134Y-15979460D02*
X11525658Y-15931841D01*
X11525658Y-15931841D02*
X11525658Y-15893746D01*
X11525658Y-15893746D02*
X11516134Y-15846127D01*
X11516134Y-15846127D02*
X11506611Y-15817555D01*
X11506611Y-15817555D02*
X11497087Y-15798508D01*
X11497087Y-15798508D02*
X11478039Y-15769936D01*
X11478039Y-15769936D02*
X11468515Y-15760412D01*
D12*
X6312500Y-16161500D02*
G75*
G02*
X6252500Y-16161500I-30000J0D01*
G01*
X6252500Y-16161500D02*
G75*
G02*
X6312500Y-16161500I30000J0D01*
G01*
D11*
X6611372Y-16052984D02*
X6630420Y-16052984D01*
X6630420Y-16052984D02*
X6649467Y-16062508D01*
X6649467Y-16062508D02*
X6658991Y-16072031D01*
X6658991Y-16072031D02*
X6668515Y-16091079D01*
X6668515Y-16091079D02*
X6678039Y-16129174D01*
X6678039Y-16129174D02*
X6678039Y-16176793D01*
X6678039Y-16176793D02*
X6668515Y-16214888D01*
X6668515Y-16214888D02*
X6658991Y-16233936D01*
X6658991Y-16233936D02*
X6649467Y-16243460D01*
X6649467Y-16243460D02*
X6630420Y-16252984D01*
X6630420Y-16252984D02*
X6611372Y-16252984D01*
X6611372Y-16252984D02*
X6592324Y-16243460D01*
X6592324Y-16243460D02*
X6582801Y-16233936D01*
X6582801Y-16233936D02*
X6573277Y-16214888D01*
X6573277Y-16214888D02*
X6563753Y-16176793D01*
X6563753Y-16176793D02*
X6563753Y-16129174D01*
X6563753Y-16129174D02*
X6573277Y-16091079D01*
X6573277Y-16091079D02*
X6582801Y-16072031D01*
X6582801Y-16072031D02*
X6592324Y-16062508D01*
X6592324Y-16062508D02*
X6611372Y-16052984D01*
X6763753Y-16233936D02*
X6773277Y-16243460D01*
X6773277Y-16243460D02*
X6763753Y-16252984D01*
X6763753Y-16252984D02*
X6754229Y-16243460D01*
X6754229Y-16243460D02*
X6763753Y-16233936D01*
X6763753Y-16233936D02*
X6763753Y-16252984D01*
X6944705Y-16052984D02*
X6906610Y-16052984D01*
X6906610Y-16052984D02*
X6887562Y-16062508D01*
X6887562Y-16062508D02*
X6878039Y-16072031D01*
X6878039Y-16072031D02*
X6858991Y-16100603D01*
X6858991Y-16100603D02*
X6849467Y-16138698D01*
X6849467Y-16138698D02*
X6849467Y-16214888D01*
X6849467Y-16214888D02*
X6858991Y-16233936D01*
X6858991Y-16233936D02*
X6868515Y-16243460D01*
X6868515Y-16243460D02*
X6887562Y-16252984D01*
X6887562Y-16252984D02*
X6925658Y-16252984D01*
X6925658Y-16252984D02*
X6944705Y-16243460D01*
X6944705Y-16243460D02*
X6954229Y-16233936D01*
X6954229Y-16233936D02*
X6963753Y-16214888D01*
X6963753Y-16214888D02*
X6963753Y-16167269D01*
X6963753Y-16167269D02*
X6954229Y-16148222D01*
X6954229Y-16148222D02*
X6944705Y-16138698D01*
X6944705Y-16138698D02*
X6925658Y-16129174D01*
X6925658Y-16129174D02*
X6887562Y-16129174D01*
X6887562Y-16129174D02*
X6868515Y-16138698D01*
X6868515Y-16138698D02*
X6858991Y-16148222D01*
X6858991Y-16148222D02*
X6849467Y-16167269D01*
X7087562Y-16052984D02*
X7106610Y-16052984D01*
X7106610Y-16052984D02*
X7125658Y-16062508D01*
X7125658Y-16062508D02*
X7135182Y-16072031D01*
X7135182Y-16072031D02*
X7144705Y-16091079D01*
X7144705Y-16091079D02*
X7154229Y-16129174D01*
X7154229Y-16129174D02*
X7154229Y-16176793D01*
X7154229Y-16176793D02*
X7144705Y-16214888D01*
X7144705Y-16214888D02*
X7135182Y-16233936D01*
X7135182Y-16233936D02*
X7125658Y-16243460D01*
X7125658Y-16243460D02*
X7106610Y-16252984D01*
X7106610Y-16252984D02*
X7087562Y-16252984D01*
X7087562Y-16252984D02*
X7068515Y-16243460D01*
X7068515Y-16243460D02*
X7058991Y-16233936D01*
X7058991Y-16233936D02*
X7049467Y-16214888D01*
X7049467Y-16214888D02*
X7039943Y-16176793D01*
X7039943Y-16176793D02*
X7039943Y-16129174D01*
X7039943Y-16129174D02*
X7049467Y-16091079D01*
X7049467Y-16091079D02*
X7058991Y-16072031D01*
X7058991Y-16072031D02*
X7068515Y-16062508D01*
X7068515Y-16062508D02*
X7087562Y-16052984D01*
X7278039Y-16052984D02*
X7297086Y-16052984D01*
X7297086Y-16052984D02*
X7316134Y-16062508D01*
X7316134Y-16062508D02*
X7325658Y-16072031D01*
X7325658Y-16072031D02*
X7335182Y-16091079D01*
X7335182Y-16091079D02*
X7344705Y-16129174D01*
X7344705Y-16129174D02*
X7344705Y-16176793D01*
X7344705Y-16176793D02*
X7335182Y-16214888D01*
X7335182Y-16214888D02*
X7325658Y-16233936D01*
X7325658Y-16233936D02*
X7316134Y-16243460D01*
X7316134Y-16243460D02*
X7297086Y-16252984D01*
X7297086Y-16252984D02*
X7278039Y-16252984D01*
X7278039Y-16252984D02*
X7258991Y-16243460D01*
X7258991Y-16243460D02*
X7249467Y-16233936D01*
X7249467Y-16233936D02*
X7239943Y-16214888D01*
X7239943Y-16214888D02*
X7230420Y-16176793D01*
X7230420Y-16176793D02*
X7230420Y-16129174D01*
X7230420Y-16129174D02*
X7239943Y-16091079D01*
X7239943Y-16091079D02*
X7249467Y-16072031D01*
X7249467Y-16072031D02*
X7258991Y-16062508D01*
X7258991Y-16062508D02*
X7278039Y-16052984D01*
X7430420Y-16252984D02*
X7430420Y-16119650D01*
X7430420Y-16138698D02*
X7439943Y-16129174D01*
X7439943Y-16129174D02*
X7458991Y-16119650D01*
X7458991Y-16119650D02*
X7487563Y-16119650D01*
X7487563Y-16119650D02*
X7506610Y-16129174D01*
X7506610Y-16129174D02*
X7516134Y-16148222D01*
X7516134Y-16148222D02*
X7516134Y-16252984D01*
X7516134Y-16148222D02*
X7525658Y-16129174D01*
X7525658Y-16129174D02*
X7544705Y-16119650D01*
X7544705Y-16119650D02*
X7573277Y-16119650D01*
X7573277Y-16119650D02*
X7592324Y-16129174D01*
X7592324Y-16129174D02*
X7601848Y-16148222D01*
X7601848Y-16148222D02*
X7601848Y-16252984D01*
X7697086Y-16252984D02*
X7697086Y-16119650D01*
X7697086Y-16138698D02*
X7706610Y-16129174D01*
X7706610Y-16129174D02*
X7725658Y-16119650D01*
X7725658Y-16119650D02*
X7754229Y-16119650D01*
X7754229Y-16119650D02*
X7773277Y-16129174D01*
X7773277Y-16129174D02*
X7782801Y-16148222D01*
X7782801Y-16148222D02*
X7782801Y-16252984D01*
X7782801Y-16148222D02*
X7792324Y-16129174D01*
X7792324Y-16129174D02*
X7811372Y-16119650D01*
X7811372Y-16119650D02*
X7839943Y-16119650D01*
X7839943Y-16119650D02*
X7858991Y-16129174D01*
X7858991Y-16129174D02*
X7868515Y-16148222D01*
X7868515Y-16148222D02*
X7868515Y-16252984D01*
X8258991Y-16043460D02*
X8087563Y-16300603D01*
X8516134Y-16052984D02*
X8535182Y-16052984D01*
X8535182Y-16052984D02*
X8554229Y-16062508D01*
X8554229Y-16062508D02*
X8563753Y-16072031D01*
X8563753Y-16072031D02*
X8573277Y-16091079D01*
X8573277Y-16091079D02*
X8582801Y-16129174D01*
X8582801Y-16129174D02*
X8582801Y-16176793D01*
X8582801Y-16176793D02*
X8573277Y-16214888D01*
X8573277Y-16214888D02*
X8563753Y-16233936D01*
X8563753Y-16233936D02*
X8554229Y-16243460D01*
X8554229Y-16243460D02*
X8535182Y-16252984D01*
X8535182Y-16252984D02*
X8516134Y-16252984D01*
X8516134Y-16252984D02*
X8497087Y-16243460D01*
X8497087Y-16243460D02*
X8487563Y-16233936D01*
X8487563Y-16233936D02*
X8478039Y-16214888D01*
X8478039Y-16214888D02*
X8468515Y-16176793D01*
X8468515Y-16176793D02*
X8468515Y-16129174D01*
X8468515Y-16129174D02*
X8478039Y-16091079D01*
X8478039Y-16091079D02*
X8487563Y-16072031D01*
X8487563Y-16072031D02*
X8497087Y-16062508D01*
X8497087Y-16062508D02*
X8516134Y-16052984D01*
X8668515Y-16233936D02*
X8678039Y-16243460D01*
X8678039Y-16243460D02*
X8668515Y-16252984D01*
X8668515Y-16252984D02*
X8658991Y-16243460D01*
X8658991Y-16243460D02*
X8668515Y-16233936D01*
X8668515Y-16233936D02*
X8668515Y-16252984D01*
X8801848Y-16052984D02*
X8820896Y-16052984D01*
X8820896Y-16052984D02*
X8839944Y-16062508D01*
X8839944Y-16062508D02*
X8849468Y-16072031D01*
X8849468Y-16072031D02*
X8858991Y-16091079D01*
X8858991Y-16091079D02*
X8868515Y-16129174D01*
X8868515Y-16129174D02*
X8868515Y-16176793D01*
X8868515Y-16176793D02*
X8858991Y-16214888D01*
X8858991Y-16214888D02*
X8849468Y-16233936D01*
X8849468Y-16233936D02*
X8839944Y-16243460D01*
X8839944Y-16243460D02*
X8820896Y-16252984D01*
X8820896Y-16252984D02*
X8801848Y-16252984D01*
X8801848Y-16252984D02*
X8782801Y-16243460D01*
X8782801Y-16243460D02*
X8773277Y-16233936D01*
X8773277Y-16233936D02*
X8763753Y-16214888D01*
X8763753Y-16214888D02*
X8754229Y-16176793D01*
X8754229Y-16176793D02*
X8754229Y-16129174D01*
X8754229Y-16129174D02*
X8763753Y-16091079D01*
X8763753Y-16091079D02*
X8773277Y-16072031D01*
X8773277Y-16072031D02*
X8782801Y-16062508D01*
X8782801Y-16062508D02*
X8801848Y-16052984D01*
X8944706Y-16072031D02*
X8954229Y-16062508D01*
X8954229Y-16062508D02*
X8973277Y-16052984D01*
X8973277Y-16052984D02*
X9020896Y-16052984D01*
X9020896Y-16052984D02*
X9039944Y-16062508D01*
X9039944Y-16062508D02*
X9049468Y-16072031D01*
X9049468Y-16072031D02*
X9058991Y-16091079D01*
X9058991Y-16091079D02*
X9058991Y-16110127D01*
X9058991Y-16110127D02*
X9049468Y-16138698D01*
X9049468Y-16138698D02*
X8935182Y-16252984D01*
X8935182Y-16252984D02*
X9058991Y-16252984D01*
X9125658Y-16052984D02*
X9249468Y-16052984D01*
X9249468Y-16052984D02*
X9182801Y-16129174D01*
X9182801Y-16129174D02*
X9211372Y-16129174D01*
X9211372Y-16129174D02*
X9230420Y-16138698D01*
X9230420Y-16138698D02*
X9239944Y-16148222D01*
X9239944Y-16148222D02*
X9249468Y-16167269D01*
X9249468Y-16167269D02*
X9249468Y-16214888D01*
X9249468Y-16214888D02*
X9239944Y-16233936D01*
X9239944Y-16233936D02*
X9230420Y-16243460D01*
X9230420Y-16243460D02*
X9211372Y-16252984D01*
X9211372Y-16252984D02*
X9154229Y-16252984D01*
X9154229Y-16252984D02*
X9135182Y-16243460D01*
X9135182Y-16243460D02*
X9125658Y-16233936D01*
X9420896Y-16052984D02*
X9382801Y-16052984D01*
X9382801Y-16052984D02*
X9363753Y-16062508D01*
X9363753Y-16062508D02*
X9354229Y-16072031D01*
X9354229Y-16072031D02*
X9335182Y-16100603D01*
X9335182Y-16100603D02*
X9325658Y-16138698D01*
X9325658Y-16138698D02*
X9325658Y-16214888D01*
X9325658Y-16214888D02*
X9335182Y-16233936D01*
X9335182Y-16233936D02*
X9344706Y-16243460D01*
X9344706Y-16243460D02*
X9363753Y-16252984D01*
X9363753Y-16252984D02*
X9401849Y-16252984D01*
X9401849Y-16252984D02*
X9420896Y-16243460D01*
X9420896Y-16243460D02*
X9430420Y-16233936D01*
X9430420Y-16233936D02*
X9439944Y-16214888D01*
X9439944Y-16214888D02*
X9439944Y-16167269D01*
X9439944Y-16167269D02*
X9430420Y-16148222D01*
X9430420Y-16148222D02*
X9420896Y-16138698D01*
X9420896Y-16138698D02*
X9401849Y-16129174D01*
X9401849Y-16129174D02*
X9363753Y-16129174D01*
X9363753Y-16129174D02*
X9344706Y-16138698D01*
X9344706Y-16138698D02*
X9335182Y-16148222D01*
X9335182Y-16148222D02*
X9325658Y-16167269D01*
X9516134Y-16052984D02*
X9516134Y-16091079D01*
X9592325Y-16052984D02*
X9592325Y-16091079D01*
X9887563Y-16329174D02*
X9878039Y-16319650D01*
X9878039Y-16319650D02*
X9858991Y-16291079D01*
X9858991Y-16291079D02*
X9849468Y-16272031D01*
X9849468Y-16272031D02*
X9839944Y-16243460D01*
X9839944Y-16243460D02*
X9830420Y-16195841D01*
X9830420Y-16195841D02*
X9830420Y-16157746D01*
X9830420Y-16157746D02*
X9839944Y-16110127D01*
X9839944Y-16110127D02*
X9849468Y-16081555D01*
X9849468Y-16081555D02*
X9858991Y-16062508D01*
X9858991Y-16062508D02*
X9878039Y-16033936D01*
X9878039Y-16033936D02*
X9887563Y-16024412D01*
X10001849Y-16052984D02*
X10020896Y-16052984D01*
X10020896Y-16052984D02*
X10039944Y-16062508D01*
X10039944Y-16062508D02*
X10049468Y-16072031D01*
X10049468Y-16072031D02*
X10058991Y-16091079D01*
X10058991Y-16091079D02*
X10068515Y-16129174D01*
X10068515Y-16129174D02*
X10068515Y-16176793D01*
X10068515Y-16176793D02*
X10058991Y-16214888D01*
X10058991Y-16214888D02*
X10049468Y-16233936D01*
X10049468Y-16233936D02*
X10039944Y-16243460D01*
X10039944Y-16243460D02*
X10020896Y-16252984D01*
X10020896Y-16252984D02*
X10001849Y-16252984D01*
X10001849Y-16252984D02*
X9982801Y-16243460D01*
X9982801Y-16243460D02*
X9973277Y-16233936D01*
X9973277Y-16233936D02*
X9963753Y-16214888D01*
X9963753Y-16214888D02*
X9954230Y-16176793D01*
X9954230Y-16176793D02*
X9954230Y-16129174D01*
X9954230Y-16129174D02*
X9963753Y-16091079D01*
X9963753Y-16091079D02*
X9973277Y-16072031D01*
X9973277Y-16072031D02*
X9982801Y-16062508D01*
X9982801Y-16062508D02*
X10001849Y-16052984D01*
X10306611Y-16252984D02*
X10306611Y-16052984D01*
X10392325Y-16252984D02*
X10392325Y-16148222D01*
X10392325Y-16148222D02*
X10382801Y-16129174D01*
X10382801Y-16129174D02*
X10363753Y-16119650D01*
X10363753Y-16119650D02*
X10335182Y-16119650D01*
X10335182Y-16119650D02*
X10316134Y-16129174D01*
X10316134Y-16129174D02*
X10306611Y-16138698D01*
X10516134Y-16252984D02*
X10497087Y-16243460D01*
X10497087Y-16243460D02*
X10487563Y-16233936D01*
X10487563Y-16233936D02*
X10478039Y-16214888D01*
X10478039Y-16214888D02*
X10478039Y-16157746D01*
X10478039Y-16157746D02*
X10487563Y-16138698D01*
X10487563Y-16138698D02*
X10497087Y-16129174D01*
X10497087Y-16129174D02*
X10516134Y-16119650D01*
X10516134Y-16119650D02*
X10544706Y-16119650D01*
X10544706Y-16119650D02*
X10563753Y-16129174D01*
X10563753Y-16129174D02*
X10573277Y-16138698D01*
X10573277Y-16138698D02*
X10582801Y-16157746D01*
X10582801Y-16157746D02*
X10582801Y-16214888D01*
X10582801Y-16214888D02*
X10573277Y-16233936D01*
X10573277Y-16233936D02*
X10563753Y-16243460D01*
X10563753Y-16243460D02*
X10544706Y-16252984D01*
X10544706Y-16252984D02*
X10516134Y-16252984D01*
X10697087Y-16252984D02*
X10678039Y-16243460D01*
X10678039Y-16243460D02*
X10668515Y-16224412D01*
X10668515Y-16224412D02*
X10668515Y-16052984D01*
X10849468Y-16243460D02*
X10830420Y-16252984D01*
X10830420Y-16252984D02*
X10792325Y-16252984D01*
X10792325Y-16252984D02*
X10773277Y-16243460D01*
X10773277Y-16243460D02*
X10763753Y-16224412D01*
X10763753Y-16224412D02*
X10763753Y-16148222D01*
X10763753Y-16148222D02*
X10773277Y-16129174D01*
X10773277Y-16129174D02*
X10792325Y-16119650D01*
X10792325Y-16119650D02*
X10830420Y-16119650D01*
X10830420Y-16119650D02*
X10849468Y-16129174D01*
X10849468Y-16129174D02*
X10858992Y-16148222D01*
X10858992Y-16148222D02*
X10858992Y-16167269D01*
X10858992Y-16167269D02*
X10763753Y-16186317D01*
X10935182Y-16243460D02*
X10954230Y-16252984D01*
X10954230Y-16252984D02*
X10992325Y-16252984D01*
X10992325Y-16252984D02*
X11011373Y-16243460D01*
X11011373Y-16243460D02*
X11020896Y-16224412D01*
X11020896Y-16224412D02*
X11020896Y-16214888D01*
X11020896Y-16214888D02*
X11011373Y-16195841D01*
X11011373Y-16195841D02*
X10992325Y-16186317D01*
X10992325Y-16186317D02*
X10963753Y-16186317D01*
X10963753Y-16186317D02*
X10944706Y-16176793D01*
X10944706Y-16176793D02*
X10935182Y-16157746D01*
X10935182Y-16157746D02*
X10935182Y-16148222D01*
X10935182Y-16148222D02*
X10944706Y-16129174D01*
X10944706Y-16129174D02*
X10963753Y-16119650D01*
X10963753Y-16119650D02*
X10992325Y-16119650D01*
X10992325Y-16119650D02*
X11011373Y-16129174D01*
X11258992Y-16176793D02*
X11411373Y-16176793D01*
X11335182Y-16252984D02*
X11335182Y-16100603D01*
X11744706Y-16119650D02*
X11744706Y-16252984D01*
X11697087Y-16043460D02*
X11649468Y-16186317D01*
X11649468Y-16186317D02*
X11773277Y-16186317D01*
X11992325Y-16243460D02*
X12011373Y-16252984D01*
X12011373Y-16252984D02*
X12049468Y-16252984D01*
X12049468Y-16252984D02*
X12068515Y-16243460D01*
X12068515Y-16243460D02*
X12078039Y-16224412D01*
X12078039Y-16224412D02*
X12078039Y-16214888D01*
X12078039Y-16214888D02*
X12068515Y-16195841D01*
X12068515Y-16195841D02*
X12049468Y-16186317D01*
X12049468Y-16186317D02*
X12020896Y-16186317D01*
X12020896Y-16186317D02*
X12001849Y-16176793D01*
X12001849Y-16176793D02*
X11992325Y-16157746D01*
X11992325Y-16157746D02*
X11992325Y-16148222D01*
X11992325Y-16148222D02*
X12001849Y-16129174D01*
X12001849Y-16129174D02*
X12020896Y-16119650D01*
X12020896Y-16119650D02*
X12049468Y-16119650D01*
X12049468Y-16119650D02*
X12068515Y-16129174D01*
X12192325Y-16252984D02*
X12173277Y-16243460D01*
X12173277Y-16243460D02*
X12163754Y-16224412D01*
X12163754Y-16224412D02*
X12163754Y-16052984D01*
X12297087Y-16252984D02*
X12278039Y-16243460D01*
X12278039Y-16243460D02*
X12268515Y-16233936D01*
X12268515Y-16233936D02*
X12258992Y-16214888D01*
X12258992Y-16214888D02*
X12258992Y-16157746D01*
X12258992Y-16157746D02*
X12268515Y-16138698D01*
X12268515Y-16138698D02*
X12278039Y-16129174D01*
X12278039Y-16129174D02*
X12297087Y-16119650D01*
X12297087Y-16119650D02*
X12325658Y-16119650D01*
X12325658Y-16119650D02*
X12344706Y-16129174D01*
X12344706Y-16129174D02*
X12354230Y-16138698D01*
X12354230Y-16138698D02*
X12363754Y-16157746D01*
X12363754Y-16157746D02*
X12363754Y-16214888D01*
X12363754Y-16214888D02*
X12354230Y-16233936D01*
X12354230Y-16233936D02*
X12344706Y-16243460D01*
X12344706Y-16243460D02*
X12325658Y-16252984D01*
X12325658Y-16252984D02*
X12297087Y-16252984D01*
X12420896Y-16119650D02*
X12497087Y-16119650D01*
X12449468Y-16052984D02*
X12449468Y-16224412D01*
X12449468Y-16224412D02*
X12458992Y-16243460D01*
X12458992Y-16243460D02*
X12478039Y-16252984D01*
X12478039Y-16252984D02*
X12497087Y-16252984D01*
X12554230Y-16243460D02*
X12573277Y-16252984D01*
X12573277Y-16252984D02*
X12611373Y-16252984D01*
X12611373Y-16252984D02*
X12630420Y-16243460D01*
X12630420Y-16243460D02*
X12639944Y-16224412D01*
X12639944Y-16224412D02*
X12639944Y-16214888D01*
X12639944Y-16214888D02*
X12630420Y-16195841D01*
X12630420Y-16195841D02*
X12611373Y-16186317D01*
X12611373Y-16186317D02*
X12582801Y-16186317D01*
X12582801Y-16186317D02*
X12563754Y-16176793D01*
X12563754Y-16176793D02*
X12554230Y-16157746D01*
X12554230Y-16157746D02*
X12554230Y-16148222D01*
X12554230Y-16148222D02*
X12563754Y-16129174D01*
X12563754Y-16129174D02*
X12582801Y-16119650D01*
X12582801Y-16119650D02*
X12611373Y-16119650D01*
X12611373Y-16119650D02*
X12630420Y-16129174D01*
X12706611Y-16329174D02*
X12716135Y-16319650D01*
X12716135Y-16319650D02*
X12735182Y-16291079D01*
X12735182Y-16291079D02*
X12744706Y-16272031D01*
X12744706Y-16272031D02*
X12754230Y-16243460D01*
X12754230Y-16243460D02*
X12763754Y-16195841D01*
X12763754Y-16195841D02*
X12763754Y-16157746D01*
X12763754Y-16157746D02*
X12754230Y-16110127D01*
X12754230Y-16110127D02*
X12744706Y-16081555D01*
X12744706Y-16081555D02*
X12735182Y-16062508D01*
X12735182Y-16062508D02*
X12716135Y-16033936D01*
X12716135Y-16033936D02*
X12706611Y-16024412D01*
D12*
X6277500Y-16390500D02*
X6277500Y-16460500D01*
X6242500Y-16425500D02*
X6312500Y-16425500D01*
D11*
X6611372Y-16316984D02*
X6630420Y-16316984D01*
X6630420Y-16316984D02*
X6649467Y-16326508D01*
X6649467Y-16326508D02*
X6658991Y-16336031D01*
X6658991Y-16336031D02*
X6668515Y-16355079D01*
X6668515Y-16355079D02*
X6678039Y-16393174D01*
X6678039Y-16393174D02*
X6678039Y-16440793D01*
X6678039Y-16440793D02*
X6668515Y-16478888D01*
X6668515Y-16478888D02*
X6658991Y-16497936D01*
X6658991Y-16497936D02*
X6649467Y-16507460D01*
X6649467Y-16507460D02*
X6630420Y-16516984D01*
X6630420Y-16516984D02*
X6611372Y-16516984D01*
X6611372Y-16516984D02*
X6592324Y-16507460D01*
X6592324Y-16507460D02*
X6582801Y-16497936D01*
X6582801Y-16497936D02*
X6573277Y-16478888D01*
X6573277Y-16478888D02*
X6563753Y-16440793D01*
X6563753Y-16440793D02*
X6563753Y-16393174D01*
X6563753Y-16393174D02*
X6573277Y-16355079D01*
X6573277Y-16355079D02*
X6582801Y-16336031D01*
X6582801Y-16336031D02*
X6592324Y-16326508D01*
X6592324Y-16326508D02*
X6611372Y-16316984D01*
X6763753Y-16497936D02*
X6773277Y-16507460D01*
X6773277Y-16507460D02*
X6763753Y-16516984D01*
X6763753Y-16516984D02*
X6754229Y-16507460D01*
X6754229Y-16507460D02*
X6763753Y-16497936D01*
X6763753Y-16497936D02*
X6763753Y-16516984D01*
X6839943Y-16316984D02*
X6973277Y-16316984D01*
X6973277Y-16316984D02*
X6887562Y-16516984D01*
X7087562Y-16316984D02*
X7106610Y-16316984D01*
X7106610Y-16316984D02*
X7125658Y-16326508D01*
X7125658Y-16326508D02*
X7135182Y-16336031D01*
X7135182Y-16336031D02*
X7144705Y-16355079D01*
X7144705Y-16355079D02*
X7154229Y-16393174D01*
X7154229Y-16393174D02*
X7154229Y-16440793D01*
X7154229Y-16440793D02*
X7144705Y-16478888D01*
X7144705Y-16478888D02*
X7135182Y-16497936D01*
X7135182Y-16497936D02*
X7125658Y-16507460D01*
X7125658Y-16507460D02*
X7106610Y-16516984D01*
X7106610Y-16516984D02*
X7087562Y-16516984D01*
X7087562Y-16516984D02*
X7068515Y-16507460D01*
X7068515Y-16507460D02*
X7058991Y-16497936D01*
X7058991Y-16497936D02*
X7049467Y-16478888D01*
X7049467Y-16478888D02*
X7039943Y-16440793D01*
X7039943Y-16440793D02*
X7039943Y-16393174D01*
X7039943Y-16393174D02*
X7049467Y-16355079D01*
X7049467Y-16355079D02*
X7058991Y-16336031D01*
X7058991Y-16336031D02*
X7068515Y-16326508D01*
X7068515Y-16326508D02*
X7087562Y-16316984D01*
X7278039Y-16316984D02*
X7297086Y-16316984D01*
X7297086Y-16316984D02*
X7316134Y-16326508D01*
X7316134Y-16326508D02*
X7325658Y-16336031D01*
X7325658Y-16336031D02*
X7335182Y-16355079D01*
X7335182Y-16355079D02*
X7344705Y-16393174D01*
X7344705Y-16393174D02*
X7344705Y-16440793D01*
X7344705Y-16440793D02*
X7335182Y-16478888D01*
X7335182Y-16478888D02*
X7325658Y-16497936D01*
X7325658Y-16497936D02*
X7316134Y-16507460D01*
X7316134Y-16507460D02*
X7297086Y-16516984D01*
X7297086Y-16516984D02*
X7278039Y-16516984D01*
X7278039Y-16516984D02*
X7258991Y-16507460D01*
X7258991Y-16507460D02*
X7249467Y-16497936D01*
X7249467Y-16497936D02*
X7239943Y-16478888D01*
X7239943Y-16478888D02*
X7230420Y-16440793D01*
X7230420Y-16440793D02*
X7230420Y-16393174D01*
X7230420Y-16393174D02*
X7239943Y-16355079D01*
X7239943Y-16355079D02*
X7249467Y-16336031D01*
X7249467Y-16336031D02*
X7258991Y-16326508D01*
X7258991Y-16326508D02*
X7278039Y-16316984D01*
X7430420Y-16516984D02*
X7430420Y-16383650D01*
X7430420Y-16402698D02*
X7439943Y-16393174D01*
X7439943Y-16393174D02*
X7458991Y-16383650D01*
X7458991Y-16383650D02*
X7487563Y-16383650D01*
X7487563Y-16383650D02*
X7506610Y-16393174D01*
X7506610Y-16393174D02*
X7516134Y-16412222D01*
X7516134Y-16412222D02*
X7516134Y-16516984D01*
X7516134Y-16412222D02*
X7525658Y-16393174D01*
X7525658Y-16393174D02*
X7544705Y-16383650D01*
X7544705Y-16383650D02*
X7573277Y-16383650D01*
X7573277Y-16383650D02*
X7592324Y-16393174D01*
X7592324Y-16393174D02*
X7601848Y-16412222D01*
X7601848Y-16412222D02*
X7601848Y-16516984D01*
X7697086Y-16516984D02*
X7697086Y-16383650D01*
X7697086Y-16402698D02*
X7706610Y-16393174D01*
X7706610Y-16393174D02*
X7725658Y-16383650D01*
X7725658Y-16383650D02*
X7754229Y-16383650D01*
X7754229Y-16383650D02*
X7773277Y-16393174D01*
X7773277Y-16393174D02*
X7782801Y-16412222D01*
X7782801Y-16412222D02*
X7782801Y-16516984D01*
X7782801Y-16412222D02*
X7792324Y-16393174D01*
X7792324Y-16393174D02*
X7811372Y-16383650D01*
X7811372Y-16383650D02*
X7839943Y-16383650D01*
X7839943Y-16383650D02*
X7858991Y-16393174D01*
X7858991Y-16393174D02*
X7868515Y-16412222D01*
X7868515Y-16412222D02*
X7868515Y-16516984D01*
X8258991Y-16307460D02*
X8087563Y-16564603D01*
X8516134Y-16316984D02*
X8535182Y-16316984D01*
X8535182Y-16316984D02*
X8554229Y-16326508D01*
X8554229Y-16326508D02*
X8563753Y-16336031D01*
X8563753Y-16336031D02*
X8573277Y-16355079D01*
X8573277Y-16355079D02*
X8582801Y-16393174D01*
X8582801Y-16393174D02*
X8582801Y-16440793D01*
X8582801Y-16440793D02*
X8573277Y-16478888D01*
X8573277Y-16478888D02*
X8563753Y-16497936D01*
X8563753Y-16497936D02*
X8554229Y-16507460D01*
X8554229Y-16507460D02*
X8535182Y-16516984D01*
X8535182Y-16516984D02*
X8516134Y-16516984D01*
X8516134Y-16516984D02*
X8497087Y-16507460D01*
X8497087Y-16507460D02*
X8487563Y-16497936D01*
X8487563Y-16497936D02*
X8478039Y-16478888D01*
X8478039Y-16478888D02*
X8468515Y-16440793D01*
X8468515Y-16440793D02*
X8468515Y-16393174D01*
X8468515Y-16393174D02*
X8478039Y-16355079D01*
X8478039Y-16355079D02*
X8487563Y-16336031D01*
X8487563Y-16336031D02*
X8497087Y-16326508D01*
X8497087Y-16326508D02*
X8516134Y-16316984D01*
X8668515Y-16497936D02*
X8678039Y-16507460D01*
X8678039Y-16507460D02*
X8668515Y-16516984D01*
X8668515Y-16516984D02*
X8658991Y-16507460D01*
X8658991Y-16507460D02*
X8668515Y-16497936D01*
X8668515Y-16497936D02*
X8668515Y-16516984D01*
X8801848Y-16316984D02*
X8820896Y-16316984D01*
X8820896Y-16316984D02*
X8839944Y-16326508D01*
X8839944Y-16326508D02*
X8849468Y-16336031D01*
X8849468Y-16336031D02*
X8858991Y-16355079D01*
X8858991Y-16355079D02*
X8868515Y-16393174D01*
X8868515Y-16393174D02*
X8868515Y-16440793D01*
X8868515Y-16440793D02*
X8858991Y-16478888D01*
X8858991Y-16478888D02*
X8849468Y-16497936D01*
X8849468Y-16497936D02*
X8839944Y-16507460D01*
X8839944Y-16507460D02*
X8820896Y-16516984D01*
X8820896Y-16516984D02*
X8801848Y-16516984D01*
X8801848Y-16516984D02*
X8782801Y-16507460D01*
X8782801Y-16507460D02*
X8773277Y-16497936D01*
X8773277Y-16497936D02*
X8763753Y-16478888D01*
X8763753Y-16478888D02*
X8754229Y-16440793D01*
X8754229Y-16440793D02*
X8754229Y-16393174D01*
X8754229Y-16393174D02*
X8763753Y-16355079D01*
X8763753Y-16355079D02*
X8773277Y-16336031D01*
X8773277Y-16336031D02*
X8782801Y-16326508D01*
X8782801Y-16326508D02*
X8801848Y-16316984D01*
X8944706Y-16336031D02*
X8954229Y-16326508D01*
X8954229Y-16326508D02*
X8973277Y-16316984D01*
X8973277Y-16316984D02*
X9020896Y-16316984D01*
X9020896Y-16316984D02*
X9039944Y-16326508D01*
X9039944Y-16326508D02*
X9049468Y-16336031D01*
X9049468Y-16336031D02*
X9058991Y-16355079D01*
X9058991Y-16355079D02*
X9058991Y-16374127D01*
X9058991Y-16374127D02*
X9049468Y-16402698D01*
X9049468Y-16402698D02*
X8935182Y-16516984D01*
X8935182Y-16516984D02*
X9058991Y-16516984D01*
X9125658Y-16316984D02*
X9258991Y-16316984D01*
X9258991Y-16316984D02*
X9173277Y-16516984D01*
X9420896Y-16316984D02*
X9382801Y-16316984D01*
X9382801Y-16316984D02*
X9363753Y-16326508D01*
X9363753Y-16326508D02*
X9354229Y-16336031D01*
X9354229Y-16336031D02*
X9335182Y-16364603D01*
X9335182Y-16364603D02*
X9325658Y-16402698D01*
X9325658Y-16402698D02*
X9325658Y-16478888D01*
X9325658Y-16478888D02*
X9335182Y-16497936D01*
X9335182Y-16497936D02*
X9344706Y-16507460D01*
X9344706Y-16507460D02*
X9363753Y-16516984D01*
X9363753Y-16516984D02*
X9401849Y-16516984D01*
X9401849Y-16516984D02*
X9420896Y-16507460D01*
X9420896Y-16507460D02*
X9430420Y-16497936D01*
X9430420Y-16497936D02*
X9439944Y-16478888D01*
X9439944Y-16478888D02*
X9439944Y-16431269D01*
X9439944Y-16431269D02*
X9430420Y-16412222D01*
X9430420Y-16412222D02*
X9420896Y-16402698D01*
X9420896Y-16402698D02*
X9401849Y-16393174D01*
X9401849Y-16393174D02*
X9363753Y-16393174D01*
X9363753Y-16393174D02*
X9344706Y-16402698D01*
X9344706Y-16402698D02*
X9335182Y-16412222D01*
X9335182Y-16412222D02*
X9325658Y-16431269D01*
X9516134Y-16316984D02*
X9516134Y-16355079D01*
X9592325Y-16316984D02*
X9592325Y-16355079D01*
X9887563Y-16593174D02*
X9878039Y-16583650D01*
X9878039Y-16583650D02*
X9858991Y-16555079D01*
X9858991Y-16555079D02*
X9849468Y-16536031D01*
X9849468Y-16536031D02*
X9839944Y-16507460D01*
X9839944Y-16507460D02*
X9830420Y-16459841D01*
X9830420Y-16459841D02*
X9830420Y-16421746D01*
X9830420Y-16421746D02*
X9839944Y-16374127D01*
X9839944Y-16374127D02*
X9849468Y-16345555D01*
X9849468Y-16345555D02*
X9858991Y-16326508D01*
X9858991Y-16326508D02*
X9878039Y-16297936D01*
X9878039Y-16297936D02*
X9887563Y-16288412D01*
X9954230Y-16336031D02*
X9963753Y-16326508D01*
X9963753Y-16326508D02*
X9982801Y-16316984D01*
X9982801Y-16316984D02*
X10030420Y-16316984D01*
X10030420Y-16316984D02*
X10049468Y-16326508D01*
X10049468Y-16326508D02*
X10058991Y-16336031D01*
X10058991Y-16336031D02*
X10068515Y-16355079D01*
X10068515Y-16355079D02*
X10068515Y-16374127D01*
X10068515Y-16374127D02*
X10058991Y-16402698D01*
X10058991Y-16402698D02*
X9944706Y-16516984D01*
X9944706Y-16516984D02*
X10068515Y-16516984D01*
X10306611Y-16516984D02*
X10306611Y-16316984D01*
X10392325Y-16516984D02*
X10392325Y-16412222D01*
X10392325Y-16412222D02*
X10382801Y-16393174D01*
X10382801Y-16393174D02*
X10363753Y-16383650D01*
X10363753Y-16383650D02*
X10335182Y-16383650D01*
X10335182Y-16383650D02*
X10316134Y-16393174D01*
X10316134Y-16393174D02*
X10306611Y-16402698D01*
X10516134Y-16516984D02*
X10497087Y-16507460D01*
X10497087Y-16507460D02*
X10487563Y-16497936D01*
X10487563Y-16497936D02*
X10478039Y-16478888D01*
X10478039Y-16478888D02*
X10478039Y-16421746D01*
X10478039Y-16421746D02*
X10487563Y-16402698D01*
X10487563Y-16402698D02*
X10497087Y-16393174D01*
X10497087Y-16393174D02*
X10516134Y-16383650D01*
X10516134Y-16383650D02*
X10544706Y-16383650D01*
X10544706Y-16383650D02*
X10563753Y-16393174D01*
X10563753Y-16393174D02*
X10573277Y-16402698D01*
X10573277Y-16402698D02*
X10582801Y-16421746D01*
X10582801Y-16421746D02*
X10582801Y-16478888D01*
X10582801Y-16478888D02*
X10573277Y-16497936D01*
X10573277Y-16497936D02*
X10563753Y-16507460D01*
X10563753Y-16507460D02*
X10544706Y-16516984D01*
X10544706Y-16516984D02*
X10516134Y-16516984D01*
X10697087Y-16516984D02*
X10678039Y-16507460D01*
X10678039Y-16507460D02*
X10668515Y-16488412D01*
X10668515Y-16488412D02*
X10668515Y-16316984D01*
X10849468Y-16507460D02*
X10830420Y-16516984D01*
X10830420Y-16516984D02*
X10792325Y-16516984D01*
X10792325Y-16516984D02*
X10773277Y-16507460D01*
X10773277Y-16507460D02*
X10763753Y-16488412D01*
X10763753Y-16488412D02*
X10763753Y-16412222D01*
X10763753Y-16412222D02*
X10773277Y-16393174D01*
X10773277Y-16393174D02*
X10792325Y-16383650D01*
X10792325Y-16383650D02*
X10830420Y-16383650D01*
X10830420Y-16383650D02*
X10849468Y-16393174D01*
X10849468Y-16393174D02*
X10858992Y-16412222D01*
X10858992Y-16412222D02*
X10858992Y-16431269D01*
X10858992Y-16431269D02*
X10763753Y-16450317D01*
X10935182Y-16507460D02*
X10954230Y-16516984D01*
X10954230Y-16516984D02*
X10992325Y-16516984D01*
X10992325Y-16516984D02*
X11011373Y-16507460D01*
X11011373Y-16507460D02*
X11020896Y-16488412D01*
X11020896Y-16488412D02*
X11020896Y-16478888D01*
X11020896Y-16478888D02*
X11011373Y-16459841D01*
X11011373Y-16459841D02*
X10992325Y-16450317D01*
X10992325Y-16450317D02*
X10963753Y-16450317D01*
X10963753Y-16450317D02*
X10944706Y-16440793D01*
X10944706Y-16440793D02*
X10935182Y-16421746D01*
X10935182Y-16421746D02*
X10935182Y-16412222D01*
X10935182Y-16412222D02*
X10944706Y-16393174D01*
X10944706Y-16393174D02*
X10963753Y-16383650D01*
X10963753Y-16383650D02*
X10992325Y-16383650D01*
X10992325Y-16383650D02*
X11011373Y-16393174D01*
X11087563Y-16593174D02*
X11097087Y-16583650D01*
X11097087Y-16583650D02*
X11116134Y-16555079D01*
X11116134Y-16555079D02*
X11125658Y-16536031D01*
X11125658Y-16536031D02*
X11135182Y-16507460D01*
X11135182Y-16507460D02*
X11144706Y-16459841D01*
X11144706Y-16459841D02*
X11144706Y-16421746D01*
X11144706Y-16421746D02*
X11135182Y-16374127D01*
X11135182Y-16374127D02*
X11125658Y-16345555D01*
X11125658Y-16345555D02*
X11116134Y-16326508D01*
X11116134Y-16326508D02*
X11097087Y-16297936D01*
X11097087Y-16297936D02*
X11087563Y-16288412D01*
D12*
X6299320Y-16721320D02*
X6299320Y-16657680D01*
X6235680Y-16657680D01*
X6235680Y-16721320D01*
X6299320Y-16721320D01*
D11*
X6611372Y-16580984D02*
X6630420Y-16580984D01*
X6630420Y-16580984D02*
X6649467Y-16590508D01*
X6649467Y-16590508D02*
X6658991Y-16600031D01*
X6658991Y-16600031D02*
X6668515Y-16619079D01*
X6668515Y-16619079D02*
X6678039Y-16657174D01*
X6678039Y-16657174D02*
X6678039Y-16704793D01*
X6678039Y-16704793D02*
X6668515Y-16742888D01*
X6668515Y-16742888D02*
X6658991Y-16761936D01*
X6658991Y-16761936D02*
X6649467Y-16771460D01*
X6649467Y-16771460D02*
X6630420Y-16780984D01*
X6630420Y-16780984D02*
X6611372Y-16780984D01*
X6611372Y-16780984D02*
X6592324Y-16771460D01*
X6592324Y-16771460D02*
X6582801Y-16761936D01*
X6582801Y-16761936D02*
X6573277Y-16742888D01*
X6573277Y-16742888D02*
X6563753Y-16704793D01*
X6563753Y-16704793D02*
X6563753Y-16657174D01*
X6563753Y-16657174D02*
X6573277Y-16619079D01*
X6573277Y-16619079D02*
X6582801Y-16600031D01*
X6582801Y-16600031D02*
X6592324Y-16590508D01*
X6592324Y-16590508D02*
X6611372Y-16580984D01*
X6763753Y-16761936D02*
X6773277Y-16771460D01*
X6773277Y-16771460D02*
X6763753Y-16780984D01*
X6763753Y-16780984D02*
X6754229Y-16771460D01*
X6754229Y-16771460D02*
X6763753Y-16761936D01*
X6763753Y-16761936D02*
X6763753Y-16780984D01*
X6868515Y-16780984D02*
X6906610Y-16780984D01*
X6906610Y-16780984D02*
X6925658Y-16771460D01*
X6925658Y-16771460D02*
X6935182Y-16761936D01*
X6935182Y-16761936D02*
X6954229Y-16733365D01*
X6954229Y-16733365D02*
X6963753Y-16695269D01*
X6963753Y-16695269D02*
X6963753Y-16619079D01*
X6963753Y-16619079D02*
X6954229Y-16600031D01*
X6954229Y-16600031D02*
X6944705Y-16590508D01*
X6944705Y-16590508D02*
X6925658Y-16580984D01*
X6925658Y-16580984D02*
X6887562Y-16580984D01*
X6887562Y-16580984D02*
X6868515Y-16590508D01*
X6868515Y-16590508D02*
X6858991Y-16600031D01*
X6858991Y-16600031D02*
X6849467Y-16619079D01*
X6849467Y-16619079D02*
X6849467Y-16666698D01*
X6849467Y-16666698D02*
X6858991Y-16685746D01*
X6858991Y-16685746D02*
X6868515Y-16695269D01*
X6868515Y-16695269D02*
X6887562Y-16704793D01*
X6887562Y-16704793D02*
X6925658Y-16704793D01*
X6925658Y-16704793D02*
X6944705Y-16695269D01*
X6944705Y-16695269D02*
X6954229Y-16685746D01*
X6954229Y-16685746D02*
X6963753Y-16666698D01*
X7087562Y-16580984D02*
X7106610Y-16580984D01*
X7106610Y-16580984D02*
X7125658Y-16590508D01*
X7125658Y-16590508D02*
X7135182Y-16600031D01*
X7135182Y-16600031D02*
X7144705Y-16619079D01*
X7144705Y-16619079D02*
X7154229Y-16657174D01*
X7154229Y-16657174D02*
X7154229Y-16704793D01*
X7154229Y-16704793D02*
X7144705Y-16742888D01*
X7144705Y-16742888D02*
X7135182Y-16761936D01*
X7135182Y-16761936D02*
X7125658Y-16771460D01*
X7125658Y-16771460D02*
X7106610Y-16780984D01*
X7106610Y-16780984D02*
X7087562Y-16780984D01*
X7087562Y-16780984D02*
X7068515Y-16771460D01*
X7068515Y-16771460D02*
X7058991Y-16761936D01*
X7058991Y-16761936D02*
X7049467Y-16742888D01*
X7049467Y-16742888D02*
X7039943Y-16704793D01*
X7039943Y-16704793D02*
X7039943Y-16657174D01*
X7039943Y-16657174D02*
X7049467Y-16619079D01*
X7049467Y-16619079D02*
X7058991Y-16600031D01*
X7058991Y-16600031D02*
X7068515Y-16590508D01*
X7068515Y-16590508D02*
X7087562Y-16580984D01*
X7278039Y-16580984D02*
X7297086Y-16580984D01*
X7297086Y-16580984D02*
X7316134Y-16590508D01*
X7316134Y-16590508D02*
X7325658Y-16600031D01*
X7325658Y-16600031D02*
X7335182Y-16619079D01*
X7335182Y-16619079D02*
X7344705Y-16657174D01*
X7344705Y-16657174D02*
X7344705Y-16704793D01*
X7344705Y-16704793D02*
X7335182Y-16742888D01*
X7335182Y-16742888D02*
X7325658Y-16761936D01*
X7325658Y-16761936D02*
X7316134Y-16771460D01*
X7316134Y-16771460D02*
X7297086Y-16780984D01*
X7297086Y-16780984D02*
X7278039Y-16780984D01*
X7278039Y-16780984D02*
X7258991Y-16771460D01*
X7258991Y-16771460D02*
X7249467Y-16761936D01*
X7249467Y-16761936D02*
X7239943Y-16742888D01*
X7239943Y-16742888D02*
X7230420Y-16704793D01*
X7230420Y-16704793D02*
X7230420Y-16657174D01*
X7230420Y-16657174D02*
X7239943Y-16619079D01*
X7239943Y-16619079D02*
X7249467Y-16600031D01*
X7249467Y-16600031D02*
X7258991Y-16590508D01*
X7258991Y-16590508D02*
X7278039Y-16580984D01*
X7430420Y-16780984D02*
X7430420Y-16647650D01*
X7430420Y-16666698D02*
X7439943Y-16657174D01*
X7439943Y-16657174D02*
X7458991Y-16647650D01*
X7458991Y-16647650D02*
X7487563Y-16647650D01*
X7487563Y-16647650D02*
X7506610Y-16657174D01*
X7506610Y-16657174D02*
X7516134Y-16676222D01*
X7516134Y-16676222D02*
X7516134Y-16780984D01*
X7516134Y-16676222D02*
X7525658Y-16657174D01*
X7525658Y-16657174D02*
X7544705Y-16647650D01*
X7544705Y-16647650D02*
X7573277Y-16647650D01*
X7573277Y-16647650D02*
X7592324Y-16657174D01*
X7592324Y-16657174D02*
X7601848Y-16676222D01*
X7601848Y-16676222D02*
X7601848Y-16780984D01*
X7697086Y-16780984D02*
X7697086Y-16647650D01*
X7697086Y-16666698D02*
X7706610Y-16657174D01*
X7706610Y-16657174D02*
X7725658Y-16647650D01*
X7725658Y-16647650D02*
X7754229Y-16647650D01*
X7754229Y-16647650D02*
X7773277Y-16657174D01*
X7773277Y-16657174D02*
X7782801Y-16676222D01*
X7782801Y-16676222D02*
X7782801Y-16780984D01*
X7782801Y-16676222D02*
X7792324Y-16657174D01*
X7792324Y-16657174D02*
X7811372Y-16647650D01*
X7811372Y-16647650D02*
X7839943Y-16647650D01*
X7839943Y-16647650D02*
X7858991Y-16657174D01*
X7858991Y-16657174D02*
X7868515Y-16676222D01*
X7868515Y-16676222D02*
X7868515Y-16780984D01*
X8258991Y-16571460D02*
X8087563Y-16828603D01*
X8516134Y-16580984D02*
X8535182Y-16580984D01*
X8535182Y-16580984D02*
X8554229Y-16590508D01*
X8554229Y-16590508D02*
X8563753Y-16600031D01*
X8563753Y-16600031D02*
X8573277Y-16619079D01*
X8573277Y-16619079D02*
X8582801Y-16657174D01*
X8582801Y-16657174D02*
X8582801Y-16704793D01*
X8582801Y-16704793D02*
X8573277Y-16742888D01*
X8573277Y-16742888D02*
X8563753Y-16761936D01*
X8563753Y-16761936D02*
X8554229Y-16771460D01*
X8554229Y-16771460D02*
X8535182Y-16780984D01*
X8535182Y-16780984D02*
X8516134Y-16780984D01*
X8516134Y-16780984D02*
X8497087Y-16771460D01*
X8497087Y-16771460D02*
X8487563Y-16761936D01*
X8487563Y-16761936D02*
X8478039Y-16742888D01*
X8478039Y-16742888D02*
X8468515Y-16704793D01*
X8468515Y-16704793D02*
X8468515Y-16657174D01*
X8468515Y-16657174D02*
X8478039Y-16619079D01*
X8478039Y-16619079D02*
X8487563Y-16600031D01*
X8487563Y-16600031D02*
X8497087Y-16590508D01*
X8497087Y-16590508D02*
X8516134Y-16580984D01*
X8668515Y-16761936D02*
X8678039Y-16771460D01*
X8678039Y-16771460D02*
X8668515Y-16780984D01*
X8668515Y-16780984D02*
X8658991Y-16771460D01*
X8658991Y-16771460D02*
X8668515Y-16761936D01*
X8668515Y-16761936D02*
X8668515Y-16780984D01*
X8801848Y-16580984D02*
X8820896Y-16580984D01*
X8820896Y-16580984D02*
X8839944Y-16590508D01*
X8839944Y-16590508D02*
X8849468Y-16600031D01*
X8849468Y-16600031D02*
X8858991Y-16619079D01*
X8858991Y-16619079D02*
X8868515Y-16657174D01*
X8868515Y-16657174D02*
X8868515Y-16704793D01*
X8868515Y-16704793D02*
X8858991Y-16742888D01*
X8858991Y-16742888D02*
X8849468Y-16761936D01*
X8849468Y-16761936D02*
X8839944Y-16771460D01*
X8839944Y-16771460D02*
X8820896Y-16780984D01*
X8820896Y-16780984D02*
X8801848Y-16780984D01*
X8801848Y-16780984D02*
X8782801Y-16771460D01*
X8782801Y-16771460D02*
X8773277Y-16761936D01*
X8773277Y-16761936D02*
X8763753Y-16742888D01*
X8763753Y-16742888D02*
X8754229Y-16704793D01*
X8754229Y-16704793D02*
X8754229Y-16657174D01*
X8754229Y-16657174D02*
X8763753Y-16619079D01*
X8763753Y-16619079D02*
X8773277Y-16600031D01*
X8773277Y-16600031D02*
X8782801Y-16590508D01*
X8782801Y-16590508D02*
X8801848Y-16580984D01*
X8935182Y-16580984D02*
X9058991Y-16580984D01*
X9058991Y-16580984D02*
X8992325Y-16657174D01*
X8992325Y-16657174D02*
X9020896Y-16657174D01*
X9020896Y-16657174D02*
X9039944Y-16666698D01*
X9039944Y-16666698D02*
X9049468Y-16676222D01*
X9049468Y-16676222D02*
X9058991Y-16695269D01*
X9058991Y-16695269D02*
X9058991Y-16742888D01*
X9058991Y-16742888D02*
X9049468Y-16761936D01*
X9049468Y-16761936D02*
X9039944Y-16771460D01*
X9039944Y-16771460D02*
X9020896Y-16780984D01*
X9020896Y-16780984D02*
X8963753Y-16780984D01*
X8963753Y-16780984D02*
X8944706Y-16771460D01*
X8944706Y-16771460D02*
X8935182Y-16761936D01*
X9239944Y-16580984D02*
X9144706Y-16580984D01*
X9144706Y-16580984D02*
X9135182Y-16676222D01*
X9135182Y-16676222D02*
X9144706Y-16666698D01*
X9144706Y-16666698D02*
X9163753Y-16657174D01*
X9163753Y-16657174D02*
X9211372Y-16657174D01*
X9211372Y-16657174D02*
X9230420Y-16666698D01*
X9230420Y-16666698D02*
X9239944Y-16676222D01*
X9239944Y-16676222D02*
X9249468Y-16695269D01*
X9249468Y-16695269D02*
X9249468Y-16742888D01*
X9249468Y-16742888D02*
X9239944Y-16761936D01*
X9239944Y-16761936D02*
X9230420Y-16771460D01*
X9230420Y-16771460D02*
X9211372Y-16780984D01*
X9211372Y-16780984D02*
X9163753Y-16780984D01*
X9163753Y-16780984D02*
X9144706Y-16771460D01*
X9144706Y-16771460D02*
X9135182Y-16761936D01*
X9420896Y-16647650D02*
X9420896Y-16780984D01*
X9373277Y-16571460D02*
X9325658Y-16714317D01*
X9325658Y-16714317D02*
X9449468Y-16714317D01*
X9516134Y-16580984D02*
X9516134Y-16619079D01*
X9592325Y-16580984D02*
X9592325Y-16619079D01*
X9887563Y-16857174D02*
X9878039Y-16847650D01*
X9878039Y-16847650D02*
X9858991Y-16819079D01*
X9858991Y-16819079D02*
X9849468Y-16800031D01*
X9849468Y-16800031D02*
X9839944Y-16771460D01*
X9839944Y-16771460D02*
X9830420Y-16723841D01*
X9830420Y-16723841D02*
X9830420Y-16685746D01*
X9830420Y-16685746D02*
X9839944Y-16638127D01*
X9839944Y-16638127D02*
X9849468Y-16609555D01*
X9849468Y-16609555D02*
X9858991Y-16590508D01*
X9858991Y-16590508D02*
X9878039Y-16561936D01*
X9878039Y-16561936D02*
X9887563Y-16552412D01*
X9944706Y-16580984D02*
X10068515Y-16580984D01*
X10068515Y-16580984D02*
X10001849Y-16657174D01*
X10001849Y-16657174D02*
X10030420Y-16657174D01*
X10030420Y-16657174D02*
X10049468Y-16666698D01*
X10049468Y-16666698D02*
X10058991Y-16676222D01*
X10058991Y-16676222D02*
X10068515Y-16695269D01*
X10068515Y-16695269D02*
X10068515Y-16742888D01*
X10068515Y-16742888D02*
X10058991Y-16761936D01*
X10058991Y-16761936D02*
X10049468Y-16771460D01*
X10049468Y-16771460D02*
X10030420Y-16780984D01*
X10030420Y-16780984D02*
X9973277Y-16780984D01*
X9973277Y-16780984D02*
X9954230Y-16771460D01*
X9954230Y-16771460D02*
X9944706Y-16761936D01*
X10306611Y-16780984D02*
X10306611Y-16580984D01*
X10392325Y-16780984D02*
X10392325Y-16676222D01*
X10392325Y-16676222D02*
X10382801Y-16657174D01*
X10382801Y-16657174D02*
X10363753Y-16647650D01*
X10363753Y-16647650D02*
X10335182Y-16647650D01*
X10335182Y-16647650D02*
X10316134Y-16657174D01*
X10316134Y-16657174D02*
X10306611Y-16666698D01*
X10516134Y-16780984D02*
X10497087Y-16771460D01*
X10497087Y-16771460D02*
X10487563Y-16761936D01*
X10487563Y-16761936D02*
X10478039Y-16742888D01*
X10478039Y-16742888D02*
X10478039Y-16685746D01*
X10478039Y-16685746D02*
X10487563Y-16666698D01*
X10487563Y-16666698D02*
X10497087Y-16657174D01*
X10497087Y-16657174D02*
X10516134Y-16647650D01*
X10516134Y-16647650D02*
X10544706Y-16647650D01*
X10544706Y-16647650D02*
X10563753Y-16657174D01*
X10563753Y-16657174D02*
X10573277Y-16666698D01*
X10573277Y-16666698D02*
X10582801Y-16685746D01*
X10582801Y-16685746D02*
X10582801Y-16742888D01*
X10582801Y-16742888D02*
X10573277Y-16761936D01*
X10573277Y-16761936D02*
X10563753Y-16771460D01*
X10563753Y-16771460D02*
X10544706Y-16780984D01*
X10544706Y-16780984D02*
X10516134Y-16780984D01*
X10697087Y-16780984D02*
X10678039Y-16771460D01*
X10678039Y-16771460D02*
X10668515Y-16752412D01*
X10668515Y-16752412D02*
X10668515Y-16580984D01*
X10849468Y-16771460D02*
X10830420Y-16780984D01*
X10830420Y-16780984D02*
X10792325Y-16780984D01*
X10792325Y-16780984D02*
X10773277Y-16771460D01*
X10773277Y-16771460D02*
X10763753Y-16752412D01*
X10763753Y-16752412D02*
X10763753Y-16676222D01*
X10763753Y-16676222D02*
X10773277Y-16657174D01*
X10773277Y-16657174D02*
X10792325Y-16647650D01*
X10792325Y-16647650D02*
X10830420Y-16647650D01*
X10830420Y-16647650D02*
X10849468Y-16657174D01*
X10849468Y-16657174D02*
X10858992Y-16676222D01*
X10858992Y-16676222D02*
X10858992Y-16695269D01*
X10858992Y-16695269D02*
X10763753Y-16714317D01*
X10935182Y-16771460D02*
X10954230Y-16780984D01*
X10954230Y-16780984D02*
X10992325Y-16780984D01*
X10992325Y-16780984D02*
X11011373Y-16771460D01*
X11011373Y-16771460D02*
X11020896Y-16752412D01*
X11020896Y-16752412D02*
X11020896Y-16742888D01*
X11020896Y-16742888D02*
X11011373Y-16723841D01*
X11011373Y-16723841D02*
X10992325Y-16714317D01*
X10992325Y-16714317D02*
X10963753Y-16714317D01*
X10963753Y-16714317D02*
X10944706Y-16704793D01*
X10944706Y-16704793D02*
X10935182Y-16685746D01*
X10935182Y-16685746D02*
X10935182Y-16676222D01*
X10935182Y-16676222D02*
X10944706Y-16657174D01*
X10944706Y-16657174D02*
X10963753Y-16647650D01*
X10963753Y-16647650D02*
X10992325Y-16647650D01*
X10992325Y-16647650D02*
X11011373Y-16657174D01*
X11087563Y-16857174D02*
X11097087Y-16847650D01*
X11097087Y-16847650D02*
X11116134Y-16819079D01*
X11116134Y-16819079D02*
X11125658Y-16800031D01*
X11125658Y-16800031D02*
X11135182Y-16771460D01*
X11135182Y-16771460D02*
X11144706Y-16723841D01*
X11144706Y-16723841D02*
X11144706Y-16685746D01*
X11144706Y-16685746D02*
X11135182Y-16638127D01*
X11135182Y-16638127D02*
X11125658Y-16609555D01*
X11125658Y-16609555D02*
X11116134Y-16590508D01*
X11116134Y-16590508D02*
X11097087Y-16561936D01*
X11097087Y-16561936D02*
X11087563Y-16552412D01*
D12*
X6262500Y-17003500D02*
X6312500Y-16953500D01*
X6262500Y-16903500D01*
X6212500Y-16953500D01*
X6262500Y-17003500D01*
D11*
X6678039Y-17044984D02*
X6563753Y-17044984D01*
X6620896Y-17044984D02*
X6620896Y-16844984D01*
X6620896Y-16844984D02*
X6601848Y-16873555D01*
X6601848Y-16873555D02*
X6582801Y-16892603D01*
X6582801Y-16892603D02*
X6563753Y-16902127D01*
X6763753Y-17025936D02*
X6773277Y-17035460D01*
X6773277Y-17035460D02*
X6763753Y-17044984D01*
X6763753Y-17044984D02*
X6754229Y-17035460D01*
X6754229Y-17035460D02*
X6763753Y-17025936D01*
X6763753Y-17025936D02*
X6763753Y-17044984D01*
X6897086Y-16844984D02*
X6916134Y-16844984D01*
X6916134Y-16844984D02*
X6935182Y-16854508D01*
X6935182Y-16854508D02*
X6944705Y-16864031D01*
X6944705Y-16864031D02*
X6954229Y-16883079D01*
X6954229Y-16883079D02*
X6963753Y-16921174D01*
X6963753Y-16921174D02*
X6963753Y-16968793D01*
X6963753Y-16968793D02*
X6954229Y-17006889D01*
X6954229Y-17006889D02*
X6944705Y-17025936D01*
X6944705Y-17025936D02*
X6935182Y-17035460D01*
X6935182Y-17035460D02*
X6916134Y-17044984D01*
X6916134Y-17044984D02*
X6897086Y-17044984D01*
X6897086Y-17044984D02*
X6878039Y-17035460D01*
X6878039Y-17035460D02*
X6868515Y-17025936D01*
X6868515Y-17025936D02*
X6858991Y-17006889D01*
X6858991Y-17006889D02*
X6849467Y-16968793D01*
X6849467Y-16968793D02*
X6849467Y-16921174D01*
X6849467Y-16921174D02*
X6858991Y-16883079D01*
X6858991Y-16883079D02*
X6868515Y-16864031D01*
X6868515Y-16864031D02*
X6878039Y-16854508D01*
X6878039Y-16854508D02*
X6897086Y-16844984D01*
X7087562Y-16844984D02*
X7106610Y-16844984D01*
X7106610Y-16844984D02*
X7125658Y-16854508D01*
X7125658Y-16854508D02*
X7135182Y-16864031D01*
X7135182Y-16864031D02*
X7144705Y-16883079D01*
X7144705Y-16883079D02*
X7154229Y-16921174D01*
X7154229Y-16921174D02*
X7154229Y-16968793D01*
X7154229Y-16968793D02*
X7144705Y-17006889D01*
X7144705Y-17006889D02*
X7135182Y-17025936D01*
X7135182Y-17025936D02*
X7125658Y-17035460D01*
X7125658Y-17035460D02*
X7106610Y-17044984D01*
X7106610Y-17044984D02*
X7087562Y-17044984D01*
X7087562Y-17044984D02*
X7068515Y-17035460D01*
X7068515Y-17035460D02*
X7058991Y-17025936D01*
X7058991Y-17025936D02*
X7049467Y-17006889D01*
X7049467Y-17006889D02*
X7039943Y-16968793D01*
X7039943Y-16968793D02*
X7039943Y-16921174D01*
X7039943Y-16921174D02*
X7049467Y-16883079D01*
X7049467Y-16883079D02*
X7058991Y-16864031D01*
X7058991Y-16864031D02*
X7068515Y-16854508D01*
X7068515Y-16854508D02*
X7087562Y-16844984D01*
X7278039Y-16844984D02*
X7297086Y-16844984D01*
X7297086Y-16844984D02*
X7316134Y-16854508D01*
X7316134Y-16854508D02*
X7325658Y-16864031D01*
X7325658Y-16864031D02*
X7335182Y-16883079D01*
X7335182Y-16883079D02*
X7344705Y-16921174D01*
X7344705Y-16921174D02*
X7344705Y-16968793D01*
X7344705Y-16968793D02*
X7335182Y-17006889D01*
X7335182Y-17006889D02*
X7325658Y-17025936D01*
X7325658Y-17025936D02*
X7316134Y-17035460D01*
X7316134Y-17035460D02*
X7297086Y-17044984D01*
X7297086Y-17044984D02*
X7278039Y-17044984D01*
X7278039Y-17044984D02*
X7258991Y-17035460D01*
X7258991Y-17035460D02*
X7249467Y-17025936D01*
X7249467Y-17025936D02*
X7239943Y-17006889D01*
X7239943Y-17006889D02*
X7230420Y-16968793D01*
X7230420Y-16968793D02*
X7230420Y-16921174D01*
X7230420Y-16921174D02*
X7239943Y-16883079D01*
X7239943Y-16883079D02*
X7249467Y-16864031D01*
X7249467Y-16864031D02*
X7258991Y-16854508D01*
X7258991Y-16854508D02*
X7278039Y-16844984D01*
X7430420Y-17044984D02*
X7430420Y-16911650D01*
X7430420Y-16930698D02*
X7439943Y-16921174D01*
X7439943Y-16921174D02*
X7458991Y-16911650D01*
X7458991Y-16911650D02*
X7487563Y-16911650D01*
X7487563Y-16911650D02*
X7506610Y-16921174D01*
X7506610Y-16921174D02*
X7516134Y-16940222D01*
X7516134Y-16940222D02*
X7516134Y-17044984D01*
X7516134Y-16940222D02*
X7525658Y-16921174D01*
X7525658Y-16921174D02*
X7544705Y-16911650D01*
X7544705Y-16911650D02*
X7573277Y-16911650D01*
X7573277Y-16911650D02*
X7592324Y-16921174D01*
X7592324Y-16921174D02*
X7601848Y-16940222D01*
X7601848Y-16940222D02*
X7601848Y-17044984D01*
X7697086Y-17044984D02*
X7697086Y-16911650D01*
X7697086Y-16930698D02*
X7706610Y-16921174D01*
X7706610Y-16921174D02*
X7725658Y-16911650D01*
X7725658Y-16911650D02*
X7754229Y-16911650D01*
X7754229Y-16911650D02*
X7773277Y-16921174D01*
X7773277Y-16921174D02*
X7782801Y-16940222D01*
X7782801Y-16940222D02*
X7782801Y-17044984D01*
X7782801Y-16940222D02*
X7792324Y-16921174D01*
X7792324Y-16921174D02*
X7811372Y-16911650D01*
X7811372Y-16911650D02*
X7839943Y-16911650D01*
X7839943Y-16911650D02*
X7858991Y-16921174D01*
X7858991Y-16921174D02*
X7868515Y-16940222D01*
X7868515Y-16940222D02*
X7868515Y-17044984D01*
X8258991Y-16835460D02*
X8087563Y-17092603D01*
X8516134Y-16844984D02*
X8535182Y-16844984D01*
X8535182Y-16844984D02*
X8554229Y-16854508D01*
X8554229Y-16854508D02*
X8563753Y-16864031D01*
X8563753Y-16864031D02*
X8573277Y-16883079D01*
X8573277Y-16883079D02*
X8582801Y-16921174D01*
X8582801Y-16921174D02*
X8582801Y-16968793D01*
X8582801Y-16968793D02*
X8573277Y-17006889D01*
X8573277Y-17006889D02*
X8563753Y-17025936D01*
X8563753Y-17025936D02*
X8554229Y-17035460D01*
X8554229Y-17035460D02*
X8535182Y-17044984D01*
X8535182Y-17044984D02*
X8516134Y-17044984D01*
X8516134Y-17044984D02*
X8497087Y-17035460D01*
X8497087Y-17035460D02*
X8487563Y-17025936D01*
X8487563Y-17025936D02*
X8478039Y-17006889D01*
X8478039Y-17006889D02*
X8468515Y-16968793D01*
X8468515Y-16968793D02*
X8468515Y-16921174D01*
X8468515Y-16921174D02*
X8478039Y-16883079D01*
X8478039Y-16883079D02*
X8487563Y-16864031D01*
X8487563Y-16864031D02*
X8497087Y-16854508D01*
X8497087Y-16854508D02*
X8516134Y-16844984D01*
X8668515Y-17025936D02*
X8678039Y-17035460D01*
X8678039Y-17035460D02*
X8668515Y-17044984D01*
X8668515Y-17044984D02*
X8658991Y-17035460D01*
X8658991Y-17035460D02*
X8668515Y-17025936D01*
X8668515Y-17025936D02*
X8668515Y-17044984D01*
X8801848Y-16844984D02*
X8820896Y-16844984D01*
X8820896Y-16844984D02*
X8839944Y-16854508D01*
X8839944Y-16854508D02*
X8849468Y-16864031D01*
X8849468Y-16864031D02*
X8858991Y-16883079D01*
X8858991Y-16883079D02*
X8868515Y-16921174D01*
X8868515Y-16921174D02*
X8868515Y-16968793D01*
X8868515Y-16968793D02*
X8858991Y-17006889D01*
X8858991Y-17006889D02*
X8849468Y-17025936D01*
X8849468Y-17025936D02*
X8839944Y-17035460D01*
X8839944Y-17035460D02*
X8820896Y-17044984D01*
X8820896Y-17044984D02*
X8801848Y-17044984D01*
X8801848Y-17044984D02*
X8782801Y-17035460D01*
X8782801Y-17035460D02*
X8773277Y-17025936D01*
X8773277Y-17025936D02*
X8763753Y-17006889D01*
X8763753Y-17006889D02*
X8754229Y-16968793D01*
X8754229Y-16968793D02*
X8754229Y-16921174D01*
X8754229Y-16921174D02*
X8763753Y-16883079D01*
X8763753Y-16883079D02*
X8773277Y-16864031D01*
X8773277Y-16864031D02*
X8782801Y-16854508D01*
X8782801Y-16854508D02*
X8801848Y-16844984D01*
X8935182Y-16844984D02*
X9058991Y-16844984D01*
X9058991Y-16844984D02*
X8992325Y-16921174D01*
X8992325Y-16921174D02*
X9020896Y-16921174D01*
X9020896Y-16921174D02*
X9039944Y-16930698D01*
X9039944Y-16930698D02*
X9049468Y-16940222D01*
X9049468Y-16940222D02*
X9058991Y-16959270D01*
X9058991Y-16959270D02*
X9058991Y-17006889D01*
X9058991Y-17006889D02*
X9049468Y-17025936D01*
X9049468Y-17025936D02*
X9039944Y-17035460D01*
X9039944Y-17035460D02*
X9020896Y-17044984D01*
X9020896Y-17044984D02*
X8963753Y-17044984D01*
X8963753Y-17044984D02*
X8944706Y-17035460D01*
X8944706Y-17035460D02*
X8935182Y-17025936D01*
X9154229Y-17044984D02*
X9192325Y-17044984D01*
X9192325Y-17044984D02*
X9211372Y-17035460D01*
X9211372Y-17035460D02*
X9220896Y-17025936D01*
X9220896Y-17025936D02*
X9239944Y-16997365D01*
X9239944Y-16997365D02*
X9249468Y-16959270D01*
X9249468Y-16959270D02*
X9249468Y-16883079D01*
X9249468Y-16883079D02*
X9239944Y-16864031D01*
X9239944Y-16864031D02*
X9230420Y-16854508D01*
X9230420Y-16854508D02*
X9211372Y-16844984D01*
X9211372Y-16844984D02*
X9173277Y-16844984D01*
X9173277Y-16844984D02*
X9154229Y-16854508D01*
X9154229Y-16854508D02*
X9144706Y-16864031D01*
X9144706Y-16864031D02*
X9135182Y-16883079D01*
X9135182Y-16883079D02*
X9135182Y-16930698D01*
X9135182Y-16930698D02*
X9144706Y-16949746D01*
X9144706Y-16949746D02*
X9154229Y-16959270D01*
X9154229Y-16959270D02*
X9173277Y-16968793D01*
X9173277Y-16968793D02*
X9211372Y-16968793D01*
X9211372Y-16968793D02*
X9230420Y-16959270D01*
X9230420Y-16959270D02*
X9239944Y-16949746D01*
X9239944Y-16949746D02*
X9249468Y-16930698D01*
X9420896Y-16911650D02*
X9420896Y-17044984D01*
X9373277Y-16835460D02*
X9325658Y-16978317D01*
X9325658Y-16978317D02*
X9449468Y-16978317D01*
X9516134Y-16844984D02*
X9516134Y-16883079D01*
X9592325Y-16844984D02*
X9592325Y-16883079D01*
X9887563Y-17121174D02*
X9878039Y-17111650D01*
X9878039Y-17111650D02*
X9858991Y-17083079D01*
X9858991Y-17083079D02*
X9849468Y-17064031D01*
X9849468Y-17064031D02*
X9839944Y-17035460D01*
X9839944Y-17035460D02*
X9830420Y-16987841D01*
X9830420Y-16987841D02*
X9830420Y-16949746D01*
X9830420Y-16949746D02*
X9839944Y-16902127D01*
X9839944Y-16902127D02*
X9849468Y-16873555D01*
X9849468Y-16873555D02*
X9858991Y-16854508D01*
X9858991Y-16854508D02*
X9878039Y-16825936D01*
X9878039Y-16825936D02*
X9887563Y-16816412D01*
X10068515Y-17044984D02*
X9954230Y-17044984D01*
X10011372Y-17044984D02*
X10011372Y-16844984D01*
X10011372Y-16844984D02*
X9992325Y-16873555D01*
X9992325Y-16873555D02*
X9973277Y-16892603D01*
X9973277Y-16892603D02*
X9954230Y-16902127D01*
X10135182Y-16844984D02*
X10258991Y-16844984D01*
X10258991Y-16844984D02*
X10192325Y-16921174D01*
X10192325Y-16921174D02*
X10220896Y-16921174D01*
X10220896Y-16921174D02*
X10239944Y-16930698D01*
X10239944Y-16930698D02*
X10249468Y-16940222D01*
X10249468Y-16940222D02*
X10258991Y-16959270D01*
X10258991Y-16959270D02*
X10258991Y-17006889D01*
X10258991Y-17006889D02*
X10249468Y-17025936D01*
X10249468Y-17025936D02*
X10239944Y-17035460D01*
X10239944Y-17035460D02*
X10220896Y-17044984D01*
X10220896Y-17044984D02*
X10163753Y-17044984D01*
X10163753Y-17044984D02*
X10144706Y-17035460D01*
X10144706Y-17035460D02*
X10135182Y-17025936D01*
X10497087Y-17044984D02*
X10497087Y-16844984D01*
X10582801Y-17044984D02*
X10582801Y-16940222D01*
X10582801Y-16940222D02*
X10573277Y-16921174D01*
X10573277Y-16921174D02*
X10554230Y-16911650D01*
X10554230Y-16911650D02*
X10525658Y-16911650D01*
X10525658Y-16911650D02*
X10506611Y-16921174D01*
X10506611Y-16921174D02*
X10497087Y-16930698D01*
X10706611Y-17044984D02*
X10687563Y-17035460D01*
X10687563Y-17035460D02*
X10678039Y-17025936D01*
X10678039Y-17025936D02*
X10668515Y-17006889D01*
X10668515Y-17006889D02*
X10668515Y-16949746D01*
X10668515Y-16949746D02*
X10678039Y-16930698D01*
X10678039Y-16930698D02*
X10687563Y-16921174D01*
X10687563Y-16921174D02*
X10706611Y-16911650D01*
X10706611Y-16911650D02*
X10735182Y-16911650D01*
X10735182Y-16911650D02*
X10754230Y-16921174D01*
X10754230Y-16921174D02*
X10763753Y-16930698D01*
X10763753Y-16930698D02*
X10773277Y-16949746D01*
X10773277Y-16949746D02*
X10773277Y-17006889D01*
X10773277Y-17006889D02*
X10763753Y-17025936D01*
X10763753Y-17025936D02*
X10754230Y-17035460D01*
X10754230Y-17035460D02*
X10735182Y-17044984D01*
X10735182Y-17044984D02*
X10706611Y-17044984D01*
X10887563Y-17044984D02*
X10868515Y-17035460D01*
X10868515Y-17035460D02*
X10858992Y-17016412D01*
X10858992Y-17016412D02*
X10858992Y-16844984D01*
X11039944Y-17035460D02*
X11020896Y-17044984D01*
X11020896Y-17044984D02*
X10982801Y-17044984D01*
X10982801Y-17044984D02*
X10963753Y-17035460D01*
X10963753Y-17035460D02*
X10954230Y-17016412D01*
X10954230Y-17016412D02*
X10954230Y-16940222D01*
X10954230Y-16940222D02*
X10963753Y-16921174D01*
X10963753Y-16921174D02*
X10982801Y-16911650D01*
X10982801Y-16911650D02*
X11020896Y-16911650D01*
X11020896Y-16911650D02*
X11039944Y-16921174D01*
X11039944Y-16921174D02*
X11049468Y-16940222D01*
X11049468Y-16940222D02*
X11049468Y-16959270D01*
X11049468Y-16959270D02*
X10954230Y-16978317D01*
X11125658Y-17035460D02*
X11144706Y-17044984D01*
X11144706Y-17044984D02*
X11182801Y-17044984D01*
X11182801Y-17044984D02*
X11201849Y-17035460D01*
X11201849Y-17035460D02*
X11211372Y-17016412D01*
X11211372Y-17016412D02*
X11211372Y-17006889D01*
X11211372Y-17006889D02*
X11201849Y-16987841D01*
X11201849Y-16987841D02*
X11182801Y-16978317D01*
X11182801Y-16978317D02*
X11154230Y-16978317D01*
X11154230Y-16978317D02*
X11135182Y-16968793D01*
X11135182Y-16968793D02*
X11125658Y-16949746D01*
X11125658Y-16949746D02*
X11125658Y-16940222D01*
X11125658Y-16940222D02*
X11135182Y-16921174D01*
X11135182Y-16921174D02*
X11154230Y-16911650D01*
X11154230Y-16911650D02*
X11182801Y-16911650D01*
X11182801Y-16911650D02*
X11201849Y-16921174D01*
X11278039Y-17121174D02*
X11287563Y-17111650D01*
X11287563Y-17111650D02*
X11306611Y-17083079D01*
X11306611Y-17083079D02*
X11316134Y-17064031D01*
X11316134Y-17064031D02*
X11325658Y-17035460D01*
X11325658Y-17035460D02*
X11335182Y-16987841D01*
X11335182Y-16987841D02*
X11335182Y-16949746D01*
X11335182Y-16949746D02*
X11325658Y-16902127D01*
X11325658Y-16902127D02*
X11316134Y-16873555D01*
X11316134Y-16873555D02*
X11306611Y-16854508D01*
X11306611Y-16854508D02*
X11287563Y-16825936D01*
X11287563Y-16825936D02*
X11278039Y-16816412D01*
D13*
X6210500Y-17166500D02*
X6312500Y-17268500D01*
X6312500Y-17166500D02*
X6210500Y-17268500D01*
X6312500Y-17217500D02*
G75*
G02*
X6210500Y-17217500I-51000J0D01*
G01*
X6210500Y-17217500D02*
G75*
G02*
X6312500Y-17217500I51000J0D01*
G01*
D11*
X6678039Y-17308984D02*
X6563753Y-17308984D01*
X6620896Y-17308984D02*
X6620896Y-17108984D01*
X6620896Y-17108984D02*
X6601848Y-17137555D01*
X6601848Y-17137555D02*
X6582801Y-17156603D01*
X6582801Y-17156603D02*
X6563753Y-17166127D01*
X6763753Y-17289936D02*
X6773277Y-17299460D01*
X6773277Y-17299460D02*
X6763753Y-17308984D01*
X6763753Y-17308984D02*
X6754229Y-17299460D01*
X6754229Y-17299460D02*
X6763753Y-17289936D01*
X6763753Y-17289936D02*
X6763753Y-17308984D01*
X6897086Y-17108984D02*
X6916134Y-17108984D01*
X6916134Y-17108984D02*
X6935182Y-17118508D01*
X6935182Y-17118508D02*
X6944705Y-17128031D01*
X6944705Y-17128031D02*
X6954229Y-17147079D01*
X6954229Y-17147079D02*
X6963753Y-17185174D01*
X6963753Y-17185174D02*
X6963753Y-17232793D01*
X6963753Y-17232793D02*
X6954229Y-17270889D01*
X6954229Y-17270889D02*
X6944705Y-17289936D01*
X6944705Y-17289936D02*
X6935182Y-17299460D01*
X6935182Y-17299460D02*
X6916134Y-17308984D01*
X6916134Y-17308984D02*
X6897086Y-17308984D01*
X6897086Y-17308984D02*
X6878039Y-17299460D01*
X6878039Y-17299460D02*
X6868515Y-17289936D01*
X6868515Y-17289936D02*
X6858991Y-17270889D01*
X6858991Y-17270889D02*
X6849467Y-17232793D01*
X6849467Y-17232793D02*
X6849467Y-17185174D01*
X6849467Y-17185174D02*
X6858991Y-17147079D01*
X6858991Y-17147079D02*
X6868515Y-17128031D01*
X6868515Y-17128031D02*
X6878039Y-17118508D01*
X6878039Y-17118508D02*
X6897086Y-17108984D01*
X7039943Y-17128031D02*
X7049467Y-17118508D01*
X7049467Y-17118508D02*
X7068515Y-17108984D01*
X7068515Y-17108984D02*
X7116134Y-17108984D01*
X7116134Y-17108984D02*
X7135182Y-17118508D01*
X7135182Y-17118508D02*
X7144705Y-17128031D01*
X7144705Y-17128031D02*
X7154229Y-17147079D01*
X7154229Y-17147079D02*
X7154229Y-17166127D01*
X7154229Y-17166127D02*
X7144705Y-17194698D01*
X7144705Y-17194698D02*
X7030420Y-17308984D01*
X7030420Y-17308984D02*
X7154229Y-17308984D01*
X7278039Y-17108984D02*
X7297086Y-17108984D01*
X7297086Y-17108984D02*
X7316134Y-17118508D01*
X7316134Y-17118508D02*
X7325658Y-17128031D01*
X7325658Y-17128031D02*
X7335182Y-17147079D01*
X7335182Y-17147079D02*
X7344705Y-17185174D01*
X7344705Y-17185174D02*
X7344705Y-17232793D01*
X7344705Y-17232793D02*
X7335182Y-17270889D01*
X7335182Y-17270889D02*
X7325658Y-17289936D01*
X7325658Y-17289936D02*
X7316134Y-17299460D01*
X7316134Y-17299460D02*
X7297086Y-17308984D01*
X7297086Y-17308984D02*
X7278039Y-17308984D01*
X7278039Y-17308984D02*
X7258991Y-17299460D01*
X7258991Y-17299460D02*
X7249467Y-17289936D01*
X7249467Y-17289936D02*
X7239943Y-17270889D01*
X7239943Y-17270889D02*
X7230420Y-17232793D01*
X7230420Y-17232793D02*
X7230420Y-17185174D01*
X7230420Y-17185174D02*
X7239943Y-17147079D01*
X7239943Y-17147079D02*
X7249467Y-17128031D01*
X7249467Y-17128031D02*
X7258991Y-17118508D01*
X7258991Y-17118508D02*
X7278039Y-17108984D01*
X7430420Y-17308984D02*
X7430420Y-17175650D01*
X7430420Y-17194698D02*
X7439943Y-17185174D01*
X7439943Y-17185174D02*
X7458991Y-17175650D01*
X7458991Y-17175650D02*
X7487563Y-17175650D01*
X7487563Y-17175650D02*
X7506610Y-17185174D01*
X7506610Y-17185174D02*
X7516134Y-17204222D01*
X7516134Y-17204222D02*
X7516134Y-17308984D01*
X7516134Y-17204222D02*
X7525658Y-17185174D01*
X7525658Y-17185174D02*
X7544705Y-17175650D01*
X7544705Y-17175650D02*
X7573277Y-17175650D01*
X7573277Y-17175650D02*
X7592324Y-17185174D01*
X7592324Y-17185174D02*
X7601848Y-17204222D01*
X7601848Y-17204222D02*
X7601848Y-17308984D01*
X7697086Y-17308984D02*
X7697086Y-17175650D01*
X7697086Y-17194698D02*
X7706610Y-17185174D01*
X7706610Y-17185174D02*
X7725658Y-17175650D01*
X7725658Y-17175650D02*
X7754229Y-17175650D01*
X7754229Y-17175650D02*
X7773277Y-17185174D01*
X7773277Y-17185174D02*
X7782801Y-17204222D01*
X7782801Y-17204222D02*
X7782801Y-17308984D01*
X7782801Y-17204222D02*
X7792324Y-17185174D01*
X7792324Y-17185174D02*
X7811372Y-17175650D01*
X7811372Y-17175650D02*
X7839943Y-17175650D01*
X7839943Y-17175650D02*
X7858991Y-17185174D01*
X7858991Y-17185174D02*
X7868515Y-17204222D01*
X7868515Y-17204222D02*
X7868515Y-17308984D01*
X8258991Y-17099460D02*
X8087563Y-17356603D01*
X8516134Y-17108984D02*
X8535182Y-17108984D01*
X8535182Y-17108984D02*
X8554229Y-17118508D01*
X8554229Y-17118508D02*
X8563753Y-17128031D01*
X8563753Y-17128031D02*
X8573277Y-17147079D01*
X8573277Y-17147079D02*
X8582801Y-17185174D01*
X8582801Y-17185174D02*
X8582801Y-17232793D01*
X8582801Y-17232793D02*
X8573277Y-17270889D01*
X8573277Y-17270889D02*
X8563753Y-17289936D01*
X8563753Y-17289936D02*
X8554229Y-17299460D01*
X8554229Y-17299460D02*
X8535182Y-17308984D01*
X8535182Y-17308984D02*
X8516134Y-17308984D01*
X8516134Y-17308984D02*
X8497087Y-17299460D01*
X8497087Y-17299460D02*
X8487563Y-17289936D01*
X8487563Y-17289936D02*
X8478039Y-17270889D01*
X8478039Y-17270889D02*
X8468515Y-17232793D01*
X8468515Y-17232793D02*
X8468515Y-17185174D01*
X8468515Y-17185174D02*
X8478039Y-17147079D01*
X8478039Y-17147079D02*
X8487563Y-17128031D01*
X8487563Y-17128031D02*
X8497087Y-17118508D01*
X8497087Y-17118508D02*
X8516134Y-17108984D01*
X8668515Y-17289936D02*
X8678039Y-17299460D01*
X8678039Y-17299460D02*
X8668515Y-17308984D01*
X8668515Y-17308984D02*
X8658991Y-17299460D01*
X8658991Y-17299460D02*
X8668515Y-17289936D01*
X8668515Y-17289936D02*
X8668515Y-17308984D01*
X8801848Y-17108984D02*
X8820896Y-17108984D01*
X8820896Y-17108984D02*
X8839944Y-17118508D01*
X8839944Y-17118508D02*
X8849468Y-17128031D01*
X8849468Y-17128031D02*
X8858991Y-17147079D01*
X8858991Y-17147079D02*
X8868515Y-17185174D01*
X8868515Y-17185174D02*
X8868515Y-17232793D01*
X8868515Y-17232793D02*
X8858991Y-17270889D01*
X8858991Y-17270889D02*
X8849468Y-17289936D01*
X8849468Y-17289936D02*
X8839944Y-17299460D01*
X8839944Y-17299460D02*
X8820896Y-17308984D01*
X8820896Y-17308984D02*
X8801848Y-17308984D01*
X8801848Y-17308984D02*
X8782801Y-17299460D01*
X8782801Y-17299460D02*
X8773277Y-17289936D01*
X8773277Y-17289936D02*
X8763753Y-17270889D01*
X8763753Y-17270889D02*
X8754229Y-17232793D01*
X8754229Y-17232793D02*
X8754229Y-17185174D01*
X8754229Y-17185174D02*
X8763753Y-17147079D01*
X8763753Y-17147079D02*
X8773277Y-17128031D01*
X8773277Y-17128031D02*
X8782801Y-17118508D01*
X8782801Y-17118508D02*
X8801848Y-17108984D01*
X9039944Y-17175650D02*
X9039944Y-17308984D01*
X8992325Y-17099460D02*
X8944706Y-17242317D01*
X8944706Y-17242317D02*
X9068515Y-17242317D01*
X9182801Y-17108984D02*
X9201849Y-17108984D01*
X9201849Y-17108984D02*
X9220896Y-17118508D01*
X9220896Y-17118508D02*
X9230420Y-17128031D01*
X9230420Y-17128031D02*
X9239944Y-17147079D01*
X9239944Y-17147079D02*
X9249468Y-17185174D01*
X9249468Y-17185174D02*
X9249468Y-17232793D01*
X9249468Y-17232793D02*
X9239944Y-17270889D01*
X9239944Y-17270889D02*
X9230420Y-17289936D01*
X9230420Y-17289936D02*
X9220896Y-17299460D01*
X9220896Y-17299460D02*
X9201849Y-17308984D01*
X9201849Y-17308984D02*
X9182801Y-17308984D01*
X9182801Y-17308984D02*
X9163753Y-17299460D01*
X9163753Y-17299460D02*
X9154229Y-17289936D01*
X9154229Y-17289936D02*
X9144706Y-17270889D01*
X9144706Y-17270889D02*
X9135182Y-17232793D01*
X9135182Y-17232793D02*
X9135182Y-17185174D01*
X9135182Y-17185174D02*
X9144706Y-17147079D01*
X9144706Y-17147079D02*
X9154229Y-17128031D01*
X9154229Y-17128031D02*
X9163753Y-17118508D01*
X9163753Y-17118508D02*
X9182801Y-17108984D01*
X9325658Y-17128031D02*
X9335182Y-17118508D01*
X9335182Y-17118508D02*
X9354229Y-17108984D01*
X9354229Y-17108984D02*
X9401849Y-17108984D01*
X9401849Y-17108984D02*
X9420896Y-17118508D01*
X9420896Y-17118508D02*
X9430420Y-17128031D01*
X9430420Y-17128031D02*
X9439944Y-17147079D01*
X9439944Y-17147079D02*
X9439944Y-17166127D01*
X9439944Y-17166127D02*
X9430420Y-17194698D01*
X9430420Y-17194698D02*
X9316134Y-17308984D01*
X9316134Y-17308984D02*
X9439944Y-17308984D01*
X9516134Y-17108984D02*
X9516134Y-17147079D01*
X9592325Y-17108984D02*
X9592325Y-17147079D01*
X9887563Y-17385174D02*
X9878039Y-17375650D01*
X9878039Y-17375650D02*
X9858991Y-17347079D01*
X9858991Y-17347079D02*
X9849468Y-17328031D01*
X9849468Y-17328031D02*
X9839944Y-17299460D01*
X9839944Y-17299460D02*
X9830420Y-17251841D01*
X9830420Y-17251841D02*
X9830420Y-17213746D01*
X9830420Y-17213746D02*
X9839944Y-17166127D01*
X9839944Y-17166127D02*
X9849468Y-17137555D01*
X9849468Y-17137555D02*
X9858991Y-17118508D01*
X9858991Y-17118508D02*
X9878039Y-17089936D01*
X9878039Y-17089936D02*
X9887563Y-17080412D01*
X10049468Y-17108984D02*
X10011372Y-17108984D01*
X10011372Y-17108984D02*
X9992325Y-17118508D01*
X9992325Y-17118508D02*
X9982801Y-17128031D01*
X9982801Y-17128031D02*
X9963753Y-17156603D01*
X9963753Y-17156603D02*
X9954230Y-17194698D01*
X9954230Y-17194698D02*
X9954230Y-17270889D01*
X9954230Y-17270889D02*
X9963753Y-17289936D01*
X9963753Y-17289936D02*
X9973277Y-17299460D01*
X9973277Y-17299460D02*
X9992325Y-17308984D01*
X9992325Y-17308984D02*
X10030420Y-17308984D01*
X10030420Y-17308984D02*
X10049468Y-17299460D01*
X10049468Y-17299460D02*
X10058991Y-17289936D01*
X10058991Y-17289936D02*
X10068515Y-17270889D01*
X10068515Y-17270889D02*
X10068515Y-17223270D01*
X10068515Y-17223270D02*
X10058991Y-17204222D01*
X10058991Y-17204222D02*
X10049468Y-17194698D01*
X10049468Y-17194698D02*
X10030420Y-17185174D01*
X10030420Y-17185174D02*
X9992325Y-17185174D01*
X9992325Y-17185174D02*
X9973277Y-17194698D01*
X9973277Y-17194698D02*
X9963753Y-17204222D01*
X9963753Y-17204222D02*
X9954230Y-17223270D01*
X10306611Y-17308984D02*
X10306611Y-17108984D01*
X10392325Y-17308984D02*
X10392325Y-17204222D01*
X10392325Y-17204222D02*
X10382801Y-17185174D01*
X10382801Y-17185174D02*
X10363753Y-17175650D01*
X10363753Y-17175650D02*
X10335182Y-17175650D01*
X10335182Y-17175650D02*
X10316134Y-17185174D01*
X10316134Y-17185174D02*
X10306611Y-17194698D01*
X10516134Y-17308984D02*
X10497087Y-17299460D01*
X10497087Y-17299460D02*
X10487563Y-17289936D01*
X10487563Y-17289936D02*
X10478039Y-17270889D01*
X10478039Y-17270889D02*
X10478039Y-17213746D01*
X10478039Y-17213746D02*
X10487563Y-17194698D01*
X10487563Y-17194698D02*
X10497087Y-17185174D01*
X10497087Y-17185174D02*
X10516134Y-17175650D01*
X10516134Y-17175650D02*
X10544706Y-17175650D01*
X10544706Y-17175650D02*
X10563753Y-17185174D01*
X10563753Y-17185174D02*
X10573277Y-17194698D01*
X10573277Y-17194698D02*
X10582801Y-17213746D01*
X10582801Y-17213746D02*
X10582801Y-17270889D01*
X10582801Y-17270889D02*
X10573277Y-17289936D01*
X10573277Y-17289936D02*
X10563753Y-17299460D01*
X10563753Y-17299460D02*
X10544706Y-17308984D01*
X10544706Y-17308984D02*
X10516134Y-17308984D01*
X10697087Y-17308984D02*
X10678039Y-17299460D01*
X10678039Y-17299460D02*
X10668515Y-17280412D01*
X10668515Y-17280412D02*
X10668515Y-17108984D01*
X10849468Y-17299460D02*
X10830420Y-17308984D01*
X10830420Y-17308984D02*
X10792325Y-17308984D01*
X10792325Y-17308984D02*
X10773277Y-17299460D01*
X10773277Y-17299460D02*
X10763753Y-17280412D01*
X10763753Y-17280412D02*
X10763753Y-17204222D01*
X10763753Y-17204222D02*
X10773277Y-17185174D01*
X10773277Y-17185174D02*
X10792325Y-17175650D01*
X10792325Y-17175650D02*
X10830420Y-17175650D01*
X10830420Y-17175650D02*
X10849468Y-17185174D01*
X10849468Y-17185174D02*
X10858992Y-17204222D01*
X10858992Y-17204222D02*
X10858992Y-17223270D01*
X10858992Y-17223270D02*
X10763753Y-17242317D01*
X10935182Y-17299460D02*
X10954230Y-17308984D01*
X10954230Y-17308984D02*
X10992325Y-17308984D01*
X10992325Y-17308984D02*
X11011373Y-17299460D01*
X11011373Y-17299460D02*
X11020896Y-17280412D01*
X11020896Y-17280412D02*
X11020896Y-17270889D01*
X11020896Y-17270889D02*
X11011373Y-17251841D01*
X11011373Y-17251841D02*
X10992325Y-17242317D01*
X10992325Y-17242317D02*
X10963753Y-17242317D01*
X10963753Y-17242317D02*
X10944706Y-17232793D01*
X10944706Y-17232793D02*
X10935182Y-17213746D01*
X10935182Y-17213746D02*
X10935182Y-17204222D01*
X10935182Y-17204222D02*
X10944706Y-17185174D01*
X10944706Y-17185174D02*
X10963753Y-17175650D01*
X10963753Y-17175650D02*
X10992325Y-17175650D01*
X10992325Y-17175650D02*
X11011373Y-17185174D01*
X11087563Y-17385174D02*
X11097087Y-17375650D01*
X11097087Y-17375650D02*
X11116134Y-17347079D01*
X11116134Y-17347079D02*
X11125658Y-17328031D01*
X11125658Y-17328031D02*
X11135182Y-17299460D01*
X11135182Y-17299460D02*
X11144706Y-17251841D01*
X11144706Y-17251841D02*
X11144706Y-17213746D01*
X11144706Y-17213746D02*
X11135182Y-17166127D01*
X11135182Y-17166127D02*
X11125658Y-17137555D01*
X11125658Y-17137555D02*
X11116134Y-17118508D01*
X11116134Y-17118508D02*
X11097087Y-17089936D01*
X11097087Y-17089936D02*
X11087563Y-17080412D01*
X6112500Y-17381500D02*
X6312500Y-17581500D01*
X6312500Y-17381500D02*
X6112500Y-17581500D01*
X6212500Y-17381500D02*
X6212500Y-17581500D01*
X6112500Y-17481500D02*
X6312500Y-17481500D01*
X6563753Y-17392031D02*
X6573277Y-17382508D01*
X6573277Y-17382508D02*
X6592324Y-17372984D01*
X6592324Y-17372984D02*
X6639943Y-17372984D01*
X6639943Y-17372984D02*
X6658991Y-17382508D01*
X6658991Y-17382508D02*
X6668515Y-17392031D01*
X6668515Y-17392031D02*
X6678039Y-17411079D01*
X6678039Y-17411079D02*
X6678039Y-17430127D01*
X6678039Y-17430127D02*
X6668515Y-17458698D01*
X6668515Y-17458698D02*
X6554229Y-17572984D01*
X6554229Y-17572984D02*
X6678039Y-17572984D01*
X6763753Y-17553936D02*
X6773277Y-17563460D01*
X6773277Y-17563460D02*
X6763753Y-17572984D01*
X6763753Y-17572984D02*
X6754229Y-17563460D01*
X6754229Y-17563460D02*
X6763753Y-17553936D01*
X6763753Y-17553936D02*
X6763753Y-17572984D01*
X6868515Y-17572984D02*
X6906610Y-17572984D01*
X6906610Y-17572984D02*
X6925658Y-17563460D01*
X6925658Y-17563460D02*
X6935182Y-17553936D01*
X6935182Y-17553936D02*
X6954229Y-17525365D01*
X6954229Y-17525365D02*
X6963753Y-17487270D01*
X6963753Y-17487270D02*
X6963753Y-17411079D01*
X6963753Y-17411079D02*
X6954229Y-17392031D01*
X6954229Y-17392031D02*
X6944705Y-17382508D01*
X6944705Y-17382508D02*
X6925658Y-17372984D01*
X6925658Y-17372984D02*
X6887562Y-17372984D01*
X6887562Y-17372984D02*
X6868515Y-17382508D01*
X6868515Y-17382508D02*
X6858991Y-17392031D01*
X6858991Y-17392031D02*
X6849467Y-17411079D01*
X6849467Y-17411079D02*
X6849467Y-17458698D01*
X6849467Y-17458698D02*
X6858991Y-17477746D01*
X6858991Y-17477746D02*
X6868515Y-17487270D01*
X6868515Y-17487270D02*
X6887562Y-17496793D01*
X6887562Y-17496793D02*
X6925658Y-17496793D01*
X6925658Y-17496793D02*
X6944705Y-17487270D01*
X6944705Y-17487270D02*
X6954229Y-17477746D01*
X6954229Y-17477746D02*
X6963753Y-17458698D01*
X7087562Y-17372984D02*
X7106610Y-17372984D01*
X7106610Y-17372984D02*
X7125658Y-17382508D01*
X7125658Y-17382508D02*
X7135182Y-17392031D01*
X7135182Y-17392031D02*
X7144705Y-17411079D01*
X7144705Y-17411079D02*
X7154229Y-17449174D01*
X7154229Y-17449174D02*
X7154229Y-17496793D01*
X7154229Y-17496793D02*
X7144705Y-17534889D01*
X7144705Y-17534889D02*
X7135182Y-17553936D01*
X7135182Y-17553936D02*
X7125658Y-17563460D01*
X7125658Y-17563460D02*
X7106610Y-17572984D01*
X7106610Y-17572984D02*
X7087562Y-17572984D01*
X7087562Y-17572984D02*
X7068515Y-17563460D01*
X7068515Y-17563460D02*
X7058991Y-17553936D01*
X7058991Y-17553936D02*
X7049467Y-17534889D01*
X7049467Y-17534889D02*
X7039943Y-17496793D01*
X7039943Y-17496793D02*
X7039943Y-17449174D01*
X7039943Y-17449174D02*
X7049467Y-17411079D01*
X7049467Y-17411079D02*
X7058991Y-17392031D01*
X7058991Y-17392031D02*
X7068515Y-17382508D01*
X7068515Y-17382508D02*
X7087562Y-17372984D01*
X7278039Y-17372984D02*
X7297086Y-17372984D01*
X7297086Y-17372984D02*
X7316134Y-17382508D01*
X7316134Y-17382508D02*
X7325658Y-17392031D01*
X7325658Y-17392031D02*
X7335182Y-17411079D01*
X7335182Y-17411079D02*
X7344705Y-17449174D01*
X7344705Y-17449174D02*
X7344705Y-17496793D01*
X7344705Y-17496793D02*
X7335182Y-17534889D01*
X7335182Y-17534889D02*
X7325658Y-17553936D01*
X7325658Y-17553936D02*
X7316134Y-17563460D01*
X7316134Y-17563460D02*
X7297086Y-17572984D01*
X7297086Y-17572984D02*
X7278039Y-17572984D01*
X7278039Y-17572984D02*
X7258991Y-17563460D01*
X7258991Y-17563460D02*
X7249467Y-17553936D01*
X7249467Y-17553936D02*
X7239943Y-17534889D01*
X7239943Y-17534889D02*
X7230420Y-17496793D01*
X7230420Y-17496793D02*
X7230420Y-17449174D01*
X7230420Y-17449174D02*
X7239943Y-17411079D01*
X7239943Y-17411079D02*
X7249467Y-17392031D01*
X7249467Y-17392031D02*
X7258991Y-17382508D01*
X7258991Y-17382508D02*
X7278039Y-17372984D01*
X7430420Y-17572984D02*
X7430420Y-17439650D01*
X7430420Y-17458698D02*
X7439943Y-17449174D01*
X7439943Y-17449174D02*
X7458991Y-17439650D01*
X7458991Y-17439650D02*
X7487563Y-17439650D01*
X7487563Y-17439650D02*
X7506610Y-17449174D01*
X7506610Y-17449174D02*
X7516134Y-17468222D01*
X7516134Y-17468222D02*
X7516134Y-17572984D01*
X7516134Y-17468222D02*
X7525658Y-17449174D01*
X7525658Y-17449174D02*
X7544705Y-17439650D01*
X7544705Y-17439650D02*
X7573277Y-17439650D01*
X7573277Y-17439650D02*
X7592324Y-17449174D01*
X7592324Y-17449174D02*
X7601848Y-17468222D01*
X7601848Y-17468222D02*
X7601848Y-17572984D01*
X7697086Y-17572984D02*
X7697086Y-17439650D01*
X7697086Y-17458698D02*
X7706610Y-17449174D01*
X7706610Y-17449174D02*
X7725658Y-17439650D01*
X7725658Y-17439650D02*
X7754229Y-17439650D01*
X7754229Y-17439650D02*
X7773277Y-17449174D01*
X7773277Y-17449174D02*
X7782801Y-17468222D01*
X7782801Y-17468222D02*
X7782801Y-17572984D01*
X7782801Y-17468222D02*
X7792324Y-17449174D01*
X7792324Y-17449174D02*
X7811372Y-17439650D01*
X7811372Y-17439650D02*
X7839943Y-17439650D01*
X7839943Y-17439650D02*
X7858991Y-17449174D01*
X7858991Y-17449174D02*
X7868515Y-17468222D01*
X7868515Y-17468222D02*
X7868515Y-17572984D01*
X8258991Y-17363460D02*
X8087563Y-17620603D01*
X8516134Y-17372984D02*
X8535182Y-17372984D01*
X8535182Y-17372984D02*
X8554229Y-17382508D01*
X8554229Y-17382508D02*
X8563753Y-17392031D01*
X8563753Y-17392031D02*
X8573277Y-17411079D01*
X8573277Y-17411079D02*
X8582801Y-17449174D01*
X8582801Y-17449174D02*
X8582801Y-17496793D01*
X8582801Y-17496793D02*
X8573277Y-17534889D01*
X8573277Y-17534889D02*
X8563753Y-17553936D01*
X8563753Y-17553936D02*
X8554229Y-17563460D01*
X8554229Y-17563460D02*
X8535182Y-17572984D01*
X8535182Y-17572984D02*
X8516134Y-17572984D01*
X8516134Y-17572984D02*
X8497087Y-17563460D01*
X8497087Y-17563460D02*
X8487563Y-17553936D01*
X8487563Y-17553936D02*
X8478039Y-17534889D01*
X8478039Y-17534889D02*
X8468515Y-17496793D01*
X8468515Y-17496793D02*
X8468515Y-17449174D01*
X8468515Y-17449174D02*
X8478039Y-17411079D01*
X8478039Y-17411079D02*
X8487563Y-17392031D01*
X8487563Y-17392031D02*
X8497087Y-17382508D01*
X8497087Y-17382508D02*
X8516134Y-17372984D01*
X8668515Y-17553936D02*
X8678039Y-17563460D01*
X8678039Y-17563460D02*
X8668515Y-17572984D01*
X8668515Y-17572984D02*
X8658991Y-17563460D01*
X8658991Y-17563460D02*
X8668515Y-17553936D01*
X8668515Y-17553936D02*
X8668515Y-17572984D01*
X8868515Y-17572984D02*
X8754229Y-17572984D01*
X8811372Y-17572984D02*
X8811372Y-17372984D01*
X8811372Y-17372984D02*
X8792325Y-17401555D01*
X8792325Y-17401555D02*
X8773277Y-17420603D01*
X8773277Y-17420603D02*
X8754229Y-17430127D01*
X9058991Y-17572984D02*
X8944706Y-17572984D01*
X9001848Y-17572984D02*
X9001848Y-17372984D01*
X9001848Y-17372984D02*
X8982801Y-17401555D01*
X8982801Y-17401555D02*
X8963753Y-17420603D01*
X8963753Y-17420603D02*
X8944706Y-17430127D01*
X9230420Y-17439650D02*
X9230420Y-17572984D01*
X9182801Y-17363460D02*
X9135182Y-17506317D01*
X9135182Y-17506317D02*
X9258991Y-17506317D01*
X9325658Y-17392031D02*
X9335182Y-17382508D01*
X9335182Y-17382508D02*
X9354229Y-17372984D01*
X9354229Y-17372984D02*
X9401849Y-17372984D01*
X9401849Y-17372984D02*
X9420896Y-17382508D01*
X9420896Y-17382508D02*
X9430420Y-17392031D01*
X9430420Y-17392031D02*
X9439944Y-17411079D01*
X9439944Y-17411079D02*
X9439944Y-17430127D01*
X9439944Y-17430127D02*
X9430420Y-17458698D01*
X9430420Y-17458698D02*
X9316134Y-17572984D01*
X9316134Y-17572984D02*
X9439944Y-17572984D01*
X9516134Y-17372984D02*
X9516134Y-17411079D01*
X9592325Y-17372984D02*
X9592325Y-17411079D01*
X9887563Y-17649174D02*
X9878039Y-17639650D01*
X9878039Y-17639650D02*
X9858991Y-17611079D01*
X9858991Y-17611079D02*
X9849468Y-17592031D01*
X9849468Y-17592031D02*
X9839944Y-17563460D01*
X9839944Y-17563460D02*
X9830420Y-17515841D01*
X9830420Y-17515841D02*
X9830420Y-17477746D01*
X9830420Y-17477746D02*
X9839944Y-17430127D01*
X9839944Y-17430127D02*
X9849468Y-17401555D01*
X9849468Y-17401555D02*
X9858991Y-17382508D01*
X9858991Y-17382508D02*
X9878039Y-17353936D01*
X9878039Y-17353936D02*
X9887563Y-17344412D01*
X9954230Y-17392031D02*
X9963753Y-17382508D01*
X9963753Y-17382508D02*
X9982801Y-17372984D01*
X9982801Y-17372984D02*
X10030420Y-17372984D01*
X10030420Y-17372984D02*
X10049468Y-17382508D01*
X10049468Y-17382508D02*
X10058991Y-17392031D01*
X10058991Y-17392031D02*
X10068515Y-17411079D01*
X10068515Y-17411079D02*
X10068515Y-17430127D01*
X10068515Y-17430127D02*
X10058991Y-17458698D01*
X10058991Y-17458698D02*
X9944706Y-17572984D01*
X9944706Y-17572984D02*
X10068515Y-17572984D01*
X10306611Y-17572984D02*
X10306611Y-17372984D01*
X10392325Y-17572984D02*
X10392325Y-17468222D01*
X10392325Y-17468222D02*
X10382801Y-17449174D01*
X10382801Y-17449174D02*
X10363753Y-17439650D01*
X10363753Y-17439650D02*
X10335182Y-17439650D01*
X10335182Y-17439650D02*
X10316134Y-17449174D01*
X10316134Y-17449174D02*
X10306611Y-17458698D01*
X10516134Y-17572984D02*
X10497087Y-17563460D01*
X10497087Y-17563460D02*
X10487563Y-17553936D01*
X10487563Y-17553936D02*
X10478039Y-17534889D01*
X10478039Y-17534889D02*
X10478039Y-17477746D01*
X10478039Y-17477746D02*
X10487563Y-17458698D01*
X10487563Y-17458698D02*
X10497087Y-17449174D01*
X10497087Y-17449174D02*
X10516134Y-17439650D01*
X10516134Y-17439650D02*
X10544706Y-17439650D01*
X10544706Y-17439650D02*
X10563753Y-17449174D01*
X10563753Y-17449174D02*
X10573277Y-17458698D01*
X10573277Y-17458698D02*
X10582801Y-17477746D01*
X10582801Y-17477746D02*
X10582801Y-17534889D01*
X10582801Y-17534889D02*
X10573277Y-17553936D01*
X10573277Y-17553936D02*
X10563753Y-17563460D01*
X10563753Y-17563460D02*
X10544706Y-17572984D01*
X10544706Y-17572984D02*
X10516134Y-17572984D01*
X10697087Y-17572984D02*
X10678039Y-17563460D01*
X10678039Y-17563460D02*
X10668515Y-17544412D01*
X10668515Y-17544412D02*
X10668515Y-17372984D01*
X10849468Y-17563460D02*
X10830420Y-17572984D01*
X10830420Y-17572984D02*
X10792325Y-17572984D01*
X10792325Y-17572984D02*
X10773277Y-17563460D01*
X10773277Y-17563460D02*
X10763753Y-17544412D01*
X10763753Y-17544412D02*
X10763753Y-17468222D01*
X10763753Y-17468222D02*
X10773277Y-17449174D01*
X10773277Y-17449174D02*
X10792325Y-17439650D01*
X10792325Y-17439650D02*
X10830420Y-17439650D01*
X10830420Y-17439650D02*
X10849468Y-17449174D01*
X10849468Y-17449174D02*
X10858992Y-17468222D01*
X10858992Y-17468222D02*
X10858992Y-17487270D01*
X10858992Y-17487270D02*
X10763753Y-17506317D01*
X10935182Y-17563460D02*
X10954230Y-17572984D01*
X10954230Y-17572984D02*
X10992325Y-17572984D01*
X10992325Y-17572984D02*
X11011373Y-17563460D01*
X11011373Y-17563460D02*
X11020896Y-17544412D01*
X11020896Y-17544412D02*
X11020896Y-17534889D01*
X11020896Y-17534889D02*
X11011373Y-17515841D01*
X11011373Y-17515841D02*
X10992325Y-17506317D01*
X10992325Y-17506317D02*
X10963753Y-17506317D01*
X10963753Y-17506317D02*
X10944706Y-17496793D01*
X10944706Y-17496793D02*
X10935182Y-17477746D01*
X10935182Y-17477746D02*
X10935182Y-17468222D01*
X10935182Y-17468222D02*
X10944706Y-17449174D01*
X10944706Y-17449174D02*
X10963753Y-17439650D01*
X10963753Y-17439650D02*
X10992325Y-17439650D01*
X10992325Y-17439650D02*
X11011373Y-17449174D01*
X11087563Y-17649174D02*
X11097087Y-17639650D01*
X11097087Y-17639650D02*
X11116134Y-17611079D01*
X11116134Y-17611079D02*
X11125658Y-17592031D01*
X11125658Y-17592031D02*
X11135182Y-17563460D01*
X11135182Y-17563460D02*
X11144706Y-17515841D01*
X11144706Y-17515841D02*
X11144706Y-17477746D01*
X11144706Y-17477746D02*
X11135182Y-17430127D01*
X11135182Y-17430127D02*
X11125658Y-17401555D01*
X11125658Y-17401555D02*
X11116134Y-17382508D01*
X11116134Y-17382508D02*
X11097087Y-17353936D01*
X11097087Y-17353936D02*
X11087563Y-17344412D01*
X6112500Y-17701500D02*
X6312500Y-17901500D01*
X6312500Y-17701500D02*
X6112500Y-17901500D01*
X6283211Y-17872211D02*
X6283211Y-17730789D01*
X6141789Y-17730789D01*
X6141789Y-17872211D01*
X6283211Y-17872211D01*
X6554229Y-17692984D02*
X6678039Y-17692984D01*
X6678039Y-17692984D02*
X6611372Y-17769174D01*
X6611372Y-17769174D02*
X6639943Y-17769174D01*
X6639943Y-17769174D02*
X6658991Y-17778698D01*
X6658991Y-17778698D02*
X6668515Y-17788222D01*
X6668515Y-17788222D02*
X6678039Y-17807270D01*
X6678039Y-17807270D02*
X6678039Y-17854889D01*
X6678039Y-17854889D02*
X6668515Y-17873936D01*
X6668515Y-17873936D02*
X6658991Y-17883460D01*
X6658991Y-17883460D02*
X6639943Y-17892984D01*
X6639943Y-17892984D02*
X6582801Y-17892984D01*
X6582801Y-17892984D02*
X6563753Y-17883460D01*
X6563753Y-17883460D02*
X6554229Y-17873936D01*
X6763753Y-17873936D02*
X6773277Y-17883460D01*
X6773277Y-17883460D02*
X6763753Y-17892984D01*
X6763753Y-17892984D02*
X6754229Y-17883460D01*
X6754229Y-17883460D02*
X6763753Y-17873936D01*
X6763753Y-17873936D02*
X6763753Y-17892984D01*
X6897086Y-17692984D02*
X6916134Y-17692984D01*
X6916134Y-17692984D02*
X6935182Y-17702508D01*
X6935182Y-17702508D02*
X6944705Y-17712031D01*
X6944705Y-17712031D02*
X6954229Y-17731079D01*
X6954229Y-17731079D02*
X6963753Y-17769174D01*
X6963753Y-17769174D02*
X6963753Y-17816793D01*
X6963753Y-17816793D02*
X6954229Y-17854889D01*
X6954229Y-17854889D02*
X6944705Y-17873936D01*
X6944705Y-17873936D02*
X6935182Y-17883460D01*
X6935182Y-17883460D02*
X6916134Y-17892984D01*
X6916134Y-17892984D02*
X6897086Y-17892984D01*
X6897086Y-17892984D02*
X6878039Y-17883460D01*
X6878039Y-17883460D02*
X6868515Y-17873936D01*
X6868515Y-17873936D02*
X6858991Y-17854889D01*
X6858991Y-17854889D02*
X6849467Y-17816793D01*
X6849467Y-17816793D02*
X6849467Y-17769174D01*
X6849467Y-17769174D02*
X6858991Y-17731079D01*
X6858991Y-17731079D02*
X6868515Y-17712031D01*
X6868515Y-17712031D02*
X6878039Y-17702508D01*
X6878039Y-17702508D02*
X6897086Y-17692984D01*
X7087562Y-17692984D02*
X7106610Y-17692984D01*
X7106610Y-17692984D02*
X7125658Y-17702508D01*
X7125658Y-17702508D02*
X7135182Y-17712031D01*
X7135182Y-17712031D02*
X7144705Y-17731079D01*
X7144705Y-17731079D02*
X7154229Y-17769174D01*
X7154229Y-17769174D02*
X7154229Y-17816793D01*
X7154229Y-17816793D02*
X7144705Y-17854889D01*
X7144705Y-17854889D02*
X7135182Y-17873936D01*
X7135182Y-17873936D02*
X7125658Y-17883460D01*
X7125658Y-17883460D02*
X7106610Y-17892984D01*
X7106610Y-17892984D02*
X7087562Y-17892984D01*
X7087562Y-17892984D02*
X7068515Y-17883460D01*
X7068515Y-17883460D02*
X7058991Y-17873936D01*
X7058991Y-17873936D02*
X7049467Y-17854889D01*
X7049467Y-17854889D02*
X7039943Y-17816793D01*
X7039943Y-17816793D02*
X7039943Y-17769174D01*
X7039943Y-17769174D02*
X7049467Y-17731079D01*
X7049467Y-17731079D02*
X7058991Y-17712031D01*
X7058991Y-17712031D02*
X7068515Y-17702508D01*
X7068515Y-17702508D02*
X7087562Y-17692984D01*
X7278039Y-17692984D02*
X7297086Y-17692984D01*
X7297086Y-17692984D02*
X7316134Y-17702508D01*
X7316134Y-17702508D02*
X7325658Y-17712031D01*
X7325658Y-17712031D02*
X7335182Y-17731079D01*
X7335182Y-17731079D02*
X7344705Y-17769174D01*
X7344705Y-17769174D02*
X7344705Y-17816793D01*
X7344705Y-17816793D02*
X7335182Y-17854889D01*
X7335182Y-17854889D02*
X7325658Y-17873936D01*
X7325658Y-17873936D02*
X7316134Y-17883460D01*
X7316134Y-17883460D02*
X7297086Y-17892984D01*
X7297086Y-17892984D02*
X7278039Y-17892984D01*
X7278039Y-17892984D02*
X7258991Y-17883460D01*
X7258991Y-17883460D02*
X7249467Y-17873936D01*
X7249467Y-17873936D02*
X7239943Y-17854889D01*
X7239943Y-17854889D02*
X7230420Y-17816793D01*
X7230420Y-17816793D02*
X7230420Y-17769174D01*
X7230420Y-17769174D02*
X7239943Y-17731079D01*
X7239943Y-17731079D02*
X7249467Y-17712031D01*
X7249467Y-17712031D02*
X7258991Y-17702508D01*
X7258991Y-17702508D02*
X7278039Y-17692984D01*
X7430420Y-17892984D02*
X7430420Y-17759650D01*
X7430420Y-17778698D02*
X7439943Y-17769174D01*
X7439943Y-17769174D02*
X7458991Y-17759650D01*
X7458991Y-17759650D02*
X7487563Y-17759650D01*
X7487563Y-17759650D02*
X7506610Y-17769174D01*
X7506610Y-17769174D02*
X7516134Y-17788222D01*
X7516134Y-17788222D02*
X7516134Y-17892984D01*
X7516134Y-17788222D02*
X7525658Y-17769174D01*
X7525658Y-17769174D02*
X7544705Y-17759650D01*
X7544705Y-17759650D02*
X7573277Y-17759650D01*
X7573277Y-17759650D02*
X7592324Y-17769174D01*
X7592324Y-17769174D02*
X7601848Y-17788222D01*
X7601848Y-17788222D02*
X7601848Y-17892984D01*
X7697086Y-17892984D02*
X7697086Y-17759650D01*
X7697086Y-17778698D02*
X7706610Y-17769174D01*
X7706610Y-17769174D02*
X7725658Y-17759650D01*
X7725658Y-17759650D02*
X7754229Y-17759650D01*
X7754229Y-17759650D02*
X7773277Y-17769174D01*
X7773277Y-17769174D02*
X7782801Y-17788222D01*
X7782801Y-17788222D02*
X7782801Y-17892984D01*
X7782801Y-17788222D02*
X7792324Y-17769174D01*
X7792324Y-17769174D02*
X7811372Y-17759650D01*
X7811372Y-17759650D02*
X7839943Y-17759650D01*
X7839943Y-17759650D02*
X7858991Y-17769174D01*
X7858991Y-17769174D02*
X7868515Y-17788222D01*
X7868515Y-17788222D02*
X7868515Y-17892984D01*
X8258991Y-17683460D02*
X8087563Y-17940603D01*
X8516134Y-17692984D02*
X8535182Y-17692984D01*
X8535182Y-17692984D02*
X8554229Y-17702508D01*
X8554229Y-17702508D02*
X8563753Y-17712031D01*
X8563753Y-17712031D02*
X8573277Y-17731079D01*
X8573277Y-17731079D02*
X8582801Y-17769174D01*
X8582801Y-17769174D02*
X8582801Y-17816793D01*
X8582801Y-17816793D02*
X8573277Y-17854889D01*
X8573277Y-17854889D02*
X8563753Y-17873936D01*
X8563753Y-17873936D02*
X8554229Y-17883460D01*
X8554229Y-17883460D02*
X8535182Y-17892984D01*
X8535182Y-17892984D02*
X8516134Y-17892984D01*
X8516134Y-17892984D02*
X8497087Y-17883460D01*
X8497087Y-17883460D02*
X8487563Y-17873936D01*
X8487563Y-17873936D02*
X8478039Y-17854889D01*
X8478039Y-17854889D02*
X8468515Y-17816793D01*
X8468515Y-17816793D02*
X8468515Y-17769174D01*
X8468515Y-17769174D02*
X8478039Y-17731079D01*
X8478039Y-17731079D02*
X8487563Y-17712031D01*
X8487563Y-17712031D02*
X8497087Y-17702508D01*
X8497087Y-17702508D02*
X8516134Y-17692984D01*
X8668515Y-17873936D02*
X8678039Y-17883460D01*
X8678039Y-17883460D02*
X8668515Y-17892984D01*
X8668515Y-17892984D02*
X8658991Y-17883460D01*
X8658991Y-17883460D02*
X8668515Y-17873936D01*
X8668515Y-17873936D02*
X8668515Y-17892984D01*
X8868515Y-17892984D02*
X8754229Y-17892984D01*
X8811372Y-17892984D02*
X8811372Y-17692984D01*
X8811372Y-17692984D02*
X8792325Y-17721555D01*
X8792325Y-17721555D02*
X8773277Y-17740603D01*
X8773277Y-17740603D02*
X8754229Y-17750127D01*
X9058991Y-17892984D02*
X8944706Y-17892984D01*
X9001848Y-17892984D02*
X9001848Y-17692984D01*
X9001848Y-17692984D02*
X8982801Y-17721555D01*
X8982801Y-17721555D02*
X8963753Y-17740603D01*
X8963753Y-17740603D02*
X8944706Y-17750127D01*
X9173277Y-17778698D02*
X9154229Y-17769174D01*
X9154229Y-17769174D02*
X9144706Y-17759650D01*
X9144706Y-17759650D02*
X9135182Y-17740603D01*
X9135182Y-17740603D02*
X9135182Y-17731079D01*
X9135182Y-17731079D02*
X9144706Y-17712031D01*
X9144706Y-17712031D02*
X9154229Y-17702508D01*
X9154229Y-17702508D02*
X9173277Y-17692984D01*
X9173277Y-17692984D02*
X9211372Y-17692984D01*
X9211372Y-17692984D02*
X9230420Y-17702508D01*
X9230420Y-17702508D02*
X9239944Y-17712031D01*
X9239944Y-17712031D02*
X9249468Y-17731079D01*
X9249468Y-17731079D02*
X9249468Y-17740603D01*
X9249468Y-17740603D02*
X9239944Y-17759650D01*
X9239944Y-17759650D02*
X9230420Y-17769174D01*
X9230420Y-17769174D02*
X9211372Y-17778698D01*
X9211372Y-17778698D02*
X9173277Y-17778698D01*
X9173277Y-17778698D02*
X9154229Y-17788222D01*
X9154229Y-17788222D02*
X9144706Y-17797746D01*
X9144706Y-17797746D02*
X9135182Y-17816793D01*
X9135182Y-17816793D02*
X9135182Y-17854889D01*
X9135182Y-17854889D02*
X9144706Y-17873936D01*
X9144706Y-17873936D02*
X9154229Y-17883460D01*
X9154229Y-17883460D02*
X9173277Y-17892984D01*
X9173277Y-17892984D02*
X9211372Y-17892984D01*
X9211372Y-17892984D02*
X9230420Y-17883460D01*
X9230420Y-17883460D02*
X9239944Y-17873936D01*
X9239944Y-17873936D02*
X9249468Y-17854889D01*
X9249468Y-17854889D02*
X9249468Y-17816793D01*
X9249468Y-17816793D02*
X9239944Y-17797746D01*
X9239944Y-17797746D02*
X9230420Y-17788222D01*
X9230420Y-17788222D02*
X9211372Y-17778698D01*
X9439944Y-17892984D02*
X9325658Y-17892984D01*
X9382801Y-17892984D02*
X9382801Y-17692984D01*
X9382801Y-17692984D02*
X9363753Y-17721555D01*
X9363753Y-17721555D02*
X9344706Y-17740603D01*
X9344706Y-17740603D02*
X9325658Y-17750127D01*
X9516134Y-17692984D02*
X9516134Y-17731079D01*
X9592325Y-17692984D02*
X9592325Y-17731079D01*
X9887563Y-17969174D02*
X9878039Y-17959650D01*
X9878039Y-17959650D02*
X9858991Y-17931079D01*
X9858991Y-17931079D02*
X9849468Y-17912031D01*
X9849468Y-17912031D02*
X9839944Y-17883460D01*
X9839944Y-17883460D02*
X9830420Y-17835841D01*
X9830420Y-17835841D02*
X9830420Y-17797746D01*
X9830420Y-17797746D02*
X9839944Y-17750127D01*
X9839944Y-17750127D02*
X9849468Y-17721555D01*
X9849468Y-17721555D02*
X9858991Y-17702508D01*
X9858991Y-17702508D02*
X9878039Y-17673936D01*
X9878039Y-17673936D02*
X9887563Y-17664412D01*
X10049468Y-17692984D02*
X10011372Y-17692984D01*
X10011372Y-17692984D02*
X9992325Y-17702508D01*
X9992325Y-17702508D02*
X9982801Y-17712031D01*
X9982801Y-17712031D02*
X9963753Y-17740603D01*
X9963753Y-17740603D02*
X9954230Y-17778698D01*
X9954230Y-17778698D02*
X9954230Y-17854889D01*
X9954230Y-17854889D02*
X9963753Y-17873936D01*
X9963753Y-17873936D02*
X9973277Y-17883460D01*
X9973277Y-17883460D02*
X9992325Y-17892984D01*
X9992325Y-17892984D02*
X10030420Y-17892984D01*
X10030420Y-17892984D02*
X10049468Y-17883460D01*
X10049468Y-17883460D02*
X10058991Y-17873936D01*
X10058991Y-17873936D02*
X10068515Y-17854889D01*
X10068515Y-17854889D02*
X10068515Y-17807270D01*
X10068515Y-17807270D02*
X10058991Y-17788222D01*
X10058991Y-17788222D02*
X10049468Y-17778698D01*
X10049468Y-17778698D02*
X10030420Y-17769174D01*
X10030420Y-17769174D02*
X9992325Y-17769174D01*
X9992325Y-17769174D02*
X9973277Y-17778698D01*
X9973277Y-17778698D02*
X9963753Y-17788222D01*
X9963753Y-17788222D02*
X9954230Y-17807270D01*
X10306611Y-17892984D02*
X10306611Y-17692984D01*
X10392325Y-17892984D02*
X10392325Y-17788222D01*
X10392325Y-17788222D02*
X10382801Y-17769174D01*
X10382801Y-17769174D02*
X10363753Y-17759650D01*
X10363753Y-17759650D02*
X10335182Y-17759650D01*
X10335182Y-17759650D02*
X10316134Y-17769174D01*
X10316134Y-17769174D02*
X10306611Y-17778698D01*
X10516134Y-17892984D02*
X10497087Y-17883460D01*
X10497087Y-17883460D02*
X10487563Y-17873936D01*
X10487563Y-17873936D02*
X10478039Y-17854889D01*
X10478039Y-17854889D02*
X10478039Y-17797746D01*
X10478039Y-17797746D02*
X10487563Y-17778698D01*
X10487563Y-17778698D02*
X10497087Y-17769174D01*
X10497087Y-17769174D02*
X10516134Y-17759650D01*
X10516134Y-17759650D02*
X10544706Y-17759650D01*
X10544706Y-17759650D02*
X10563753Y-17769174D01*
X10563753Y-17769174D02*
X10573277Y-17778698D01*
X10573277Y-17778698D02*
X10582801Y-17797746D01*
X10582801Y-17797746D02*
X10582801Y-17854889D01*
X10582801Y-17854889D02*
X10573277Y-17873936D01*
X10573277Y-17873936D02*
X10563753Y-17883460D01*
X10563753Y-17883460D02*
X10544706Y-17892984D01*
X10544706Y-17892984D02*
X10516134Y-17892984D01*
X10697087Y-17892984D02*
X10678039Y-17883460D01*
X10678039Y-17883460D02*
X10668515Y-17864412D01*
X10668515Y-17864412D02*
X10668515Y-17692984D01*
X10849468Y-17883460D02*
X10830420Y-17892984D01*
X10830420Y-17892984D02*
X10792325Y-17892984D01*
X10792325Y-17892984D02*
X10773277Y-17883460D01*
X10773277Y-17883460D02*
X10763753Y-17864412D01*
X10763753Y-17864412D02*
X10763753Y-17788222D01*
X10763753Y-17788222D02*
X10773277Y-17769174D01*
X10773277Y-17769174D02*
X10792325Y-17759650D01*
X10792325Y-17759650D02*
X10830420Y-17759650D01*
X10830420Y-17759650D02*
X10849468Y-17769174D01*
X10849468Y-17769174D02*
X10858992Y-17788222D01*
X10858992Y-17788222D02*
X10858992Y-17807270D01*
X10858992Y-17807270D02*
X10763753Y-17826317D01*
X10935182Y-17883460D02*
X10954230Y-17892984D01*
X10954230Y-17892984D02*
X10992325Y-17892984D01*
X10992325Y-17892984D02*
X11011373Y-17883460D01*
X11011373Y-17883460D02*
X11020896Y-17864412D01*
X11020896Y-17864412D02*
X11020896Y-17854889D01*
X11020896Y-17854889D02*
X11011373Y-17835841D01*
X11011373Y-17835841D02*
X10992325Y-17826317D01*
X10992325Y-17826317D02*
X10963753Y-17826317D01*
X10963753Y-17826317D02*
X10944706Y-17816793D01*
X10944706Y-17816793D02*
X10935182Y-17797746D01*
X10935182Y-17797746D02*
X10935182Y-17788222D01*
X10935182Y-17788222D02*
X10944706Y-17769174D01*
X10944706Y-17769174D02*
X10963753Y-17759650D01*
X10963753Y-17759650D02*
X10992325Y-17759650D01*
X10992325Y-17759650D02*
X11011373Y-17769174D01*
X11087563Y-17969174D02*
X11097087Y-17959650D01*
X11097087Y-17959650D02*
X11116134Y-17931079D01*
X11116134Y-17931079D02*
X11125658Y-17912031D01*
X11125658Y-17912031D02*
X11135182Y-17883460D01*
X11135182Y-17883460D02*
X11144706Y-17835841D01*
X11144706Y-17835841D02*
X11144706Y-17797746D01*
X11144706Y-17797746D02*
X11135182Y-17750127D01*
X11135182Y-17750127D02*
X11125658Y-17721555D01*
X11125658Y-17721555D02*
X11116134Y-17702508D01*
X11116134Y-17702508D02*
X11097087Y-17673936D01*
X11097087Y-17673936D02*
X11087563Y-17664412D01*
M02*
