G04 #@! TF.GenerationSoftware,KiCad,Pcbnew,8.0.3*
G04 #@! TF.CreationDate,2024-08-13T11:44:20+03:00*
G04 #@! TF.ProjectId,Keyboard_stm32,4b657962-6f61-4726-945f-73746d33322e,rev?*
G04 #@! TF.SameCoordinates,Original*
G04 #@! TF.FileFunction,Legend,Top*
G04 #@! TF.FilePolarity,Positive*
%FSLAX46Y46*%
G04 Gerber Fmt 4.6, Leading zero omitted, Abs format (unit mm)*
G04 Created by KiCad (PCBNEW 8.0.3) date 2024-08-13 11:44:20*
%MOMM*%
%LPD*%
G01*
G04 APERTURE LIST*
G04 Aperture macros list*
%AMRoundRect*
0 Rectangle with rounded corners*
0 $1 Rounding radius*
0 $2 $3 $4 $5 $6 $7 $8 $9 X,Y pos of 4 corners*
0 Add a 4 corners polygon primitive as box body*
4,1,4,$2,$3,$4,$5,$6,$7,$8,$9,$2,$3,0*
0 Add four circle primitives for the rounded corners*
1,1,$1+$1,$2,$3*
1,1,$1+$1,$4,$5*
1,1,$1+$1,$6,$7*
1,1,$1+$1,$8,$9*
0 Add four rect primitives between the rounded corners*
20,1,$1+$1,$2,$3,$4,$5,0*
20,1,$1+$1,$4,$5,$6,$7,0*
20,1,$1+$1,$6,$7,$8,$9,0*
20,1,$1+$1,$8,$9,$2,$3,0*%
G04 Aperture macros list end*
%ADD10C,0.180000*%
%ADD11C,0.100000*%
%ADD12C,0.120000*%
%ADD13C,0.200000*%
%ADD14C,0.300000*%
%ADD15C,1.500000*%
%ADD16R,1.500000X1.500000*%
%ADD17C,4.350000*%
%ADD18RoundRect,0.250000X-0.250000X0.250000X-0.250000X-0.250000X0.250000X-0.250000X0.250000X0.250000X0*%
%ADD19RoundRect,0.237500X0.250000X0.237500X-0.250000X0.237500X-0.250000X-0.237500X0.250000X-0.237500X0*%
%ADD20C,1.700000*%
%ADD21C,3.000000*%
%ADD22C,4.000000*%
%ADD23C,5.000000*%
%ADD24R,1.400000X1.800000*%
%ADD25R,1.900000X1.400000*%
%ADD26R,2.000000X0.800000*%
%ADD27RoundRect,0.075000X0.075000X-0.662500X0.075000X0.662500X-0.075000X0.662500X-0.075000X-0.662500X0*%
%ADD28RoundRect,0.075000X0.662500X-0.075000X0.662500X0.075000X-0.662500X0.075000X-0.662500X-0.075000X0*%
%ADD29RoundRect,0.237500X-0.237500X0.250000X-0.237500X-0.250000X0.237500X-0.250000X0.237500X0.250000X0*%
%ADD30RoundRect,0.250000X-0.475000X0.337500X-0.475000X-0.337500X0.475000X-0.337500X0.475000X0.337500X0*%
%ADD31RoundRect,0.250000X0.475000X-0.337500X0.475000X0.337500X-0.475000X0.337500X-0.475000X-0.337500X0*%
%ADD32R,1.150000X1.400000*%
%ADD33R,1.300000X1.100000*%
%ADD34RoundRect,0.237500X-0.250000X-0.237500X0.250000X-0.237500X0.250000X0.237500X-0.250000X0.237500X0*%
%ADD35RoundRect,0.237500X-0.237500X0.300000X-0.237500X-0.300000X0.237500X-0.300000X0.237500X0.300000X0*%
%ADD36R,0.300000X1.100000*%
%ADD37O,1.000000X1.800000*%
%ADD38O,1.000000X2.200000*%
%ADD39C,1.550000*%
%ADD40RoundRect,0.237500X0.237500X-0.250000X0.237500X0.250000X-0.237500X0.250000X-0.237500X-0.250000X0*%
%ADD41RoundRect,0.237500X0.300000X0.237500X-0.300000X0.237500X-0.300000X-0.237500X0.300000X-0.237500X0*%
%ADD42R,1.100000X1.300000*%
%ADD43R,1.100000X1.100000*%
%ADD44C,1.100000*%
%ADD45RoundRect,0.250000X-0.337500X-0.475000X0.337500X-0.475000X0.337500X0.475000X-0.337500X0.475000X0*%
%ADD46RoundRect,0.250000X-0.250000X-0.250000X0.250000X-0.250000X0.250000X0.250000X-0.250000X0.250000X0*%
%ADD47R,1.200000X0.600000*%
%ADD48C,1.524000*%
G04 APERTURE END LIST*
D10*
X117949373Y-103900640D02*
X118235087Y-103995878D01*
X118235087Y-103995878D02*
X118711278Y-103995878D01*
X118711278Y-103995878D02*
X118901754Y-103900640D01*
X118901754Y-103900640D02*
X118996992Y-103805401D01*
X118996992Y-103805401D02*
X119092230Y-103614925D01*
X119092230Y-103614925D02*
X119092230Y-103424449D01*
X119092230Y-103424449D02*
X118996992Y-103233973D01*
X118996992Y-103233973D02*
X118901754Y-103138735D01*
X118901754Y-103138735D02*
X118711278Y-103043497D01*
X118711278Y-103043497D02*
X118330325Y-102948259D01*
X118330325Y-102948259D02*
X118139849Y-102853020D01*
X118139849Y-102853020D02*
X118044611Y-102757782D01*
X118044611Y-102757782D02*
X117949373Y-102567306D01*
X117949373Y-102567306D02*
X117949373Y-102376830D01*
X117949373Y-102376830D02*
X118044611Y-102186354D01*
X118044611Y-102186354D02*
X118139849Y-102091116D01*
X118139849Y-102091116D02*
X118330325Y-101995878D01*
X118330325Y-101995878D02*
X118806516Y-101995878D01*
X118806516Y-101995878D02*
X119092230Y-102091116D01*
X119758897Y-101995878D02*
X120235087Y-103995878D01*
X120235087Y-103995878D02*
X120616040Y-102567306D01*
X120616040Y-102567306D02*
X120996992Y-103995878D01*
X120996992Y-103995878D02*
X121473183Y-101995878D01*
X123377944Y-103805401D02*
X123282706Y-103900640D01*
X123282706Y-103900640D02*
X122996992Y-103995878D01*
X122996992Y-103995878D02*
X122806516Y-103995878D01*
X122806516Y-103995878D02*
X122520801Y-103900640D01*
X122520801Y-103900640D02*
X122330325Y-103710163D01*
X122330325Y-103710163D02*
X122235087Y-103519687D01*
X122235087Y-103519687D02*
X122139849Y-103138735D01*
X122139849Y-103138735D02*
X122139849Y-102853020D01*
X122139849Y-102853020D02*
X122235087Y-102472068D01*
X122235087Y-102472068D02*
X122330325Y-102281592D01*
X122330325Y-102281592D02*
X122520801Y-102091116D01*
X122520801Y-102091116D02*
X122806516Y-101995878D01*
X122806516Y-101995878D02*
X122996992Y-101995878D01*
X122996992Y-101995878D02*
X123282706Y-102091116D01*
X123282706Y-102091116D02*
X123377944Y-102186354D01*
X125187468Y-103995878D02*
X124235087Y-103995878D01*
X124235087Y-103995878D02*
X124235087Y-101995878D01*
X125854135Y-103995878D02*
X125854135Y-101995878D01*
X126996992Y-103995878D02*
X126139849Y-102853020D01*
X126996992Y-101995878D02*
X125854135Y-103138735D01*
X111406516Y-114318259D02*
X111406516Y-113318259D01*
X111406516Y-113318259D02*
X111977944Y-114318259D01*
X111977944Y-114318259D02*
X111977944Y-113318259D01*
X113025563Y-114318259D02*
X112692230Y-113842068D01*
X112454135Y-114318259D02*
X112454135Y-113318259D01*
X112454135Y-113318259D02*
X112835087Y-113318259D01*
X112835087Y-113318259D02*
X112930325Y-113365878D01*
X112930325Y-113365878D02*
X112977944Y-113413497D01*
X112977944Y-113413497D02*
X113025563Y-113508735D01*
X113025563Y-113508735D02*
X113025563Y-113651592D01*
X113025563Y-113651592D02*
X112977944Y-113746830D01*
X112977944Y-113746830D02*
X112930325Y-113794449D01*
X112930325Y-113794449D02*
X112835087Y-113842068D01*
X112835087Y-113842068D02*
X112454135Y-113842068D01*
X113406516Y-114270640D02*
X113549373Y-114318259D01*
X113549373Y-114318259D02*
X113787468Y-114318259D01*
X113787468Y-114318259D02*
X113882706Y-114270640D01*
X113882706Y-114270640D02*
X113930325Y-114223020D01*
X113930325Y-114223020D02*
X113977944Y-114127782D01*
X113977944Y-114127782D02*
X113977944Y-114032544D01*
X113977944Y-114032544D02*
X113930325Y-113937306D01*
X113930325Y-113937306D02*
X113882706Y-113889687D01*
X113882706Y-113889687D02*
X113787468Y-113842068D01*
X113787468Y-113842068D02*
X113596992Y-113794449D01*
X113596992Y-113794449D02*
X113501754Y-113746830D01*
X113501754Y-113746830D02*
X113454135Y-113699211D01*
X113454135Y-113699211D02*
X113406516Y-113603973D01*
X113406516Y-113603973D02*
X113406516Y-113508735D01*
X113406516Y-113508735D02*
X113454135Y-113413497D01*
X113454135Y-113413497D02*
X113501754Y-113365878D01*
X113501754Y-113365878D02*
X113596992Y-113318259D01*
X113596992Y-113318259D02*
X113835087Y-113318259D01*
X113835087Y-113318259D02*
X113977944Y-113365878D01*
X114263659Y-113318259D02*
X114835087Y-113318259D01*
X114549373Y-114318259D02*
X114549373Y-113318259D01*
X157682706Y-34273497D02*
X157682706Y-31273497D01*
X157682706Y-31273497D02*
X158825563Y-31273497D01*
X158825563Y-31273497D02*
X159111278Y-31416354D01*
X159111278Y-31416354D02*
X159254135Y-31559211D01*
X159254135Y-31559211D02*
X159396992Y-31844925D01*
X159396992Y-31844925D02*
X159396992Y-32273497D01*
X159396992Y-32273497D02*
X159254135Y-32559211D01*
X159254135Y-32559211D02*
X159111278Y-32702068D01*
X159111278Y-32702068D02*
X158825563Y-32844925D01*
X158825563Y-32844925D02*
X157682706Y-32844925D01*
X161111278Y-34273497D02*
X160825563Y-34130640D01*
X160825563Y-34130640D02*
X160682706Y-33987782D01*
X160682706Y-33987782D02*
X160539849Y-33702068D01*
X160539849Y-33702068D02*
X160539849Y-32844925D01*
X160539849Y-32844925D02*
X160682706Y-32559211D01*
X160682706Y-32559211D02*
X160825563Y-32416354D01*
X160825563Y-32416354D02*
X161111278Y-32273497D01*
X161111278Y-32273497D02*
X161539849Y-32273497D01*
X161539849Y-32273497D02*
X161825563Y-32416354D01*
X161825563Y-32416354D02*
X161968421Y-32559211D01*
X161968421Y-32559211D02*
X162111278Y-32844925D01*
X162111278Y-32844925D02*
X162111278Y-33702068D01*
X162111278Y-33702068D02*
X161968421Y-33987782D01*
X161968421Y-33987782D02*
X161825563Y-34130640D01*
X161825563Y-34130640D02*
X161539849Y-34273497D01*
X161539849Y-34273497D02*
X161111278Y-34273497D01*
X163111278Y-32273497D02*
X163682707Y-34273497D01*
X163682707Y-34273497D02*
X164254135Y-32844925D01*
X164254135Y-32844925D02*
X164825564Y-34273497D01*
X164825564Y-34273497D02*
X165396992Y-32273497D01*
X167682706Y-34130640D02*
X167396992Y-34273497D01*
X167396992Y-34273497D02*
X166825564Y-34273497D01*
X166825564Y-34273497D02*
X166539849Y-34130640D01*
X166539849Y-34130640D02*
X166396992Y-33844925D01*
X166396992Y-33844925D02*
X166396992Y-32702068D01*
X166396992Y-32702068D02*
X166539849Y-32416354D01*
X166539849Y-32416354D02*
X166825564Y-32273497D01*
X166825564Y-32273497D02*
X167396992Y-32273497D01*
X167396992Y-32273497D02*
X167682706Y-32416354D01*
X167682706Y-32416354D02*
X167825564Y-32702068D01*
X167825564Y-32702068D02*
X167825564Y-32987782D01*
X167825564Y-32987782D02*
X166396992Y-33273497D01*
X169111278Y-34273497D02*
X169111278Y-32273497D01*
X169111278Y-32844925D02*
X169254135Y-32559211D01*
X169254135Y-32559211D02*
X169396993Y-32416354D01*
X169396993Y-32416354D02*
X169682707Y-32273497D01*
X169682707Y-32273497D02*
X169968421Y-32273497D01*
X117854135Y-92795878D02*
X119092230Y-92795878D01*
X119092230Y-92795878D02*
X118425563Y-93557782D01*
X118425563Y-93557782D02*
X118711278Y-93557782D01*
X118711278Y-93557782D02*
X118901754Y-93653020D01*
X118901754Y-93653020D02*
X118996992Y-93748259D01*
X118996992Y-93748259D02*
X119092230Y-93938735D01*
X119092230Y-93938735D02*
X119092230Y-94414925D01*
X119092230Y-94414925D02*
X118996992Y-94605401D01*
X118996992Y-94605401D02*
X118901754Y-94700640D01*
X118901754Y-94700640D02*
X118711278Y-94795878D01*
X118711278Y-94795878D02*
X118139849Y-94795878D01*
X118139849Y-94795878D02*
X117949373Y-94700640D01*
X117949373Y-94700640D02*
X117854135Y-94605401D01*
X119949373Y-94605401D02*
X120044611Y-94700640D01*
X120044611Y-94700640D02*
X119949373Y-94795878D01*
X119949373Y-94795878D02*
X119854135Y-94700640D01*
X119854135Y-94700640D02*
X119949373Y-94605401D01*
X119949373Y-94605401D02*
X119949373Y-94795878D01*
X120711278Y-92795878D02*
X121949373Y-92795878D01*
X121949373Y-92795878D02*
X121282706Y-93557782D01*
X121282706Y-93557782D02*
X121568421Y-93557782D01*
X121568421Y-93557782D02*
X121758897Y-93653020D01*
X121758897Y-93653020D02*
X121854135Y-93748259D01*
X121854135Y-93748259D02*
X121949373Y-93938735D01*
X121949373Y-93938735D02*
X121949373Y-94414925D01*
X121949373Y-94414925D02*
X121854135Y-94605401D01*
X121854135Y-94605401D02*
X121758897Y-94700640D01*
X121758897Y-94700640D02*
X121568421Y-94795878D01*
X121568421Y-94795878D02*
X120996992Y-94795878D01*
X120996992Y-94795878D02*
X120806516Y-94700640D01*
X120806516Y-94700640D02*
X120711278Y-94605401D01*
X122520802Y-92795878D02*
X123187468Y-94795878D01*
X123187468Y-94795878D02*
X123854135Y-92795878D01*
X118044611Y-107295878D02*
X118044611Y-105295878D01*
X118044611Y-105295878D02*
X119187468Y-107295878D01*
X119187468Y-107295878D02*
X119187468Y-105295878D01*
X121282706Y-107295878D02*
X120616039Y-106343497D01*
X120139849Y-107295878D02*
X120139849Y-105295878D01*
X120139849Y-105295878D02*
X120901754Y-105295878D01*
X120901754Y-105295878D02*
X121092230Y-105391116D01*
X121092230Y-105391116D02*
X121187468Y-105486354D01*
X121187468Y-105486354D02*
X121282706Y-105676830D01*
X121282706Y-105676830D02*
X121282706Y-105962544D01*
X121282706Y-105962544D02*
X121187468Y-106153020D01*
X121187468Y-106153020D02*
X121092230Y-106248259D01*
X121092230Y-106248259D02*
X120901754Y-106343497D01*
X120901754Y-106343497D02*
X120139849Y-106343497D01*
X122044611Y-107200640D02*
X122330325Y-107295878D01*
X122330325Y-107295878D02*
X122806516Y-107295878D01*
X122806516Y-107295878D02*
X122996992Y-107200640D01*
X122996992Y-107200640D02*
X123092230Y-107105401D01*
X123092230Y-107105401D02*
X123187468Y-106914925D01*
X123187468Y-106914925D02*
X123187468Y-106724449D01*
X123187468Y-106724449D02*
X123092230Y-106533973D01*
X123092230Y-106533973D02*
X122996992Y-106438735D01*
X122996992Y-106438735D02*
X122806516Y-106343497D01*
X122806516Y-106343497D02*
X122425563Y-106248259D01*
X122425563Y-106248259D02*
X122235087Y-106153020D01*
X122235087Y-106153020D02*
X122139849Y-106057782D01*
X122139849Y-106057782D02*
X122044611Y-105867306D01*
X122044611Y-105867306D02*
X122044611Y-105676830D01*
X122044611Y-105676830D02*
X122139849Y-105486354D01*
X122139849Y-105486354D02*
X122235087Y-105391116D01*
X122235087Y-105391116D02*
X122425563Y-105295878D01*
X122425563Y-105295878D02*
X122901754Y-105295878D01*
X122901754Y-105295878D02*
X123187468Y-105391116D01*
X123758897Y-105295878D02*
X124901754Y-105295878D01*
X124330325Y-107295878D02*
X124330325Y-105295878D01*
X119092230Y-98891116D02*
X118901754Y-98795878D01*
X118901754Y-98795878D02*
X118616040Y-98795878D01*
X118616040Y-98795878D02*
X118330325Y-98891116D01*
X118330325Y-98891116D02*
X118139849Y-99081592D01*
X118139849Y-99081592D02*
X118044611Y-99272068D01*
X118044611Y-99272068D02*
X117949373Y-99653020D01*
X117949373Y-99653020D02*
X117949373Y-99938735D01*
X117949373Y-99938735D02*
X118044611Y-100319687D01*
X118044611Y-100319687D02*
X118139849Y-100510163D01*
X118139849Y-100510163D02*
X118330325Y-100700640D01*
X118330325Y-100700640D02*
X118616040Y-100795878D01*
X118616040Y-100795878D02*
X118806516Y-100795878D01*
X118806516Y-100795878D02*
X119092230Y-100700640D01*
X119092230Y-100700640D02*
X119187468Y-100605401D01*
X119187468Y-100605401D02*
X119187468Y-99938735D01*
X119187468Y-99938735D02*
X118806516Y-99938735D01*
X120044611Y-100795878D02*
X120044611Y-98795878D01*
X120044611Y-98795878D02*
X121187468Y-100795878D01*
X121187468Y-100795878D02*
X121187468Y-98795878D01*
X122139849Y-100795878D02*
X122139849Y-98795878D01*
X122139849Y-98795878D02*
X122616039Y-98795878D01*
X122616039Y-98795878D02*
X122901754Y-98891116D01*
X122901754Y-98891116D02*
X123092230Y-99081592D01*
X123092230Y-99081592D02*
X123187468Y-99272068D01*
X123187468Y-99272068D02*
X123282706Y-99653020D01*
X123282706Y-99653020D02*
X123282706Y-99938735D01*
X123282706Y-99938735D02*
X123187468Y-100319687D01*
X123187468Y-100319687D02*
X123092230Y-100510163D01*
X123092230Y-100510163D02*
X122901754Y-100700640D01*
X122901754Y-100700640D02*
X122616039Y-100795878D01*
X122616039Y-100795878D02*
X122139849Y-100795878D01*
X117949373Y-97700640D02*
X118235087Y-97795878D01*
X118235087Y-97795878D02*
X118711278Y-97795878D01*
X118711278Y-97795878D02*
X118901754Y-97700640D01*
X118901754Y-97700640D02*
X118996992Y-97605401D01*
X118996992Y-97605401D02*
X119092230Y-97414925D01*
X119092230Y-97414925D02*
X119092230Y-97224449D01*
X119092230Y-97224449D02*
X118996992Y-97033973D01*
X118996992Y-97033973D02*
X118901754Y-96938735D01*
X118901754Y-96938735D02*
X118711278Y-96843497D01*
X118711278Y-96843497D02*
X118330325Y-96748259D01*
X118330325Y-96748259D02*
X118139849Y-96653020D01*
X118139849Y-96653020D02*
X118044611Y-96557782D01*
X118044611Y-96557782D02*
X117949373Y-96367306D01*
X117949373Y-96367306D02*
X117949373Y-96176830D01*
X117949373Y-96176830D02*
X118044611Y-95986354D01*
X118044611Y-95986354D02*
X118139849Y-95891116D01*
X118139849Y-95891116D02*
X118330325Y-95795878D01*
X118330325Y-95795878D02*
X118806516Y-95795878D01*
X118806516Y-95795878D02*
X119092230Y-95891116D01*
X119758897Y-95795878D02*
X120235087Y-97795878D01*
X120235087Y-97795878D02*
X120616040Y-96367306D01*
X120616040Y-96367306D02*
X120996992Y-97795878D01*
X120996992Y-97795878D02*
X121473183Y-95795878D01*
X122235087Y-97795878D02*
X122235087Y-95795878D01*
X122235087Y-95795878D02*
X122711277Y-95795878D01*
X122711277Y-95795878D02*
X122996992Y-95891116D01*
X122996992Y-95891116D02*
X123187468Y-96081592D01*
X123187468Y-96081592D02*
X123282706Y-96272068D01*
X123282706Y-96272068D02*
X123377944Y-96653020D01*
X123377944Y-96653020D02*
X123377944Y-96938735D01*
X123377944Y-96938735D02*
X123282706Y-97319687D01*
X123282706Y-97319687D02*
X123187468Y-97510163D01*
X123187468Y-97510163D02*
X122996992Y-97700640D01*
X122996992Y-97700640D02*
X122711277Y-97795878D01*
X122711277Y-97795878D02*
X122235087Y-97795878D01*
X124235087Y-97795878D02*
X124235087Y-95795878D01*
X125568420Y-95795878D02*
X125949373Y-95795878D01*
X125949373Y-95795878D02*
X126139849Y-95891116D01*
X126139849Y-95891116D02*
X126330325Y-96081592D01*
X126330325Y-96081592D02*
X126425563Y-96462544D01*
X126425563Y-96462544D02*
X126425563Y-97129211D01*
X126425563Y-97129211D02*
X126330325Y-97510163D01*
X126330325Y-97510163D02*
X126139849Y-97700640D01*
X126139849Y-97700640D02*
X125949373Y-97795878D01*
X125949373Y-97795878D02*
X125568420Y-97795878D01*
X125568420Y-97795878D02*
X125377944Y-97700640D01*
X125377944Y-97700640D02*
X125187468Y-97510163D01*
X125187468Y-97510163D02*
X125092230Y-97129211D01*
X125092230Y-97129211D02*
X125092230Y-96462544D01*
X125092230Y-96462544D02*
X125187468Y-96081592D01*
X125187468Y-96081592D02*
X125377944Y-95891116D01*
X125377944Y-95891116D02*
X125568420Y-95795878D01*
X145190550Y-33856666D02*
X145190550Y-33523333D01*
X144666740Y-33523333D02*
X145666740Y-33523333D01*
X145666740Y-33523333D02*
X145666740Y-33999523D01*
X145190550Y-34713809D02*
X145142931Y-34856666D01*
X145142931Y-34856666D02*
X145095312Y-34904285D01*
X145095312Y-34904285D02*
X145000074Y-34951904D01*
X145000074Y-34951904D02*
X144857217Y-34951904D01*
X144857217Y-34951904D02*
X144761979Y-34904285D01*
X144761979Y-34904285D02*
X144714360Y-34856666D01*
X144714360Y-34856666D02*
X144666740Y-34761428D01*
X144666740Y-34761428D02*
X144666740Y-34380476D01*
X144666740Y-34380476D02*
X145666740Y-34380476D01*
X145666740Y-34380476D02*
X145666740Y-34713809D01*
X145666740Y-34713809D02*
X145619121Y-34809047D01*
X145619121Y-34809047D02*
X145571502Y-34856666D01*
X145571502Y-34856666D02*
X145476264Y-34904285D01*
X145476264Y-34904285D02*
X145381026Y-34904285D01*
X145381026Y-34904285D02*
X145285788Y-34856666D01*
X145285788Y-34856666D02*
X145238169Y-34809047D01*
X145238169Y-34809047D02*
X145190550Y-34713809D01*
X145190550Y-34713809D02*
X145190550Y-34380476D01*
X145666740Y-35285238D02*
X145666740Y-35904285D01*
X145666740Y-35904285D02*
X145285788Y-35570952D01*
X145285788Y-35570952D02*
X145285788Y-35713809D01*
X145285788Y-35713809D02*
X145238169Y-35809047D01*
X145238169Y-35809047D02*
X145190550Y-35856666D01*
X145190550Y-35856666D02*
X145095312Y-35904285D01*
X145095312Y-35904285D02*
X144857217Y-35904285D01*
X144857217Y-35904285D02*
X144761979Y-35856666D01*
X144761979Y-35856666D02*
X144714360Y-35809047D01*
X144714360Y-35809047D02*
X144666740Y-35713809D01*
X144666740Y-35713809D02*
X144666740Y-35428095D01*
X144666740Y-35428095D02*
X144714360Y-35332857D01*
X144714360Y-35332857D02*
X144761979Y-35285238D01*
X138383333Y-94403259D02*
X138050000Y-93927068D01*
X137811905Y-94403259D02*
X137811905Y-93403259D01*
X137811905Y-93403259D02*
X138192857Y-93403259D01*
X138192857Y-93403259D02*
X138288095Y-93450878D01*
X138288095Y-93450878D02*
X138335714Y-93498497D01*
X138335714Y-93498497D02*
X138383333Y-93593735D01*
X138383333Y-93593735D02*
X138383333Y-93736592D01*
X138383333Y-93736592D02*
X138335714Y-93831830D01*
X138335714Y-93831830D02*
X138288095Y-93879449D01*
X138288095Y-93879449D02*
X138192857Y-93927068D01*
X138192857Y-93927068D02*
X137811905Y-93927068D01*
X138716667Y-93403259D02*
X139383333Y-93403259D01*
X139383333Y-93403259D02*
X138954762Y-94403259D01*
X111823810Y-119253259D02*
X111823810Y-118253259D01*
X112871428Y-119158020D02*
X112823809Y-119205640D01*
X112823809Y-119205640D02*
X112680952Y-119253259D01*
X112680952Y-119253259D02*
X112585714Y-119253259D01*
X112585714Y-119253259D02*
X112442857Y-119205640D01*
X112442857Y-119205640D02*
X112347619Y-119110401D01*
X112347619Y-119110401D02*
X112300000Y-119015163D01*
X112300000Y-119015163D02*
X112252381Y-118824687D01*
X112252381Y-118824687D02*
X112252381Y-118681830D01*
X112252381Y-118681830D02*
X112300000Y-118491354D01*
X112300000Y-118491354D02*
X112347619Y-118396116D01*
X112347619Y-118396116D02*
X112442857Y-118300878D01*
X112442857Y-118300878D02*
X112585714Y-118253259D01*
X112585714Y-118253259D02*
X112680952Y-118253259D01*
X112680952Y-118253259D02*
X112823809Y-118300878D01*
X112823809Y-118300878D02*
X112871428Y-118348497D01*
X113823809Y-119253259D02*
X113252381Y-119253259D01*
X113538095Y-119253259D02*
X113538095Y-118253259D01*
X113538095Y-118253259D02*
X113442857Y-118396116D01*
X113442857Y-118396116D02*
X113347619Y-118491354D01*
X113347619Y-118491354D02*
X113252381Y-118538973D01*
X124283333Y-111203259D02*
X123950000Y-110727068D01*
X123711905Y-111203259D02*
X123711905Y-110203259D01*
X123711905Y-110203259D02*
X124092857Y-110203259D01*
X124092857Y-110203259D02*
X124188095Y-110250878D01*
X124188095Y-110250878D02*
X124235714Y-110298497D01*
X124235714Y-110298497D02*
X124283333Y-110393735D01*
X124283333Y-110393735D02*
X124283333Y-110536592D01*
X124283333Y-110536592D02*
X124235714Y-110631830D01*
X124235714Y-110631830D02*
X124188095Y-110679449D01*
X124188095Y-110679449D02*
X124092857Y-110727068D01*
X124092857Y-110727068D02*
X123711905Y-110727068D01*
X125235714Y-111203259D02*
X124664286Y-111203259D01*
X124950000Y-111203259D02*
X124950000Y-110203259D01*
X124950000Y-110203259D02*
X124854762Y-110346116D01*
X124854762Y-110346116D02*
X124759524Y-110441354D01*
X124759524Y-110441354D02*
X124664286Y-110488973D01*
X128388095Y-101603259D02*
X128388095Y-102412782D01*
X128388095Y-102412782D02*
X128435714Y-102508020D01*
X128435714Y-102508020D02*
X128483333Y-102555640D01*
X128483333Y-102555640D02*
X128578571Y-102603259D01*
X128578571Y-102603259D02*
X128769047Y-102603259D01*
X128769047Y-102603259D02*
X128864285Y-102555640D01*
X128864285Y-102555640D02*
X128911904Y-102508020D01*
X128911904Y-102508020D02*
X128959523Y-102412782D01*
X128959523Y-102412782D02*
X128959523Y-101603259D01*
X129959523Y-102603259D02*
X129388095Y-102603259D01*
X129673809Y-102603259D02*
X129673809Y-101603259D01*
X129673809Y-101603259D02*
X129578571Y-101746116D01*
X129578571Y-101746116D02*
X129483333Y-101841354D01*
X129483333Y-101841354D02*
X129388095Y-101888973D01*
X222303259Y-35992857D02*
X221827068Y-36326190D01*
X222303259Y-36564285D02*
X221303259Y-36564285D01*
X221303259Y-36564285D02*
X221303259Y-36183333D01*
X221303259Y-36183333D02*
X221350878Y-36088095D01*
X221350878Y-36088095D02*
X221398497Y-36040476D01*
X221398497Y-36040476D02*
X221493735Y-35992857D01*
X221493735Y-35992857D02*
X221636592Y-35992857D01*
X221636592Y-35992857D02*
X221731830Y-36040476D01*
X221731830Y-36040476D02*
X221779449Y-36088095D01*
X221779449Y-36088095D02*
X221827068Y-36183333D01*
X221827068Y-36183333D02*
X221827068Y-36564285D01*
X222303259Y-35040476D02*
X222303259Y-35611904D01*
X222303259Y-35326190D02*
X221303259Y-35326190D01*
X221303259Y-35326190D02*
X221446116Y-35421428D01*
X221446116Y-35421428D02*
X221541354Y-35516666D01*
X221541354Y-35516666D02*
X221588973Y-35611904D01*
X221303259Y-34135714D02*
X221303259Y-34611904D01*
X221303259Y-34611904D02*
X221779449Y-34659523D01*
X221779449Y-34659523D02*
X221731830Y-34611904D01*
X221731830Y-34611904D02*
X221684211Y-34516666D01*
X221684211Y-34516666D02*
X221684211Y-34278571D01*
X221684211Y-34278571D02*
X221731830Y-34183333D01*
X221731830Y-34183333D02*
X221779449Y-34135714D01*
X221779449Y-34135714D02*
X221874687Y-34088095D01*
X221874687Y-34088095D02*
X222112782Y-34088095D01*
X222112782Y-34088095D02*
X222208020Y-34135714D01*
X222208020Y-34135714D02*
X222255640Y-34183333D01*
X222255640Y-34183333D02*
X222303259Y-34278571D01*
X222303259Y-34278571D02*
X222303259Y-34516666D01*
X222303259Y-34516666D02*
X222255640Y-34611904D01*
X222255640Y-34611904D02*
X222208020Y-34659523D01*
X195208020Y-45892857D02*
X195255640Y-45940476D01*
X195255640Y-45940476D02*
X195303259Y-46083333D01*
X195303259Y-46083333D02*
X195303259Y-46178571D01*
X195303259Y-46178571D02*
X195255640Y-46321428D01*
X195255640Y-46321428D02*
X195160401Y-46416666D01*
X195160401Y-46416666D02*
X195065163Y-46464285D01*
X195065163Y-46464285D02*
X194874687Y-46511904D01*
X194874687Y-46511904D02*
X194731830Y-46511904D01*
X194731830Y-46511904D02*
X194541354Y-46464285D01*
X194541354Y-46464285D02*
X194446116Y-46416666D01*
X194446116Y-46416666D02*
X194350878Y-46321428D01*
X194350878Y-46321428D02*
X194303259Y-46178571D01*
X194303259Y-46178571D02*
X194303259Y-46083333D01*
X194303259Y-46083333D02*
X194350878Y-45940476D01*
X194350878Y-45940476D02*
X194398497Y-45892857D01*
X194398497Y-45511904D02*
X194350878Y-45464285D01*
X194350878Y-45464285D02*
X194303259Y-45369047D01*
X194303259Y-45369047D02*
X194303259Y-45130952D01*
X194303259Y-45130952D02*
X194350878Y-45035714D01*
X194350878Y-45035714D02*
X194398497Y-44988095D01*
X194398497Y-44988095D02*
X194493735Y-44940476D01*
X194493735Y-44940476D02*
X194588973Y-44940476D01*
X194588973Y-44940476D02*
X194731830Y-44988095D01*
X194731830Y-44988095D02*
X195303259Y-45559523D01*
X195303259Y-45559523D02*
X195303259Y-44940476D01*
X195303259Y-43988095D02*
X195303259Y-44559523D01*
X195303259Y-44273809D02*
X194303259Y-44273809D01*
X194303259Y-44273809D02*
X194446116Y-44369047D01*
X194446116Y-44369047D02*
X194541354Y-44464285D01*
X194541354Y-44464285D02*
X194588973Y-44559523D01*
X66008020Y-122192857D02*
X66055640Y-122240476D01*
X66055640Y-122240476D02*
X66103259Y-122383333D01*
X66103259Y-122383333D02*
X66103259Y-122478571D01*
X66103259Y-122478571D02*
X66055640Y-122621428D01*
X66055640Y-122621428D02*
X65960401Y-122716666D01*
X65960401Y-122716666D02*
X65865163Y-122764285D01*
X65865163Y-122764285D02*
X65674687Y-122811904D01*
X65674687Y-122811904D02*
X65531830Y-122811904D01*
X65531830Y-122811904D02*
X65341354Y-122764285D01*
X65341354Y-122764285D02*
X65246116Y-122716666D01*
X65246116Y-122716666D02*
X65150878Y-122621428D01*
X65150878Y-122621428D02*
X65103259Y-122478571D01*
X65103259Y-122478571D02*
X65103259Y-122383333D01*
X65103259Y-122383333D02*
X65150878Y-122240476D01*
X65150878Y-122240476D02*
X65198497Y-122192857D01*
X66103259Y-121240476D02*
X66103259Y-121811904D01*
X66103259Y-121526190D02*
X65103259Y-121526190D01*
X65103259Y-121526190D02*
X65246116Y-121621428D01*
X65246116Y-121621428D02*
X65341354Y-121716666D01*
X65341354Y-121716666D02*
X65388973Y-121811904D01*
X65436592Y-120383333D02*
X66103259Y-120383333D01*
X65055640Y-120621428D02*
X65769925Y-120859523D01*
X65769925Y-120859523D02*
X65769925Y-120240476D01*
X138303259Y-84816666D02*
X137827068Y-85149999D01*
X138303259Y-85388094D02*
X137303259Y-85388094D01*
X137303259Y-85388094D02*
X137303259Y-85007142D01*
X137303259Y-85007142D02*
X137350878Y-84911904D01*
X137350878Y-84911904D02*
X137398497Y-84864285D01*
X137398497Y-84864285D02*
X137493735Y-84816666D01*
X137493735Y-84816666D02*
X137636592Y-84816666D01*
X137636592Y-84816666D02*
X137731830Y-84864285D01*
X137731830Y-84864285D02*
X137779449Y-84911904D01*
X137779449Y-84911904D02*
X137827068Y-85007142D01*
X137827068Y-85007142D02*
X137827068Y-85388094D01*
X137731830Y-84245237D02*
X137684211Y-84340475D01*
X137684211Y-84340475D02*
X137636592Y-84388094D01*
X137636592Y-84388094D02*
X137541354Y-84435713D01*
X137541354Y-84435713D02*
X137493735Y-84435713D01*
X137493735Y-84435713D02*
X137398497Y-84388094D01*
X137398497Y-84388094D02*
X137350878Y-84340475D01*
X137350878Y-84340475D02*
X137303259Y-84245237D01*
X137303259Y-84245237D02*
X137303259Y-84054761D01*
X137303259Y-84054761D02*
X137350878Y-83959523D01*
X137350878Y-83959523D02*
X137398497Y-83911904D01*
X137398497Y-83911904D02*
X137493735Y-83864285D01*
X137493735Y-83864285D02*
X137541354Y-83864285D01*
X137541354Y-83864285D02*
X137636592Y-83911904D01*
X137636592Y-83911904D02*
X137684211Y-83959523D01*
X137684211Y-83959523D02*
X137731830Y-84054761D01*
X137731830Y-84054761D02*
X137731830Y-84245237D01*
X137731830Y-84245237D02*
X137779449Y-84340475D01*
X137779449Y-84340475D02*
X137827068Y-84388094D01*
X137827068Y-84388094D02*
X137922306Y-84435713D01*
X137922306Y-84435713D02*
X138112782Y-84435713D01*
X138112782Y-84435713D02*
X138208020Y-84388094D01*
X138208020Y-84388094D02*
X138255640Y-84340475D01*
X138255640Y-84340475D02*
X138303259Y-84245237D01*
X138303259Y-84245237D02*
X138303259Y-84054761D01*
X138303259Y-84054761D02*
X138255640Y-83959523D01*
X138255640Y-83959523D02*
X138208020Y-83911904D01*
X138208020Y-83911904D02*
X138112782Y-83864285D01*
X138112782Y-83864285D02*
X137922306Y-83864285D01*
X137922306Y-83864285D02*
X137827068Y-83911904D01*
X137827068Y-83911904D02*
X137779449Y-83959523D01*
X137779449Y-83959523D02*
X137731830Y-84054761D01*
X132773809Y-120327068D02*
X132773809Y-120803259D01*
X132440476Y-119803259D02*
X132773809Y-120327068D01*
X132773809Y-120327068D02*
X133107142Y-119803259D01*
X133964285Y-120803259D02*
X133392857Y-120803259D01*
X133678571Y-120803259D02*
X133678571Y-119803259D01*
X133678571Y-119803259D02*
X133583333Y-119946116D01*
X133583333Y-119946116D02*
X133488095Y-120041354D01*
X133488095Y-120041354D02*
X133392857Y-120088973D01*
X151607142Y-32303259D02*
X151273809Y-31827068D01*
X151035714Y-32303259D02*
X151035714Y-31303259D01*
X151035714Y-31303259D02*
X151416666Y-31303259D01*
X151416666Y-31303259D02*
X151511904Y-31350878D01*
X151511904Y-31350878D02*
X151559523Y-31398497D01*
X151559523Y-31398497D02*
X151607142Y-31493735D01*
X151607142Y-31493735D02*
X151607142Y-31636592D01*
X151607142Y-31636592D02*
X151559523Y-31731830D01*
X151559523Y-31731830D02*
X151511904Y-31779449D01*
X151511904Y-31779449D02*
X151416666Y-31827068D01*
X151416666Y-31827068D02*
X151035714Y-31827068D01*
X152559523Y-32303259D02*
X151988095Y-32303259D01*
X152273809Y-32303259D02*
X152273809Y-31303259D01*
X152273809Y-31303259D02*
X152178571Y-31446116D01*
X152178571Y-31446116D02*
X152083333Y-31541354D01*
X152083333Y-31541354D02*
X151988095Y-31588973D01*
X153035714Y-32303259D02*
X153226190Y-32303259D01*
X153226190Y-32303259D02*
X153321428Y-32255640D01*
X153321428Y-32255640D02*
X153369047Y-32208020D01*
X153369047Y-32208020D02*
X153464285Y-32065163D01*
X153464285Y-32065163D02*
X153511904Y-31874687D01*
X153511904Y-31874687D02*
X153511904Y-31493735D01*
X153511904Y-31493735D02*
X153464285Y-31398497D01*
X153464285Y-31398497D02*
X153416666Y-31350878D01*
X153416666Y-31350878D02*
X153321428Y-31303259D01*
X153321428Y-31303259D02*
X153130952Y-31303259D01*
X153130952Y-31303259D02*
X153035714Y-31350878D01*
X153035714Y-31350878D02*
X152988095Y-31398497D01*
X152988095Y-31398497D02*
X152940476Y-31493735D01*
X152940476Y-31493735D02*
X152940476Y-31731830D01*
X152940476Y-31731830D02*
X152988095Y-31827068D01*
X152988095Y-31827068D02*
X153035714Y-31874687D01*
X153035714Y-31874687D02*
X153130952Y-31922306D01*
X153130952Y-31922306D02*
X153321428Y-31922306D01*
X153321428Y-31922306D02*
X153416666Y-31874687D01*
X153416666Y-31874687D02*
X153464285Y-31827068D01*
X153464285Y-31827068D02*
X153511904Y-31731830D01*
X124907142Y-116908020D02*
X124859523Y-116955640D01*
X124859523Y-116955640D02*
X124716666Y-117003259D01*
X124716666Y-117003259D02*
X124621428Y-117003259D01*
X124621428Y-117003259D02*
X124478571Y-116955640D01*
X124478571Y-116955640D02*
X124383333Y-116860401D01*
X124383333Y-116860401D02*
X124335714Y-116765163D01*
X124335714Y-116765163D02*
X124288095Y-116574687D01*
X124288095Y-116574687D02*
X124288095Y-116431830D01*
X124288095Y-116431830D02*
X124335714Y-116241354D01*
X124335714Y-116241354D02*
X124383333Y-116146116D01*
X124383333Y-116146116D02*
X124478571Y-116050878D01*
X124478571Y-116050878D02*
X124621428Y-116003259D01*
X124621428Y-116003259D02*
X124716666Y-116003259D01*
X124716666Y-116003259D02*
X124859523Y-116050878D01*
X124859523Y-116050878D02*
X124907142Y-116098497D01*
X125859523Y-117003259D02*
X125288095Y-117003259D01*
X125573809Y-117003259D02*
X125573809Y-116003259D01*
X125573809Y-116003259D02*
X125478571Y-116146116D01*
X125478571Y-116146116D02*
X125383333Y-116241354D01*
X125383333Y-116241354D02*
X125288095Y-116288973D01*
X126478571Y-116003259D02*
X126573809Y-116003259D01*
X126573809Y-116003259D02*
X126669047Y-116050878D01*
X126669047Y-116050878D02*
X126716666Y-116098497D01*
X126716666Y-116098497D02*
X126764285Y-116193735D01*
X126764285Y-116193735D02*
X126811904Y-116384211D01*
X126811904Y-116384211D02*
X126811904Y-116622306D01*
X126811904Y-116622306D02*
X126764285Y-116812782D01*
X126764285Y-116812782D02*
X126716666Y-116908020D01*
X126716666Y-116908020D02*
X126669047Y-116955640D01*
X126669047Y-116955640D02*
X126573809Y-117003259D01*
X126573809Y-117003259D02*
X126478571Y-117003259D01*
X126478571Y-117003259D02*
X126383333Y-116955640D01*
X126383333Y-116955640D02*
X126335714Y-116908020D01*
X126335714Y-116908020D02*
X126288095Y-116812782D01*
X126288095Y-116812782D02*
X126240476Y-116622306D01*
X126240476Y-116622306D02*
X126240476Y-116384211D01*
X126240476Y-116384211D02*
X126288095Y-116193735D01*
X126288095Y-116193735D02*
X126335714Y-116098497D01*
X126335714Y-116098497D02*
X126383333Y-116050878D01*
X126383333Y-116050878D02*
X126478571Y-116003259D01*
X135583333Y-137803259D02*
X135250000Y-137327068D01*
X135011905Y-137803259D02*
X135011905Y-136803259D01*
X135011905Y-136803259D02*
X135392857Y-136803259D01*
X135392857Y-136803259D02*
X135488095Y-136850878D01*
X135488095Y-136850878D02*
X135535714Y-136898497D01*
X135535714Y-136898497D02*
X135583333Y-136993735D01*
X135583333Y-136993735D02*
X135583333Y-137136592D01*
X135583333Y-137136592D02*
X135535714Y-137231830D01*
X135535714Y-137231830D02*
X135488095Y-137279449D01*
X135488095Y-137279449D02*
X135392857Y-137327068D01*
X135392857Y-137327068D02*
X135011905Y-137327068D01*
X135916667Y-136803259D02*
X136535714Y-136803259D01*
X136535714Y-136803259D02*
X136202381Y-137184211D01*
X136202381Y-137184211D02*
X136345238Y-137184211D01*
X136345238Y-137184211D02*
X136440476Y-137231830D01*
X136440476Y-137231830D02*
X136488095Y-137279449D01*
X136488095Y-137279449D02*
X136535714Y-137374687D01*
X136535714Y-137374687D02*
X136535714Y-137612782D01*
X136535714Y-137612782D02*
X136488095Y-137708020D01*
X136488095Y-137708020D02*
X136440476Y-137755640D01*
X136440476Y-137755640D02*
X136345238Y-137803259D01*
X136345238Y-137803259D02*
X136059524Y-137803259D01*
X136059524Y-137803259D02*
X135964286Y-137755640D01*
X135964286Y-137755640D02*
X135916667Y-137708020D01*
X172207142Y-41403259D02*
X171873809Y-40927068D01*
X171635714Y-41403259D02*
X171635714Y-40403259D01*
X171635714Y-40403259D02*
X172016666Y-40403259D01*
X172016666Y-40403259D02*
X172111904Y-40450878D01*
X172111904Y-40450878D02*
X172159523Y-40498497D01*
X172159523Y-40498497D02*
X172207142Y-40593735D01*
X172207142Y-40593735D02*
X172207142Y-40736592D01*
X172207142Y-40736592D02*
X172159523Y-40831830D01*
X172159523Y-40831830D02*
X172111904Y-40879449D01*
X172111904Y-40879449D02*
X172016666Y-40927068D01*
X172016666Y-40927068D02*
X171635714Y-40927068D01*
X173159523Y-41403259D02*
X172588095Y-41403259D01*
X172873809Y-41403259D02*
X172873809Y-40403259D01*
X172873809Y-40403259D02*
X172778571Y-40546116D01*
X172778571Y-40546116D02*
X172683333Y-40641354D01*
X172683333Y-40641354D02*
X172588095Y-40688973D01*
X174016666Y-40736592D02*
X174016666Y-41403259D01*
X173778571Y-40355640D02*
X173540476Y-41069925D01*
X173540476Y-41069925D02*
X174159523Y-41069925D01*
X129083333Y-136203259D02*
X128750000Y-135727068D01*
X128511905Y-136203259D02*
X128511905Y-135203259D01*
X128511905Y-135203259D02*
X128892857Y-135203259D01*
X128892857Y-135203259D02*
X128988095Y-135250878D01*
X128988095Y-135250878D02*
X129035714Y-135298497D01*
X129035714Y-135298497D02*
X129083333Y-135393735D01*
X129083333Y-135393735D02*
X129083333Y-135536592D01*
X129083333Y-135536592D02*
X129035714Y-135631830D01*
X129035714Y-135631830D02*
X128988095Y-135679449D01*
X128988095Y-135679449D02*
X128892857Y-135727068D01*
X128892857Y-135727068D02*
X128511905Y-135727068D01*
X129940476Y-135536592D02*
X129940476Y-136203259D01*
X129702381Y-135155640D02*
X129464286Y-135869925D01*
X129464286Y-135869925D02*
X130083333Y-135869925D01*
X193903259Y-39692857D02*
X193427068Y-40026190D01*
X193903259Y-40264285D02*
X192903259Y-40264285D01*
X192903259Y-40264285D02*
X192903259Y-39883333D01*
X192903259Y-39883333D02*
X192950878Y-39788095D01*
X192950878Y-39788095D02*
X192998497Y-39740476D01*
X192998497Y-39740476D02*
X193093735Y-39692857D01*
X193093735Y-39692857D02*
X193236592Y-39692857D01*
X193236592Y-39692857D02*
X193331830Y-39740476D01*
X193331830Y-39740476D02*
X193379449Y-39788095D01*
X193379449Y-39788095D02*
X193427068Y-39883333D01*
X193427068Y-39883333D02*
X193427068Y-40264285D01*
X193903259Y-38740476D02*
X193903259Y-39311904D01*
X193903259Y-39026190D02*
X192903259Y-39026190D01*
X192903259Y-39026190D02*
X193046116Y-39121428D01*
X193046116Y-39121428D02*
X193141354Y-39216666D01*
X193141354Y-39216666D02*
X193188973Y-39311904D01*
X192903259Y-38407142D02*
X192903259Y-37740476D01*
X192903259Y-37740476D02*
X193903259Y-38169047D01*
X120983333Y-119608020D02*
X120935714Y-119655640D01*
X120935714Y-119655640D02*
X120792857Y-119703259D01*
X120792857Y-119703259D02*
X120697619Y-119703259D01*
X120697619Y-119703259D02*
X120554762Y-119655640D01*
X120554762Y-119655640D02*
X120459524Y-119560401D01*
X120459524Y-119560401D02*
X120411905Y-119465163D01*
X120411905Y-119465163D02*
X120364286Y-119274687D01*
X120364286Y-119274687D02*
X120364286Y-119131830D01*
X120364286Y-119131830D02*
X120411905Y-118941354D01*
X120411905Y-118941354D02*
X120459524Y-118846116D01*
X120459524Y-118846116D02*
X120554762Y-118750878D01*
X120554762Y-118750878D02*
X120697619Y-118703259D01*
X120697619Y-118703259D02*
X120792857Y-118703259D01*
X120792857Y-118703259D02*
X120935714Y-118750878D01*
X120935714Y-118750878D02*
X120983333Y-118798497D01*
X121888095Y-118703259D02*
X121411905Y-118703259D01*
X121411905Y-118703259D02*
X121364286Y-119179449D01*
X121364286Y-119179449D02*
X121411905Y-119131830D01*
X121411905Y-119131830D02*
X121507143Y-119084211D01*
X121507143Y-119084211D02*
X121745238Y-119084211D01*
X121745238Y-119084211D02*
X121840476Y-119131830D01*
X121840476Y-119131830D02*
X121888095Y-119179449D01*
X121888095Y-119179449D02*
X121935714Y-119274687D01*
X121935714Y-119274687D02*
X121935714Y-119512782D01*
X121935714Y-119512782D02*
X121888095Y-119608020D01*
X121888095Y-119608020D02*
X121840476Y-119655640D01*
X121840476Y-119655640D02*
X121745238Y-119703259D01*
X121745238Y-119703259D02*
X121507143Y-119703259D01*
X121507143Y-119703259D02*
X121411905Y-119655640D01*
X121411905Y-119655640D02*
X121364286Y-119608020D01*
X176207142Y-40003259D02*
X175873809Y-39527068D01*
X175635714Y-40003259D02*
X175635714Y-39003259D01*
X175635714Y-39003259D02*
X176016666Y-39003259D01*
X176016666Y-39003259D02*
X176111904Y-39050878D01*
X176111904Y-39050878D02*
X176159523Y-39098497D01*
X176159523Y-39098497D02*
X176207142Y-39193735D01*
X176207142Y-39193735D02*
X176207142Y-39336592D01*
X176207142Y-39336592D02*
X176159523Y-39431830D01*
X176159523Y-39431830D02*
X176111904Y-39479449D01*
X176111904Y-39479449D02*
X176016666Y-39527068D01*
X176016666Y-39527068D02*
X175635714Y-39527068D01*
X177159523Y-40003259D02*
X176588095Y-40003259D01*
X176873809Y-40003259D02*
X176873809Y-39003259D01*
X176873809Y-39003259D02*
X176778571Y-39146116D01*
X176778571Y-39146116D02*
X176683333Y-39241354D01*
X176683333Y-39241354D02*
X176588095Y-39288973D01*
X178016666Y-39003259D02*
X177826190Y-39003259D01*
X177826190Y-39003259D02*
X177730952Y-39050878D01*
X177730952Y-39050878D02*
X177683333Y-39098497D01*
X177683333Y-39098497D02*
X177588095Y-39241354D01*
X177588095Y-39241354D02*
X177540476Y-39431830D01*
X177540476Y-39431830D02*
X177540476Y-39812782D01*
X177540476Y-39812782D02*
X177588095Y-39908020D01*
X177588095Y-39908020D02*
X177635714Y-39955640D01*
X177635714Y-39955640D02*
X177730952Y-40003259D01*
X177730952Y-40003259D02*
X177921428Y-40003259D01*
X177921428Y-40003259D02*
X178016666Y-39955640D01*
X178016666Y-39955640D02*
X178064285Y-39908020D01*
X178064285Y-39908020D02*
X178111904Y-39812782D01*
X178111904Y-39812782D02*
X178111904Y-39574687D01*
X178111904Y-39574687D02*
X178064285Y-39479449D01*
X178064285Y-39479449D02*
X178016666Y-39431830D01*
X178016666Y-39431830D02*
X177921428Y-39384211D01*
X177921428Y-39384211D02*
X177730952Y-39384211D01*
X177730952Y-39384211D02*
X177635714Y-39431830D01*
X177635714Y-39431830D02*
X177588095Y-39479449D01*
X177588095Y-39479449D02*
X177540476Y-39574687D01*
X223607142Y-124203259D02*
X223273809Y-123727068D01*
X223035714Y-124203259D02*
X223035714Y-123203259D01*
X223035714Y-123203259D02*
X223416666Y-123203259D01*
X223416666Y-123203259D02*
X223511904Y-123250878D01*
X223511904Y-123250878D02*
X223559523Y-123298497D01*
X223559523Y-123298497D02*
X223607142Y-123393735D01*
X223607142Y-123393735D02*
X223607142Y-123536592D01*
X223607142Y-123536592D02*
X223559523Y-123631830D01*
X223559523Y-123631830D02*
X223511904Y-123679449D01*
X223511904Y-123679449D02*
X223416666Y-123727068D01*
X223416666Y-123727068D02*
X223035714Y-123727068D01*
X223988095Y-123298497D02*
X224035714Y-123250878D01*
X224035714Y-123250878D02*
X224130952Y-123203259D01*
X224130952Y-123203259D02*
X224369047Y-123203259D01*
X224369047Y-123203259D02*
X224464285Y-123250878D01*
X224464285Y-123250878D02*
X224511904Y-123298497D01*
X224511904Y-123298497D02*
X224559523Y-123393735D01*
X224559523Y-123393735D02*
X224559523Y-123488973D01*
X224559523Y-123488973D02*
X224511904Y-123631830D01*
X224511904Y-123631830D02*
X223940476Y-124203259D01*
X223940476Y-124203259D02*
X224559523Y-124203259D01*
X225416666Y-123536592D02*
X225416666Y-124203259D01*
X225178571Y-123155640D02*
X224940476Y-123869925D01*
X224940476Y-123869925D02*
X225559523Y-123869925D01*
X181923810Y-45553259D02*
X181923810Y-44553259D01*
X182971428Y-45458020D02*
X182923809Y-45505640D01*
X182923809Y-45505640D02*
X182780952Y-45553259D01*
X182780952Y-45553259D02*
X182685714Y-45553259D01*
X182685714Y-45553259D02*
X182542857Y-45505640D01*
X182542857Y-45505640D02*
X182447619Y-45410401D01*
X182447619Y-45410401D02*
X182400000Y-45315163D01*
X182400000Y-45315163D02*
X182352381Y-45124687D01*
X182352381Y-45124687D02*
X182352381Y-44981830D01*
X182352381Y-44981830D02*
X182400000Y-44791354D01*
X182400000Y-44791354D02*
X182447619Y-44696116D01*
X182447619Y-44696116D02*
X182542857Y-44600878D01*
X182542857Y-44600878D02*
X182685714Y-44553259D01*
X182685714Y-44553259D02*
X182780952Y-44553259D01*
X182780952Y-44553259D02*
X182923809Y-44600878D01*
X182923809Y-44600878D02*
X182971428Y-44648497D01*
X183304762Y-44553259D02*
X183923809Y-44553259D01*
X183923809Y-44553259D02*
X183590476Y-44934211D01*
X183590476Y-44934211D02*
X183733333Y-44934211D01*
X183733333Y-44934211D02*
X183828571Y-44981830D01*
X183828571Y-44981830D02*
X183876190Y-45029449D01*
X183876190Y-45029449D02*
X183923809Y-45124687D01*
X183923809Y-45124687D02*
X183923809Y-45362782D01*
X183923809Y-45362782D02*
X183876190Y-45458020D01*
X183876190Y-45458020D02*
X183828571Y-45505640D01*
X183828571Y-45505640D02*
X183733333Y-45553259D01*
X183733333Y-45553259D02*
X183447619Y-45553259D01*
X183447619Y-45553259D02*
X183352381Y-45505640D01*
X183352381Y-45505640D02*
X183304762Y-45458020D01*
X192103259Y-39692857D02*
X191627068Y-40026190D01*
X192103259Y-40264285D02*
X191103259Y-40264285D01*
X191103259Y-40264285D02*
X191103259Y-39883333D01*
X191103259Y-39883333D02*
X191150878Y-39788095D01*
X191150878Y-39788095D02*
X191198497Y-39740476D01*
X191198497Y-39740476D02*
X191293735Y-39692857D01*
X191293735Y-39692857D02*
X191436592Y-39692857D01*
X191436592Y-39692857D02*
X191531830Y-39740476D01*
X191531830Y-39740476D02*
X191579449Y-39788095D01*
X191579449Y-39788095D02*
X191627068Y-39883333D01*
X191627068Y-39883333D02*
X191627068Y-40264285D01*
X192103259Y-38740476D02*
X192103259Y-39311904D01*
X192103259Y-39026190D02*
X191103259Y-39026190D01*
X191103259Y-39026190D02*
X191246116Y-39121428D01*
X191246116Y-39121428D02*
X191341354Y-39216666D01*
X191341354Y-39216666D02*
X191388973Y-39311904D01*
X191198497Y-38359523D02*
X191150878Y-38311904D01*
X191150878Y-38311904D02*
X191103259Y-38216666D01*
X191103259Y-38216666D02*
X191103259Y-37978571D01*
X191103259Y-37978571D02*
X191150878Y-37883333D01*
X191150878Y-37883333D02*
X191198497Y-37835714D01*
X191198497Y-37835714D02*
X191293735Y-37788095D01*
X191293735Y-37788095D02*
X191388973Y-37788095D01*
X191388973Y-37788095D02*
X191531830Y-37835714D01*
X191531830Y-37835714D02*
X192103259Y-38407142D01*
X192103259Y-38407142D02*
X192103259Y-37788095D01*
X224203259Y-39492857D02*
X223727068Y-39826190D01*
X224203259Y-40064285D02*
X223203259Y-40064285D01*
X223203259Y-40064285D02*
X223203259Y-39683333D01*
X223203259Y-39683333D02*
X223250878Y-39588095D01*
X223250878Y-39588095D02*
X223298497Y-39540476D01*
X223298497Y-39540476D02*
X223393735Y-39492857D01*
X223393735Y-39492857D02*
X223536592Y-39492857D01*
X223536592Y-39492857D02*
X223631830Y-39540476D01*
X223631830Y-39540476D02*
X223679449Y-39588095D01*
X223679449Y-39588095D02*
X223727068Y-39683333D01*
X223727068Y-39683333D02*
X223727068Y-40064285D01*
X224203259Y-38540476D02*
X224203259Y-39111904D01*
X224203259Y-38826190D02*
X223203259Y-38826190D01*
X223203259Y-38826190D02*
X223346116Y-38921428D01*
X223346116Y-38921428D02*
X223441354Y-39016666D01*
X223441354Y-39016666D02*
X223488973Y-39111904D01*
X223203259Y-38207142D02*
X223203259Y-37588095D01*
X223203259Y-37588095D02*
X223584211Y-37921428D01*
X223584211Y-37921428D02*
X223584211Y-37778571D01*
X223584211Y-37778571D02*
X223631830Y-37683333D01*
X223631830Y-37683333D02*
X223679449Y-37635714D01*
X223679449Y-37635714D02*
X223774687Y-37588095D01*
X223774687Y-37588095D02*
X224012782Y-37588095D01*
X224012782Y-37588095D02*
X224108020Y-37635714D01*
X224108020Y-37635714D02*
X224155640Y-37683333D01*
X224155640Y-37683333D02*
X224203259Y-37778571D01*
X224203259Y-37778571D02*
X224203259Y-38064285D01*
X224203259Y-38064285D02*
X224155640Y-38159523D01*
X224155640Y-38159523D02*
X224108020Y-38207142D01*
X192207142Y-43503259D02*
X191873809Y-43027068D01*
X191635714Y-43503259D02*
X191635714Y-42503259D01*
X191635714Y-42503259D02*
X192016666Y-42503259D01*
X192016666Y-42503259D02*
X192111904Y-42550878D01*
X192111904Y-42550878D02*
X192159523Y-42598497D01*
X192159523Y-42598497D02*
X192207142Y-42693735D01*
X192207142Y-42693735D02*
X192207142Y-42836592D01*
X192207142Y-42836592D02*
X192159523Y-42931830D01*
X192159523Y-42931830D02*
X192111904Y-42979449D01*
X192111904Y-42979449D02*
X192016666Y-43027068D01*
X192016666Y-43027068D02*
X191635714Y-43027068D01*
X193159523Y-43503259D02*
X192588095Y-43503259D01*
X192873809Y-43503259D02*
X192873809Y-42503259D01*
X192873809Y-42503259D02*
X192778571Y-42646116D01*
X192778571Y-42646116D02*
X192683333Y-42741354D01*
X192683333Y-42741354D02*
X192588095Y-42788973D01*
X193730952Y-42931830D02*
X193635714Y-42884211D01*
X193635714Y-42884211D02*
X193588095Y-42836592D01*
X193588095Y-42836592D02*
X193540476Y-42741354D01*
X193540476Y-42741354D02*
X193540476Y-42693735D01*
X193540476Y-42693735D02*
X193588095Y-42598497D01*
X193588095Y-42598497D02*
X193635714Y-42550878D01*
X193635714Y-42550878D02*
X193730952Y-42503259D01*
X193730952Y-42503259D02*
X193921428Y-42503259D01*
X193921428Y-42503259D02*
X194016666Y-42550878D01*
X194016666Y-42550878D02*
X194064285Y-42598497D01*
X194064285Y-42598497D02*
X194111904Y-42693735D01*
X194111904Y-42693735D02*
X194111904Y-42741354D01*
X194111904Y-42741354D02*
X194064285Y-42836592D01*
X194064285Y-42836592D02*
X194016666Y-42884211D01*
X194016666Y-42884211D02*
X193921428Y-42931830D01*
X193921428Y-42931830D02*
X193730952Y-42931830D01*
X193730952Y-42931830D02*
X193635714Y-42979449D01*
X193635714Y-42979449D02*
X193588095Y-43027068D01*
X193588095Y-43027068D02*
X193540476Y-43122306D01*
X193540476Y-43122306D02*
X193540476Y-43312782D01*
X193540476Y-43312782D02*
X193588095Y-43408020D01*
X193588095Y-43408020D02*
X193635714Y-43455640D01*
X193635714Y-43455640D02*
X193730952Y-43503259D01*
X193730952Y-43503259D02*
X193921428Y-43503259D01*
X193921428Y-43503259D02*
X194016666Y-43455640D01*
X194016666Y-43455640D02*
X194064285Y-43408020D01*
X194064285Y-43408020D02*
X194111904Y-43312782D01*
X194111904Y-43312782D02*
X194111904Y-43122306D01*
X194111904Y-43122306D02*
X194064285Y-43027068D01*
X194064285Y-43027068D02*
X194016666Y-42979449D01*
X194016666Y-42979449D02*
X193921428Y-42931830D01*
X222208020Y-42742857D02*
X222255640Y-42790476D01*
X222255640Y-42790476D02*
X222303259Y-42933333D01*
X222303259Y-42933333D02*
X222303259Y-43028571D01*
X222303259Y-43028571D02*
X222255640Y-43171428D01*
X222255640Y-43171428D02*
X222160401Y-43266666D01*
X222160401Y-43266666D02*
X222065163Y-43314285D01*
X222065163Y-43314285D02*
X221874687Y-43361904D01*
X221874687Y-43361904D02*
X221731830Y-43361904D01*
X221731830Y-43361904D02*
X221541354Y-43314285D01*
X221541354Y-43314285D02*
X221446116Y-43266666D01*
X221446116Y-43266666D02*
X221350878Y-43171428D01*
X221350878Y-43171428D02*
X221303259Y-43028571D01*
X221303259Y-43028571D02*
X221303259Y-42933333D01*
X221303259Y-42933333D02*
X221350878Y-42790476D01*
X221350878Y-42790476D02*
X221398497Y-42742857D01*
X222303259Y-41790476D02*
X222303259Y-42361904D01*
X222303259Y-42076190D02*
X221303259Y-42076190D01*
X221303259Y-42076190D02*
X221446116Y-42171428D01*
X221446116Y-42171428D02*
X221541354Y-42266666D01*
X221541354Y-42266666D02*
X221588973Y-42361904D01*
X222303259Y-41314285D02*
X222303259Y-41123809D01*
X222303259Y-41123809D02*
X222255640Y-41028571D01*
X222255640Y-41028571D02*
X222208020Y-40980952D01*
X222208020Y-40980952D02*
X222065163Y-40885714D01*
X222065163Y-40885714D02*
X221874687Y-40838095D01*
X221874687Y-40838095D02*
X221493735Y-40838095D01*
X221493735Y-40838095D02*
X221398497Y-40885714D01*
X221398497Y-40885714D02*
X221350878Y-40933333D01*
X221350878Y-40933333D02*
X221303259Y-41028571D01*
X221303259Y-41028571D02*
X221303259Y-41219047D01*
X221303259Y-41219047D02*
X221350878Y-41314285D01*
X221350878Y-41314285D02*
X221398497Y-41361904D01*
X221398497Y-41361904D02*
X221493735Y-41409523D01*
X221493735Y-41409523D02*
X221731830Y-41409523D01*
X221731830Y-41409523D02*
X221827068Y-41361904D01*
X221827068Y-41361904D02*
X221874687Y-41314285D01*
X221874687Y-41314285D02*
X221922306Y-41219047D01*
X221922306Y-41219047D02*
X221922306Y-41028571D01*
X221922306Y-41028571D02*
X221874687Y-40933333D01*
X221874687Y-40933333D02*
X221827068Y-40885714D01*
X221827068Y-40885714D02*
X221731830Y-40838095D01*
X129907142Y-124508020D02*
X129859523Y-124555640D01*
X129859523Y-124555640D02*
X129716666Y-124603259D01*
X129716666Y-124603259D02*
X129621428Y-124603259D01*
X129621428Y-124603259D02*
X129478571Y-124555640D01*
X129478571Y-124555640D02*
X129383333Y-124460401D01*
X129383333Y-124460401D02*
X129335714Y-124365163D01*
X129335714Y-124365163D02*
X129288095Y-124174687D01*
X129288095Y-124174687D02*
X129288095Y-124031830D01*
X129288095Y-124031830D02*
X129335714Y-123841354D01*
X129335714Y-123841354D02*
X129383333Y-123746116D01*
X129383333Y-123746116D02*
X129478571Y-123650878D01*
X129478571Y-123650878D02*
X129621428Y-123603259D01*
X129621428Y-123603259D02*
X129716666Y-123603259D01*
X129716666Y-123603259D02*
X129859523Y-123650878D01*
X129859523Y-123650878D02*
X129907142Y-123698497D01*
X130859523Y-124603259D02*
X130288095Y-124603259D01*
X130573809Y-124603259D02*
X130573809Y-123603259D01*
X130573809Y-123603259D02*
X130478571Y-123746116D01*
X130478571Y-123746116D02*
X130383333Y-123841354D01*
X130383333Y-123841354D02*
X130288095Y-123888973D01*
X131240476Y-123698497D02*
X131288095Y-123650878D01*
X131288095Y-123650878D02*
X131383333Y-123603259D01*
X131383333Y-123603259D02*
X131621428Y-123603259D01*
X131621428Y-123603259D02*
X131716666Y-123650878D01*
X131716666Y-123650878D02*
X131764285Y-123698497D01*
X131764285Y-123698497D02*
X131811904Y-123793735D01*
X131811904Y-123793735D02*
X131811904Y-123888973D01*
X131811904Y-123888973D02*
X131764285Y-124031830D01*
X131764285Y-124031830D02*
X131192857Y-124603259D01*
X131192857Y-124603259D02*
X131811904Y-124603259D01*
X136583333Y-130003259D02*
X136250000Y-129527068D01*
X136011905Y-130003259D02*
X136011905Y-129003259D01*
X136011905Y-129003259D02*
X136392857Y-129003259D01*
X136392857Y-129003259D02*
X136488095Y-129050878D01*
X136488095Y-129050878D02*
X136535714Y-129098497D01*
X136535714Y-129098497D02*
X136583333Y-129193735D01*
X136583333Y-129193735D02*
X136583333Y-129336592D01*
X136583333Y-129336592D02*
X136535714Y-129431830D01*
X136535714Y-129431830D02*
X136488095Y-129479449D01*
X136488095Y-129479449D02*
X136392857Y-129527068D01*
X136392857Y-129527068D02*
X136011905Y-129527068D01*
X136964286Y-129098497D02*
X137011905Y-129050878D01*
X137011905Y-129050878D02*
X137107143Y-129003259D01*
X137107143Y-129003259D02*
X137345238Y-129003259D01*
X137345238Y-129003259D02*
X137440476Y-129050878D01*
X137440476Y-129050878D02*
X137488095Y-129098497D01*
X137488095Y-129098497D02*
X137535714Y-129193735D01*
X137535714Y-129193735D02*
X137535714Y-129288973D01*
X137535714Y-129288973D02*
X137488095Y-129431830D01*
X137488095Y-129431830D02*
X136916667Y-130003259D01*
X136916667Y-130003259D02*
X137535714Y-130003259D01*
X193007142Y-36703259D02*
X192673809Y-36227068D01*
X192435714Y-36703259D02*
X192435714Y-35703259D01*
X192435714Y-35703259D02*
X192816666Y-35703259D01*
X192816666Y-35703259D02*
X192911904Y-35750878D01*
X192911904Y-35750878D02*
X192959523Y-35798497D01*
X192959523Y-35798497D02*
X193007142Y-35893735D01*
X193007142Y-35893735D02*
X193007142Y-36036592D01*
X193007142Y-36036592D02*
X192959523Y-36131830D01*
X192959523Y-36131830D02*
X192911904Y-36179449D01*
X192911904Y-36179449D02*
X192816666Y-36227068D01*
X192816666Y-36227068D02*
X192435714Y-36227068D01*
X193959523Y-36703259D02*
X193388095Y-36703259D01*
X193673809Y-36703259D02*
X193673809Y-35703259D01*
X193673809Y-35703259D02*
X193578571Y-35846116D01*
X193578571Y-35846116D02*
X193483333Y-35941354D01*
X193483333Y-35941354D02*
X193388095Y-35988973D01*
X194911904Y-36703259D02*
X194340476Y-36703259D01*
X194626190Y-36703259D02*
X194626190Y-35703259D01*
X194626190Y-35703259D02*
X194530952Y-35846116D01*
X194530952Y-35846116D02*
X194435714Y-35941354D01*
X194435714Y-35941354D02*
X194340476Y-35988973D01*
X209480640Y-41683332D02*
X209528259Y-41540475D01*
X209528259Y-41540475D02*
X209528259Y-41302380D01*
X209528259Y-41302380D02*
X209480640Y-41207142D01*
X209480640Y-41207142D02*
X209433020Y-41159523D01*
X209433020Y-41159523D02*
X209337782Y-41111904D01*
X209337782Y-41111904D02*
X209242544Y-41111904D01*
X209242544Y-41111904D02*
X209147306Y-41159523D01*
X209147306Y-41159523D02*
X209099687Y-41207142D01*
X209099687Y-41207142D02*
X209052068Y-41302380D01*
X209052068Y-41302380D02*
X209004449Y-41492856D01*
X209004449Y-41492856D02*
X208956830Y-41588094D01*
X208956830Y-41588094D02*
X208909211Y-41635713D01*
X208909211Y-41635713D02*
X208813973Y-41683332D01*
X208813973Y-41683332D02*
X208718735Y-41683332D01*
X208718735Y-41683332D02*
X208623497Y-41635713D01*
X208623497Y-41635713D02*
X208575878Y-41588094D01*
X208575878Y-41588094D02*
X208528259Y-41492856D01*
X208528259Y-41492856D02*
X208528259Y-41254761D01*
X208528259Y-41254761D02*
X208575878Y-41111904D01*
X208528259Y-40778570D02*
X209528259Y-40540475D01*
X209528259Y-40540475D02*
X208813973Y-40349999D01*
X208813973Y-40349999D02*
X209528259Y-40159523D01*
X209528259Y-40159523D02*
X208528259Y-39921428D01*
X209528259Y-39016666D02*
X209528259Y-39588094D01*
X209528259Y-39302380D02*
X208528259Y-39302380D01*
X208528259Y-39302380D02*
X208671116Y-39397618D01*
X208671116Y-39397618D02*
X208766354Y-39492856D01*
X208766354Y-39492856D02*
X208813973Y-39588094D01*
X128308020Y-40842857D02*
X128355640Y-40890476D01*
X128355640Y-40890476D02*
X128403259Y-41033333D01*
X128403259Y-41033333D02*
X128403259Y-41128571D01*
X128403259Y-41128571D02*
X128355640Y-41271428D01*
X128355640Y-41271428D02*
X128260401Y-41366666D01*
X128260401Y-41366666D02*
X128165163Y-41414285D01*
X128165163Y-41414285D02*
X127974687Y-41461904D01*
X127974687Y-41461904D02*
X127831830Y-41461904D01*
X127831830Y-41461904D02*
X127641354Y-41414285D01*
X127641354Y-41414285D02*
X127546116Y-41366666D01*
X127546116Y-41366666D02*
X127450878Y-41271428D01*
X127450878Y-41271428D02*
X127403259Y-41128571D01*
X127403259Y-41128571D02*
X127403259Y-41033333D01*
X127403259Y-41033333D02*
X127450878Y-40890476D01*
X127450878Y-40890476D02*
X127498497Y-40842857D01*
X127498497Y-40461904D02*
X127450878Y-40414285D01*
X127450878Y-40414285D02*
X127403259Y-40319047D01*
X127403259Y-40319047D02*
X127403259Y-40080952D01*
X127403259Y-40080952D02*
X127450878Y-39985714D01*
X127450878Y-39985714D02*
X127498497Y-39938095D01*
X127498497Y-39938095D02*
X127593735Y-39890476D01*
X127593735Y-39890476D02*
X127688973Y-39890476D01*
X127688973Y-39890476D02*
X127831830Y-39938095D01*
X127831830Y-39938095D02*
X128403259Y-40509523D01*
X128403259Y-40509523D02*
X128403259Y-39890476D01*
X128403259Y-39414285D02*
X128403259Y-39223809D01*
X128403259Y-39223809D02*
X128355640Y-39128571D01*
X128355640Y-39128571D02*
X128308020Y-39080952D01*
X128308020Y-39080952D02*
X128165163Y-38985714D01*
X128165163Y-38985714D02*
X127974687Y-38938095D01*
X127974687Y-38938095D02*
X127593735Y-38938095D01*
X127593735Y-38938095D02*
X127498497Y-38985714D01*
X127498497Y-38985714D02*
X127450878Y-39033333D01*
X127450878Y-39033333D02*
X127403259Y-39128571D01*
X127403259Y-39128571D02*
X127403259Y-39319047D01*
X127403259Y-39319047D02*
X127450878Y-39414285D01*
X127450878Y-39414285D02*
X127498497Y-39461904D01*
X127498497Y-39461904D02*
X127593735Y-39509523D01*
X127593735Y-39509523D02*
X127831830Y-39509523D01*
X127831830Y-39509523D02*
X127927068Y-39461904D01*
X127927068Y-39461904D02*
X127974687Y-39414285D01*
X127974687Y-39414285D02*
X128022306Y-39319047D01*
X128022306Y-39319047D02*
X128022306Y-39128571D01*
X128022306Y-39128571D02*
X127974687Y-39033333D01*
X127974687Y-39033333D02*
X127927068Y-38985714D01*
X127927068Y-38985714D02*
X127831830Y-38938095D01*
X174508020Y-46492857D02*
X174555640Y-46540476D01*
X174555640Y-46540476D02*
X174603259Y-46683333D01*
X174603259Y-46683333D02*
X174603259Y-46778571D01*
X174603259Y-46778571D02*
X174555640Y-46921428D01*
X174555640Y-46921428D02*
X174460401Y-47016666D01*
X174460401Y-47016666D02*
X174365163Y-47064285D01*
X174365163Y-47064285D02*
X174174687Y-47111904D01*
X174174687Y-47111904D02*
X174031830Y-47111904D01*
X174031830Y-47111904D02*
X173841354Y-47064285D01*
X173841354Y-47064285D02*
X173746116Y-47016666D01*
X173746116Y-47016666D02*
X173650878Y-46921428D01*
X173650878Y-46921428D02*
X173603259Y-46778571D01*
X173603259Y-46778571D02*
X173603259Y-46683333D01*
X173603259Y-46683333D02*
X173650878Y-46540476D01*
X173650878Y-46540476D02*
X173698497Y-46492857D01*
X173698497Y-46111904D02*
X173650878Y-46064285D01*
X173650878Y-46064285D02*
X173603259Y-45969047D01*
X173603259Y-45969047D02*
X173603259Y-45730952D01*
X173603259Y-45730952D02*
X173650878Y-45635714D01*
X173650878Y-45635714D02*
X173698497Y-45588095D01*
X173698497Y-45588095D02*
X173793735Y-45540476D01*
X173793735Y-45540476D02*
X173888973Y-45540476D01*
X173888973Y-45540476D02*
X174031830Y-45588095D01*
X174031830Y-45588095D02*
X174603259Y-46159523D01*
X174603259Y-46159523D02*
X174603259Y-45540476D01*
X173603259Y-44921428D02*
X173603259Y-44826190D01*
X173603259Y-44826190D02*
X173650878Y-44730952D01*
X173650878Y-44730952D02*
X173698497Y-44683333D01*
X173698497Y-44683333D02*
X173793735Y-44635714D01*
X173793735Y-44635714D02*
X173984211Y-44588095D01*
X173984211Y-44588095D02*
X174222306Y-44588095D01*
X174222306Y-44588095D02*
X174412782Y-44635714D01*
X174412782Y-44635714D02*
X174508020Y-44683333D01*
X174508020Y-44683333D02*
X174555640Y-44730952D01*
X174555640Y-44730952D02*
X174603259Y-44826190D01*
X174603259Y-44826190D02*
X174603259Y-44921428D01*
X174603259Y-44921428D02*
X174555640Y-45016666D01*
X174555640Y-45016666D02*
X174508020Y-45064285D01*
X174508020Y-45064285D02*
X174412782Y-45111904D01*
X174412782Y-45111904D02*
X174222306Y-45159523D01*
X174222306Y-45159523D02*
X173984211Y-45159523D01*
X173984211Y-45159523D02*
X173793735Y-45111904D01*
X173793735Y-45111904D02*
X173698497Y-45064285D01*
X173698497Y-45064285D02*
X173650878Y-45016666D01*
X173650878Y-45016666D02*
X173603259Y-44921428D01*
X151035714Y-34003259D02*
X151035714Y-33003259D01*
X151035714Y-33003259D02*
X151273809Y-33003259D01*
X151273809Y-33003259D02*
X151416666Y-33050878D01*
X151416666Y-33050878D02*
X151511904Y-33146116D01*
X151511904Y-33146116D02*
X151559523Y-33241354D01*
X151559523Y-33241354D02*
X151607142Y-33431830D01*
X151607142Y-33431830D02*
X151607142Y-33574687D01*
X151607142Y-33574687D02*
X151559523Y-33765163D01*
X151559523Y-33765163D02*
X151511904Y-33860401D01*
X151511904Y-33860401D02*
X151416666Y-33955640D01*
X151416666Y-33955640D02*
X151273809Y-34003259D01*
X151273809Y-34003259D02*
X151035714Y-34003259D01*
X151940476Y-33003259D02*
X152559523Y-33003259D01*
X152559523Y-33003259D02*
X152226190Y-33384211D01*
X152226190Y-33384211D02*
X152369047Y-33384211D01*
X152369047Y-33384211D02*
X152464285Y-33431830D01*
X152464285Y-33431830D02*
X152511904Y-33479449D01*
X152511904Y-33479449D02*
X152559523Y-33574687D01*
X152559523Y-33574687D02*
X152559523Y-33812782D01*
X152559523Y-33812782D02*
X152511904Y-33908020D01*
X152511904Y-33908020D02*
X152464285Y-33955640D01*
X152464285Y-33955640D02*
X152369047Y-34003259D01*
X152369047Y-34003259D02*
X152083333Y-34003259D01*
X152083333Y-34003259D02*
X151988095Y-33955640D01*
X151988095Y-33955640D02*
X151940476Y-33908020D01*
X152892857Y-33003259D02*
X153511904Y-33003259D01*
X153511904Y-33003259D02*
X153178571Y-33384211D01*
X153178571Y-33384211D02*
X153321428Y-33384211D01*
X153321428Y-33384211D02*
X153416666Y-33431830D01*
X153416666Y-33431830D02*
X153464285Y-33479449D01*
X153464285Y-33479449D02*
X153511904Y-33574687D01*
X153511904Y-33574687D02*
X153511904Y-33812782D01*
X153511904Y-33812782D02*
X153464285Y-33908020D01*
X153464285Y-33908020D02*
X153416666Y-33955640D01*
X153416666Y-33955640D02*
X153321428Y-34003259D01*
X153321428Y-34003259D02*
X153035714Y-34003259D01*
X153035714Y-34003259D02*
X152940476Y-33955640D01*
X152940476Y-33955640D02*
X152892857Y-33908020D01*
X141003259Y-38532857D02*
X140527068Y-38866190D01*
X141003259Y-39104285D02*
X140003259Y-39104285D01*
X140003259Y-39104285D02*
X140003259Y-38723333D01*
X140003259Y-38723333D02*
X140050878Y-38628095D01*
X140050878Y-38628095D02*
X140098497Y-38580476D01*
X140098497Y-38580476D02*
X140193735Y-38532857D01*
X140193735Y-38532857D02*
X140336592Y-38532857D01*
X140336592Y-38532857D02*
X140431830Y-38580476D01*
X140431830Y-38580476D02*
X140479449Y-38628095D01*
X140479449Y-38628095D02*
X140527068Y-38723333D01*
X140527068Y-38723333D02*
X140527068Y-39104285D01*
X140098497Y-38151904D02*
X140050878Y-38104285D01*
X140050878Y-38104285D02*
X140003259Y-38009047D01*
X140003259Y-38009047D02*
X140003259Y-37770952D01*
X140003259Y-37770952D02*
X140050878Y-37675714D01*
X140050878Y-37675714D02*
X140098497Y-37628095D01*
X140098497Y-37628095D02*
X140193735Y-37580476D01*
X140193735Y-37580476D02*
X140288973Y-37580476D01*
X140288973Y-37580476D02*
X140431830Y-37628095D01*
X140431830Y-37628095D02*
X141003259Y-38199523D01*
X141003259Y-38199523D02*
X141003259Y-37580476D01*
X140003259Y-36961428D02*
X140003259Y-36866190D01*
X140003259Y-36866190D02*
X140050878Y-36770952D01*
X140050878Y-36770952D02*
X140098497Y-36723333D01*
X140098497Y-36723333D02*
X140193735Y-36675714D01*
X140193735Y-36675714D02*
X140384211Y-36628095D01*
X140384211Y-36628095D02*
X140622306Y-36628095D01*
X140622306Y-36628095D02*
X140812782Y-36675714D01*
X140812782Y-36675714D02*
X140908020Y-36723333D01*
X140908020Y-36723333D02*
X140955640Y-36770952D01*
X140955640Y-36770952D02*
X141003259Y-36866190D01*
X141003259Y-36866190D02*
X141003259Y-36961428D01*
X141003259Y-36961428D02*
X140955640Y-37056666D01*
X140955640Y-37056666D02*
X140908020Y-37104285D01*
X140908020Y-37104285D02*
X140812782Y-37151904D01*
X140812782Y-37151904D02*
X140622306Y-37199523D01*
X140622306Y-37199523D02*
X140384211Y-37199523D01*
X140384211Y-37199523D02*
X140193735Y-37151904D01*
X140193735Y-37151904D02*
X140098497Y-37104285D01*
X140098497Y-37104285D02*
X140050878Y-37056666D01*
X140050878Y-37056666D02*
X140003259Y-36961428D01*
X144403259Y-135516666D02*
X143927068Y-135849999D01*
X144403259Y-136088094D02*
X143403259Y-136088094D01*
X143403259Y-136088094D02*
X143403259Y-135707142D01*
X143403259Y-135707142D02*
X143450878Y-135611904D01*
X143450878Y-135611904D02*
X143498497Y-135564285D01*
X143498497Y-135564285D02*
X143593735Y-135516666D01*
X143593735Y-135516666D02*
X143736592Y-135516666D01*
X143736592Y-135516666D02*
X143831830Y-135564285D01*
X143831830Y-135564285D02*
X143879449Y-135611904D01*
X143879449Y-135611904D02*
X143927068Y-135707142D01*
X143927068Y-135707142D02*
X143927068Y-136088094D01*
X143403259Y-134659523D02*
X143403259Y-134849999D01*
X143403259Y-134849999D02*
X143450878Y-134945237D01*
X143450878Y-134945237D02*
X143498497Y-134992856D01*
X143498497Y-134992856D02*
X143641354Y-135088094D01*
X143641354Y-135088094D02*
X143831830Y-135135713D01*
X143831830Y-135135713D02*
X144212782Y-135135713D01*
X144212782Y-135135713D02*
X144308020Y-135088094D01*
X144308020Y-135088094D02*
X144355640Y-135040475D01*
X144355640Y-135040475D02*
X144403259Y-134945237D01*
X144403259Y-134945237D02*
X144403259Y-134754761D01*
X144403259Y-134754761D02*
X144355640Y-134659523D01*
X144355640Y-134659523D02*
X144308020Y-134611904D01*
X144308020Y-134611904D02*
X144212782Y-134564285D01*
X144212782Y-134564285D02*
X143974687Y-134564285D01*
X143974687Y-134564285D02*
X143879449Y-134611904D01*
X143879449Y-134611904D02*
X143831830Y-134659523D01*
X143831830Y-134659523D02*
X143784211Y-134754761D01*
X143784211Y-134754761D02*
X143784211Y-134945237D01*
X143784211Y-134945237D02*
X143831830Y-135040475D01*
X143831830Y-135040475D02*
X143879449Y-135088094D01*
X143879449Y-135088094D02*
X143974687Y-135135713D01*
X126545833Y-45528020D02*
X126498214Y-45575640D01*
X126498214Y-45575640D02*
X126355357Y-45623259D01*
X126355357Y-45623259D02*
X126260119Y-45623259D01*
X126260119Y-45623259D02*
X126117262Y-45575640D01*
X126117262Y-45575640D02*
X126022024Y-45480401D01*
X126022024Y-45480401D02*
X125974405Y-45385163D01*
X125974405Y-45385163D02*
X125926786Y-45194687D01*
X125926786Y-45194687D02*
X125926786Y-45051830D01*
X125926786Y-45051830D02*
X125974405Y-44861354D01*
X125974405Y-44861354D02*
X126022024Y-44766116D01*
X126022024Y-44766116D02*
X126117262Y-44670878D01*
X126117262Y-44670878D02*
X126260119Y-44623259D01*
X126260119Y-44623259D02*
X126355357Y-44623259D01*
X126355357Y-44623259D02*
X126498214Y-44670878D01*
X126498214Y-44670878D02*
X126545833Y-44718497D01*
X126926786Y-44718497D02*
X126974405Y-44670878D01*
X126974405Y-44670878D02*
X127069643Y-44623259D01*
X127069643Y-44623259D02*
X127307738Y-44623259D01*
X127307738Y-44623259D02*
X127402976Y-44670878D01*
X127402976Y-44670878D02*
X127450595Y-44718497D01*
X127450595Y-44718497D02*
X127498214Y-44813735D01*
X127498214Y-44813735D02*
X127498214Y-44908973D01*
X127498214Y-44908973D02*
X127450595Y-45051830D01*
X127450595Y-45051830D02*
X126879167Y-45623259D01*
X126879167Y-45623259D02*
X127498214Y-45623259D01*
X146916666Y-37479449D02*
X146583333Y-37479449D01*
X146583333Y-38003259D02*
X146583333Y-37003259D01*
X146583333Y-37003259D02*
X147059523Y-37003259D01*
X147773809Y-37479449D02*
X147916666Y-37527068D01*
X147916666Y-37527068D02*
X147964285Y-37574687D01*
X147964285Y-37574687D02*
X148011904Y-37669925D01*
X148011904Y-37669925D02*
X148011904Y-37812782D01*
X148011904Y-37812782D02*
X147964285Y-37908020D01*
X147964285Y-37908020D02*
X147916666Y-37955640D01*
X147916666Y-37955640D02*
X147821428Y-38003259D01*
X147821428Y-38003259D02*
X147440476Y-38003259D01*
X147440476Y-38003259D02*
X147440476Y-37003259D01*
X147440476Y-37003259D02*
X147773809Y-37003259D01*
X147773809Y-37003259D02*
X147869047Y-37050878D01*
X147869047Y-37050878D02*
X147916666Y-37098497D01*
X147916666Y-37098497D02*
X147964285Y-37193735D01*
X147964285Y-37193735D02*
X147964285Y-37288973D01*
X147964285Y-37288973D02*
X147916666Y-37384211D01*
X147916666Y-37384211D02*
X147869047Y-37431830D01*
X147869047Y-37431830D02*
X147773809Y-37479449D01*
X147773809Y-37479449D02*
X147440476Y-37479449D01*
X148964285Y-38003259D02*
X148392857Y-38003259D01*
X148678571Y-38003259D02*
X148678571Y-37003259D01*
X148678571Y-37003259D02*
X148583333Y-37146116D01*
X148583333Y-37146116D02*
X148488095Y-37241354D01*
X148488095Y-37241354D02*
X148392857Y-37288973D01*
X138303259Y-69316666D02*
X137827068Y-69649999D01*
X138303259Y-69888094D02*
X137303259Y-69888094D01*
X137303259Y-69888094D02*
X137303259Y-69507142D01*
X137303259Y-69507142D02*
X137350878Y-69411904D01*
X137350878Y-69411904D02*
X137398497Y-69364285D01*
X137398497Y-69364285D02*
X137493735Y-69316666D01*
X137493735Y-69316666D02*
X137636592Y-69316666D01*
X137636592Y-69316666D02*
X137731830Y-69364285D01*
X137731830Y-69364285D02*
X137779449Y-69411904D01*
X137779449Y-69411904D02*
X137827068Y-69507142D01*
X137827068Y-69507142D02*
X137827068Y-69888094D01*
X138303259Y-68840475D02*
X138303259Y-68649999D01*
X138303259Y-68649999D02*
X138255640Y-68554761D01*
X138255640Y-68554761D02*
X138208020Y-68507142D01*
X138208020Y-68507142D02*
X138065163Y-68411904D01*
X138065163Y-68411904D02*
X137874687Y-68364285D01*
X137874687Y-68364285D02*
X137493735Y-68364285D01*
X137493735Y-68364285D02*
X137398497Y-68411904D01*
X137398497Y-68411904D02*
X137350878Y-68459523D01*
X137350878Y-68459523D02*
X137303259Y-68554761D01*
X137303259Y-68554761D02*
X137303259Y-68745237D01*
X137303259Y-68745237D02*
X137350878Y-68840475D01*
X137350878Y-68840475D02*
X137398497Y-68888094D01*
X137398497Y-68888094D02*
X137493735Y-68935713D01*
X137493735Y-68935713D02*
X137731830Y-68935713D01*
X137731830Y-68935713D02*
X137827068Y-68888094D01*
X137827068Y-68888094D02*
X137874687Y-68840475D01*
X137874687Y-68840475D02*
X137922306Y-68745237D01*
X137922306Y-68745237D02*
X137922306Y-68554761D01*
X137922306Y-68554761D02*
X137874687Y-68459523D01*
X137874687Y-68459523D02*
X137827068Y-68411904D01*
X137827068Y-68411904D02*
X137731830Y-68364285D01*
X151173810Y-43603259D02*
X151173810Y-42603259D01*
X152221428Y-43508020D02*
X152173809Y-43555640D01*
X152173809Y-43555640D02*
X152030952Y-43603259D01*
X152030952Y-43603259D02*
X151935714Y-43603259D01*
X151935714Y-43603259D02*
X151792857Y-43555640D01*
X151792857Y-43555640D02*
X151697619Y-43460401D01*
X151697619Y-43460401D02*
X151650000Y-43365163D01*
X151650000Y-43365163D02*
X151602381Y-43174687D01*
X151602381Y-43174687D02*
X151602381Y-43031830D01*
X151602381Y-43031830D02*
X151650000Y-42841354D01*
X151650000Y-42841354D02*
X151697619Y-42746116D01*
X151697619Y-42746116D02*
X151792857Y-42650878D01*
X151792857Y-42650878D02*
X151935714Y-42603259D01*
X151935714Y-42603259D02*
X152030952Y-42603259D01*
X152030952Y-42603259D02*
X152173809Y-42650878D01*
X152173809Y-42650878D02*
X152221428Y-42698497D01*
X153078571Y-42936592D02*
X153078571Y-43603259D01*
X152840476Y-42555640D02*
X152602381Y-43269925D01*
X152602381Y-43269925D02*
X153221428Y-43269925D01*
X127157142Y-36753259D02*
X126823809Y-36277068D01*
X126585714Y-36753259D02*
X126585714Y-35753259D01*
X126585714Y-35753259D02*
X126966666Y-35753259D01*
X126966666Y-35753259D02*
X127061904Y-35800878D01*
X127061904Y-35800878D02*
X127109523Y-35848497D01*
X127109523Y-35848497D02*
X127157142Y-35943735D01*
X127157142Y-35943735D02*
X127157142Y-36086592D01*
X127157142Y-36086592D02*
X127109523Y-36181830D01*
X127109523Y-36181830D02*
X127061904Y-36229449D01*
X127061904Y-36229449D02*
X126966666Y-36277068D01*
X126966666Y-36277068D02*
X126585714Y-36277068D01*
X127538095Y-35848497D02*
X127585714Y-35800878D01*
X127585714Y-35800878D02*
X127680952Y-35753259D01*
X127680952Y-35753259D02*
X127919047Y-35753259D01*
X127919047Y-35753259D02*
X128014285Y-35800878D01*
X128014285Y-35800878D02*
X128061904Y-35848497D01*
X128061904Y-35848497D02*
X128109523Y-35943735D01*
X128109523Y-35943735D02*
X128109523Y-36038973D01*
X128109523Y-36038973D02*
X128061904Y-36181830D01*
X128061904Y-36181830D02*
X127490476Y-36753259D01*
X127490476Y-36753259D02*
X128109523Y-36753259D01*
X129061904Y-36753259D02*
X128490476Y-36753259D01*
X128776190Y-36753259D02*
X128776190Y-35753259D01*
X128776190Y-35753259D02*
X128680952Y-35896116D01*
X128680952Y-35896116D02*
X128585714Y-35991354D01*
X128585714Y-35991354D02*
X128490476Y-36038973D01*
X143108020Y-42992857D02*
X143155640Y-43040476D01*
X143155640Y-43040476D02*
X143203259Y-43183333D01*
X143203259Y-43183333D02*
X143203259Y-43278571D01*
X143203259Y-43278571D02*
X143155640Y-43421428D01*
X143155640Y-43421428D02*
X143060401Y-43516666D01*
X143060401Y-43516666D02*
X142965163Y-43564285D01*
X142965163Y-43564285D02*
X142774687Y-43611904D01*
X142774687Y-43611904D02*
X142631830Y-43611904D01*
X142631830Y-43611904D02*
X142441354Y-43564285D01*
X142441354Y-43564285D02*
X142346116Y-43516666D01*
X142346116Y-43516666D02*
X142250878Y-43421428D01*
X142250878Y-43421428D02*
X142203259Y-43278571D01*
X142203259Y-43278571D02*
X142203259Y-43183333D01*
X142203259Y-43183333D02*
X142250878Y-43040476D01*
X142250878Y-43040476D02*
X142298497Y-42992857D01*
X142298497Y-42611904D02*
X142250878Y-42564285D01*
X142250878Y-42564285D02*
X142203259Y-42469047D01*
X142203259Y-42469047D02*
X142203259Y-42230952D01*
X142203259Y-42230952D02*
X142250878Y-42135714D01*
X142250878Y-42135714D02*
X142298497Y-42088095D01*
X142298497Y-42088095D02*
X142393735Y-42040476D01*
X142393735Y-42040476D02*
X142488973Y-42040476D01*
X142488973Y-42040476D02*
X142631830Y-42088095D01*
X142631830Y-42088095D02*
X143203259Y-42659523D01*
X143203259Y-42659523D02*
X143203259Y-42040476D01*
X142536592Y-41183333D02*
X143203259Y-41183333D01*
X142155640Y-41421428D02*
X142869925Y-41659523D01*
X142869925Y-41659523D02*
X142869925Y-41040476D01*
X67803259Y-121516666D02*
X67327068Y-121849999D01*
X67803259Y-122088094D02*
X66803259Y-122088094D01*
X66803259Y-122088094D02*
X66803259Y-121707142D01*
X66803259Y-121707142D02*
X66850878Y-121611904D01*
X66850878Y-121611904D02*
X66898497Y-121564285D01*
X66898497Y-121564285D02*
X66993735Y-121516666D01*
X66993735Y-121516666D02*
X67136592Y-121516666D01*
X67136592Y-121516666D02*
X67231830Y-121564285D01*
X67231830Y-121564285D02*
X67279449Y-121611904D01*
X67279449Y-121611904D02*
X67327068Y-121707142D01*
X67327068Y-121707142D02*
X67327068Y-122088094D01*
X66803259Y-120611904D02*
X66803259Y-121088094D01*
X66803259Y-121088094D02*
X67279449Y-121135713D01*
X67279449Y-121135713D02*
X67231830Y-121088094D01*
X67231830Y-121088094D02*
X67184211Y-120992856D01*
X67184211Y-120992856D02*
X67184211Y-120754761D01*
X67184211Y-120754761D02*
X67231830Y-120659523D01*
X67231830Y-120659523D02*
X67279449Y-120611904D01*
X67279449Y-120611904D02*
X67374687Y-120564285D01*
X67374687Y-120564285D02*
X67612782Y-120564285D01*
X67612782Y-120564285D02*
X67708020Y-120611904D01*
X67708020Y-120611904D02*
X67755640Y-120659523D01*
X67755640Y-120659523D02*
X67803259Y-120754761D01*
X67803259Y-120754761D02*
X67803259Y-120992856D01*
X67803259Y-120992856D02*
X67755640Y-121088094D01*
X67755640Y-121088094D02*
X67708020Y-121135713D01*
X122711905Y-114803259D02*
X122711905Y-113803259D01*
X122711905Y-113803259D02*
X122950000Y-113803259D01*
X122950000Y-113803259D02*
X123092857Y-113850878D01*
X123092857Y-113850878D02*
X123188095Y-113946116D01*
X123188095Y-113946116D02*
X123235714Y-114041354D01*
X123235714Y-114041354D02*
X123283333Y-114231830D01*
X123283333Y-114231830D02*
X123283333Y-114374687D01*
X123283333Y-114374687D02*
X123235714Y-114565163D01*
X123235714Y-114565163D02*
X123188095Y-114660401D01*
X123188095Y-114660401D02*
X123092857Y-114755640D01*
X123092857Y-114755640D02*
X122950000Y-114803259D01*
X122950000Y-114803259D02*
X122711905Y-114803259D01*
X124235714Y-114803259D02*
X123664286Y-114803259D01*
X123950000Y-114803259D02*
X123950000Y-113803259D01*
X123950000Y-113803259D02*
X123854762Y-113946116D01*
X123854762Y-113946116D02*
X123759524Y-114041354D01*
X123759524Y-114041354D02*
X123664286Y-114088973D01*
X197108020Y-34792857D02*
X197155640Y-34840476D01*
X197155640Y-34840476D02*
X197203259Y-34983333D01*
X197203259Y-34983333D02*
X197203259Y-35078571D01*
X197203259Y-35078571D02*
X197155640Y-35221428D01*
X197155640Y-35221428D02*
X197060401Y-35316666D01*
X197060401Y-35316666D02*
X196965163Y-35364285D01*
X196965163Y-35364285D02*
X196774687Y-35411904D01*
X196774687Y-35411904D02*
X196631830Y-35411904D01*
X196631830Y-35411904D02*
X196441354Y-35364285D01*
X196441354Y-35364285D02*
X196346116Y-35316666D01*
X196346116Y-35316666D02*
X196250878Y-35221428D01*
X196250878Y-35221428D02*
X196203259Y-35078571D01*
X196203259Y-35078571D02*
X196203259Y-34983333D01*
X196203259Y-34983333D02*
X196250878Y-34840476D01*
X196250878Y-34840476D02*
X196298497Y-34792857D01*
X197203259Y-33840476D02*
X197203259Y-34411904D01*
X197203259Y-34126190D02*
X196203259Y-34126190D01*
X196203259Y-34126190D02*
X196346116Y-34221428D01*
X196346116Y-34221428D02*
X196441354Y-34316666D01*
X196441354Y-34316666D02*
X196488973Y-34411904D01*
X196631830Y-33269047D02*
X196584211Y-33364285D01*
X196584211Y-33364285D02*
X196536592Y-33411904D01*
X196536592Y-33411904D02*
X196441354Y-33459523D01*
X196441354Y-33459523D02*
X196393735Y-33459523D01*
X196393735Y-33459523D02*
X196298497Y-33411904D01*
X196298497Y-33411904D02*
X196250878Y-33364285D01*
X196250878Y-33364285D02*
X196203259Y-33269047D01*
X196203259Y-33269047D02*
X196203259Y-33078571D01*
X196203259Y-33078571D02*
X196250878Y-32983333D01*
X196250878Y-32983333D02*
X196298497Y-32935714D01*
X196298497Y-32935714D02*
X196393735Y-32888095D01*
X196393735Y-32888095D02*
X196441354Y-32888095D01*
X196441354Y-32888095D02*
X196536592Y-32935714D01*
X196536592Y-32935714D02*
X196584211Y-32983333D01*
X196584211Y-32983333D02*
X196631830Y-33078571D01*
X196631830Y-33078571D02*
X196631830Y-33269047D01*
X196631830Y-33269047D02*
X196679449Y-33364285D01*
X196679449Y-33364285D02*
X196727068Y-33411904D01*
X196727068Y-33411904D02*
X196822306Y-33459523D01*
X196822306Y-33459523D02*
X197012782Y-33459523D01*
X197012782Y-33459523D02*
X197108020Y-33411904D01*
X197108020Y-33411904D02*
X197155640Y-33364285D01*
X197155640Y-33364285D02*
X197203259Y-33269047D01*
X197203259Y-33269047D02*
X197203259Y-33078571D01*
X197203259Y-33078571D02*
X197155640Y-32983333D01*
X197155640Y-32983333D02*
X197108020Y-32935714D01*
X197108020Y-32935714D02*
X197012782Y-32888095D01*
X197012782Y-32888095D02*
X196822306Y-32888095D01*
X196822306Y-32888095D02*
X196727068Y-32935714D01*
X196727068Y-32935714D02*
X196679449Y-32983333D01*
X196679449Y-32983333D02*
X196631830Y-33078571D01*
X133783333Y-129908020D02*
X133735714Y-129955640D01*
X133735714Y-129955640D02*
X133592857Y-130003259D01*
X133592857Y-130003259D02*
X133497619Y-130003259D01*
X133497619Y-130003259D02*
X133354762Y-129955640D01*
X133354762Y-129955640D02*
X133259524Y-129860401D01*
X133259524Y-129860401D02*
X133211905Y-129765163D01*
X133211905Y-129765163D02*
X133164286Y-129574687D01*
X133164286Y-129574687D02*
X133164286Y-129431830D01*
X133164286Y-129431830D02*
X133211905Y-129241354D01*
X133211905Y-129241354D02*
X133259524Y-129146116D01*
X133259524Y-129146116D02*
X133354762Y-129050878D01*
X133354762Y-129050878D02*
X133497619Y-129003259D01*
X133497619Y-129003259D02*
X133592857Y-129003259D01*
X133592857Y-129003259D02*
X133735714Y-129050878D01*
X133735714Y-129050878D02*
X133783333Y-129098497D01*
X134354762Y-129431830D02*
X134259524Y-129384211D01*
X134259524Y-129384211D02*
X134211905Y-129336592D01*
X134211905Y-129336592D02*
X134164286Y-129241354D01*
X134164286Y-129241354D02*
X134164286Y-129193735D01*
X134164286Y-129193735D02*
X134211905Y-129098497D01*
X134211905Y-129098497D02*
X134259524Y-129050878D01*
X134259524Y-129050878D02*
X134354762Y-129003259D01*
X134354762Y-129003259D02*
X134545238Y-129003259D01*
X134545238Y-129003259D02*
X134640476Y-129050878D01*
X134640476Y-129050878D02*
X134688095Y-129098497D01*
X134688095Y-129098497D02*
X134735714Y-129193735D01*
X134735714Y-129193735D02*
X134735714Y-129241354D01*
X134735714Y-129241354D02*
X134688095Y-129336592D01*
X134688095Y-129336592D02*
X134640476Y-129384211D01*
X134640476Y-129384211D02*
X134545238Y-129431830D01*
X134545238Y-129431830D02*
X134354762Y-129431830D01*
X134354762Y-129431830D02*
X134259524Y-129479449D01*
X134259524Y-129479449D02*
X134211905Y-129527068D01*
X134211905Y-129527068D02*
X134164286Y-129622306D01*
X134164286Y-129622306D02*
X134164286Y-129812782D01*
X134164286Y-129812782D02*
X134211905Y-129908020D01*
X134211905Y-129908020D02*
X134259524Y-129955640D01*
X134259524Y-129955640D02*
X134354762Y-130003259D01*
X134354762Y-130003259D02*
X134545238Y-130003259D01*
X134545238Y-130003259D02*
X134640476Y-129955640D01*
X134640476Y-129955640D02*
X134688095Y-129908020D01*
X134688095Y-129908020D02*
X134735714Y-129812782D01*
X134735714Y-129812782D02*
X134735714Y-129622306D01*
X134735714Y-129622306D02*
X134688095Y-129527068D01*
X134688095Y-129527068D02*
X134640476Y-129479449D01*
X134640476Y-129479449D02*
X134545238Y-129431830D01*
X158908020Y-40892857D02*
X158955640Y-40940476D01*
X158955640Y-40940476D02*
X159003259Y-41083333D01*
X159003259Y-41083333D02*
X159003259Y-41178571D01*
X159003259Y-41178571D02*
X158955640Y-41321428D01*
X158955640Y-41321428D02*
X158860401Y-41416666D01*
X158860401Y-41416666D02*
X158765163Y-41464285D01*
X158765163Y-41464285D02*
X158574687Y-41511904D01*
X158574687Y-41511904D02*
X158431830Y-41511904D01*
X158431830Y-41511904D02*
X158241354Y-41464285D01*
X158241354Y-41464285D02*
X158146116Y-41416666D01*
X158146116Y-41416666D02*
X158050878Y-41321428D01*
X158050878Y-41321428D02*
X158003259Y-41178571D01*
X158003259Y-41178571D02*
X158003259Y-41083333D01*
X158003259Y-41083333D02*
X158050878Y-40940476D01*
X158050878Y-40940476D02*
X158098497Y-40892857D01*
X158098497Y-40511904D02*
X158050878Y-40464285D01*
X158050878Y-40464285D02*
X158003259Y-40369047D01*
X158003259Y-40369047D02*
X158003259Y-40130952D01*
X158003259Y-40130952D02*
X158050878Y-40035714D01*
X158050878Y-40035714D02*
X158098497Y-39988095D01*
X158098497Y-39988095D02*
X158193735Y-39940476D01*
X158193735Y-39940476D02*
X158288973Y-39940476D01*
X158288973Y-39940476D02*
X158431830Y-39988095D01*
X158431830Y-39988095D02*
X159003259Y-40559523D01*
X159003259Y-40559523D02*
X159003259Y-39940476D01*
X158003259Y-39607142D02*
X158003259Y-38940476D01*
X158003259Y-38940476D02*
X159003259Y-39369047D01*
X144708020Y-42955357D02*
X144755640Y-43002976D01*
X144755640Y-43002976D02*
X144803259Y-43145833D01*
X144803259Y-43145833D02*
X144803259Y-43241071D01*
X144803259Y-43241071D02*
X144755640Y-43383928D01*
X144755640Y-43383928D02*
X144660401Y-43479166D01*
X144660401Y-43479166D02*
X144565163Y-43526785D01*
X144565163Y-43526785D02*
X144374687Y-43574404D01*
X144374687Y-43574404D02*
X144231830Y-43574404D01*
X144231830Y-43574404D02*
X144041354Y-43526785D01*
X144041354Y-43526785D02*
X143946116Y-43479166D01*
X143946116Y-43479166D02*
X143850878Y-43383928D01*
X143850878Y-43383928D02*
X143803259Y-43241071D01*
X143803259Y-43241071D02*
X143803259Y-43145833D01*
X143803259Y-43145833D02*
X143850878Y-43002976D01*
X143850878Y-43002976D02*
X143898497Y-42955357D01*
X143898497Y-42574404D02*
X143850878Y-42526785D01*
X143850878Y-42526785D02*
X143803259Y-42431547D01*
X143803259Y-42431547D02*
X143803259Y-42193452D01*
X143803259Y-42193452D02*
X143850878Y-42098214D01*
X143850878Y-42098214D02*
X143898497Y-42050595D01*
X143898497Y-42050595D02*
X143993735Y-42002976D01*
X143993735Y-42002976D02*
X144088973Y-42002976D01*
X144088973Y-42002976D02*
X144231830Y-42050595D01*
X144231830Y-42050595D02*
X144803259Y-42622023D01*
X144803259Y-42622023D02*
X144803259Y-42002976D01*
X143898497Y-41622023D02*
X143850878Y-41574404D01*
X143850878Y-41574404D02*
X143803259Y-41479166D01*
X143803259Y-41479166D02*
X143803259Y-41241071D01*
X143803259Y-41241071D02*
X143850878Y-41145833D01*
X143850878Y-41145833D02*
X143898497Y-41098214D01*
X143898497Y-41098214D02*
X143993735Y-41050595D01*
X143993735Y-41050595D02*
X144088973Y-41050595D01*
X144088973Y-41050595D02*
X144231830Y-41098214D01*
X144231830Y-41098214D02*
X144803259Y-41669642D01*
X144803259Y-41669642D02*
X144803259Y-41050595D01*
D11*
X144020000Y-33190000D02*
X142620000Y-33190000D01*
X142620000Y-36190000D01*
X144020000Y-36190000D01*
X144020000Y-33190000D01*
D12*
X138792224Y-95027500D02*
X138282776Y-95027500D01*
X138792224Y-96072500D02*
X138282776Y-96072500D01*
D11*
X108250000Y-116550000D02*
X108250000Y-116550000D01*
X108350000Y-116550000D02*
X108350000Y-116550000D01*
D13*
X109800000Y-120200000D02*
X109800000Y-117600000D01*
X110600000Y-121800000D02*
X114800000Y-121800000D01*
X110800000Y-115800000D02*
X115200000Y-115800000D01*
X115800000Y-120000000D02*
X115800000Y-117600000D01*
D11*
X108250000Y-116550000D02*
G75*
G02*
X108350000Y-116550000I50000J0D01*
G01*
X108350000Y-116550000D02*
G75*
G02*
X108250000Y-116550000I-50000J0D01*
G01*
X213148750Y-104175000D02*
X226098750Y-104175000D01*
X213148750Y-109175000D02*
X213148750Y-104175000D01*
X213148750Y-118175000D02*
X213148750Y-117575000D01*
X225123750Y-118175000D02*
X213148750Y-118175000D01*
X228598750Y-118175000D02*
X228598750Y-105675000D01*
D13*
X229123750Y-109235000D02*
X229123750Y-109235000D01*
X229323750Y-109235000D02*
X229323750Y-109235000D01*
X229123750Y-109235000D02*
G75*
G02*
X229323750Y-109235000I100000J0D01*
G01*
X229323750Y-109235000D02*
G75*
G02*
X229123750Y-109235000I-100000J0D01*
G01*
D12*
X124692224Y-111927500D02*
X124182776Y-111927500D01*
X124692224Y-112972500D02*
X124182776Y-112972500D01*
X130040000Y-105240000D02*
X130490000Y-105240000D01*
X130040000Y-105690000D02*
X130040000Y-105240000D01*
X130040000Y-112010000D02*
X130040000Y-112460000D01*
X130040000Y-112460000D02*
X130490000Y-112460000D01*
X137260000Y-105240000D02*
X136810000Y-105240000D01*
X137260000Y-105690000D02*
X137260000Y-105240000D01*
X137260000Y-112010000D02*
X137260000Y-112460000D01*
X137260000Y-112460000D02*
X136810000Y-112460000D01*
X130490000Y-113050000D02*
X130020000Y-113390000D01*
X130020000Y-112710000D01*
X130490000Y-113050000D01*
G36*
X130490000Y-113050000D02*
G01*
X130020000Y-113390000D01*
X130020000Y-112710000D01*
X130490000Y-113050000D01*
G37*
X219327500Y-36682776D02*
X219327500Y-37192224D01*
X220372500Y-36682776D02*
X220372500Y-37192224D01*
X196415000Y-44338748D02*
X196415000Y-44861252D01*
X197885000Y-44338748D02*
X197885000Y-44861252D01*
X68915000Y-121611252D02*
X68915000Y-121088748D01*
X70385000Y-121611252D02*
X70385000Y-121088748D01*
X135527500Y-84082776D02*
X135527500Y-84592224D01*
X136572500Y-84082776D02*
X136572500Y-84592224D01*
D11*
X132150000Y-117075000D02*
X128950000Y-117075000D01*
X128950000Y-121075000D01*
X132150000Y-121075000D01*
X132150000Y-117075000D01*
D12*
X151982776Y-34577500D02*
X152492224Y-34577500D01*
X151982776Y-35622500D02*
X152492224Y-35622500D01*
X127302500Y-118703733D02*
X127302500Y-118996267D01*
X128322500Y-118703733D02*
X128322500Y-118996267D01*
X135992224Y-135227500D02*
X135482776Y-135227500D01*
X135992224Y-136272500D02*
X135482776Y-136272500D01*
X173732776Y-42290000D02*
X174242224Y-42290000D01*
X173732776Y-43335000D02*
X174242224Y-43335000D01*
X131682776Y-135227500D02*
X132192224Y-135227500D01*
X131682776Y-136272500D02*
X132192224Y-136272500D01*
X196627500Y-40345276D02*
X196627500Y-40854724D01*
X197672500Y-40345276D02*
X197672500Y-40854724D01*
X118315000Y-118688748D02*
X118315000Y-119211252D01*
X119785000Y-118688748D02*
X119785000Y-119211252D01*
D11*
X141400000Y-34990000D02*
X128450000Y-34990000D01*
X128450000Y-27590000D01*
X141400000Y-27590000D01*
X141400000Y-34990000D01*
D12*
X176127500Y-41595276D02*
X176127500Y-42104724D01*
X177172500Y-41595276D02*
X177172500Y-42104724D01*
X223995276Y-121427500D02*
X224504724Y-121427500D01*
X223995276Y-122472500D02*
X224504724Y-122472500D01*
D11*
X113980000Y-94000000D02*
X116520000Y-94000000D01*
X113980000Y-109240000D02*
X113980000Y-94000000D01*
X116520000Y-94000000D02*
X116520000Y-109240000D01*
X116520000Y-109240000D02*
X113980000Y-109240000D01*
D13*
X113550000Y-95220000D02*
G75*
G02*
X113450000Y-95220000I-50000J0D01*
G01*
X113450000Y-95220000D02*
G75*
G02*
X113550000Y-95220000I50000J0D01*
G01*
X179900000Y-46500000D02*
X179900000Y-43900000D01*
X180700000Y-48100000D02*
X184900000Y-48100000D01*
X180900000Y-42100000D02*
X185300000Y-42100000D01*
X185900000Y-46300000D02*
X185900000Y-43900000D01*
D12*
X198377500Y-38854724D02*
X198377500Y-38345276D01*
X199422500Y-38854724D02*
X199422500Y-38345276D01*
X221577500Y-39104724D02*
X221577500Y-38595276D01*
X222622500Y-39104724D02*
X222622500Y-38595276D01*
X194654724Y-41077500D02*
X194145276Y-41077500D01*
X194654724Y-42122500D02*
X194145276Y-42122500D01*
X219115000Y-40838748D02*
X219115000Y-41361252D01*
X220585000Y-40838748D02*
X220585000Y-41361252D01*
X130696267Y-121765000D02*
X130403733Y-121765000D01*
X130696267Y-122785000D02*
X130403733Y-122785000D01*
X136215000Y-132854724D02*
X136215000Y-132345276D01*
X137260000Y-132854724D02*
X137260000Y-132345276D01*
X195645276Y-37077500D02*
X196154724Y-37077500D01*
X195645276Y-38122500D02*
X196154724Y-38122500D01*
D13*
X202625000Y-34150000D02*
X202625000Y-36550000D01*
D14*
X202625000Y-44050000D02*
X202625000Y-46550000D01*
X202625000Y-46550000D02*
X206625000Y-46550000D01*
D13*
X206625000Y-34150000D02*
X202625000Y-34150000D01*
X212025000Y-46550000D02*
X216025000Y-46550000D01*
X216025000Y-34150000D02*
X212025000Y-34150000D01*
X216025000Y-36450000D02*
X216025000Y-34150000D01*
X216025000Y-41550000D02*
X216025000Y-39150000D01*
X216025000Y-46550000D02*
X216025000Y-43950000D01*
X217525000Y-37850000D02*
X217525000Y-37850000D01*
X217625000Y-37850000D02*
X217625000Y-37850000D01*
X217625000Y-37850000D02*
X217625000Y-37850000D01*
X217525000Y-37850000D02*
G75*
G02*
X217625000Y-37850000I50000J0D01*
G01*
X217525000Y-37850000D02*
G75*
G02*
X217625000Y-37850000I50000J0D01*
G01*
X217625000Y-37850000D02*
G75*
G02*
X217525000Y-37850000I-50000J0D01*
G01*
D12*
X129115000Y-40448752D02*
X129115000Y-39926248D01*
X130585000Y-40448752D02*
X130585000Y-39926248D01*
X175915000Y-45588748D02*
X175915000Y-46111252D01*
X177385000Y-45588748D02*
X177385000Y-46111252D01*
X138197500Y-37735276D02*
X138197500Y-38244724D01*
X139242500Y-37735276D02*
X139242500Y-38244724D01*
X145127500Y-135604724D02*
X145127500Y-135095276D01*
X146172500Y-135604724D02*
X146172500Y-135095276D01*
X126451248Y-46115000D02*
X126973752Y-46115000D01*
X126451248Y-47585000D02*
X126973752Y-47585000D01*
X135627500Y-68607776D02*
X135627500Y-69117224D01*
X136672500Y-68607776D02*
X136672500Y-69117224D01*
D13*
X150300000Y-38600000D02*
X151500000Y-38600000D01*
X151850000Y-38650000D02*
X152450000Y-38650000D01*
X151850000Y-41550000D02*
X151850000Y-38650000D01*
X152450000Y-38650000D02*
X152450000Y-41550000D01*
X152450000Y-41550000D02*
X151850000Y-41550000D01*
D12*
X130665276Y-35767500D02*
X131174724Y-35767500D01*
X130665276Y-36812500D02*
X131174724Y-36812500D01*
X148115000Y-41801248D02*
X148115000Y-42323752D01*
X149585000Y-41801248D02*
X149585000Y-42323752D01*
X71327500Y-120895276D02*
X71327500Y-121404724D01*
X72372500Y-120895276D02*
X72372500Y-121404724D01*
X198165000Y-34861252D02*
X198165000Y-34338748D01*
X199635000Y-34861252D02*
X199635000Y-34338748D01*
X133402500Y-133011252D02*
X133402500Y-132488748D01*
X134872500Y-133011252D02*
X134872500Y-132488748D01*
X154915000Y-39888748D02*
X154915000Y-40411252D01*
X156385000Y-39888748D02*
X156385000Y-40411252D01*
X145615000Y-41801248D02*
X145615000Y-42323752D01*
X147085000Y-41801248D02*
X147085000Y-42323752D01*
D15*
X201825000Y-37850000D03*
X201825000Y-40350000D03*
X201825000Y-42850000D03*
D16*
X216325000Y-37850000D03*
D15*
X216325000Y-42850000D03*
D17*
X209325000Y-34750000D03*
X209325000Y-45950000D03*
%LPC*%
D18*
X143320000Y-33890000D03*
X143320000Y-35490000D03*
D19*
X139450000Y-95550000D03*
X137625000Y-95550000D03*
D20*
X204070000Y-64350000D03*
D21*
X205340000Y-61810000D03*
D22*
X209150000Y-64350000D03*
D21*
X211690000Y-59270000D03*
D20*
X214230000Y-64350000D03*
X167070000Y-101350000D03*
D21*
X168340000Y-98810000D03*
D22*
X172150000Y-101350000D03*
D21*
X174690000Y-96270000D03*
D20*
X177230000Y-101350000D03*
D23*
X67650000Y-31350000D03*
D16*
X109550000Y-116550000D03*
D15*
X116050000Y-116550000D03*
X109550000Y-121050000D03*
X116050000Y-121050000D03*
D24*
X213548750Y-110425000D03*
X213548750Y-116125000D03*
D25*
X227598750Y-104575000D03*
X226598750Y-117725000D03*
D26*
X224098750Y-109235000D03*
X223698750Y-110335000D03*
X224098750Y-111435000D03*
X224298750Y-112535000D03*
X224098750Y-113635000D03*
X224298750Y-114735000D03*
X224098750Y-115835000D03*
X224098750Y-116935000D03*
D20*
X72570000Y-41350000D03*
D21*
X73840000Y-38810000D03*
D22*
X77650000Y-41350000D03*
D21*
X80190000Y-36270000D03*
D20*
X82730000Y-41350000D03*
D23*
X67650000Y-148050000D03*
D20*
X72570000Y-137850000D03*
D21*
X73840000Y-135310000D03*
D22*
X77650000Y-137850000D03*
D21*
X80190000Y-132770000D03*
D20*
X82730000Y-137850000D03*
X185570000Y-138350000D03*
D21*
X186840000Y-135810000D03*
D22*
X190650000Y-138350000D03*
D21*
X193190000Y-133270000D03*
D20*
X195730000Y-138350000D03*
X148570000Y-82850000D03*
D21*
X149840000Y-80310000D03*
D22*
X153650000Y-82850000D03*
D21*
X156190000Y-77770000D03*
D20*
X158730000Y-82850000D03*
D19*
X125350000Y-112450000D03*
X123525000Y-112450000D03*
D23*
X226950000Y-148050000D03*
D20*
X91070000Y-137850000D03*
D21*
X92340000Y-135310000D03*
D22*
X96150000Y-137850000D03*
D21*
X98690000Y-132770000D03*
D20*
X101230000Y-137850000D03*
D27*
X130900000Y-113012500D03*
X131400000Y-113012500D03*
X131900000Y-113012500D03*
X132400000Y-113012500D03*
X132900000Y-113012500D03*
X133400000Y-113012500D03*
X133900000Y-113012500D03*
X134400000Y-113012500D03*
X134900000Y-113012500D03*
X135400000Y-113012500D03*
X135900000Y-113012500D03*
X136400000Y-113012500D03*
D28*
X137812500Y-111600000D03*
X137812500Y-111100000D03*
X137812500Y-110600000D03*
X137812500Y-110100000D03*
X137812500Y-109600000D03*
X137812500Y-109100000D03*
X137812500Y-108600000D03*
X137812500Y-108100000D03*
X137812500Y-107600000D03*
X137812500Y-107100000D03*
X137812500Y-106600000D03*
X137812500Y-106100000D03*
D27*
X136400000Y-104687500D03*
X135900000Y-104687500D03*
X135400000Y-104687500D03*
X134900000Y-104687500D03*
X134400000Y-104687500D03*
X133900000Y-104687500D03*
X133400000Y-104687500D03*
X132900000Y-104687500D03*
X132400000Y-104687500D03*
X131900000Y-104687500D03*
X131400000Y-104687500D03*
X130900000Y-104687500D03*
D28*
X129487500Y-106100000D03*
X129487500Y-106600000D03*
X129487500Y-107100000D03*
X129487500Y-107600000D03*
X129487500Y-108100000D03*
X129487500Y-108600000D03*
X129487500Y-109100000D03*
X129487500Y-109600000D03*
X129487500Y-110100000D03*
X129487500Y-110600000D03*
X129487500Y-111100000D03*
X129487500Y-111600000D03*
D29*
X219850000Y-36025000D03*
X219850000Y-37850000D03*
D30*
X197150000Y-43562500D03*
X197150000Y-45637500D03*
D31*
X69650000Y-122387500D03*
X69650000Y-120312500D03*
D29*
X136050000Y-83425000D03*
X136050000Y-85250000D03*
D32*
X129750000Y-117975000D03*
X129750000Y-120175000D03*
X131350000Y-120175000D03*
X131350000Y-117975000D03*
D33*
X138737500Y-133550000D03*
X138737500Y-135650000D03*
D34*
X151325000Y-35100000D03*
X153150000Y-35100000D03*
D20*
X72570000Y-64350000D03*
D21*
X73840000Y-61810000D03*
D22*
X77650000Y-64350000D03*
D21*
X80190000Y-59270000D03*
D20*
X82730000Y-64350000D03*
X204070000Y-130350000D03*
D21*
X205340000Y-127810000D03*
D22*
X209150000Y-130350000D03*
D21*
X211690000Y-125270000D03*
D20*
X214230000Y-130350000D03*
D35*
X127812500Y-117987500D03*
X127812500Y-119712500D03*
D19*
X136650000Y-135750000D03*
X134825000Y-135750000D03*
D34*
X173075000Y-42812500D03*
X174900000Y-42812500D03*
X131025000Y-135750000D03*
X132850000Y-135750000D03*
D29*
X197150000Y-39687500D03*
X197150000Y-41512500D03*
D30*
X119050000Y-117912500D03*
X119050000Y-119987500D03*
D36*
X138350000Y-34240000D03*
X137550000Y-34240000D03*
X136250000Y-34240000D03*
X135250000Y-34240000D03*
X134750000Y-34240000D03*
X133750000Y-34240000D03*
X132450000Y-34240000D03*
X131650000Y-34240000D03*
X131950000Y-34240000D03*
X132750000Y-34240000D03*
X133250000Y-34240000D03*
X134250000Y-34240000D03*
X135750000Y-34240000D03*
X136750000Y-34240000D03*
X137250000Y-34240000D03*
X138050000Y-34240000D03*
D37*
X140620000Y-33090000D03*
D38*
X140620000Y-29090000D03*
D37*
X129380000Y-33090000D03*
D38*
X129380000Y-29090000D03*
D20*
X91070000Y-82850000D03*
D21*
X92340000Y-80310000D03*
D22*
X96150000Y-82850000D03*
D21*
X98690000Y-77770000D03*
D20*
X101230000Y-82850000D03*
D29*
X176650000Y-40937500D03*
X176650000Y-42762500D03*
D34*
X223337500Y-121950000D03*
X225162500Y-121950000D03*
D39*
X115250000Y-95270000D03*
X115250000Y-97810000D03*
X115250000Y-100350000D03*
X115250000Y-102890000D03*
X115250000Y-105430000D03*
X115250000Y-107970000D03*
D16*
X179650000Y-42850000D03*
D15*
X186150000Y-42850000D03*
X179650000Y-47350000D03*
X186150000Y-47350000D03*
D23*
X92650000Y-99750000D03*
D40*
X198900000Y-39512500D03*
X198900000Y-37687500D03*
X222100000Y-39762500D03*
X222100000Y-37937500D03*
D19*
X195312500Y-41600000D03*
X193487500Y-41600000D03*
D30*
X219850000Y-40062500D03*
X219850000Y-42137500D03*
D20*
X91070000Y-64350000D03*
D21*
X92340000Y-61810000D03*
D22*
X96150000Y-64350000D03*
D21*
X98690000Y-59270000D03*
D20*
X101230000Y-64350000D03*
D23*
X226950000Y-31350000D03*
D41*
X131412500Y-122275000D03*
X129687500Y-122275000D03*
D20*
X167070000Y-82850000D03*
D21*
X168340000Y-80310000D03*
D22*
X172150000Y-82850000D03*
D21*
X174690000Y-77770000D03*
D20*
X177230000Y-82850000D03*
X157570000Y-138350000D03*
D21*
X158840000Y-135810000D03*
D22*
X162650000Y-138350000D03*
D21*
X165190000Y-133270000D03*
D20*
X167730000Y-138350000D03*
X148570000Y-119850000D03*
D21*
X149840000Y-117310000D03*
D22*
X153650000Y-119850000D03*
D21*
X156190000Y-114770000D03*
D20*
X158730000Y-119850000D03*
X91070000Y-41350000D03*
D21*
X92340000Y-38810000D03*
D22*
X96150000Y-41350000D03*
D21*
X98690000Y-36270000D03*
D20*
X101230000Y-41350000D03*
D40*
X136737500Y-133512500D03*
X136737500Y-131687500D03*
D20*
X185570000Y-82850000D03*
D21*
X186840000Y-80310000D03*
D22*
X190650000Y-82850000D03*
D21*
X193190000Y-77770000D03*
D20*
X195730000Y-82850000D03*
X185570000Y-64350000D03*
D21*
X186840000Y-61810000D03*
D22*
X190650000Y-64350000D03*
D21*
X193190000Y-59270000D03*
D20*
X195730000Y-64350000D03*
X167070000Y-119850000D03*
D21*
X168340000Y-117310000D03*
D22*
X172150000Y-119850000D03*
D21*
X174690000Y-114770000D03*
D20*
X177230000Y-119850000D03*
D34*
X194987500Y-37600000D03*
X196812500Y-37600000D03*
D15*
X201825000Y-37850000D03*
X201825000Y-40350000D03*
X201825000Y-42850000D03*
D16*
X216325000Y-37850000D03*
D15*
X216325000Y-42850000D03*
D17*
X209325000Y-34750000D03*
X209325000Y-45950000D03*
D31*
X129850000Y-41225000D03*
X129850000Y-39150000D03*
D30*
X176650000Y-44812500D03*
X176650000Y-46887500D03*
D42*
X151100000Y-37100000D03*
X153200000Y-37100000D03*
D20*
X109570000Y-41350000D03*
D21*
X110840000Y-38810000D03*
D22*
X114650000Y-41350000D03*
D21*
X117190000Y-36270000D03*
D20*
X119730000Y-41350000D03*
X185570000Y-119850000D03*
D21*
X186840000Y-117310000D03*
D22*
X190650000Y-119850000D03*
D21*
X193190000Y-114770000D03*
D20*
X195730000Y-119850000D03*
D29*
X138720000Y-37077500D03*
X138720000Y-38902500D03*
D20*
X148570000Y-101350000D03*
D21*
X149840000Y-98810000D03*
D22*
X153650000Y-101350000D03*
D21*
X156190000Y-96270000D03*
D20*
X158730000Y-101350000D03*
X109570000Y-137850000D03*
D21*
X110840000Y-135310000D03*
D22*
X114650000Y-137850000D03*
D21*
X117190000Y-132770000D03*
D20*
X119730000Y-137850000D03*
D43*
X80650000Y-114150000D03*
D44*
X78650000Y-114150000D03*
D23*
X202950000Y-104150000D03*
D20*
X204070000Y-92350000D03*
D21*
X205340000Y-89810000D03*
D22*
X209150000Y-92350000D03*
D21*
X211690000Y-87270000D03*
D20*
X214230000Y-92350000D03*
D40*
X145650000Y-136262500D03*
X145650000Y-134437500D03*
D20*
X167070000Y-64350000D03*
D21*
X168340000Y-61810000D03*
D22*
X172150000Y-64350000D03*
D21*
X174690000Y-59270000D03*
D20*
X177230000Y-64350000D03*
X148570000Y-64350000D03*
D21*
X149840000Y-61810000D03*
D22*
X153650000Y-64350000D03*
D21*
X156190000Y-59270000D03*
D20*
X158730000Y-64350000D03*
D45*
X125675000Y-46850000D03*
X127750000Y-46850000D03*
D20*
X109570000Y-82850000D03*
D21*
X110840000Y-80310000D03*
D22*
X114650000Y-82850000D03*
D21*
X117190000Y-77770000D03*
D20*
X119730000Y-82850000D03*
D46*
X146800000Y-39150000D03*
X148400000Y-39150000D03*
D29*
X136150000Y-67950000D03*
X136150000Y-69775000D03*
D47*
X150900000Y-39150000D03*
X150900000Y-40100000D03*
X150900000Y-41050000D03*
X153400000Y-41050000D03*
X153400000Y-39150000D03*
D20*
X91070000Y-119350000D03*
D21*
X92340000Y-116810000D03*
D22*
X96150000Y-119350000D03*
D21*
X98690000Y-114270000D03*
D20*
X101230000Y-119350000D03*
X185570000Y-101350000D03*
D21*
X186840000Y-98810000D03*
D22*
X190650000Y-101350000D03*
D21*
X193190000Y-96270000D03*
D20*
X195730000Y-101350000D03*
D34*
X130007500Y-36290000D03*
X131832500Y-36290000D03*
D20*
X109570000Y-64350000D03*
D21*
X110840000Y-61810000D03*
D22*
X114650000Y-64350000D03*
D21*
X117190000Y-59270000D03*
D20*
X119730000Y-64350000D03*
D30*
X148850000Y-41025000D03*
X148850000Y-43100000D03*
D29*
X71850000Y-120237500D03*
X71850000Y-122062500D03*
D20*
X72570000Y-82850000D03*
D21*
X73840000Y-80310000D03*
D22*
X77650000Y-82850000D03*
D21*
X80190000Y-77770000D03*
D20*
X82730000Y-82850000D03*
D42*
X125350000Y-114350000D03*
X127450000Y-114350000D03*
D31*
X198900000Y-35637500D03*
X198900000Y-33562500D03*
X134137500Y-133787500D03*
X134137500Y-131712500D03*
D30*
X155650000Y-39112500D03*
X155650000Y-41187500D03*
X146350000Y-41025000D03*
X146350000Y-43100000D03*
D48*
X134137500Y-139787500D03*
X136637500Y-139787500D03*
X139137500Y-139787500D03*
%LPD*%
M02*
