M48
; DRILL file {KiCad 8.0.3} date 2024-08-13T11:45:31+0300
; FORMAT={-:-/ absolute / metric / decimal}
; #@! TF.CreationDate,2024-08-13T11:45:31+03:00
; #@! TF.GenerationSoftware,Kicad,Pcbnew,8.0.3
; #@! TF.FileFunction,Plated,1,4,PTH
FMAT,2
METRIC
; #@! TA.AperFunction,Plated,PTH,ViaDrill
T1C0.300
; #@! TA.AperFunction,Plated,PTH,ComponentDrill
T2C0.600
; #@! TA.AperFunction,Plated,PTH,ComponentDrill
T3C0.700
; #@! TA.AperFunction,Plated,PTH,ComponentDrill
T4C0.900
; #@! TA.AperFunction,Plated,PTH,ComponentDrill
T5C1.000
; #@! TA.AperFunction,Plated,PTH,ComponentDrill
T6C1.020
; #@! TA.AperFunction,Plated,PTH,ComponentDrill
T7C2.900
; #@! TA.AperFunction,Plated,PTH,ComponentDrill
T8C3.000
%
G90
G05
T1
X70.45Y-118.55
X70.75Y-99.55
X71.45Y-118.55
X73.925Y-96.425
X74.85Y-120.55
X80.65Y-50.95
X80.65Y-56.25
X80.65Y-68.55
X80.65Y-72.35
X80.65Y-87.65
X85.35Y-125.45
X88.75Y-126.45
X99.05Y-88.55
X99.05Y-92.65
X99.15Y-50.15
X99.15Y-56.25
X99.15Y-68.95
X99.15Y-72.35
X99.15Y-125.15
X104.25Y-97.15
X104.25Y-104.95
X117.65Y-50.35
X117.65Y-56.25
X117.65Y-68.75
X117.65Y-72.35
X118.4Y-87.85
X118.4Y-92.85
X120.65Y-125.95
X122.15Y-112.45
X122.85Y-95.35
X123.15Y-105.45
X123.85Y-94.65
X123.85Y-117.912
X124.4Y-105.5
X124.45Y-133.95
X124.85Y-93.95
X125.6Y-105.5
X125.75Y-48.75
X125.85Y-93.35
X126.55Y-119.75
X126.85Y-50.15
X126.85Y-51.95
X126.85Y-105.55
X127.05Y-53.15
X127.25Y-109.6
X127.55Y-94.35
X127.55Y-110.75
X127.55Y-121.45
X127.65Y-92.35
X127.65Y-111.95
X128.05Y-48.75
X128.65Y-52.55
X129.65Y-103.95
X130.65Y-102.95
X130.725Y-109.562
X131.781Y-39.081
X131.95Y-41.212
X132.45Y-109.55
X133.55Y-116.25
X133.85Y-106.15
X133.85Y-107.95
X134.05Y-109.75
X134.05Y-110.95
X134.15Y-115.55
X134.15Y-117.15
X134.25Y-36.36
X134.25Y-126.15
X134.45Y-41.55
X135.35Y-41.55
X135.57Y-36.34
X135.65Y-101.55
X136.45Y-109.35
X136.817Y-81.433
X136.85Y-66.15
X137.15Y-100.65
X137.25Y-36.79
X138.05Y-104.55
X138.27Y-35.54
X138.375Y-99.325
X138.45Y-131.688
X138.75Y-50.15
X138.75Y-51.35
X138.75Y-52.55
X138.75Y-53.55
X139.45Y-105.85
X142.25Y-116.55
X145.6Y-39.15
X145.65Y-143.85
X146.35Y-44.8
X148.85Y-44.8
X154.85Y-35.1
X155.65Y-37.65
X155.65Y-42.55
X156.65Y-87.15
X156.65Y-89.55
X157.15Y-39.15
X157.15Y-41.15
X157.15Y-70.15
X157.15Y-74.35
X157.15Y-102.25
X157.15Y-104.95
X157.15Y-106.85
X157.35Y-124.0
X157.45Y-128.35
X174.9Y-103.85
X174.9Y-106.1
X175.05Y-40.95
X175.15Y-69.55
X175.15Y-73.75
X175.4Y-87.15
X175.4Y-89.55
X193.65Y-87.15
X193.65Y-89.6
X193.65Y-92.6
X193.65Y-124.05
X193.65Y-128.05
X194.15Y-69.95
X194.15Y-73.75
X195.487Y-39.688
X199.75Y-106.95
X199.75Y-112.85
X212.15Y-97.35
X214.95Y-106.75
X214.95Y-108.15
X216.986Y-111.95
X218.05Y-118.95
X219.85Y-34.35
X220.986Y-112.55
X220.986Y-115.8
X225.25Y-119.95
X225.75Y-105.05
X225.95Y-114.75
X226.05Y-112.55
X227.55Y-116.25
T3
X78.65Y-114.15
X80.65Y-114.15
T4
X134.137Y-139.787
X136.637Y-139.787
X139.137Y-139.787
T5
X109.55Y-116.55
X109.55Y-121.05
X116.05Y-116.55
X116.05Y-121.05
X179.65Y-42.85
X179.65Y-47.35
X186.15Y-42.85
X186.15Y-47.35
X201.825Y-37.85
X201.825Y-40.35
X201.825Y-42.85
X216.325Y-37.85
X216.325Y-42.85
T6
X115.25Y-95.27
X115.25Y-97.81
X115.25Y-100.35
X115.25Y-102.89
X115.25Y-105.43
X115.25Y-107.97
T7
X209.325Y-34.75
X209.325Y-45.95
T8
X67.65Y-31.35
X67.65Y-148.05
X92.65Y-99.75
X202.95Y-104.15
X226.95Y-31.35
X226.95Y-148.05
T2
X129.38Y-29.69G85X129.38Y-28.49
G05
X129.38Y-33.49G85X129.38Y-32.69
G05
X140.62Y-29.69G85X140.62Y-28.49
G05
X140.62Y-33.49G85X140.62Y-32.69
G05
M30
