%TF.GenerationSoftware,KiCad,Pcbnew,8.0.3*%
%TF.CreationDate,2024-08-13T11:45:48+03:00*%
%TF.ProjectId,Keyboard_stm32,4b657962-6f61-4726-945f-73746d33322e,rev?*%
%TF.SameCoordinates,Original*%
%TF.FileFunction,Drillmap*%
%TF.FilePolarity,Positive*%
%FSLAX45Y45*%
G04 Gerber Fmt 4.5, Leading zero omitted, Abs format (unit mm)*
G04 Created by KiCad (PCBNEW 8.0.3) date 2024-08-13 11:45:48*
%MOMM*%
%LPD*%
G01*
G04 APERTURE LIST*
%ADD10C,0.050000*%
%ADD11C,0.200000*%
%ADD12C,0.170000*%
%ADD13C,0.300000*%
%ADD14C,0.400000*%
G04 APERTURE END LIST*
D10*
X6315000Y-2685000D02*
X23145000Y-2685000D01*
X23145000Y-15255000D01*
X6315000Y-15255000D01*
X6315000Y-2685000D01*
D11*
D12*
X7172000Y-4050000D02*
X7342000Y-4220000D01*
X7342000Y-4050000D02*
X7172000Y-4220000D01*
X7172000Y-6350000D02*
X7342000Y-6520000D01*
X7342000Y-6350000D02*
X7172000Y-6520000D01*
X7172000Y-8200000D02*
X7342000Y-8370000D01*
X7342000Y-8200000D02*
X7172000Y-8370000D01*
X7172000Y-13700000D02*
X7342000Y-13870000D01*
X7342000Y-13700000D02*
X7172000Y-13870000D01*
X8188000Y-4050000D02*
X8358000Y-4220000D01*
X8358000Y-4050000D02*
X8188000Y-4220000D01*
X8188000Y-6350000D02*
X8358000Y-6520000D01*
X8358000Y-6350000D02*
X8188000Y-6520000D01*
X8188000Y-8200000D02*
X8358000Y-8370000D01*
X8358000Y-8200000D02*
X8188000Y-8370000D01*
X8188000Y-13700000D02*
X8358000Y-13870000D01*
X8358000Y-13700000D02*
X8188000Y-13870000D01*
X9022000Y-4050000D02*
X9192000Y-4220000D01*
X9192000Y-4050000D02*
X9022000Y-4220000D01*
X9022000Y-6350000D02*
X9192000Y-6520000D01*
X9192000Y-6350000D02*
X9022000Y-6520000D01*
X9022000Y-8200000D02*
X9192000Y-8370000D01*
X9192000Y-8200000D02*
X9022000Y-8370000D01*
X9022000Y-11850000D02*
X9192000Y-12020000D01*
X9192000Y-11850000D02*
X9022000Y-12020000D01*
X9022000Y-13700000D02*
X9192000Y-13870000D01*
X9192000Y-13700000D02*
X9022000Y-13870000D01*
X10038000Y-4050000D02*
X10208000Y-4220000D01*
X10208000Y-4050000D02*
X10038000Y-4220000D01*
X10038000Y-6350000D02*
X10208000Y-6520000D01*
X10208000Y-6350000D02*
X10038000Y-6520000D01*
X10038000Y-8200000D02*
X10208000Y-8370000D01*
X10208000Y-8200000D02*
X10038000Y-8370000D01*
X10038000Y-11850000D02*
X10208000Y-12020000D01*
X10208000Y-11850000D02*
X10038000Y-12020000D01*
X10038000Y-13700000D02*
X10208000Y-13870000D01*
X10208000Y-13700000D02*
X10038000Y-13870000D01*
X10872000Y-4050000D02*
X11042000Y-4220000D01*
X11042000Y-4050000D02*
X10872000Y-4220000D01*
X10872000Y-6350000D02*
X11042000Y-6520000D01*
X11042000Y-6350000D02*
X10872000Y-6520000D01*
X10872000Y-8200000D02*
X11042000Y-8370000D01*
X11042000Y-8200000D02*
X10872000Y-8370000D01*
X10872000Y-13700000D02*
X11042000Y-13870000D01*
X11042000Y-13700000D02*
X10872000Y-13870000D01*
X11888000Y-4050000D02*
X12058000Y-4220000D01*
X12058000Y-4050000D02*
X11888000Y-4220000D01*
X11888000Y-6350000D02*
X12058000Y-6520000D01*
X12058000Y-6350000D02*
X11888000Y-6520000D01*
X11888000Y-8200000D02*
X12058000Y-8370000D01*
X12058000Y-8200000D02*
X11888000Y-8370000D01*
X11888000Y-13700000D02*
X12058000Y-13870000D01*
X12058000Y-13700000D02*
X11888000Y-13870000D01*
X14772000Y-6350000D02*
X14942000Y-6520000D01*
X14942000Y-6350000D02*
X14772000Y-6520000D01*
X14772000Y-8200000D02*
X14942000Y-8370000D01*
X14942000Y-8200000D02*
X14772000Y-8370000D01*
X14772000Y-10050000D02*
X14942000Y-10220000D01*
X14942000Y-10050000D02*
X14772000Y-10220000D01*
X14772000Y-11900000D02*
X14942000Y-12070000D01*
X14942000Y-11900000D02*
X14772000Y-12070000D01*
X15672000Y-13750000D02*
X15842000Y-13920000D01*
X15842000Y-13750000D02*
X15672000Y-13920000D01*
X15788000Y-6350000D02*
X15958000Y-6520000D01*
X15958000Y-6350000D02*
X15788000Y-6520000D01*
X15788000Y-8200000D02*
X15958000Y-8370000D01*
X15958000Y-8200000D02*
X15788000Y-8370000D01*
X15788000Y-10050000D02*
X15958000Y-10220000D01*
X15958000Y-10050000D02*
X15788000Y-10220000D01*
X15788000Y-11900000D02*
X15958000Y-12070000D01*
X15958000Y-11900000D02*
X15788000Y-12070000D01*
X16622000Y-6350000D02*
X16792000Y-6520000D01*
X16792000Y-6350000D02*
X16622000Y-6520000D01*
X16622000Y-8200000D02*
X16792000Y-8370000D01*
X16792000Y-8200000D02*
X16622000Y-8370000D01*
X16622000Y-10050000D02*
X16792000Y-10220000D01*
X16792000Y-10050000D02*
X16622000Y-10220000D01*
X16622000Y-11900000D02*
X16792000Y-12070000D01*
X16792000Y-11900000D02*
X16622000Y-12070000D01*
X16688000Y-13750000D02*
X16858000Y-13920000D01*
X16858000Y-13750000D02*
X16688000Y-13920000D01*
X17638000Y-6350000D02*
X17808000Y-6520000D01*
X17808000Y-6350000D02*
X17638000Y-6520000D01*
X17638000Y-8200000D02*
X17808000Y-8370000D01*
X17808000Y-8200000D02*
X17638000Y-8370000D01*
X17638000Y-10050000D02*
X17808000Y-10220000D01*
X17808000Y-10050000D02*
X17638000Y-10220000D01*
X17638000Y-11900000D02*
X17808000Y-12070000D01*
X17808000Y-11900000D02*
X17638000Y-12070000D01*
X18472000Y-6350000D02*
X18642000Y-6520000D01*
X18642000Y-6350000D02*
X18472000Y-6520000D01*
X18472000Y-8200000D02*
X18642000Y-8370000D01*
X18642000Y-8200000D02*
X18472000Y-8370000D01*
X18472000Y-10050000D02*
X18642000Y-10220000D01*
X18642000Y-10050000D02*
X18472000Y-10220000D01*
X18472000Y-11900000D02*
X18642000Y-12070000D01*
X18642000Y-11900000D02*
X18472000Y-12070000D01*
X18472000Y-13750000D02*
X18642000Y-13920000D01*
X18642000Y-13750000D02*
X18472000Y-13920000D01*
X19488000Y-6350000D02*
X19658000Y-6520000D01*
X19658000Y-6350000D02*
X19488000Y-6520000D01*
X19488000Y-8200000D02*
X19658000Y-8370000D01*
X19658000Y-8200000D02*
X19488000Y-8370000D01*
X19488000Y-10050000D02*
X19658000Y-10220000D01*
X19658000Y-10050000D02*
X19488000Y-10220000D01*
X19488000Y-11900000D02*
X19658000Y-12070000D01*
X19658000Y-11900000D02*
X19488000Y-12070000D01*
X19488000Y-13750000D02*
X19658000Y-13920000D01*
X19658000Y-13750000D02*
X19488000Y-13920000D01*
X20322000Y-6350000D02*
X20492000Y-6520000D01*
X20492000Y-6350000D02*
X20322000Y-6520000D01*
X20322000Y-9150000D02*
X20492000Y-9320000D01*
X20492000Y-9150000D02*
X20322000Y-9320000D01*
X20322000Y-12950000D02*
X20492000Y-13120000D01*
X20492000Y-12950000D02*
X20322000Y-13120000D01*
X21338000Y-6350000D02*
X21508000Y-6520000D01*
X21508000Y-6350000D02*
X21338000Y-6520000D01*
X21338000Y-9150000D02*
X21508000Y-9320000D01*
X21508000Y-9150000D02*
X21338000Y-9320000D01*
X21338000Y-12950000D02*
X21508000Y-13120000D01*
X21508000Y-12950000D02*
X21338000Y-13120000D01*
D13*
X7534000Y-3881000D02*
G75*
G02*
X7234000Y-3881000I-150000J0D01*
G01*
X7234000Y-3881000D02*
G75*
G02*
X7534000Y-3881000I150000J0D01*
G01*
X7534000Y-6181000D02*
G75*
G02*
X7234000Y-6181000I-150000J0D01*
G01*
X7234000Y-6181000D02*
G75*
G02*
X7534000Y-6181000I150000J0D01*
G01*
X7534000Y-8031000D02*
G75*
G02*
X7234000Y-8031000I-150000J0D01*
G01*
X7234000Y-8031000D02*
G75*
G02*
X7534000Y-8031000I150000J0D01*
G01*
X7534000Y-13531000D02*
G75*
G02*
X7234000Y-13531000I-150000J0D01*
G01*
X7234000Y-13531000D02*
G75*
G02*
X7534000Y-13531000I150000J0D01*
G01*
X8169000Y-3627000D02*
G75*
G02*
X7869000Y-3627000I-150000J0D01*
G01*
X7869000Y-3627000D02*
G75*
G02*
X8169000Y-3627000I150000J0D01*
G01*
X8169000Y-5927000D02*
G75*
G02*
X7869000Y-5927000I-150000J0D01*
G01*
X7869000Y-5927000D02*
G75*
G02*
X8169000Y-5927000I150000J0D01*
G01*
X8169000Y-7777000D02*
G75*
G02*
X7869000Y-7777000I-150000J0D01*
G01*
X7869000Y-7777000D02*
G75*
G02*
X8169000Y-7777000I150000J0D01*
G01*
X8169000Y-13277000D02*
G75*
G02*
X7869000Y-13277000I-150000J0D01*
G01*
X7869000Y-13277000D02*
G75*
G02*
X8169000Y-13277000I150000J0D01*
G01*
X9384000Y-3881000D02*
G75*
G02*
X9084000Y-3881000I-150000J0D01*
G01*
X9084000Y-3881000D02*
G75*
G02*
X9384000Y-3881000I150000J0D01*
G01*
X9384000Y-6181000D02*
G75*
G02*
X9084000Y-6181000I-150000J0D01*
G01*
X9084000Y-6181000D02*
G75*
G02*
X9384000Y-6181000I150000J0D01*
G01*
X9384000Y-8031000D02*
G75*
G02*
X9084000Y-8031000I-150000J0D01*
G01*
X9084000Y-8031000D02*
G75*
G02*
X9384000Y-8031000I150000J0D01*
G01*
X9384000Y-11681000D02*
G75*
G02*
X9084000Y-11681000I-150000J0D01*
G01*
X9084000Y-11681000D02*
G75*
G02*
X9384000Y-11681000I150000J0D01*
G01*
X9384000Y-13531000D02*
G75*
G02*
X9084000Y-13531000I-150000J0D01*
G01*
X9084000Y-13531000D02*
G75*
G02*
X9384000Y-13531000I150000J0D01*
G01*
X10019000Y-3627000D02*
G75*
G02*
X9719000Y-3627000I-150000J0D01*
G01*
X9719000Y-3627000D02*
G75*
G02*
X10019000Y-3627000I150000J0D01*
G01*
X10019000Y-5927000D02*
G75*
G02*
X9719000Y-5927000I-150000J0D01*
G01*
X9719000Y-5927000D02*
G75*
G02*
X10019000Y-5927000I150000J0D01*
G01*
X10019000Y-7777000D02*
G75*
G02*
X9719000Y-7777000I-150000J0D01*
G01*
X9719000Y-7777000D02*
G75*
G02*
X10019000Y-7777000I150000J0D01*
G01*
X10019000Y-11427000D02*
G75*
G02*
X9719000Y-11427000I-150000J0D01*
G01*
X9719000Y-11427000D02*
G75*
G02*
X10019000Y-11427000I150000J0D01*
G01*
X10019000Y-13277000D02*
G75*
G02*
X9719000Y-13277000I-150000J0D01*
G01*
X9719000Y-13277000D02*
G75*
G02*
X10019000Y-13277000I150000J0D01*
G01*
X11234000Y-3881000D02*
G75*
G02*
X10934000Y-3881000I-150000J0D01*
G01*
X10934000Y-3881000D02*
G75*
G02*
X11234000Y-3881000I150000J0D01*
G01*
X11234000Y-6181000D02*
G75*
G02*
X10934000Y-6181000I-150000J0D01*
G01*
X10934000Y-6181000D02*
G75*
G02*
X11234000Y-6181000I150000J0D01*
G01*
X11234000Y-8031000D02*
G75*
G02*
X10934000Y-8031000I-150000J0D01*
G01*
X10934000Y-8031000D02*
G75*
G02*
X11234000Y-8031000I150000J0D01*
G01*
X11234000Y-13531000D02*
G75*
G02*
X10934000Y-13531000I-150000J0D01*
G01*
X10934000Y-13531000D02*
G75*
G02*
X11234000Y-13531000I150000J0D01*
G01*
X11869000Y-3627000D02*
G75*
G02*
X11569000Y-3627000I-150000J0D01*
G01*
X11569000Y-3627000D02*
G75*
G02*
X11869000Y-3627000I150000J0D01*
G01*
X11869000Y-5927000D02*
G75*
G02*
X11569000Y-5927000I-150000J0D01*
G01*
X11569000Y-5927000D02*
G75*
G02*
X11869000Y-5927000I150000J0D01*
G01*
X11869000Y-7777000D02*
G75*
G02*
X11569000Y-7777000I-150000J0D01*
G01*
X11569000Y-7777000D02*
G75*
G02*
X11869000Y-7777000I150000J0D01*
G01*
X11869000Y-13277000D02*
G75*
G02*
X11569000Y-13277000I-150000J0D01*
G01*
X11569000Y-13277000D02*
G75*
G02*
X11869000Y-13277000I150000J0D01*
G01*
X15134000Y-6181000D02*
G75*
G02*
X14834000Y-6181000I-150000J0D01*
G01*
X14834000Y-6181000D02*
G75*
G02*
X15134000Y-6181000I150000J0D01*
G01*
X15134000Y-8031000D02*
G75*
G02*
X14834000Y-8031000I-150000J0D01*
G01*
X14834000Y-8031000D02*
G75*
G02*
X15134000Y-8031000I150000J0D01*
G01*
X15134000Y-9881000D02*
G75*
G02*
X14834000Y-9881000I-150000J0D01*
G01*
X14834000Y-9881000D02*
G75*
G02*
X15134000Y-9881000I150000J0D01*
G01*
X15134000Y-11731000D02*
G75*
G02*
X14834000Y-11731000I-150000J0D01*
G01*
X14834000Y-11731000D02*
G75*
G02*
X15134000Y-11731000I150000J0D01*
G01*
X15769000Y-5927000D02*
G75*
G02*
X15469000Y-5927000I-150000J0D01*
G01*
X15469000Y-5927000D02*
G75*
G02*
X15769000Y-5927000I150000J0D01*
G01*
X15769000Y-7777000D02*
G75*
G02*
X15469000Y-7777000I-150000J0D01*
G01*
X15469000Y-7777000D02*
G75*
G02*
X15769000Y-7777000I150000J0D01*
G01*
X15769000Y-9627000D02*
G75*
G02*
X15469000Y-9627000I-150000J0D01*
G01*
X15469000Y-9627000D02*
G75*
G02*
X15769000Y-9627000I150000J0D01*
G01*
X15769000Y-11477000D02*
G75*
G02*
X15469000Y-11477000I-150000J0D01*
G01*
X15469000Y-11477000D02*
G75*
G02*
X15769000Y-11477000I150000J0D01*
G01*
X16034000Y-13581000D02*
G75*
G02*
X15734000Y-13581000I-150000J0D01*
G01*
X15734000Y-13581000D02*
G75*
G02*
X16034000Y-13581000I150000J0D01*
G01*
X16669000Y-13327000D02*
G75*
G02*
X16369000Y-13327000I-150000J0D01*
G01*
X16369000Y-13327000D02*
G75*
G02*
X16669000Y-13327000I150000J0D01*
G01*
X16984000Y-6181000D02*
G75*
G02*
X16684000Y-6181000I-150000J0D01*
G01*
X16684000Y-6181000D02*
G75*
G02*
X16984000Y-6181000I150000J0D01*
G01*
X16984000Y-8031000D02*
G75*
G02*
X16684000Y-8031000I-150000J0D01*
G01*
X16684000Y-8031000D02*
G75*
G02*
X16984000Y-8031000I150000J0D01*
G01*
X16984000Y-9881000D02*
G75*
G02*
X16684000Y-9881000I-150000J0D01*
G01*
X16684000Y-9881000D02*
G75*
G02*
X16984000Y-9881000I150000J0D01*
G01*
X16984000Y-11731000D02*
G75*
G02*
X16684000Y-11731000I-150000J0D01*
G01*
X16684000Y-11731000D02*
G75*
G02*
X16984000Y-11731000I150000J0D01*
G01*
X17619000Y-5927000D02*
G75*
G02*
X17319000Y-5927000I-150000J0D01*
G01*
X17319000Y-5927000D02*
G75*
G02*
X17619000Y-5927000I150000J0D01*
G01*
X17619000Y-7777000D02*
G75*
G02*
X17319000Y-7777000I-150000J0D01*
G01*
X17319000Y-7777000D02*
G75*
G02*
X17619000Y-7777000I150000J0D01*
G01*
X17619000Y-9627000D02*
G75*
G02*
X17319000Y-9627000I-150000J0D01*
G01*
X17319000Y-9627000D02*
G75*
G02*
X17619000Y-9627000I150000J0D01*
G01*
X17619000Y-11477000D02*
G75*
G02*
X17319000Y-11477000I-150000J0D01*
G01*
X17319000Y-11477000D02*
G75*
G02*
X17619000Y-11477000I150000J0D01*
G01*
X18834000Y-6181000D02*
G75*
G02*
X18534000Y-6181000I-150000J0D01*
G01*
X18534000Y-6181000D02*
G75*
G02*
X18834000Y-6181000I150000J0D01*
G01*
X18834000Y-8031000D02*
G75*
G02*
X18534000Y-8031000I-150000J0D01*
G01*
X18534000Y-8031000D02*
G75*
G02*
X18834000Y-8031000I150000J0D01*
G01*
X18834000Y-9881000D02*
G75*
G02*
X18534000Y-9881000I-150000J0D01*
G01*
X18534000Y-9881000D02*
G75*
G02*
X18834000Y-9881000I150000J0D01*
G01*
X18834000Y-11731000D02*
G75*
G02*
X18534000Y-11731000I-150000J0D01*
G01*
X18534000Y-11731000D02*
G75*
G02*
X18834000Y-11731000I150000J0D01*
G01*
X18834000Y-13581000D02*
G75*
G02*
X18534000Y-13581000I-150000J0D01*
G01*
X18534000Y-13581000D02*
G75*
G02*
X18834000Y-13581000I150000J0D01*
G01*
X19469000Y-5927000D02*
G75*
G02*
X19169000Y-5927000I-150000J0D01*
G01*
X19169000Y-5927000D02*
G75*
G02*
X19469000Y-5927000I150000J0D01*
G01*
X19469000Y-7777000D02*
G75*
G02*
X19169000Y-7777000I-150000J0D01*
G01*
X19169000Y-7777000D02*
G75*
G02*
X19469000Y-7777000I150000J0D01*
G01*
X19469000Y-9627000D02*
G75*
G02*
X19169000Y-9627000I-150000J0D01*
G01*
X19169000Y-9627000D02*
G75*
G02*
X19469000Y-9627000I150000J0D01*
G01*
X19469000Y-11477000D02*
G75*
G02*
X19169000Y-11477000I-150000J0D01*
G01*
X19169000Y-11477000D02*
G75*
G02*
X19469000Y-11477000I150000J0D01*
G01*
X19469000Y-13327000D02*
G75*
G02*
X19169000Y-13327000I-150000J0D01*
G01*
X19169000Y-13327000D02*
G75*
G02*
X19469000Y-13327000I150000J0D01*
G01*
X20684000Y-6181000D02*
G75*
G02*
X20384000Y-6181000I-150000J0D01*
G01*
X20384000Y-6181000D02*
G75*
G02*
X20684000Y-6181000I150000J0D01*
G01*
X20684000Y-8981000D02*
G75*
G02*
X20384000Y-8981000I-150000J0D01*
G01*
X20384000Y-8981000D02*
G75*
G02*
X20684000Y-8981000I150000J0D01*
G01*
X20684000Y-12781000D02*
G75*
G02*
X20384000Y-12781000I-150000J0D01*
G01*
X20384000Y-12781000D02*
G75*
G02*
X20684000Y-12781000I150000J0D01*
G01*
X21319000Y-5927000D02*
G75*
G02*
X21019000Y-5927000I-150000J0D01*
G01*
X21019000Y-5927000D02*
G75*
G02*
X21319000Y-5927000I150000J0D01*
G01*
X21319000Y-8727000D02*
G75*
G02*
X21019000Y-8727000I-150000J0D01*
G01*
X21019000Y-8727000D02*
G75*
G02*
X21319000Y-8727000I150000J0D01*
G01*
X21319000Y-12527000D02*
G75*
G02*
X21019000Y-12527000I-150000J0D01*
G01*
X21019000Y-12527000D02*
G75*
G02*
X21319000Y-12527000I150000J0D01*
G01*
D14*
X7765000Y-3935000D02*
X7765000Y-4335000D01*
X7565000Y-4135000D02*
X7965000Y-4135000D01*
X7765000Y-6235000D02*
X7765000Y-6635000D01*
X7565000Y-6435000D02*
X7965000Y-6435000D01*
X7765000Y-8085000D02*
X7765000Y-8485000D01*
X7565000Y-8285000D02*
X7965000Y-8285000D01*
X7765000Y-13585000D02*
X7765000Y-13985000D01*
X7565000Y-13785000D02*
X7965000Y-13785000D01*
X9615000Y-3935000D02*
X9615000Y-4335000D01*
X9415000Y-4135000D02*
X9815000Y-4135000D01*
X9615000Y-6235000D02*
X9615000Y-6635000D01*
X9415000Y-6435000D02*
X9815000Y-6435000D01*
X9615000Y-8085000D02*
X9615000Y-8485000D01*
X9415000Y-8285000D02*
X9815000Y-8285000D01*
X9615000Y-11735000D02*
X9615000Y-12135000D01*
X9415000Y-11935000D02*
X9815000Y-11935000D01*
X9615000Y-13585000D02*
X9615000Y-13985000D01*
X9415000Y-13785000D02*
X9815000Y-13785000D01*
X11465000Y-3935000D02*
X11465000Y-4335000D01*
X11265000Y-4135000D02*
X11665000Y-4135000D01*
X11465000Y-6235000D02*
X11465000Y-6635000D01*
X11265000Y-6435000D02*
X11665000Y-6435000D01*
X11465000Y-8085000D02*
X11465000Y-8485000D01*
X11265000Y-8285000D02*
X11665000Y-8285000D01*
X11465000Y-13585000D02*
X11465000Y-13985000D01*
X11265000Y-13785000D02*
X11665000Y-13785000D01*
X15365000Y-6235000D02*
X15365000Y-6635000D01*
X15165000Y-6435000D02*
X15565000Y-6435000D01*
X15365000Y-8085000D02*
X15365000Y-8485000D01*
X15165000Y-8285000D02*
X15565000Y-8285000D01*
X15365000Y-9935000D02*
X15365000Y-10335000D01*
X15165000Y-10135000D02*
X15565000Y-10135000D01*
X15365000Y-11785000D02*
X15365000Y-12185000D01*
X15165000Y-11985000D02*
X15565000Y-11985000D01*
X16265000Y-13635000D02*
X16265000Y-14035000D01*
X16065000Y-13835000D02*
X16465000Y-13835000D01*
X17215000Y-6235000D02*
X17215000Y-6635000D01*
X17015000Y-6435000D02*
X17415000Y-6435000D01*
X17215000Y-8085000D02*
X17215000Y-8485000D01*
X17015000Y-8285000D02*
X17415000Y-8285000D01*
X17215000Y-9935000D02*
X17215000Y-10335000D01*
X17015000Y-10135000D02*
X17415000Y-10135000D01*
X17215000Y-11785000D02*
X17215000Y-12185000D01*
X17015000Y-11985000D02*
X17415000Y-11985000D01*
X19065000Y-6235000D02*
X19065000Y-6635000D01*
X18865000Y-6435000D02*
X19265000Y-6435000D01*
X19065000Y-8085000D02*
X19065000Y-8485000D01*
X18865000Y-8285000D02*
X19265000Y-8285000D01*
X19065000Y-9935000D02*
X19065000Y-10335000D01*
X18865000Y-10135000D02*
X19265000Y-10135000D01*
X19065000Y-11785000D02*
X19065000Y-12185000D01*
X18865000Y-11985000D02*
X19265000Y-11985000D01*
X19065000Y-13635000D02*
X19065000Y-14035000D01*
X18865000Y-13835000D02*
X19265000Y-13835000D01*
X20915000Y-6235000D02*
X20915000Y-6635000D01*
X20715000Y-6435000D02*
X21115000Y-6435000D01*
X20915000Y-9035000D02*
X20915000Y-9435000D01*
X20715000Y-9235000D02*
X21115000Y-9235000D01*
X20915000Y-12835000D02*
X20915000Y-13235000D01*
X20715000Y-13035000D02*
X21115000Y-13035000D01*
D11*
X6573277Y-15568984D02*
X6573277Y-15368984D01*
X6573277Y-15368984D02*
X6620896Y-15368984D01*
X6620896Y-15368984D02*
X6649467Y-15378508D01*
X6649467Y-15378508D02*
X6668515Y-15397555D01*
X6668515Y-15397555D02*
X6678039Y-15416603D01*
X6678039Y-15416603D02*
X6687562Y-15454698D01*
X6687562Y-15454698D02*
X6687562Y-15483269D01*
X6687562Y-15483269D02*
X6678039Y-15521365D01*
X6678039Y-15521365D02*
X6668515Y-15540412D01*
X6668515Y-15540412D02*
X6649467Y-15559460D01*
X6649467Y-15559460D02*
X6620896Y-15568984D01*
X6620896Y-15568984D02*
X6573277Y-15568984D01*
X6773277Y-15568984D02*
X6773277Y-15435650D01*
X6773277Y-15473746D02*
X6782801Y-15454698D01*
X6782801Y-15454698D02*
X6792324Y-15445174D01*
X6792324Y-15445174D02*
X6811372Y-15435650D01*
X6811372Y-15435650D02*
X6830420Y-15435650D01*
X6897086Y-15568984D02*
X6897086Y-15435650D01*
X6897086Y-15368984D02*
X6887562Y-15378508D01*
X6887562Y-15378508D02*
X6897086Y-15388031D01*
X6897086Y-15388031D02*
X6906610Y-15378508D01*
X6906610Y-15378508D02*
X6897086Y-15368984D01*
X6897086Y-15368984D02*
X6897086Y-15388031D01*
X7020896Y-15568984D02*
X7001848Y-15559460D01*
X7001848Y-15559460D02*
X6992324Y-15540412D01*
X6992324Y-15540412D02*
X6992324Y-15368984D01*
X7125658Y-15568984D02*
X7106610Y-15559460D01*
X7106610Y-15559460D02*
X7097086Y-15540412D01*
X7097086Y-15540412D02*
X7097086Y-15368984D01*
X7354229Y-15568984D02*
X7354229Y-15368984D01*
X7354229Y-15368984D02*
X7420896Y-15511841D01*
X7420896Y-15511841D02*
X7487562Y-15368984D01*
X7487562Y-15368984D02*
X7487562Y-15568984D01*
X7668515Y-15568984D02*
X7668515Y-15464222D01*
X7668515Y-15464222D02*
X7658991Y-15445174D01*
X7658991Y-15445174D02*
X7639943Y-15435650D01*
X7639943Y-15435650D02*
X7601848Y-15435650D01*
X7601848Y-15435650D02*
X7582801Y-15445174D01*
X7668515Y-15559460D02*
X7649467Y-15568984D01*
X7649467Y-15568984D02*
X7601848Y-15568984D01*
X7601848Y-15568984D02*
X7582801Y-15559460D01*
X7582801Y-15559460D02*
X7573277Y-15540412D01*
X7573277Y-15540412D02*
X7573277Y-15521365D01*
X7573277Y-15521365D02*
X7582801Y-15502317D01*
X7582801Y-15502317D02*
X7601848Y-15492793D01*
X7601848Y-15492793D02*
X7649467Y-15492793D01*
X7649467Y-15492793D02*
X7668515Y-15483269D01*
X7763753Y-15435650D02*
X7763753Y-15635650D01*
X7763753Y-15445174D02*
X7782801Y-15435650D01*
X7782801Y-15435650D02*
X7820896Y-15435650D01*
X7820896Y-15435650D02*
X7839943Y-15445174D01*
X7839943Y-15445174D02*
X7849467Y-15454698D01*
X7849467Y-15454698D02*
X7858991Y-15473746D01*
X7858991Y-15473746D02*
X7858991Y-15530888D01*
X7858991Y-15530888D02*
X7849467Y-15549936D01*
X7849467Y-15549936D02*
X7839943Y-15559460D01*
X7839943Y-15559460D02*
X7820896Y-15568984D01*
X7820896Y-15568984D02*
X7782801Y-15568984D01*
X7782801Y-15568984D02*
X7763753Y-15559460D01*
X7944705Y-15549936D02*
X7954229Y-15559460D01*
X7954229Y-15559460D02*
X7944705Y-15568984D01*
X7944705Y-15568984D02*
X7935182Y-15559460D01*
X7935182Y-15559460D02*
X7944705Y-15549936D01*
X7944705Y-15549936D02*
X7944705Y-15568984D01*
X7944705Y-15445174D02*
X7954229Y-15454698D01*
X7954229Y-15454698D02*
X7944705Y-15464222D01*
X7944705Y-15464222D02*
X7935182Y-15454698D01*
X7935182Y-15454698D02*
X7944705Y-15445174D01*
X7944705Y-15445174D02*
X7944705Y-15464222D01*
D12*
X6142500Y-15812500D02*
X6312500Y-15982500D01*
X6312500Y-15812500D02*
X6142500Y-15982500D01*
D11*
X6678039Y-15988984D02*
X6563753Y-15988984D01*
X6620896Y-15988984D02*
X6620896Y-15788984D01*
X6620896Y-15788984D02*
X6601848Y-15817555D01*
X6601848Y-15817555D02*
X6582801Y-15836603D01*
X6582801Y-15836603D02*
X6563753Y-15846127D01*
X6763753Y-15969936D02*
X6773277Y-15979460D01*
X6773277Y-15979460D02*
X6763753Y-15988984D01*
X6763753Y-15988984D02*
X6754229Y-15979460D01*
X6754229Y-15979460D02*
X6763753Y-15969936D01*
X6763753Y-15969936D02*
X6763753Y-15988984D01*
X6839943Y-15788984D02*
X6973277Y-15788984D01*
X6973277Y-15788984D02*
X6887562Y-15988984D01*
X7087562Y-15788984D02*
X7106610Y-15788984D01*
X7106610Y-15788984D02*
X7125658Y-15798508D01*
X7125658Y-15798508D02*
X7135182Y-15808031D01*
X7135182Y-15808031D02*
X7144705Y-15827079D01*
X7144705Y-15827079D02*
X7154229Y-15865174D01*
X7154229Y-15865174D02*
X7154229Y-15912793D01*
X7154229Y-15912793D02*
X7144705Y-15950888D01*
X7144705Y-15950888D02*
X7135182Y-15969936D01*
X7135182Y-15969936D02*
X7125658Y-15979460D01*
X7125658Y-15979460D02*
X7106610Y-15988984D01*
X7106610Y-15988984D02*
X7087562Y-15988984D01*
X7087562Y-15988984D02*
X7068515Y-15979460D01*
X7068515Y-15979460D02*
X7058991Y-15969936D01*
X7058991Y-15969936D02*
X7049467Y-15950888D01*
X7049467Y-15950888D02*
X7039943Y-15912793D01*
X7039943Y-15912793D02*
X7039943Y-15865174D01*
X7039943Y-15865174D02*
X7049467Y-15827079D01*
X7049467Y-15827079D02*
X7058991Y-15808031D01*
X7058991Y-15808031D02*
X7068515Y-15798508D01*
X7068515Y-15798508D02*
X7087562Y-15788984D01*
X7278039Y-15788984D02*
X7297086Y-15788984D01*
X7297086Y-15788984D02*
X7316134Y-15798508D01*
X7316134Y-15798508D02*
X7325658Y-15808031D01*
X7325658Y-15808031D02*
X7335182Y-15827079D01*
X7335182Y-15827079D02*
X7344705Y-15865174D01*
X7344705Y-15865174D02*
X7344705Y-15912793D01*
X7344705Y-15912793D02*
X7335182Y-15950888D01*
X7335182Y-15950888D02*
X7325658Y-15969936D01*
X7325658Y-15969936D02*
X7316134Y-15979460D01*
X7316134Y-15979460D02*
X7297086Y-15988984D01*
X7297086Y-15988984D02*
X7278039Y-15988984D01*
X7278039Y-15988984D02*
X7258991Y-15979460D01*
X7258991Y-15979460D02*
X7249467Y-15969936D01*
X7249467Y-15969936D02*
X7239943Y-15950888D01*
X7239943Y-15950888D02*
X7230420Y-15912793D01*
X7230420Y-15912793D02*
X7230420Y-15865174D01*
X7230420Y-15865174D02*
X7239943Y-15827079D01*
X7239943Y-15827079D02*
X7249467Y-15808031D01*
X7249467Y-15808031D02*
X7258991Y-15798508D01*
X7258991Y-15798508D02*
X7278039Y-15788984D01*
X7430420Y-15988984D02*
X7430420Y-15855650D01*
X7430420Y-15874698D02*
X7439943Y-15865174D01*
X7439943Y-15865174D02*
X7458991Y-15855650D01*
X7458991Y-15855650D02*
X7487563Y-15855650D01*
X7487563Y-15855650D02*
X7506610Y-15865174D01*
X7506610Y-15865174D02*
X7516134Y-15884222D01*
X7516134Y-15884222D02*
X7516134Y-15988984D01*
X7516134Y-15884222D02*
X7525658Y-15865174D01*
X7525658Y-15865174D02*
X7544705Y-15855650D01*
X7544705Y-15855650D02*
X7573277Y-15855650D01*
X7573277Y-15855650D02*
X7592324Y-15865174D01*
X7592324Y-15865174D02*
X7601848Y-15884222D01*
X7601848Y-15884222D02*
X7601848Y-15988984D01*
X7697086Y-15988984D02*
X7697086Y-15855650D01*
X7697086Y-15874698D02*
X7706610Y-15865174D01*
X7706610Y-15865174D02*
X7725658Y-15855650D01*
X7725658Y-15855650D02*
X7754229Y-15855650D01*
X7754229Y-15855650D02*
X7773277Y-15865174D01*
X7773277Y-15865174D02*
X7782801Y-15884222D01*
X7782801Y-15884222D02*
X7782801Y-15988984D01*
X7782801Y-15884222D02*
X7792324Y-15865174D01*
X7792324Y-15865174D02*
X7811372Y-15855650D01*
X7811372Y-15855650D02*
X7839943Y-15855650D01*
X7839943Y-15855650D02*
X7858991Y-15865174D01*
X7858991Y-15865174D02*
X7868515Y-15884222D01*
X7868515Y-15884222D02*
X7868515Y-15988984D01*
X8258991Y-15779460D02*
X8087563Y-16036603D01*
X8516134Y-15788984D02*
X8535182Y-15788984D01*
X8535182Y-15788984D02*
X8554229Y-15798508D01*
X8554229Y-15798508D02*
X8563753Y-15808031D01*
X8563753Y-15808031D02*
X8573277Y-15827079D01*
X8573277Y-15827079D02*
X8582801Y-15865174D01*
X8582801Y-15865174D02*
X8582801Y-15912793D01*
X8582801Y-15912793D02*
X8573277Y-15950888D01*
X8573277Y-15950888D02*
X8563753Y-15969936D01*
X8563753Y-15969936D02*
X8554229Y-15979460D01*
X8554229Y-15979460D02*
X8535182Y-15988984D01*
X8535182Y-15988984D02*
X8516134Y-15988984D01*
X8516134Y-15988984D02*
X8497087Y-15979460D01*
X8497087Y-15979460D02*
X8487563Y-15969936D01*
X8487563Y-15969936D02*
X8478039Y-15950888D01*
X8478039Y-15950888D02*
X8468515Y-15912793D01*
X8468515Y-15912793D02*
X8468515Y-15865174D01*
X8468515Y-15865174D02*
X8478039Y-15827079D01*
X8478039Y-15827079D02*
X8487563Y-15808031D01*
X8487563Y-15808031D02*
X8497087Y-15798508D01*
X8497087Y-15798508D02*
X8516134Y-15788984D01*
X8668515Y-15969936D02*
X8678039Y-15979460D01*
X8678039Y-15979460D02*
X8668515Y-15988984D01*
X8668515Y-15988984D02*
X8658991Y-15979460D01*
X8658991Y-15979460D02*
X8668515Y-15969936D01*
X8668515Y-15969936D02*
X8668515Y-15988984D01*
X8801848Y-15788984D02*
X8820896Y-15788984D01*
X8820896Y-15788984D02*
X8839944Y-15798508D01*
X8839944Y-15798508D02*
X8849468Y-15808031D01*
X8849468Y-15808031D02*
X8858991Y-15827079D01*
X8858991Y-15827079D02*
X8868515Y-15865174D01*
X8868515Y-15865174D02*
X8868515Y-15912793D01*
X8868515Y-15912793D02*
X8858991Y-15950888D01*
X8858991Y-15950888D02*
X8849468Y-15969936D01*
X8849468Y-15969936D02*
X8839944Y-15979460D01*
X8839944Y-15979460D02*
X8820896Y-15988984D01*
X8820896Y-15988984D02*
X8801848Y-15988984D01*
X8801848Y-15988984D02*
X8782801Y-15979460D01*
X8782801Y-15979460D02*
X8773277Y-15969936D01*
X8773277Y-15969936D02*
X8763753Y-15950888D01*
X8763753Y-15950888D02*
X8754229Y-15912793D01*
X8754229Y-15912793D02*
X8754229Y-15865174D01*
X8754229Y-15865174D02*
X8763753Y-15827079D01*
X8763753Y-15827079D02*
X8773277Y-15808031D01*
X8773277Y-15808031D02*
X8782801Y-15798508D01*
X8782801Y-15798508D02*
X8801848Y-15788984D01*
X9039944Y-15788984D02*
X9001848Y-15788984D01*
X9001848Y-15788984D02*
X8982801Y-15798508D01*
X8982801Y-15798508D02*
X8973277Y-15808031D01*
X8973277Y-15808031D02*
X8954229Y-15836603D01*
X8954229Y-15836603D02*
X8944706Y-15874698D01*
X8944706Y-15874698D02*
X8944706Y-15950888D01*
X8944706Y-15950888D02*
X8954229Y-15969936D01*
X8954229Y-15969936D02*
X8963753Y-15979460D01*
X8963753Y-15979460D02*
X8982801Y-15988984D01*
X8982801Y-15988984D02*
X9020896Y-15988984D01*
X9020896Y-15988984D02*
X9039944Y-15979460D01*
X9039944Y-15979460D02*
X9049468Y-15969936D01*
X9049468Y-15969936D02*
X9058991Y-15950888D01*
X9058991Y-15950888D02*
X9058991Y-15903269D01*
X9058991Y-15903269D02*
X9049468Y-15884222D01*
X9049468Y-15884222D02*
X9039944Y-15874698D01*
X9039944Y-15874698D02*
X9020896Y-15865174D01*
X9020896Y-15865174D02*
X8982801Y-15865174D01*
X8982801Y-15865174D02*
X8963753Y-15874698D01*
X8963753Y-15874698D02*
X8954229Y-15884222D01*
X8954229Y-15884222D02*
X8944706Y-15903269D01*
X9230420Y-15788984D02*
X9192325Y-15788984D01*
X9192325Y-15788984D02*
X9173277Y-15798508D01*
X9173277Y-15798508D02*
X9163753Y-15808031D01*
X9163753Y-15808031D02*
X9144706Y-15836603D01*
X9144706Y-15836603D02*
X9135182Y-15874698D01*
X9135182Y-15874698D02*
X9135182Y-15950888D01*
X9135182Y-15950888D02*
X9144706Y-15969936D01*
X9144706Y-15969936D02*
X9154229Y-15979460D01*
X9154229Y-15979460D02*
X9173277Y-15988984D01*
X9173277Y-15988984D02*
X9211372Y-15988984D01*
X9211372Y-15988984D02*
X9230420Y-15979460D01*
X9230420Y-15979460D02*
X9239944Y-15969936D01*
X9239944Y-15969936D02*
X9249468Y-15950888D01*
X9249468Y-15950888D02*
X9249468Y-15903269D01*
X9249468Y-15903269D02*
X9239944Y-15884222D01*
X9239944Y-15884222D02*
X9230420Y-15874698D01*
X9230420Y-15874698D02*
X9211372Y-15865174D01*
X9211372Y-15865174D02*
X9173277Y-15865174D01*
X9173277Y-15865174D02*
X9154229Y-15874698D01*
X9154229Y-15874698D02*
X9144706Y-15884222D01*
X9144706Y-15884222D02*
X9135182Y-15903269D01*
X9344706Y-15988984D02*
X9382801Y-15988984D01*
X9382801Y-15988984D02*
X9401849Y-15979460D01*
X9401849Y-15979460D02*
X9411372Y-15969936D01*
X9411372Y-15969936D02*
X9430420Y-15941365D01*
X9430420Y-15941365D02*
X9439944Y-15903269D01*
X9439944Y-15903269D02*
X9439944Y-15827079D01*
X9439944Y-15827079D02*
X9430420Y-15808031D01*
X9430420Y-15808031D02*
X9420896Y-15798508D01*
X9420896Y-15798508D02*
X9401849Y-15788984D01*
X9401849Y-15788984D02*
X9363753Y-15788984D01*
X9363753Y-15788984D02*
X9344706Y-15798508D01*
X9344706Y-15798508D02*
X9335182Y-15808031D01*
X9335182Y-15808031D02*
X9325658Y-15827079D01*
X9325658Y-15827079D02*
X9325658Y-15874698D01*
X9325658Y-15874698D02*
X9335182Y-15893746D01*
X9335182Y-15893746D02*
X9344706Y-15903269D01*
X9344706Y-15903269D02*
X9363753Y-15912793D01*
X9363753Y-15912793D02*
X9401849Y-15912793D01*
X9401849Y-15912793D02*
X9420896Y-15903269D01*
X9420896Y-15903269D02*
X9430420Y-15893746D01*
X9430420Y-15893746D02*
X9439944Y-15874698D01*
X9516134Y-15788984D02*
X9516134Y-15827079D01*
X9592325Y-15788984D02*
X9592325Y-15827079D01*
X9887563Y-16065174D02*
X9878039Y-16055650D01*
X9878039Y-16055650D02*
X9858991Y-16027079D01*
X9858991Y-16027079D02*
X9849468Y-16008031D01*
X9849468Y-16008031D02*
X9839944Y-15979460D01*
X9839944Y-15979460D02*
X9830420Y-15931841D01*
X9830420Y-15931841D02*
X9830420Y-15893746D01*
X9830420Y-15893746D02*
X9839944Y-15846127D01*
X9839944Y-15846127D02*
X9849468Y-15817555D01*
X9849468Y-15817555D02*
X9858991Y-15798508D01*
X9858991Y-15798508D02*
X9878039Y-15769936D01*
X9878039Y-15769936D02*
X9887563Y-15760412D01*
X10049468Y-15788984D02*
X10011372Y-15788984D01*
X10011372Y-15788984D02*
X9992325Y-15798508D01*
X9992325Y-15798508D02*
X9982801Y-15808031D01*
X9982801Y-15808031D02*
X9963753Y-15836603D01*
X9963753Y-15836603D02*
X9954230Y-15874698D01*
X9954230Y-15874698D02*
X9954230Y-15950888D01*
X9954230Y-15950888D02*
X9963753Y-15969936D01*
X9963753Y-15969936D02*
X9973277Y-15979460D01*
X9973277Y-15979460D02*
X9992325Y-15988984D01*
X9992325Y-15988984D02*
X10030420Y-15988984D01*
X10030420Y-15988984D02*
X10049468Y-15979460D01*
X10049468Y-15979460D02*
X10058991Y-15969936D01*
X10058991Y-15969936D02*
X10068515Y-15950888D01*
X10068515Y-15950888D02*
X10068515Y-15903269D01*
X10068515Y-15903269D02*
X10058991Y-15884222D01*
X10058991Y-15884222D02*
X10049468Y-15874698D01*
X10049468Y-15874698D02*
X10030420Y-15865174D01*
X10030420Y-15865174D02*
X9992325Y-15865174D01*
X9992325Y-15865174D02*
X9973277Y-15874698D01*
X9973277Y-15874698D02*
X9963753Y-15884222D01*
X9963753Y-15884222D02*
X9954230Y-15903269D01*
X10192325Y-15788984D02*
X10211372Y-15788984D01*
X10211372Y-15788984D02*
X10230420Y-15798508D01*
X10230420Y-15798508D02*
X10239944Y-15808031D01*
X10239944Y-15808031D02*
X10249468Y-15827079D01*
X10249468Y-15827079D02*
X10258991Y-15865174D01*
X10258991Y-15865174D02*
X10258991Y-15912793D01*
X10258991Y-15912793D02*
X10249468Y-15950888D01*
X10249468Y-15950888D02*
X10239944Y-15969936D01*
X10239944Y-15969936D02*
X10230420Y-15979460D01*
X10230420Y-15979460D02*
X10211372Y-15988984D01*
X10211372Y-15988984D02*
X10192325Y-15988984D01*
X10192325Y-15988984D02*
X10173277Y-15979460D01*
X10173277Y-15979460D02*
X10163753Y-15969936D01*
X10163753Y-15969936D02*
X10154230Y-15950888D01*
X10154230Y-15950888D02*
X10144706Y-15912793D01*
X10144706Y-15912793D02*
X10144706Y-15865174D01*
X10144706Y-15865174D02*
X10154230Y-15827079D01*
X10154230Y-15827079D02*
X10163753Y-15808031D01*
X10163753Y-15808031D02*
X10173277Y-15798508D01*
X10173277Y-15798508D02*
X10192325Y-15788984D01*
X10497087Y-15988984D02*
X10497087Y-15788984D01*
X10582801Y-15988984D02*
X10582801Y-15884222D01*
X10582801Y-15884222D02*
X10573277Y-15865174D01*
X10573277Y-15865174D02*
X10554230Y-15855650D01*
X10554230Y-15855650D02*
X10525658Y-15855650D01*
X10525658Y-15855650D02*
X10506611Y-15865174D01*
X10506611Y-15865174D02*
X10497087Y-15874698D01*
X10706611Y-15988984D02*
X10687563Y-15979460D01*
X10687563Y-15979460D02*
X10678039Y-15969936D01*
X10678039Y-15969936D02*
X10668515Y-15950888D01*
X10668515Y-15950888D02*
X10668515Y-15893746D01*
X10668515Y-15893746D02*
X10678039Y-15874698D01*
X10678039Y-15874698D02*
X10687563Y-15865174D01*
X10687563Y-15865174D02*
X10706611Y-15855650D01*
X10706611Y-15855650D02*
X10735182Y-15855650D01*
X10735182Y-15855650D02*
X10754230Y-15865174D01*
X10754230Y-15865174D02*
X10763753Y-15874698D01*
X10763753Y-15874698D02*
X10773277Y-15893746D01*
X10773277Y-15893746D02*
X10773277Y-15950888D01*
X10773277Y-15950888D02*
X10763753Y-15969936D01*
X10763753Y-15969936D02*
X10754230Y-15979460D01*
X10754230Y-15979460D02*
X10735182Y-15988984D01*
X10735182Y-15988984D02*
X10706611Y-15988984D01*
X10887563Y-15988984D02*
X10868515Y-15979460D01*
X10868515Y-15979460D02*
X10858992Y-15960412D01*
X10858992Y-15960412D02*
X10858992Y-15788984D01*
X11039944Y-15979460D02*
X11020896Y-15988984D01*
X11020896Y-15988984D02*
X10982801Y-15988984D01*
X10982801Y-15988984D02*
X10963753Y-15979460D01*
X10963753Y-15979460D02*
X10954230Y-15960412D01*
X10954230Y-15960412D02*
X10954230Y-15884222D01*
X10954230Y-15884222D02*
X10963753Y-15865174D01*
X10963753Y-15865174D02*
X10982801Y-15855650D01*
X10982801Y-15855650D02*
X11020896Y-15855650D01*
X11020896Y-15855650D02*
X11039944Y-15865174D01*
X11039944Y-15865174D02*
X11049468Y-15884222D01*
X11049468Y-15884222D02*
X11049468Y-15903269D01*
X11049468Y-15903269D02*
X10954230Y-15922317D01*
X11125658Y-15979460D02*
X11144706Y-15988984D01*
X11144706Y-15988984D02*
X11182801Y-15988984D01*
X11182801Y-15988984D02*
X11201849Y-15979460D01*
X11201849Y-15979460D02*
X11211372Y-15960412D01*
X11211372Y-15960412D02*
X11211372Y-15950888D01*
X11211372Y-15950888D02*
X11201849Y-15931841D01*
X11201849Y-15931841D02*
X11182801Y-15922317D01*
X11182801Y-15922317D02*
X11154230Y-15922317D01*
X11154230Y-15922317D02*
X11135182Y-15912793D01*
X11135182Y-15912793D02*
X11125658Y-15893746D01*
X11125658Y-15893746D02*
X11125658Y-15884222D01*
X11125658Y-15884222D02*
X11135182Y-15865174D01*
X11135182Y-15865174D02*
X11154230Y-15855650D01*
X11154230Y-15855650D02*
X11182801Y-15855650D01*
X11182801Y-15855650D02*
X11201849Y-15865174D01*
X11278039Y-16065174D02*
X11287563Y-16055650D01*
X11287563Y-16055650D02*
X11306611Y-16027079D01*
X11306611Y-16027079D02*
X11316134Y-16008031D01*
X11316134Y-16008031D02*
X11325658Y-15979460D01*
X11325658Y-15979460D02*
X11335182Y-15931841D01*
X11335182Y-15931841D02*
X11335182Y-15893746D01*
X11335182Y-15893746D02*
X11325658Y-15846127D01*
X11325658Y-15846127D02*
X11316134Y-15817555D01*
X11316134Y-15817555D02*
X11306611Y-15798508D01*
X11306611Y-15798508D02*
X11287563Y-15769936D01*
X11287563Y-15769936D02*
X11278039Y-15760412D01*
X11639944Y-16065174D02*
X11630420Y-16055650D01*
X11630420Y-16055650D02*
X11611372Y-16027079D01*
X11611372Y-16027079D02*
X11601849Y-16008031D01*
X11601849Y-16008031D02*
X11592325Y-15979460D01*
X11592325Y-15979460D02*
X11582801Y-15931841D01*
X11582801Y-15931841D02*
X11582801Y-15893746D01*
X11582801Y-15893746D02*
X11592325Y-15846127D01*
X11592325Y-15846127D02*
X11601849Y-15817555D01*
X11601849Y-15817555D02*
X11611372Y-15798508D01*
X11611372Y-15798508D02*
X11630420Y-15769936D01*
X11630420Y-15769936D02*
X11639944Y-15760412D01*
X11716134Y-15855650D02*
X11716134Y-15988984D01*
X11716134Y-15874698D02*
X11725658Y-15865174D01*
X11725658Y-15865174D02*
X11744706Y-15855650D01*
X11744706Y-15855650D02*
X11773277Y-15855650D01*
X11773277Y-15855650D02*
X11792325Y-15865174D01*
X11792325Y-15865174D02*
X11801849Y-15884222D01*
X11801849Y-15884222D02*
X11801849Y-15988984D01*
X11925658Y-15988984D02*
X11906611Y-15979460D01*
X11906611Y-15979460D02*
X11897087Y-15969936D01*
X11897087Y-15969936D02*
X11887563Y-15950888D01*
X11887563Y-15950888D02*
X11887563Y-15893746D01*
X11887563Y-15893746D02*
X11897087Y-15874698D01*
X11897087Y-15874698D02*
X11906611Y-15865174D01*
X11906611Y-15865174D02*
X11925658Y-15855650D01*
X11925658Y-15855650D02*
X11954230Y-15855650D01*
X11954230Y-15855650D02*
X11973277Y-15865174D01*
X11973277Y-15865174D02*
X11982801Y-15874698D01*
X11982801Y-15874698D02*
X11992325Y-15893746D01*
X11992325Y-15893746D02*
X11992325Y-15950888D01*
X11992325Y-15950888D02*
X11982801Y-15969936D01*
X11982801Y-15969936D02*
X11973277Y-15979460D01*
X11973277Y-15979460D02*
X11954230Y-15988984D01*
X11954230Y-15988984D02*
X11925658Y-15988984D01*
X12049468Y-15855650D02*
X12125658Y-15855650D01*
X12078039Y-15788984D02*
X12078039Y-15960412D01*
X12078039Y-15960412D02*
X12087563Y-15979460D01*
X12087563Y-15979460D02*
X12106611Y-15988984D01*
X12106611Y-15988984D02*
X12125658Y-15988984D01*
X12344706Y-15855650D02*
X12344706Y-16055650D01*
X12344706Y-15865174D02*
X12363753Y-15855650D01*
X12363753Y-15855650D02*
X12401849Y-15855650D01*
X12401849Y-15855650D02*
X12420896Y-15865174D01*
X12420896Y-15865174D02*
X12430420Y-15874698D01*
X12430420Y-15874698D02*
X12439944Y-15893746D01*
X12439944Y-15893746D02*
X12439944Y-15950888D01*
X12439944Y-15950888D02*
X12430420Y-15969936D01*
X12430420Y-15969936D02*
X12420896Y-15979460D01*
X12420896Y-15979460D02*
X12401849Y-15988984D01*
X12401849Y-15988984D02*
X12363753Y-15988984D01*
X12363753Y-15988984D02*
X12344706Y-15979460D01*
X12554230Y-15988984D02*
X12535182Y-15979460D01*
X12535182Y-15979460D02*
X12525658Y-15960412D01*
X12525658Y-15960412D02*
X12525658Y-15788984D01*
X12716134Y-15988984D02*
X12716134Y-15884222D01*
X12716134Y-15884222D02*
X12706611Y-15865174D01*
X12706611Y-15865174D02*
X12687563Y-15855650D01*
X12687563Y-15855650D02*
X12649468Y-15855650D01*
X12649468Y-15855650D02*
X12630420Y-15865174D01*
X12716134Y-15979460D02*
X12697087Y-15988984D01*
X12697087Y-15988984D02*
X12649468Y-15988984D01*
X12649468Y-15988984D02*
X12630420Y-15979460D01*
X12630420Y-15979460D02*
X12620896Y-15960412D01*
X12620896Y-15960412D02*
X12620896Y-15941365D01*
X12620896Y-15941365D02*
X12630420Y-15922317D01*
X12630420Y-15922317D02*
X12649468Y-15912793D01*
X12649468Y-15912793D02*
X12697087Y-15912793D01*
X12697087Y-15912793D02*
X12716134Y-15903269D01*
X12782801Y-15855650D02*
X12858992Y-15855650D01*
X12811373Y-15788984D02*
X12811373Y-15960412D01*
X12811373Y-15960412D02*
X12820896Y-15979460D01*
X12820896Y-15979460D02*
X12839944Y-15988984D01*
X12839944Y-15988984D02*
X12858992Y-15988984D01*
X13001849Y-15979460D02*
X12982801Y-15988984D01*
X12982801Y-15988984D02*
X12944706Y-15988984D01*
X12944706Y-15988984D02*
X12925658Y-15979460D01*
X12925658Y-15979460D02*
X12916134Y-15960412D01*
X12916134Y-15960412D02*
X12916134Y-15884222D01*
X12916134Y-15884222D02*
X12925658Y-15865174D01*
X12925658Y-15865174D02*
X12944706Y-15855650D01*
X12944706Y-15855650D02*
X12982801Y-15855650D01*
X12982801Y-15855650D02*
X13001849Y-15865174D01*
X13001849Y-15865174D02*
X13011373Y-15884222D01*
X13011373Y-15884222D02*
X13011373Y-15903269D01*
X13011373Y-15903269D02*
X12916134Y-15922317D01*
X13182801Y-15988984D02*
X13182801Y-15788984D01*
X13182801Y-15979460D02*
X13163754Y-15988984D01*
X13163754Y-15988984D02*
X13125658Y-15988984D01*
X13125658Y-15988984D02*
X13106611Y-15979460D01*
X13106611Y-15979460D02*
X13097087Y-15969936D01*
X13097087Y-15969936D02*
X13087563Y-15950888D01*
X13087563Y-15950888D02*
X13087563Y-15893746D01*
X13087563Y-15893746D02*
X13097087Y-15874698D01*
X13097087Y-15874698D02*
X13106611Y-15865174D01*
X13106611Y-15865174D02*
X13125658Y-15855650D01*
X13125658Y-15855650D02*
X13163754Y-15855650D01*
X13163754Y-15855650D02*
X13182801Y-15865174D01*
X13258992Y-16065174D02*
X13268515Y-16055650D01*
X13268515Y-16055650D02*
X13287563Y-16027079D01*
X13287563Y-16027079D02*
X13297087Y-16008031D01*
X13297087Y-16008031D02*
X13306611Y-15979460D01*
X13306611Y-15979460D02*
X13316134Y-15931841D01*
X13316134Y-15931841D02*
X13316134Y-15893746D01*
X13316134Y-15893746D02*
X13306611Y-15846127D01*
X13306611Y-15846127D02*
X13297087Y-15817555D01*
X13297087Y-15817555D02*
X13287563Y-15798508D01*
X13287563Y-15798508D02*
X13268515Y-15769936D01*
X13268515Y-15769936D02*
X13258992Y-15760412D01*
X6312500Y-16187500D02*
G75*
G02*
X6112500Y-16187500I-100000J0D01*
G01*
X6112500Y-16187500D02*
G75*
G02*
X6312500Y-16187500I100000J0D01*
G01*
X6554229Y-16078984D02*
X6678039Y-16078984D01*
X6678039Y-16078984D02*
X6611372Y-16155174D01*
X6611372Y-16155174D02*
X6639943Y-16155174D01*
X6639943Y-16155174D02*
X6658991Y-16164698D01*
X6658991Y-16164698D02*
X6668515Y-16174222D01*
X6668515Y-16174222D02*
X6678039Y-16193269D01*
X6678039Y-16193269D02*
X6678039Y-16240888D01*
X6678039Y-16240888D02*
X6668515Y-16259936D01*
X6668515Y-16259936D02*
X6658991Y-16269460D01*
X6658991Y-16269460D02*
X6639943Y-16278984D01*
X6639943Y-16278984D02*
X6582801Y-16278984D01*
X6582801Y-16278984D02*
X6563753Y-16269460D01*
X6563753Y-16269460D02*
X6554229Y-16259936D01*
X6763753Y-16259936D02*
X6773277Y-16269460D01*
X6773277Y-16269460D02*
X6763753Y-16278984D01*
X6763753Y-16278984D02*
X6754229Y-16269460D01*
X6754229Y-16269460D02*
X6763753Y-16259936D01*
X6763753Y-16259936D02*
X6763753Y-16278984D01*
X6897086Y-16078984D02*
X6916134Y-16078984D01*
X6916134Y-16078984D02*
X6935182Y-16088508D01*
X6935182Y-16088508D02*
X6944705Y-16098031D01*
X6944705Y-16098031D02*
X6954229Y-16117079D01*
X6954229Y-16117079D02*
X6963753Y-16155174D01*
X6963753Y-16155174D02*
X6963753Y-16202793D01*
X6963753Y-16202793D02*
X6954229Y-16240888D01*
X6954229Y-16240888D02*
X6944705Y-16259936D01*
X6944705Y-16259936D02*
X6935182Y-16269460D01*
X6935182Y-16269460D02*
X6916134Y-16278984D01*
X6916134Y-16278984D02*
X6897086Y-16278984D01*
X6897086Y-16278984D02*
X6878039Y-16269460D01*
X6878039Y-16269460D02*
X6868515Y-16259936D01*
X6868515Y-16259936D02*
X6858991Y-16240888D01*
X6858991Y-16240888D02*
X6849467Y-16202793D01*
X6849467Y-16202793D02*
X6849467Y-16155174D01*
X6849467Y-16155174D02*
X6858991Y-16117079D01*
X6858991Y-16117079D02*
X6868515Y-16098031D01*
X6868515Y-16098031D02*
X6878039Y-16088508D01*
X6878039Y-16088508D02*
X6897086Y-16078984D01*
X7087562Y-16078984D02*
X7106610Y-16078984D01*
X7106610Y-16078984D02*
X7125658Y-16088508D01*
X7125658Y-16088508D02*
X7135182Y-16098031D01*
X7135182Y-16098031D02*
X7144705Y-16117079D01*
X7144705Y-16117079D02*
X7154229Y-16155174D01*
X7154229Y-16155174D02*
X7154229Y-16202793D01*
X7154229Y-16202793D02*
X7144705Y-16240888D01*
X7144705Y-16240888D02*
X7135182Y-16259936D01*
X7135182Y-16259936D02*
X7125658Y-16269460D01*
X7125658Y-16269460D02*
X7106610Y-16278984D01*
X7106610Y-16278984D02*
X7087562Y-16278984D01*
X7087562Y-16278984D02*
X7068515Y-16269460D01*
X7068515Y-16269460D02*
X7058991Y-16259936D01*
X7058991Y-16259936D02*
X7049467Y-16240888D01*
X7049467Y-16240888D02*
X7039943Y-16202793D01*
X7039943Y-16202793D02*
X7039943Y-16155174D01*
X7039943Y-16155174D02*
X7049467Y-16117079D01*
X7049467Y-16117079D02*
X7058991Y-16098031D01*
X7058991Y-16098031D02*
X7068515Y-16088508D01*
X7068515Y-16088508D02*
X7087562Y-16078984D01*
X7278039Y-16078984D02*
X7297086Y-16078984D01*
X7297086Y-16078984D02*
X7316134Y-16088508D01*
X7316134Y-16088508D02*
X7325658Y-16098031D01*
X7325658Y-16098031D02*
X7335182Y-16117079D01*
X7335182Y-16117079D02*
X7344705Y-16155174D01*
X7344705Y-16155174D02*
X7344705Y-16202793D01*
X7344705Y-16202793D02*
X7335182Y-16240888D01*
X7335182Y-16240888D02*
X7325658Y-16259936D01*
X7325658Y-16259936D02*
X7316134Y-16269460D01*
X7316134Y-16269460D02*
X7297086Y-16278984D01*
X7297086Y-16278984D02*
X7278039Y-16278984D01*
X7278039Y-16278984D02*
X7258991Y-16269460D01*
X7258991Y-16269460D02*
X7249467Y-16259936D01*
X7249467Y-16259936D02*
X7239943Y-16240888D01*
X7239943Y-16240888D02*
X7230420Y-16202793D01*
X7230420Y-16202793D02*
X7230420Y-16155174D01*
X7230420Y-16155174D02*
X7239943Y-16117079D01*
X7239943Y-16117079D02*
X7249467Y-16098031D01*
X7249467Y-16098031D02*
X7258991Y-16088508D01*
X7258991Y-16088508D02*
X7278039Y-16078984D01*
X7430420Y-16278984D02*
X7430420Y-16145650D01*
X7430420Y-16164698D02*
X7439943Y-16155174D01*
X7439943Y-16155174D02*
X7458991Y-16145650D01*
X7458991Y-16145650D02*
X7487563Y-16145650D01*
X7487563Y-16145650D02*
X7506610Y-16155174D01*
X7506610Y-16155174D02*
X7516134Y-16174222D01*
X7516134Y-16174222D02*
X7516134Y-16278984D01*
X7516134Y-16174222D02*
X7525658Y-16155174D01*
X7525658Y-16155174D02*
X7544705Y-16145650D01*
X7544705Y-16145650D02*
X7573277Y-16145650D01*
X7573277Y-16145650D02*
X7592324Y-16155174D01*
X7592324Y-16155174D02*
X7601848Y-16174222D01*
X7601848Y-16174222D02*
X7601848Y-16278984D01*
X7697086Y-16278984D02*
X7697086Y-16145650D01*
X7697086Y-16164698D02*
X7706610Y-16155174D01*
X7706610Y-16155174D02*
X7725658Y-16145650D01*
X7725658Y-16145650D02*
X7754229Y-16145650D01*
X7754229Y-16145650D02*
X7773277Y-16155174D01*
X7773277Y-16155174D02*
X7782801Y-16174222D01*
X7782801Y-16174222D02*
X7782801Y-16278984D01*
X7782801Y-16174222D02*
X7792324Y-16155174D01*
X7792324Y-16155174D02*
X7811372Y-16145650D01*
X7811372Y-16145650D02*
X7839943Y-16145650D01*
X7839943Y-16145650D02*
X7858991Y-16155174D01*
X7858991Y-16155174D02*
X7868515Y-16174222D01*
X7868515Y-16174222D02*
X7868515Y-16278984D01*
X8258991Y-16069460D02*
X8087563Y-16326603D01*
X8516134Y-16078984D02*
X8535182Y-16078984D01*
X8535182Y-16078984D02*
X8554229Y-16088508D01*
X8554229Y-16088508D02*
X8563753Y-16098031D01*
X8563753Y-16098031D02*
X8573277Y-16117079D01*
X8573277Y-16117079D02*
X8582801Y-16155174D01*
X8582801Y-16155174D02*
X8582801Y-16202793D01*
X8582801Y-16202793D02*
X8573277Y-16240888D01*
X8573277Y-16240888D02*
X8563753Y-16259936D01*
X8563753Y-16259936D02*
X8554229Y-16269460D01*
X8554229Y-16269460D02*
X8535182Y-16278984D01*
X8535182Y-16278984D02*
X8516134Y-16278984D01*
X8516134Y-16278984D02*
X8497087Y-16269460D01*
X8497087Y-16269460D02*
X8487563Y-16259936D01*
X8487563Y-16259936D02*
X8478039Y-16240888D01*
X8478039Y-16240888D02*
X8468515Y-16202793D01*
X8468515Y-16202793D02*
X8468515Y-16155174D01*
X8468515Y-16155174D02*
X8478039Y-16117079D01*
X8478039Y-16117079D02*
X8487563Y-16098031D01*
X8487563Y-16098031D02*
X8497087Y-16088508D01*
X8497087Y-16088508D02*
X8516134Y-16078984D01*
X8668515Y-16259936D02*
X8678039Y-16269460D01*
X8678039Y-16269460D02*
X8668515Y-16278984D01*
X8668515Y-16278984D02*
X8658991Y-16269460D01*
X8658991Y-16269460D02*
X8668515Y-16259936D01*
X8668515Y-16259936D02*
X8668515Y-16278984D01*
X8868515Y-16278984D02*
X8754229Y-16278984D01*
X8811372Y-16278984D02*
X8811372Y-16078984D01*
X8811372Y-16078984D02*
X8792325Y-16107555D01*
X8792325Y-16107555D02*
X8773277Y-16126603D01*
X8773277Y-16126603D02*
X8754229Y-16136127D01*
X9058991Y-16278984D02*
X8944706Y-16278984D01*
X9001848Y-16278984D02*
X9001848Y-16078984D01*
X9001848Y-16078984D02*
X8982801Y-16107555D01*
X8982801Y-16107555D02*
X8963753Y-16126603D01*
X8963753Y-16126603D02*
X8944706Y-16136127D01*
X9173277Y-16164698D02*
X9154229Y-16155174D01*
X9154229Y-16155174D02*
X9144706Y-16145650D01*
X9144706Y-16145650D02*
X9135182Y-16126603D01*
X9135182Y-16126603D02*
X9135182Y-16117079D01*
X9135182Y-16117079D02*
X9144706Y-16098031D01*
X9144706Y-16098031D02*
X9154229Y-16088508D01*
X9154229Y-16088508D02*
X9173277Y-16078984D01*
X9173277Y-16078984D02*
X9211372Y-16078984D01*
X9211372Y-16078984D02*
X9230420Y-16088508D01*
X9230420Y-16088508D02*
X9239944Y-16098031D01*
X9239944Y-16098031D02*
X9249468Y-16117079D01*
X9249468Y-16117079D02*
X9249468Y-16126603D01*
X9249468Y-16126603D02*
X9239944Y-16145650D01*
X9239944Y-16145650D02*
X9230420Y-16155174D01*
X9230420Y-16155174D02*
X9211372Y-16164698D01*
X9211372Y-16164698D02*
X9173277Y-16164698D01*
X9173277Y-16164698D02*
X9154229Y-16174222D01*
X9154229Y-16174222D02*
X9144706Y-16183746D01*
X9144706Y-16183746D02*
X9135182Y-16202793D01*
X9135182Y-16202793D02*
X9135182Y-16240888D01*
X9135182Y-16240888D02*
X9144706Y-16259936D01*
X9144706Y-16259936D02*
X9154229Y-16269460D01*
X9154229Y-16269460D02*
X9173277Y-16278984D01*
X9173277Y-16278984D02*
X9211372Y-16278984D01*
X9211372Y-16278984D02*
X9230420Y-16269460D01*
X9230420Y-16269460D02*
X9239944Y-16259936D01*
X9239944Y-16259936D02*
X9249468Y-16240888D01*
X9249468Y-16240888D02*
X9249468Y-16202793D01*
X9249468Y-16202793D02*
X9239944Y-16183746D01*
X9239944Y-16183746D02*
X9230420Y-16174222D01*
X9230420Y-16174222D02*
X9211372Y-16164698D01*
X9439944Y-16278984D02*
X9325658Y-16278984D01*
X9382801Y-16278984D02*
X9382801Y-16078984D01*
X9382801Y-16078984D02*
X9363753Y-16107555D01*
X9363753Y-16107555D02*
X9344706Y-16126603D01*
X9344706Y-16126603D02*
X9325658Y-16136127D01*
X9516134Y-16078984D02*
X9516134Y-16117079D01*
X9592325Y-16078984D02*
X9592325Y-16117079D01*
X9887563Y-16355174D02*
X9878039Y-16345650D01*
X9878039Y-16345650D02*
X9858991Y-16317079D01*
X9858991Y-16317079D02*
X9849468Y-16298031D01*
X9849468Y-16298031D02*
X9839944Y-16269460D01*
X9839944Y-16269460D02*
X9830420Y-16221841D01*
X9830420Y-16221841D02*
X9830420Y-16183746D01*
X9830420Y-16183746D02*
X9839944Y-16136127D01*
X9839944Y-16136127D02*
X9849468Y-16107555D01*
X9849468Y-16107555D02*
X9858991Y-16088508D01*
X9858991Y-16088508D02*
X9878039Y-16059936D01*
X9878039Y-16059936D02*
X9887563Y-16050412D01*
X10049468Y-16078984D02*
X10011372Y-16078984D01*
X10011372Y-16078984D02*
X9992325Y-16088508D01*
X9992325Y-16088508D02*
X9982801Y-16098031D01*
X9982801Y-16098031D02*
X9963753Y-16126603D01*
X9963753Y-16126603D02*
X9954230Y-16164698D01*
X9954230Y-16164698D02*
X9954230Y-16240888D01*
X9954230Y-16240888D02*
X9963753Y-16259936D01*
X9963753Y-16259936D02*
X9973277Y-16269460D01*
X9973277Y-16269460D02*
X9992325Y-16278984D01*
X9992325Y-16278984D02*
X10030420Y-16278984D01*
X10030420Y-16278984D02*
X10049468Y-16269460D01*
X10049468Y-16269460D02*
X10058991Y-16259936D01*
X10058991Y-16259936D02*
X10068515Y-16240888D01*
X10068515Y-16240888D02*
X10068515Y-16193269D01*
X10068515Y-16193269D02*
X10058991Y-16174222D01*
X10058991Y-16174222D02*
X10049468Y-16164698D01*
X10049468Y-16164698D02*
X10030420Y-16155174D01*
X10030420Y-16155174D02*
X9992325Y-16155174D01*
X9992325Y-16155174D02*
X9973277Y-16164698D01*
X9973277Y-16164698D02*
X9963753Y-16174222D01*
X9963753Y-16174222D02*
X9954230Y-16193269D01*
X10192325Y-16078984D02*
X10211372Y-16078984D01*
X10211372Y-16078984D02*
X10230420Y-16088508D01*
X10230420Y-16088508D02*
X10239944Y-16098031D01*
X10239944Y-16098031D02*
X10249468Y-16117079D01*
X10249468Y-16117079D02*
X10258991Y-16155174D01*
X10258991Y-16155174D02*
X10258991Y-16202793D01*
X10258991Y-16202793D02*
X10249468Y-16240888D01*
X10249468Y-16240888D02*
X10239944Y-16259936D01*
X10239944Y-16259936D02*
X10230420Y-16269460D01*
X10230420Y-16269460D02*
X10211372Y-16278984D01*
X10211372Y-16278984D02*
X10192325Y-16278984D01*
X10192325Y-16278984D02*
X10173277Y-16269460D01*
X10173277Y-16269460D02*
X10163753Y-16259936D01*
X10163753Y-16259936D02*
X10154230Y-16240888D01*
X10154230Y-16240888D02*
X10144706Y-16202793D01*
X10144706Y-16202793D02*
X10144706Y-16155174D01*
X10144706Y-16155174D02*
X10154230Y-16117079D01*
X10154230Y-16117079D02*
X10163753Y-16098031D01*
X10163753Y-16098031D02*
X10173277Y-16088508D01*
X10173277Y-16088508D02*
X10192325Y-16078984D01*
X10497087Y-16278984D02*
X10497087Y-16078984D01*
X10582801Y-16278984D02*
X10582801Y-16174222D01*
X10582801Y-16174222D02*
X10573277Y-16155174D01*
X10573277Y-16155174D02*
X10554230Y-16145650D01*
X10554230Y-16145650D02*
X10525658Y-16145650D01*
X10525658Y-16145650D02*
X10506611Y-16155174D01*
X10506611Y-16155174D02*
X10497087Y-16164698D01*
X10706611Y-16278984D02*
X10687563Y-16269460D01*
X10687563Y-16269460D02*
X10678039Y-16259936D01*
X10678039Y-16259936D02*
X10668515Y-16240888D01*
X10668515Y-16240888D02*
X10668515Y-16183746D01*
X10668515Y-16183746D02*
X10678039Y-16164698D01*
X10678039Y-16164698D02*
X10687563Y-16155174D01*
X10687563Y-16155174D02*
X10706611Y-16145650D01*
X10706611Y-16145650D02*
X10735182Y-16145650D01*
X10735182Y-16145650D02*
X10754230Y-16155174D01*
X10754230Y-16155174D02*
X10763753Y-16164698D01*
X10763753Y-16164698D02*
X10773277Y-16183746D01*
X10773277Y-16183746D02*
X10773277Y-16240888D01*
X10773277Y-16240888D02*
X10763753Y-16259936D01*
X10763753Y-16259936D02*
X10754230Y-16269460D01*
X10754230Y-16269460D02*
X10735182Y-16278984D01*
X10735182Y-16278984D02*
X10706611Y-16278984D01*
X10887563Y-16278984D02*
X10868515Y-16269460D01*
X10868515Y-16269460D02*
X10858992Y-16250412D01*
X10858992Y-16250412D02*
X10858992Y-16078984D01*
X11039944Y-16269460D02*
X11020896Y-16278984D01*
X11020896Y-16278984D02*
X10982801Y-16278984D01*
X10982801Y-16278984D02*
X10963753Y-16269460D01*
X10963753Y-16269460D02*
X10954230Y-16250412D01*
X10954230Y-16250412D02*
X10954230Y-16174222D01*
X10954230Y-16174222D02*
X10963753Y-16155174D01*
X10963753Y-16155174D02*
X10982801Y-16145650D01*
X10982801Y-16145650D02*
X11020896Y-16145650D01*
X11020896Y-16145650D02*
X11039944Y-16155174D01*
X11039944Y-16155174D02*
X11049468Y-16174222D01*
X11049468Y-16174222D02*
X11049468Y-16193269D01*
X11049468Y-16193269D02*
X10954230Y-16212317D01*
X11125658Y-16269460D02*
X11144706Y-16278984D01*
X11144706Y-16278984D02*
X11182801Y-16278984D01*
X11182801Y-16278984D02*
X11201849Y-16269460D01*
X11201849Y-16269460D02*
X11211372Y-16250412D01*
X11211372Y-16250412D02*
X11211372Y-16240888D01*
X11211372Y-16240888D02*
X11201849Y-16221841D01*
X11201849Y-16221841D02*
X11182801Y-16212317D01*
X11182801Y-16212317D02*
X11154230Y-16212317D01*
X11154230Y-16212317D02*
X11135182Y-16202793D01*
X11135182Y-16202793D02*
X11125658Y-16183746D01*
X11125658Y-16183746D02*
X11125658Y-16174222D01*
X11125658Y-16174222D02*
X11135182Y-16155174D01*
X11135182Y-16155174D02*
X11154230Y-16145650D01*
X11154230Y-16145650D02*
X11182801Y-16145650D01*
X11182801Y-16145650D02*
X11201849Y-16155174D01*
X11278039Y-16355174D02*
X11287563Y-16345650D01*
X11287563Y-16345650D02*
X11306611Y-16317079D01*
X11306611Y-16317079D02*
X11316134Y-16298031D01*
X11316134Y-16298031D02*
X11325658Y-16269460D01*
X11325658Y-16269460D02*
X11335182Y-16221841D01*
X11335182Y-16221841D02*
X11335182Y-16183746D01*
X11335182Y-16183746D02*
X11325658Y-16136127D01*
X11325658Y-16136127D02*
X11316134Y-16107555D01*
X11316134Y-16107555D02*
X11306611Y-16088508D01*
X11306611Y-16088508D02*
X11287563Y-16059936D01*
X11287563Y-16059936D02*
X11278039Y-16050412D01*
X11639944Y-16355174D02*
X11630420Y-16345650D01*
X11630420Y-16345650D02*
X11611372Y-16317079D01*
X11611372Y-16317079D02*
X11601849Y-16298031D01*
X11601849Y-16298031D02*
X11592325Y-16269460D01*
X11592325Y-16269460D02*
X11582801Y-16221841D01*
X11582801Y-16221841D02*
X11582801Y-16183746D01*
X11582801Y-16183746D02*
X11592325Y-16136127D01*
X11592325Y-16136127D02*
X11601849Y-16107555D01*
X11601849Y-16107555D02*
X11611372Y-16088508D01*
X11611372Y-16088508D02*
X11630420Y-16059936D01*
X11630420Y-16059936D02*
X11639944Y-16050412D01*
X11716134Y-16145650D02*
X11716134Y-16278984D01*
X11716134Y-16164698D02*
X11725658Y-16155174D01*
X11725658Y-16155174D02*
X11744706Y-16145650D01*
X11744706Y-16145650D02*
X11773277Y-16145650D01*
X11773277Y-16145650D02*
X11792325Y-16155174D01*
X11792325Y-16155174D02*
X11801849Y-16174222D01*
X11801849Y-16174222D02*
X11801849Y-16278984D01*
X11925658Y-16278984D02*
X11906611Y-16269460D01*
X11906611Y-16269460D02*
X11897087Y-16259936D01*
X11897087Y-16259936D02*
X11887563Y-16240888D01*
X11887563Y-16240888D02*
X11887563Y-16183746D01*
X11887563Y-16183746D02*
X11897087Y-16164698D01*
X11897087Y-16164698D02*
X11906611Y-16155174D01*
X11906611Y-16155174D02*
X11925658Y-16145650D01*
X11925658Y-16145650D02*
X11954230Y-16145650D01*
X11954230Y-16145650D02*
X11973277Y-16155174D01*
X11973277Y-16155174D02*
X11982801Y-16164698D01*
X11982801Y-16164698D02*
X11992325Y-16183746D01*
X11992325Y-16183746D02*
X11992325Y-16240888D01*
X11992325Y-16240888D02*
X11982801Y-16259936D01*
X11982801Y-16259936D02*
X11973277Y-16269460D01*
X11973277Y-16269460D02*
X11954230Y-16278984D01*
X11954230Y-16278984D02*
X11925658Y-16278984D01*
X12049468Y-16145650D02*
X12125658Y-16145650D01*
X12078039Y-16078984D02*
X12078039Y-16250412D01*
X12078039Y-16250412D02*
X12087563Y-16269460D01*
X12087563Y-16269460D02*
X12106611Y-16278984D01*
X12106611Y-16278984D02*
X12125658Y-16278984D01*
X12344706Y-16145650D02*
X12344706Y-16345650D01*
X12344706Y-16155174D02*
X12363753Y-16145650D01*
X12363753Y-16145650D02*
X12401849Y-16145650D01*
X12401849Y-16145650D02*
X12420896Y-16155174D01*
X12420896Y-16155174D02*
X12430420Y-16164698D01*
X12430420Y-16164698D02*
X12439944Y-16183746D01*
X12439944Y-16183746D02*
X12439944Y-16240888D01*
X12439944Y-16240888D02*
X12430420Y-16259936D01*
X12430420Y-16259936D02*
X12420896Y-16269460D01*
X12420896Y-16269460D02*
X12401849Y-16278984D01*
X12401849Y-16278984D02*
X12363753Y-16278984D01*
X12363753Y-16278984D02*
X12344706Y-16269460D01*
X12554230Y-16278984D02*
X12535182Y-16269460D01*
X12535182Y-16269460D02*
X12525658Y-16250412D01*
X12525658Y-16250412D02*
X12525658Y-16078984D01*
X12716134Y-16278984D02*
X12716134Y-16174222D01*
X12716134Y-16174222D02*
X12706611Y-16155174D01*
X12706611Y-16155174D02*
X12687563Y-16145650D01*
X12687563Y-16145650D02*
X12649468Y-16145650D01*
X12649468Y-16145650D02*
X12630420Y-16155174D01*
X12716134Y-16269460D02*
X12697087Y-16278984D01*
X12697087Y-16278984D02*
X12649468Y-16278984D01*
X12649468Y-16278984D02*
X12630420Y-16269460D01*
X12630420Y-16269460D02*
X12620896Y-16250412D01*
X12620896Y-16250412D02*
X12620896Y-16231365D01*
X12620896Y-16231365D02*
X12630420Y-16212317D01*
X12630420Y-16212317D02*
X12649468Y-16202793D01*
X12649468Y-16202793D02*
X12697087Y-16202793D01*
X12697087Y-16202793D02*
X12716134Y-16193269D01*
X12782801Y-16145650D02*
X12858992Y-16145650D01*
X12811373Y-16078984D02*
X12811373Y-16250412D01*
X12811373Y-16250412D02*
X12820896Y-16269460D01*
X12820896Y-16269460D02*
X12839944Y-16278984D01*
X12839944Y-16278984D02*
X12858992Y-16278984D01*
X13001849Y-16269460D02*
X12982801Y-16278984D01*
X12982801Y-16278984D02*
X12944706Y-16278984D01*
X12944706Y-16278984D02*
X12925658Y-16269460D01*
X12925658Y-16269460D02*
X12916134Y-16250412D01*
X12916134Y-16250412D02*
X12916134Y-16174222D01*
X12916134Y-16174222D02*
X12925658Y-16155174D01*
X12925658Y-16155174D02*
X12944706Y-16145650D01*
X12944706Y-16145650D02*
X12982801Y-16145650D01*
X12982801Y-16145650D02*
X13001849Y-16155174D01*
X13001849Y-16155174D02*
X13011373Y-16174222D01*
X13011373Y-16174222D02*
X13011373Y-16193269D01*
X13011373Y-16193269D02*
X12916134Y-16212317D01*
X13182801Y-16278984D02*
X13182801Y-16078984D01*
X13182801Y-16269460D02*
X13163754Y-16278984D01*
X13163754Y-16278984D02*
X13125658Y-16278984D01*
X13125658Y-16278984D02*
X13106611Y-16269460D01*
X13106611Y-16269460D02*
X13097087Y-16259936D01*
X13097087Y-16259936D02*
X13087563Y-16240888D01*
X13087563Y-16240888D02*
X13087563Y-16183746D01*
X13087563Y-16183746D02*
X13097087Y-16164698D01*
X13097087Y-16164698D02*
X13106611Y-16155174D01*
X13106611Y-16155174D02*
X13125658Y-16145650D01*
X13125658Y-16145650D02*
X13163754Y-16145650D01*
X13163754Y-16145650D02*
X13182801Y-16155174D01*
X13258992Y-16355174D02*
X13268515Y-16345650D01*
X13268515Y-16345650D02*
X13287563Y-16317079D01*
X13287563Y-16317079D02*
X13297087Y-16298031D01*
X13297087Y-16298031D02*
X13306611Y-16269460D01*
X13306611Y-16269460D02*
X13316134Y-16221841D01*
X13316134Y-16221841D02*
X13316134Y-16183746D01*
X13316134Y-16183746D02*
X13306611Y-16136127D01*
X13306611Y-16136127D02*
X13297087Y-16107555D01*
X13297087Y-16107555D02*
X13287563Y-16088508D01*
X13287563Y-16088508D02*
X13268515Y-16059936D01*
X13268515Y-16059936D02*
X13258992Y-16050412D01*
X6212500Y-16407500D02*
X6212500Y-16607500D01*
X6112500Y-16507500D02*
X6312500Y-16507500D01*
X6658991Y-16465650D02*
X6658991Y-16598984D01*
X6611372Y-16389460D02*
X6563753Y-16532317D01*
X6563753Y-16532317D02*
X6687562Y-16532317D01*
X6763753Y-16579936D02*
X6773277Y-16589460D01*
X6773277Y-16589460D02*
X6763753Y-16598984D01*
X6763753Y-16598984D02*
X6754229Y-16589460D01*
X6754229Y-16589460D02*
X6763753Y-16579936D01*
X6763753Y-16579936D02*
X6763753Y-16598984D01*
X6897086Y-16398984D02*
X6916134Y-16398984D01*
X6916134Y-16398984D02*
X6935182Y-16408508D01*
X6935182Y-16408508D02*
X6944705Y-16418031D01*
X6944705Y-16418031D02*
X6954229Y-16437079D01*
X6954229Y-16437079D02*
X6963753Y-16475174D01*
X6963753Y-16475174D02*
X6963753Y-16522793D01*
X6963753Y-16522793D02*
X6954229Y-16560888D01*
X6954229Y-16560888D02*
X6944705Y-16579936D01*
X6944705Y-16579936D02*
X6935182Y-16589460D01*
X6935182Y-16589460D02*
X6916134Y-16598984D01*
X6916134Y-16598984D02*
X6897086Y-16598984D01*
X6897086Y-16598984D02*
X6878039Y-16589460D01*
X6878039Y-16589460D02*
X6868515Y-16579936D01*
X6868515Y-16579936D02*
X6858991Y-16560888D01*
X6858991Y-16560888D02*
X6849467Y-16522793D01*
X6849467Y-16522793D02*
X6849467Y-16475174D01*
X6849467Y-16475174D02*
X6858991Y-16437079D01*
X6858991Y-16437079D02*
X6868515Y-16418031D01*
X6868515Y-16418031D02*
X6878039Y-16408508D01*
X6878039Y-16408508D02*
X6897086Y-16398984D01*
X7087562Y-16398984D02*
X7106610Y-16398984D01*
X7106610Y-16398984D02*
X7125658Y-16408508D01*
X7125658Y-16408508D02*
X7135182Y-16418031D01*
X7135182Y-16418031D02*
X7144705Y-16437079D01*
X7144705Y-16437079D02*
X7154229Y-16475174D01*
X7154229Y-16475174D02*
X7154229Y-16522793D01*
X7154229Y-16522793D02*
X7144705Y-16560888D01*
X7144705Y-16560888D02*
X7135182Y-16579936D01*
X7135182Y-16579936D02*
X7125658Y-16589460D01*
X7125658Y-16589460D02*
X7106610Y-16598984D01*
X7106610Y-16598984D02*
X7087562Y-16598984D01*
X7087562Y-16598984D02*
X7068515Y-16589460D01*
X7068515Y-16589460D02*
X7058991Y-16579936D01*
X7058991Y-16579936D02*
X7049467Y-16560888D01*
X7049467Y-16560888D02*
X7039943Y-16522793D01*
X7039943Y-16522793D02*
X7039943Y-16475174D01*
X7039943Y-16475174D02*
X7049467Y-16437079D01*
X7049467Y-16437079D02*
X7058991Y-16418031D01*
X7058991Y-16418031D02*
X7068515Y-16408508D01*
X7068515Y-16408508D02*
X7087562Y-16398984D01*
X7278039Y-16398984D02*
X7297086Y-16398984D01*
X7297086Y-16398984D02*
X7316134Y-16408508D01*
X7316134Y-16408508D02*
X7325658Y-16418031D01*
X7325658Y-16418031D02*
X7335182Y-16437079D01*
X7335182Y-16437079D02*
X7344705Y-16475174D01*
X7344705Y-16475174D02*
X7344705Y-16522793D01*
X7344705Y-16522793D02*
X7335182Y-16560888D01*
X7335182Y-16560888D02*
X7325658Y-16579936D01*
X7325658Y-16579936D02*
X7316134Y-16589460D01*
X7316134Y-16589460D02*
X7297086Y-16598984D01*
X7297086Y-16598984D02*
X7278039Y-16598984D01*
X7278039Y-16598984D02*
X7258991Y-16589460D01*
X7258991Y-16589460D02*
X7249467Y-16579936D01*
X7249467Y-16579936D02*
X7239943Y-16560888D01*
X7239943Y-16560888D02*
X7230420Y-16522793D01*
X7230420Y-16522793D02*
X7230420Y-16475174D01*
X7230420Y-16475174D02*
X7239943Y-16437079D01*
X7239943Y-16437079D02*
X7249467Y-16418031D01*
X7249467Y-16418031D02*
X7258991Y-16408508D01*
X7258991Y-16408508D02*
X7278039Y-16398984D01*
X7430420Y-16598984D02*
X7430420Y-16465650D01*
X7430420Y-16484698D02*
X7439943Y-16475174D01*
X7439943Y-16475174D02*
X7458991Y-16465650D01*
X7458991Y-16465650D02*
X7487563Y-16465650D01*
X7487563Y-16465650D02*
X7506610Y-16475174D01*
X7506610Y-16475174D02*
X7516134Y-16494222D01*
X7516134Y-16494222D02*
X7516134Y-16598984D01*
X7516134Y-16494222D02*
X7525658Y-16475174D01*
X7525658Y-16475174D02*
X7544705Y-16465650D01*
X7544705Y-16465650D02*
X7573277Y-16465650D01*
X7573277Y-16465650D02*
X7592324Y-16475174D01*
X7592324Y-16475174D02*
X7601848Y-16494222D01*
X7601848Y-16494222D02*
X7601848Y-16598984D01*
X7697086Y-16598984D02*
X7697086Y-16465650D01*
X7697086Y-16484698D02*
X7706610Y-16475174D01*
X7706610Y-16475174D02*
X7725658Y-16465650D01*
X7725658Y-16465650D02*
X7754229Y-16465650D01*
X7754229Y-16465650D02*
X7773277Y-16475174D01*
X7773277Y-16475174D02*
X7782801Y-16494222D01*
X7782801Y-16494222D02*
X7782801Y-16598984D01*
X7782801Y-16494222D02*
X7792324Y-16475174D01*
X7792324Y-16475174D02*
X7811372Y-16465650D01*
X7811372Y-16465650D02*
X7839943Y-16465650D01*
X7839943Y-16465650D02*
X7858991Y-16475174D01*
X7858991Y-16475174D02*
X7868515Y-16494222D01*
X7868515Y-16494222D02*
X7868515Y-16598984D01*
X8258991Y-16389460D02*
X8087563Y-16646603D01*
X8516134Y-16398984D02*
X8535182Y-16398984D01*
X8535182Y-16398984D02*
X8554229Y-16408508D01*
X8554229Y-16408508D02*
X8563753Y-16418031D01*
X8563753Y-16418031D02*
X8573277Y-16437079D01*
X8573277Y-16437079D02*
X8582801Y-16475174D01*
X8582801Y-16475174D02*
X8582801Y-16522793D01*
X8582801Y-16522793D02*
X8573277Y-16560888D01*
X8573277Y-16560888D02*
X8563753Y-16579936D01*
X8563753Y-16579936D02*
X8554229Y-16589460D01*
X8554229Y-16589460D02*
X8535182Y-16598984D01*
X8535182Y-16598984D02*
X8516134Y-16598984D01*
X8516134Y-16598984D02*
X8497087Y-16589460D01*
X8497087Y-16589460D02*
X8487563Y-16579936D01*
X8487563Y-16579936D02*
X8478039Y-16560888D01*
X8478039Y-16560888D02*
X8468515Y-16522793D01*
X8468515Y-16522793D02*
X8468515Y-16475174D01*
X8468515Y-16475174D02*
X8478039Y-16437079D01*
X8478039Y-16437079D02*
X8487563Y-16418031D01*
X8487563Y-16418031D02*
X8497087Y-16408508D01*
X8497087Y-16408508D02*
X8516134Y-16398984D01*
X8668515Y-16579936D02*
X8678039Y-16589460D01*
X8678039Y-16589460D02*
X8668515Y-16598984D01*
X8668515Y-16598984D02*
X8658991Y-16589460D01*
X8658991Y-16589460D02*
X8668515Y-16579936D01*
X8668515Y-16579936D02*
X8668515Y-16598984D01*
X8868515Y-16598984D02*
X8754229Y-16598984D01*
X8811372Y-16598984D02*
X8811372Y-16398984D01*
X8811372Y-16398984D02*
X8792325Y-16427555D01*
X8792325Y-16427555D02*
X8773277Y-16446603D01*
X8773277Y-16446603D02*
X8754229Y-16456127D01*
X9049468Y-16398984D02*
X8954229Y-16398984D01*
X8954229Y-16398984D02*
X8944706Y-16494222D01*
X8944706Y-16494222D02*
X8954229Y-16484698D01*
X8954229Y-16484698D02*
X8973277Y-16475174D01*
X8973277Y-16475174D02*
X9020896Y-16475174D01*
X9020896Y-16475174D02*
X9039944Y-16484698D01*
X9039944Y-16484698D02*
X9049468Y-16494222D01*
X9049468Y-16494222D02*
X9058991Y-16513269D01*
X9058991Y-16513269D02*
X9058991Y-16560888D01*
X9058991Y-16560888D02*
X9049468Y-16579936D01*
X9049468Y-16579936D02*
X9039944Y-16589460D01*
X9039944Y-16589460D02*
X9020896Y-16598984D01*
X9020896Y-16598984D02*
X8973277Y-16598984D01*
X8973277Y-16598984D02*
X8954229Y-16589460D01*
X8954229Y-16589460D02*
X8944706Y-16579936D01*
X9125658Y-16398984D02*
X9258991Y-16398984D01*
X9258991Y-16398984D02*
X9173277Y-16598984D01*
X9430420Y-16398984D02*
X9335182Y-16398984D01*
X9335182Y-16398984D02*
X9325658Y-16494222D01*
X9325658Y-16494222D02*
X9335182Y-16484698D01*
X9335182Y-16484698D02*
X9354229Y-16475174D01*
X9354229Y-16475174D02*
X9401849Y-16475174D01*
X9401849Y-16475174D02*
X9420896Y-16484698D01*
X9420896Y-16484698D02*
X9430420Y-16494222D01*
X9430420Y-16494222D02*
X9439944Y-16513269D01*
X9439944Y-16513269D02*
X9439944Y-16560888D01*
X9439944Y-16560888D02*
X9430420Y-16579936D01*
X9430420Y-16579936D02*
X9420896Y-16589460D01*
X9420896Y-16589460D02*
X9401849Y-16598984D01*
X9401849Y-16598984D02*
X9354229Y-16598984D01*
X9354229Y-16598984D02*
X9335182Y-16589460D01*
X9335182Y-16589460D02*
X9325658Y-16579936D01*
X9516134Y-16398984D02*
X9516134Y-16437079D01*
X9592325Y-16398984D02*
X9592325Y-16437079D01*
X9887563Y-16675174D02*
X9878039Y-16665650D01*
X9878039Y-16665650D02*
X9858991Y-16637079D01*
X9858991Y-16637079D02*
X9849468Y-16618031D01*
X9849468Y-16618031D02*
X9839944Y-16589460D01*
X9839944Y-16589460D02*
X9830420Y-16541841D01*
X9830420Y-16541841D02*
X9830420Y-16503746D01*
X9830420Y-16503746D02*
X9839944Y-16456127D01*
X9839944Y-16456127D02*
X9849468Y-16427555D01*
X9849468Y-16427555D02*
X9858991Y-16408508D01*
X9858991Y-16408508D02*
X9878039Y-16379936D01*
X9878039Y-16379936D02*
X9887563Y-16370412D01*
X9944706Y-16398984D02*
X10068515Y-16398984D01*
X10068515Y-16398984D02*
X10001849Y-16475174D01*
X10001849Y-16475174D02*
X10030420Y-16475174D01*
X10030420Y-16475174D02*
X10049468Y-16484698D01*
X10049468Y-16484698D02*
X10058991Y-16494222D01*
X10058991Y-16494222D02*
X10068515Y-16513269D01*
X10068515Y-16513269D02*
X10068515Y-16560888D01*
X10068515Y-16560888D02*
X10058991Y-16579936D01*
X10058991Y-16579936D02*
X10049468Y-16589460D01*
X10049468Y-16589460D02*
X10030420Y-16598984D01*
X10030420Y-16598984D02*
X9973277Y-16598984D01*
X9973277Y-16598984D02*
X9954230Y-16589460D01*
X9954230Y-16589460D02*
X9944706Y-16579936D01*
X10192325Y-16398984D02*
X10211372Y-16398984D01*
X10211372Y-16398984D02*
X10230420Y-16408508D01*
X10230420Y-16408508D02*
X10239944Y-16418031D01*
X10239944Y-16418031D02*
X10249468Y-16437079D01*
X10249468Y-16437079D02*
X10258991Y-16475174D01*
X10258991Y-16475174D02*
X10258991Y-16522793D01*
X10258991Y-16522793D02*
X10249468Y-16560888D01*
X10249468Y-16560888D02*
X10239944Y-16579936D01*
X10239944Y-16579936D02*
X10230420Y-16589460D01*
X10230420Y-16589460D02*
X10211372Y-16598984D01*
X10211372Y-16598984D02*
X10192325Y-16598984D01*
X10192325Y-16598984D02*
X10173277Y-16589460D01*
X10173277Y-16589460D02*
X10163753Y-16579936D01*
X10163753Y-16579936D02*
X10154230Y-16560888D01*
X10154230Y-16560888D02*
X10144706Y-16522793D01*
X10144706Y-16522793D02*
X10144706Y-16475174D01*
X10144706Y-16475174D02*
X10154230Y-16437079D01*
X10154230Y-16437079D02*
X10163753Y-16418031D01*
X10163753Y-16418031D02*
X10173277Y-16408508D01*
X10173277Y-16408508D02*
X10192325Y-16398984D01*
X10497087Y-16598984D02*
X10497087Y-16398984D01*
X10582801Y-16598984D02*
X10582801Y-16494222D01*
X10582801Y-16494222D02*
X10573277Y-16475174D01*
X10573277Y-16475174D02*
X10554230Y-16465650D01*
X10554230Y-16465650D02*
X10525658Y-16465650D01*
X10525658Y-16465650D02*
X10506611Y-16475174D01*
X10506611Y-16475174D02*
X10497087Y-16484698D01*
X10706611Y-16598984D02*
X10687563Y-16589460D01*
X10687563Y-16589460D02*
X10678039Y-16579936D01*
X10678039Y-16579936D02*
X10668515Y-16560888D01*
X10668515Y-16560888D02*
X10668515Y-16503746D01*
X10668515Y-16503746D02*
X10678039Y-16484698D01*
X10678039Y-16484698D02*
X10687563Y-16475174D01*
X10687563Y-16475174D02*
X10706611Y-16465650D01*
X10706611Y-16465650D02*
X10735182Y-16465650D01*
X10735182Y-16465650D02*
X10754230Y-16475174D01*
X10754230Y-16475174D02*
X10763753Y-16484698D01*
X10763753Y-16484698D02*
X10773277Y-16503746D01*
X10773277Y-16503746D02*
X10773277Y-16560888D01*
X10773277Y-16560888D02*
X10763753Y-16579936D01*
X10763753Y-16579936D02*
X10754230Y-16589460D01*
X10754230Y-16589460D02*
X10735182Y-16598984D01*
X10735182Y-16598984D02*
X10706611Y-16598984D01*
X10887563Y-16598984D02*
X10868515Y-16589460D01*
X10868515Y-16589460D02*
X10858992Y-16570412D01*
X10858992Y-16570412D02*
X10858992Y-16398984D01*
X11039944Y-16589460D02*
X11020896Y-16598984D01*
X11020896Y-16598984D02*
X10982801Y-16598984D01*
X10982801Y-16598984D02*
X10963753Y-16589460D01*
X10963753Y-16589460D02*
X10954230Y-16570412D01*
X10954230Y-16570412D02*
X10954230Y-16494222D01*
X10954230Y-16494222D02*
X10963753Y-16475174D01*
X10963753Y-16475174D02*
X10982801Y-16465650D01*
X10982801Y-16465650D02*
X11020896Y-16465650D01*
X11020896Y-16465650D02*
X11039944Y-16475174D01*
X11039944Y-16475174D02*
X11049468Y-16494222D01*
X11049468Y-16494222D02*
X11049468Y-16513269D01*
X11049468Y-16513269D02*
X10954230Y-16532317D01*
X11125658Y-16589460D02*
X11144706Y-16598984D01*
X11144706Y-16598984D02*
X11182801Y-16598984D01*
X11182801Y-16598984D02*
X11201849Y-16589460D01*
X11201849Y-16589460D02*
X11211372Y-16570412D01*
X11211372Y-16570412D02*
X11211372Y-16560888D01*
X11211372Y-16560888D02*
X11201849Y-16541841D01*
X11201849Y-16541841D02*
X11182801Y-16532317D01*
X11182801Y-16532317D02*
X11154230Y-16532317D01*
X11154230Y-16532317D02*
X11135182Y-16522793D01*
X11135182Y-16522793D02*
X11125658Y-16503746D01*
X11125658Y-16503746D02*
X11125658Y-16494222D01*
X11125658Y-16494222D02*
X11135182Y-16475174D01*
X11135182Y-16475174D02*
X11154230Y-16465650D01*
X11154230Y-16465650D02*
X11182801Y-16465650D01*
X11182801Y-16465650D02*
X11201849Y-16475174D01*
X11278039Y-16675174D02*
X11287563Y-16665650D01*
X11287563Y-16665650D02*
X11306611Y-16637079D01*
X11306611Y-16637079D02*
X11316134Y-16618031D01*
X11316134Y-16618031D02*
X11325658Y-16589460D01*
X11325658Y-16589460D02*
X11335182Y-16541841D01*
X11335182Y-16541841D02*
X11335182Y-16503746D01*
X11335182Y-16503746D02*
X11325658Y-16456127D01*
X11325658Y-16456127D02*
X11316134Y-16427555D01*
X11316134Y-16427555D02*
X11306611Y-16408508D01*
X11306611Y-16408508D02*
X11287563Y-16379936D01*
X11287563Y-16379936D02*
X11278039Y-16370412D01*
X11639944Y-16675174D02*
X11630420Y-16665650D01*
X11630420Y-16665650D02*
X11611372Y-16637079D01*
X11611372Y-16637079D02*
X11601849Y-16618031D01*
X11601849Y-16618031D02*
X11592325Y-16589460D01*
X11592325Y-16589460D02*
X11582801Y-16541841D01*
X11582801Y-16541841D02*
X11582801Y-16503746D01*
X11582801Y-16503746D02*
X11592325Y-16456127D01*
X11592325Y-16456127D02*
X11601849Y-16427555D01*
X11601849Y-16427555D02*
X11611372Y-16408508D01*
X11611372Y-16408508D02*
X11630420Y-16379936D01*
X11630420Y-16379936D02*
X11639944Y-16370412D01*
X11716134Y-16465650D02*
X11716134Y-16598984D01*
X11716134Y-16484698D02*
X11725658Y-16475174D01*
X11725658Y-16475174D02*
X11744706Y-16465650D01*
X11744706Y-16465650D02*
X11773277Y-16465650D01*
X11773277Y-16465650D02*
X11792325Y-16475174D01*
X11792325Y-16475174D02*
X11801849Y-16494222D01*
X11801849Y-16494222D02*
X11801849Y-16598984D01*
X11925658Y-16598984D02*
X11906611Y-16589460D01*
X11906611Y-16589460D02*
X11897087Y-16579936D01*
X11897087Y-16579936D02*
X11887563Y-16560888D01*
X11887563Y-16560888D02*
X11887563Y-16503746D01*
X11887563Y-16503746D02*
X11897087Y-16484698D01*
X11897087Y-16484698D02*
X11906611Y-16475174D01*
X11906611Y-16475174D02*
X11925658Y-16465650D01*
X11925658Y-16465650D02*
X11954230Y-16465650D01*
X11954230Y-16465650D02*
X11973277Y-16475174D01*
X11973277Y-16475174D02*
X11982801Y-16484698D01*
X11982801Y-16484698D02*
X11992325Y-16503746D01*
X11992325Y-16503746D02*
X11992325Y-16560888D01*
X11992325Y-16560888D02*
X11982801Y-16579936D01*
X11982801Y-16579936D02*
X11973277Y-16589460D01*
X11973277Y-16589460D02*
X11954230Y-16598984D01*
X11954230Y-16598984D02*
X11925658Y-16598984D01*
X12049468Y-16465650D02*
X12125658Y-16465650D01*
X12078039Y-16398984D02*
X12078039Y-16570412D01*
X12078039Y-16570412D02*
X12087563Y-16589460D01*
X12087563Y-16589460D02*
X12106611Y-16598984D01*
X12106611Y-16598984D02*
X12125658Y-16598984D01*
X12344706Y-16465650D02*
X12344706Y-16665650D01*
X12344706Y-16475174D02*
X12363753Y-16465650D01*
X12363753Y-16465650D02*
X12401849Y-16465650D01*
X12401849Y-16465650D02*
X12420896Y-16475174D01*
X12420896Y-16475174D02*
X12430420Y-16484698D01*
X12430420Y-16484698D02*
X12439944Y-16503746D01*
X12439944Y-16503746D02*
X12439944Y-16560888D01*
X12439944Y-16560888D02*
X12430420Y-16579936D01*
X12430420Y-16579936D02*
X12420896Y-16589460D01*
X12420896Y-16589460D02*
X12401849Y-16598984D01*
X12401849Y-16598984D02*
X12363753Y-16598984D01*
X12363753Y-16598984D02*
X12344706Y-16589460D01*
X12554230Y-16598984D02*
X12535182Y-16589460D01*
X12535182Y-16589460D02*
X12525658Y-16570412D01*
X12525658Y-16570412D02*
X12525658Y-16398984D01*
X12716134Y-16598984D02*
X12716134Y-16494222D01*
X12716134Y-16494222D02*
X12706611Y-16475174D01*
X12706611Y-16475174D02*
X12687563Y-16465650D01*
X12687563Y-16465650D02*
X12649468Y-16465650D01*
X12649468Y-16465650D02*
X12630420Y-16475174D01*
X12716134Y-16589460D02*
X12697087Y-16598984D01*
X12697087Y-16598984D02*
X12649468Y-16598984D01*
X12649468Y-16598984D02*
X12630420Y-16589460D01*
X12630420Y-16589460D02*
X12620896Y-16570412D01*
X12620896Y-16570412D02*
X12620896Y-16551365D01*
X12620896Y-16551365D02*
X12630420Y-16532317D01*
X12630420Y-16532317D02*
X12649468Y-16522793D01*
X12649468Y-16522793D02*
X12697087Y-16522793D01*
X12697087Y-16522793D02*
X12716134Y-16513269D01*
X12782801Y-16465650D02*
X12858992Y-16465650D01*
X12811373Y-16398984D02*
X12811373Y-16570412D01*
X12811373Y-16570412D02*
X12820896Y-16589460D01*
X12820896Y-16589460D02*
X12839944Y-16598984D01*
X12839944Y-16598984D02*
X12858992Y-16598984D01*
X13001849Y-16589460D02*
X12982801Y-16598984D01*
X12982801Y-16598984D02*
X12944706Y-16598984D01*
X12944706Y-16598984D02*
X12925658Y-16589460D01*
X12925658Y-16589460D02*
X12916134Y-16570412D01*
X12916134Y-16570412D02*
X12916134Y-16494222D01*
X12916134Y-16494222D02*
X12925658Y-16475174D01*
X12925658Y-16475174D02*
X12944706Y-16465650D01*
X12944706Y-16465650D02*
X12982801Y-16465650D01*
X12982801Y-16465650D02*
X13001849Y-16475174D01*
X13001849Y-16475174D02*
X13011373Y-16494222D01*
X13011373Y-16494222D02*
X13011373Y-16513269D01*
X13011373Y-16513269D02*
X12916134Y-16532317D01*
X13182801Y-16598984D02*
X13182801Y-16398984D01*
X13182801Y-16589460D02*
X13163754Y-16598984D01*
X13163754Y-16598984D02*
X13125658Y-16598984D01*
X13125658Y-16598984D02*
X13106611Y-16589460D01*
X13106611Y-16589460D02*
X13097087Y-16579936D01*
X13097087Y-16579936D02*
X13087563Y-16560888D01*
X13087563Y-16560888D02*
X13087563Y-16503746D01*
X13087563Y-16503746D02*
X13097087Y-16484698D01*
X13097087Y-16484698D02*
X13106611Y-16475174D01*
X13106611Y-16475174D02*
X13125658Y-16465650D01*
X13125658Y-16465650D02*
X13163754Y-16465650D01*
X13163754Y-16465650D02*
X13182801Y-16475174D01*
X13258992Y-16675174D02*
X13268515Y-16665650D01*
X13268515Y-16665650D02*
X13287563Y-16637079D01*
X13287563Y-16637079D02*
X13297087Y-16618031D01*
X13297087Y-16618031D02*
X13306611Y-16589460D01*
X13306611Y-16589460D02*
X13316134Y-16541841D01*
X13316134Y-16541841D02*
X13316134Y-16503746D01*
X13316134Y-16503746D02*
X13306611Y-16456127D01*
X13306611Y-16456127D02*
X13297087Y-16427555D01*
X13297087Y-16427555D02*
X13287563Y-16408508D01*
X13287563Y-16408508D02*
X13268515Y-16379936D01*
X13268515Y-16379936D02*
X13258992Y-16370412D01*
M02*
