G04 #@! TF.GenerationSoftware,KiCad,Pcbnew,8.0.3*
G04 #@! TF.CreationDate,2024-08-13T11:44:21+03:00*
G04 #@! TF.ProjectId,Keyboard_stm32,4b657962-6f61-4726-945f-73746d33322e,rev?*
G04 #@! TF.SameCoordinates,Original*
G04 #@! TF.FileFunction,Soldermask,Bot*
G04 #@! TF.FilePolarity,Negative*
%FSLAX46Y46*%
G04 Gerber Fmt 4.6, Leading zero omitted, Abs format (unit mm)*
G04 Created by KiCad (PCBNEW 8.0.3) date 2024-08-13 11:44:21*
%MOMM*%
%LPD*%
G01*
G04 APERTURE LIST*
G04 Aperture macros list*
%AMRoundRect*
0 Rectangle with rounded corners*
0 $1 Rounding radius*
0 $2 $3 $4 $5 $6 $7 $8 $9 X,Y pos of 4 corners*
0 Add a 4 corners polygon primitive as box body*
4,1,4,$2,$3,$4,$5,$6,$7,$8,$9,$2,$3,0*
0 Add four circle primitives for the rounded corners*
1,1,$1+$1,$2,$3*
1,1,$1+$1,$4,$5*
1,1,$1+$1,$6,$7*
1,1,$1+$1,$8,$9*
0 Add four rect primitives between the rounded corners*
20,1,$1+$1,$2,$3,$4,$5,0*
20,1,$1+$1,$4,$5,$6,$7,0*
20,1,$1+$1,$6,$7,$8,$9,0*
20,1,$1+$1,$8,$9,$2,$3,0*%
G04 Aperture macros list end*
%ADD10C,1.700000*%
%ADD11C,3.000000*%
%ADD12C,4.000000*%
%ADD13R,2.550000X2.500000*%
%ADD14C,5.000000*%
%ADD15R,1.500000X1.500000*%
%ADD16C,1.500000*%
%ADD17O,1.000000X1.800000*%
%ADD18O,1.000000X2.200000*%
%ADD19C,1.550000*%
%ADD20C,4.350000*%
%ADD21R,1.100000X1.100000*%
%ADD22C,1.100000*%
%ADD23R,0.740000X1.020000*%
%ADD24RoundRect,0.250000X0.475000X-0.337500X0.475000X0.337500X-0.475000X0.337500X-0.475000X-0.337500X0*%
%ADD25RoundRect,0.237500X-0.237500X0.250000X-0.237500X-0.250000X0.237500X-0.250000X0.237500X0.250000X0*%
%ADD26RoundRect,0.250000X-0.475000X0.337500X-0.475000X-0.337500X0.475000X-0.337500X0.475000X0.337500X0*%
%ADD27RoundRect,0.250000X0.337500X0.475000X-0.337500X0.475000X-0.337500X-0.475000X0.337500X-0.475000X0*%
%ADD28RoundRect,0.250000X0.650000X-0.412500X0.650000X0.412500X-0.650000X0.412500X-0.650000X-0.412500X0*%
%ADD29R,1.700000X2.100000*%
%ADD30RoundRect,0.200000X0.200000X-0.750000X0.200000X0.750000X-0.200000X0.750000X-0.200000X-0.750000X0*%
%ADD31R,1.020000X0.740000*%
%ADD32RoundRect,0.250000X-0.337500X-0.475000X0.337500X-0.475000X0.337500X0.475000X-0.337500X0.475000X0*%
%ADD33C,1.524000*%
%ADD34RoundRect,0.250000X-0.250000X0.250000X-0.250000X-0.250000X0.250000X-0.250000X0.250000X0.250000X0*%
%ADD35R,0.600000X1.200000*%
%ADD36R,0.450000X1.400000*%
%ADD37RoundRect,0.237500X0.237500X-0.250000X0.237500X0.250000X-0.237500X0.250000X-0.237500X-0.250000X0*%
%ADD38R,2.850000X2.850000*%
G04 APERTURE END LIST*
D10*
X204070000Y-64350000D03*
D11*
X205340000Y-61810000D03*
D12*
X209150000Y-64350000D03*
D11*
X211690000Y-59270000D03*
D10*
X214230000Y-64350000D03*
D13*
X201740000Y-61810000D03*
X215165000Y-59270000D03*
D10*
X167070000Y-101350000D03*
D11*
X168340000Y-98810000D03*
D12*
X172150000Y-101350000D03*
D11*
X174690000Y-96270000D03*
D10*
X177230000Y-101350000D03*
D13*
X164740000Y-98810000D03*
X178165000Y-96270000D03*
D14*
X67650000Y-31350000D03*
D15*
X109550000Y-116550000D03*
D16*
X116050000Y-116550000D03*
X109550000Y-121050000D03*
X116050000Y-121050000D03*
D10*
X72570000Y-41350000D03*
D11*
X73840000Y-38810000D03*
D12*
X77650000Y-41350000D03*
D11*
X80190000Y-36270000D03*
D10*
X82730000Y-41350000D03*
D13*
X70240000Y-38810000D03*
X83665000Y-36270000D03*
D14*
X67650000Y-148050000D03*
D10*
X72570000Y-137850000D03*
D11*
X73840000Y-135310000D03*
D12*
X77650000Y-137850000D03*
D11*
X80190000Y-132770000D03*
D10*
X82730000Y-137850000D03*
D13*
X70240000Y-135310000D03*
X83665000Y-132770000D03*
D10*
X185570000Y-138350000D03*
D11*
X186840000Y-135810000D03*
D12*
X190650000Y-138350000D03*
D11*
X193190000Y-133270000D03*
D10*
X195730000Y-138350000D03*
D13*
X183240000Y-135810000D03*
X196665000Y-133270000D03*
D10*
X148570000Y-82850000D03*
D11*
X149840000Y-80310000D03*
D12*
X153650000Y-82850000D03*
D11*
X156190000Y-77770000D03*
D10*
X158730000Y-82850000D03*
D13*
X146240000Y-80310000D03*
X159665000Y-77770000D03*
D14*
X226950000Y-148050000D03*
D10*
X91070000Y-137850000D03*
D11*
X92340000Y-135310000D03*
D12*
X96150000Y-137850000D03*
D11*
X98690000Y-132770000D03*
D10*
X101230000Y-137850000D03*
D13*
X88740000Y-135310000D03*
X102165000Y-132770000D03*
D10*
X72570000Y-64350000D03*
D11*
X73840000Y-61810000D03*
D12*
X77650000Y-64350000D03*
D11*
X80190000Y-59270000D03*
D10*
X82730000Y-64350000D03*
D13*
X70240000Y-61810000D03*
X83665000Y-59270000D03*
D10*
X204070000Y-130350000D03*
D11*
X205340000Y-127810000D03*
D12*
X209150000Y-130350000D03*
D11*
X211690000Y-125270000D03*
D10*
X214230000Y-130350000D03*
D13*
X201740000Y-127810000D03*
X215165000Y-125270000D03*
D17*
X140620000Y-33090000D03*
D18*
X140620000Y-29090000D03*
D17*
X129380000Y-33090000D03*
D18*
X129380000Y-29090000D03*
D10*
X91070000Y-82850000D03*
D11*
X92340000Y-80310000D03*
D12*
X96150000Y-82850000D03*
D11*
X98690000Y-77770000D03*
D10*
X101230000Y-82850000D03*
D13*
X88740000Y-80310000D03*
X102165000Y-77770000D03*
D19*
X115250000Y-95270000D03*
X115250000Y-97810000D03*
X115250000Y-100350000D03*
X115250000Y-102890000D03*
X115250000Y-105430000D03*
X115250000Y-107970000D03*
D15*
X179650000Y-42850000D03*
D16*
X186150000Y-42850000D03*
X179650000Y-47350000D03*
X186150000Y-47350000D03*
D14*
X92650000Y-99750000D03*
D10*
X91070000Y-64350000D03*
D11*
X92340000Y-61810000D03*
D12*
X96150000Y-64350000D03*
D11*
X98690000Y-59270000D03*
D10*
X101230000Y-64350000D03*
D13*
X88740000Y-61810000D03*
X102165000Y-59270000D03*
D14*
X226950000Y-31350000D03*
D10*
X167070000Y-82850000D03*
D11*
X168340000Y-80310000D03*
D12*
X172150000Y-82850000D03*
D11*
X174690000Y-77770000D03*
D10*
X177230000Y-82850000D03*
D13*
X164740000Y-80310000D03*
X178165000Y-77770000D03*
D10*
X157570000Y-138350000D03*
D11*
X158840000Y-135810000D03*
D12*
X162650000Y-138350000D03*
D11*
X165190000Y-133270000D03*
D10*
X167730000Y-138350000D03*
D13*
X155240000Y-135810000D03*
X168665000Y-133270000D03*
D10*
X148570000Y-119850000D03*
D11*
X149840000Y-117310000D03*
D12*
X153650000Y-119850000D03*
D11*
X156190000Y-114770000D03*
D10*
X158730000Y-119850000D03*
D13*
X146240000Y-117310000D03*
X159665000Y-114770000D03*
D10*
X91070000Y-41350000D03*
D11*
X92340000Y-38810000D03*
D12*
X96150000Y-41350000D03*
D11*
X98690000Y-36270000D03*
D10*
X101230000Y-41350000D03*
D13*
X88740000Y-38810000D03*
X102165000Y-36270000D03*
D10*
X185570000Y-82850000D03*
D11*
X186840000Y-80310000D03*
D12*
X190650000Y-82850000D03*
D11*
X193190000Y-77770000D03*
D10*
X195730000Y-82850000D03*
D13*
X183240000Y-80310000D03*
X196665000Y-77770000D03*
D10*
X185570000Y-64350000D03*
D11*
X186840000Y-61810000D03*
D12*
X190650000Y-64350000D03*
D11*
X193190000Y-59270000D03*
D10*
X195730000Y-64350000D03*
D13*
X183240000Y-61810000D03*
X196665000Y-59270000D03*
D10*
X167070000Y-119850000D03*
D11*
X168340000Y-117310000D03*
D12*
X172150000Y-119850000D03*
D11*
X174690000Y-114770000D03*
D10*
X177230000Y-119850000D03*
D13*
X164740000Y-117310000D03*
X178165000Y-114770000D03*
D16*
X201825000Y-37850000D03*
X201825000Y-40350000D03*
X201825000Y-42850000D03*
D15*
X216325000Y-37850000D03*
D16*
X216325000Y-42850000D03*
D20*
X209325000Y-34750000D03*
X209325000Y-45950000D03*
D10*
X109570000Y-41350000D03*
D11*
X110840000Y-38810000D03*
D12*
X114650000Y-41350000D03*
D11*
X117190000Y-36270000D03*
D10*
X119730000Y-41350000D03*
D13*
X107240000Y-38810000D03*
X120665000Y-36270000D03*
D10*
X185570000Y-119850000D03*
D11*
X186840000Y-117310000D03*
D12*
X190650000Y-119850000D03*
D11*
X193190000Y-114770000D03*
D10*
X195730000Y-119850000D03*
D13*
X183240000Y-117310000D03*
X196665000Y-114770000D03*
D10*
X148570000Y-101350000D03*
D11*
X149840000Y-98810000D03*
D12*
X153650000Y-101350000D03*
D11*
X156190000Y-96270000D03*
D10*
X158730000Y-101350000D03*
D13*
X146240000Y-98810000D03*
X159665000Y-96270000D03*
D10*
X109570000Y-137850000D03*
D11*
X110840000Y-135310000D03*
D12*
X114650000Y-137850000D03*
D11*
X117190000Y-132770000D03*
D10*
X119730000Y-137850000D03*
D13*
X107240000Y-135310000D03*
X120665000Y-132770000D03*
D21*
X80650000Y-114150000D03*
D22*
X78650000Y-114150000D03*
D14*
X202950000Y-104150000D03*
D10*
X204070000Y-92350000D03*
D11*
X205340000Y-89810000D03*
D12*
X209150000Y-92350000D03*
D11*
X211690000Y-87270000D03*
D10*
X214230000Y-92350000D03*
D13*
X201740000Y-89810000D03*
X215165000Y-87270000D03*
D10*
X167070000Y-64350000D03*
D11*
X168340000Y-61810000D03*
D12*
X172150000Y-64350000D03*
D11*
X174690000Y-59270000D03*
D10*
X177230000Y-64350000D03*
D13*
X164740000Y-61810000D03*
X178165000Y-59270000D03*
D10*
X148570000Y-64350000D03*
D11*
X149840000Y-61810000D03*
D12*
X153650000Y-64350000D03*
D11*
X156190000Y-59270000D03*
D10*
X158730000Y-64350000D03*
D13*
X146240000Y-61810000D03*
X159665000Y-59270000D03*
D10*
X109570000Y-82850000D03*
D11*
X110840000Y-80310000D03*
D12*
X114650000Y-82850000D03*
D11*
X117190000Y-77770000D03*
D10*
X119730000Y-82850000D03*
D13*
X107240000Y-80310000D03*
X120665000Y-77770000D03*
D10*
X91070000Y-119350000D03*
D11*
X92340000Y-116810000D03*
D12*
X96150000Y-119350000D03*
D11*
X98690000Y-114270000D03*
D10*
X101230000Y-119350000D03*
D13*
X88740000Y-116810000D03*
X102165000Y-114270000D03*
D10*
X185570000Y-101350000D03*
D11*
X186840000Y-98810000D03*
D12*
X190650000Y-101350000D03*
D11*
X193190000Y-96270000D03*
D10*
X195730000Y-101350000D03*
D13*
X183240000Y-98810000D03*
X196665000Y-96270000D03*
D10*
X109570000Y-64350000D03*
D11*
X110840000Y-61810000D03*
D12*
X114650000Y-64350000D03*
D11*
X117190000Y-59270000D03*
D10*
X119730000Y-64350000D03*
D13*
X107240000Y-61810000D03*
X120665000Y-59270000D03*
D10*
X72570000Y-82850000D03*
D11*
X73840000Y-80310000D03*
D12*
X77650000Y-82850000D03*
D11*
X80190000Y-77770000D03*
D10*
X82730000Y-82850000D03*
D13*
X70240000Y-80310000D03*
X83665000Y-77770000D03*
D23*
X88750000Y-70350000D03*
X88750000Y-66950000D03*
X183250000Y-88350000D03*
X183250000Y-84950000D03*
D24*
X132050000Y-112987500D03*
X132050000Y-110912500D03*
D25*
X216950000Y-115437500D03*
X216950000Y-117262500D03*
D23*
X144950000Y-105450000D03*
X144950000Y-102050000D03*
D26*
X74850000Y-116912500D03*
X74850000Y-118987500D03*
D23*
X107250000Y-143850000D03*
X107250000Y-140450000D03*
X183250000Y-143850000D03*
X183250000Y-140450000D03*
D27*
X137650000Y-110750000D03*
X135575000Y-110750000D03*
D28*
X70650000Y-109475000D03*
X70650000Y-106350000D03*
D23*
X201650000Y-72050000D03*
X201650000Y-68650000D03*
X70250000Y-70350000D03*
X70250000Y-66950000D03*
D29*
X106300000Y-95290000D03*
X111000000Y-95290000D03*
D23*
X70250000Y-143850000D03*
X70250000Y-140450000D03*
X181750000Y-105450000D03*
X181750000Y-102050000D03*
X88650000Y-48250000D03*
X88650000Y-44850000D03*
D30*
X225000000Y-117150000D03*
X223100000Y-117150000D03*
X224050000Y-114150000D03*
D26*
X74850000Y-112912500D03*
X74850000Y-114987500D03*
D23*
X70250000Y-89550000D03*
X70250000Y-86150000D03*
X183250000Y-126150000D03*
X183250000Y-122750000D03*
D25*
X219350000Y-115437500D03*
X219350000Y-117262500D03*
D23*
X107250000Y-89450000D03*
X107250000Y-86050000D03*
D24*
X129150000Y-94725000D03*
X129150000Y-92650000D03*
D23*
X107250000Y-70350000D03*
X107250000Y-66950000D03*
D26*
X137450000Y-106112500D03*
X137450000Y-108187500D03*
D31*
X198350000Y-85450000D03*
X201750000Y-85450000D03*
D32*
X130412500Y-105950000D03*
X132487500Y-105950000D03*
D27*
X226061250Y-110950000D03*
X223986250Y-110950000D03*
D23*
X146250000Y-88350000D03*
X146250000Y-84950000D03*
D33*
X134137500Y-139787500D03*
X136637500Y-139787500D03*
X139137500Y-139787500D03*
D23*
X164750000Y-126050000D03*
X164750000Y-122650000D03*
X88750000Y-143850000D03*
X88750000Y-140450000D03*
D27*
X226025000Y-108650000D03*
X223950000Y-108650000D03*
D34*
X139450000Y-110950000D03*
X139450000Y-112550000D03*
D23*
X163150000Y-105450000D03*
X163150000Y-102050000D03*
D35*
X133970000Y-37640000D03*
X134920000Y-37640000D03*
X135870000Y-37640000D03*
X135870000Y-40140000D03*
X134920000Y-40140000D03*
X133970000Y-40140000D03*
D26*
X216950000Y-106412500D03*
X216950000Y-108487500D03*
D23*
X88750000Y-89450000D03*
X88750000Y-86050000D03*
X107250000Y-48250000D03*
X107250000Y-44850000D03*
D27*
X137687500Y-113000000D03*
X135612500Y-113000000D03*
D23*
X146250000Y-72050000D03*
X146250000Y-68650000D03*
X164650000Y-72050000D03*
X164650000Y-68650000D03*
X164750000Y-88350000D03*
X164750000Y-84950000D03*
D26*
X135250000Y-106075000D03*
X135250000Y-108150000D03*
D29*
X106300000Y-107090000D03*
X111000000Y-107090000D03*
D23*
X201550000Y-133650000D03*
X201550000Y-130250000D03*
X146250000Y-126150000D03*
X146250000Y-122750000D03*
D24*
X129800000Y-112987500D03*
X129800000Y-110912500D03*
D29*
X106300000Y-103090000D03*
X111000000Y-103090000D03*
D32*
X130412500Y-108150000D03*
X132487500Y-108150000D03*
D36*
X72625000Y-116112500D03*
X71975000Y-116112500D03*
X71325000Y-116112500D03*
X70675000Y-116112500D03*
X70675000Y-111712500D03*
X71325000Y-111712500D03*
X71975000Y-111712500D03*
X72625000Y-111712500D03*
D26*
X219350000Y-106412500D03*
X219350000Y-108487500D03*
D27*
X137687500Y-115150000D03*
X135612500Y-115150000D03*
D37*
X140850000Y-123012500D03*
X140850000Y-121187500D03*
D23*
X88750000Y-124550000D03*
X88750000Y-121150000D03*
X183250000Y-72050000D03*
X183250000Y-68650000D03*
D26*
X221750000Y-106400000D03*
X221750000Y-108475000D03*
D29*
X106300000Y-99090000D03*
X111000000Y-99090000D03*
D23*
X70250000Y-48250000D03*
X70250000Y-44850000D03*
D38*
X77375000Y-103075000D03*
X77375000Y-96425000D03*
X70725000Y-103075000D03*
X70725000Y-96425000D03*
D23*
X155250000Y-143850000D03*
X155250000Y-140450000D03*
M02*
