G04 #@! TF.GenerationSoftware,KiCad,Pcbnew,8.0.3*
G04 #@! TF.CreationDate,2024-08-13T11:44:20+03:00*
G04 #@! TF.ProjectId,Keyboard_stm32,4b657962-6f61-4726-945f-73746d33322e,rev?*
G04 #@! TF.SameCoordinates,Original*
G04 #@! TF.FileFunction,Copper,L1,Top*
G04 #@! TF.FilePolarity,Positive*
%FSLAX46Y46*%
G04 Gerber Fmt 4.6, Leading zero omitted, Abs format (unit mm)*
G04 Created by KiCad (PCBNEW 8.0.3) date 2024-08-13 11:44:20*
%MOMM*%
%LPD*%
G01*
G04 APERTURE LIST*
G04 Aperture macros list*
%AMRoundRect*
0 Rectangle with rounded corners*
0 $1 Rounding radius*
0 $2 $3 $4 $5 $6 $7 $8 $9 X,Y pos of 4 corners*
0 Add a 4 corners polygon primitive as box body*
4,1,4,$2,$3,$4,$5,$6,$7,$8,$9,$2,$3,0*
0 Add four circle primitives for the rounded corners*
1,1,$1+$1,$2,$3*
1,1,$1+$1,$4,$5*
1,1,$1+$1,$6,$7*
1,1,$1+$1,$8,$9*
0 Add four rect primitives between the rounded corners*
20,1,$1+$1,$2,$3,$4,$5,0*
20,1,$1+$1,$4,$5,$6,$7,0*
20,1,$1+$1,$6,$7,$8,$9,0*
20,1,$1+$1,$8,$9,$2,$3,0*%
G04 Aperture macros list end*
G04 #@! TA.AperFunction,SMDPad,CuDef*
%ADD10RoundRect,0.250000X-0.250000X0.250000X-0.250000X-0.250000X0.250000X-0.250000X0.250000X0.250000X0*%
G04 #@! TD*
G04 #@! TA.AperFunction,SMDPad,CuDef*
%ADD11RoundRect,0.237500X0.250000X0.237500X-0.250000X0.237500X-0.250000X-0.237500X0.250000X-0.237500X0*%
G04 #@! TD*
G04 #@! TA.AperFunction,ComponentPad*
%ADD12C,5.000000*%
G04 #@! TD*
G04 #@! TA.AperFunction,ComponentPad*
%ADD13R,1.500000X1.500000*%
G04 #@! TD*
G04 #@! TA.AperFunction,ComponentPad*
%ADD14C,1.500000*%
G04 #@! TD*
G04 #@! TA.AperFunction,SMDPad,CuDef*
%ADD15R,1.400000X1.800000*%
G04 #@! TD*
G04 #@! TA.AperFunction,SMDPad,CuDef*
%ADD16R,1.900000X1.400000*%
G04 #@! TD*
G04 #@! TA.AperFunction,SMDPad,CuDef*
%ADD17R,2.000000X0.800000*%
G04 #@! TD*
G04 #@! TA.AperFunction,SMDPad,CuDef*
%ADD18RoundRect,0.075000X0.075000X-0.662500X0.075000X0.662500X-0.075000X0.662500X-0.075000X-0.662500X0*%
G04 #@! TD*
G04 #@! TA.AperFunction,SMDPad,CuDef*
%ADD19RoundRect,0.075000X0.662500X-0.075000X0.662500X0.075000X-0.662500X0.075000X-0.662500X-0.075000X0*%
G04 #@! TD*
G04 #@! TA.AperFunction,SMDPad,CuDef*
%ADD20RoundRect,0.237500X-0.237500X0.250000X-0.237500X-0.250000X0.237500X-0.250000X0.237500X0.250000X0*%
G04 #@! TD*
G04 #@! TA.AperFunction,SMDPad,CuDef*
%ADD21RoundRect,0.250000X-0.475000X0.337500X-0.475000X-0.337500X0.475000X-0.337500X0.475000X0.337500X0*%
G04 #@! TD*
G04 #@! TA.AperFunction,SMDPad,CuDef*
%ADD22RoundRect,0.250000X0.475000X-0.337500X0.475000X0.337500X-0.475000X0.337500X-0.475000X-0.337500X0*%
G04 #@! TD*
G04 #@! TA.AperFunction,SMDPad,CuDef*
%ADD23R,1.150000X1.400000*%
G04 #@! TD*
G04 #@! TA.AperFunction,SMDPad,CuDef*
%ADD24R,1.300000X1.100000*%
G04 #@! TD*
G04 #@! TA.AperFunction,SMDPad,CuDef*
%ADD25RoundRect,0.237500X-0.250000X-0.237500X0.250000X-0.237500X0.250000X0.237500X-0.250000X0.237500X0*%
G04 #@! TD*
G04 #@! TA.AperFunction,SMDPad,CuDef*
%ADD26RoundRect,0.237500X-0.237500X0.300000X-0.237500X-0.300000X0.237500X-0.300000X0.237500X0.300000X0*%
G04 #@! TD*
G04 #@! TA.AperFunction,SMDPad,CuDef*
%ADD27R,0.300000X1.100000*%
G04 #@! TD*
G04 #@! TA.AperFunction,ComponentPad*
%ADD28O,1.000000X1.800000*%
G04 #@! TD*
G04 #@! TA.AperFunction,ComponentPad*
%ADD29O,1.000000X2.200000*%
G04 #@! TD*
G04 #@! TA.AperFunction,ComponentPad*
%ADD30C,1.550000*%
G04 #@! TD*
G04 #@! TA.AperFunction,SMDPad,CuDef*
%ADD31RoundRect,0.237500X0.237500X-0.250000X0.237500X0.250000X-0.237500X0.250000X-0.237500X-0.250000X0*%
G04 #@! TD*
G04 #@! TA.AperFunction,SMDPad,CuDef*
%ADD32RoundRect,0.237500X0.300000X0.237500X-0.300000X0.237500X-0.300000X-0.237500X0.300000X-0.237500X0*%
G04 #@! TD*
G04 #@! TA.AperFunction,ComponentPad*
%ADD33C,4.350000*%
G04 #@! TD*
G04 #@! TA.AperFunction,SMDPad,CuDef*
%ADD34R,1.100000X1.300000*%
G04 #@! TD*
G04 #@! TA.AperFunction,ComponentPad*
%ADD35R,1.100000X1.100000*%
G04 #@! TD*
G04 #@! TA.AperFunction,ComponentPad*
%ADD36C,1.100000*%
G04 #@! TD*
G04 #@! TA.AperFunction,SMDPad,CuDef*
%ADD37RoundRect,0.250000X-0.337500X-0.475000X0.337500X-0.475000X0.337500X0.475000X-0.337500X0.475000X0*%
G04 #@! TD*
G04 #@! TA.AperFunction,SMDPad,CuDef*
%ADD38RoundRect,0.250000X-0.250000X-0.250000X0.250000X-0.250000X0.250000X0.250000X-0.250000X0.250000X0*%
G04 #@! TD*
G04 #@! TA.AperFunction,SMDPad,CuDef*
%ADD39R,1.200000X0.600000*%
G04 #@! TD*
G04 #@! TA.AperFunction,ComponentPad*
%ADD40C,1.524000*%
G04 #@! TD*
G04 #@! TA.AperFunction,ViaPad*
%ADD41C,0.600000*%
G04 #@! TD*
G04 #@! TA.AperFunction,ViaPad*
%ADD42C,0.650000*%
G04 #@! TD*
G04 #@! TA.AperFunction,Conductor*
%ADD43C,0.300000*%
G04 #@! TD*
G04 #@! TA.AperFunction,Conductor*
%ADD44C,0.200000*%
G04 #@! TD*
G04 #@! TA.AperFunction,Conductor*
%ADD45C,0.400000*%
G04 #@! TD*
G04 #@! TA.AperFunction,Conductor*
%ADD46C,0.190000*%
G04 #@! TD*
G04 #@! TA.AperFunction,Conductor*
%ADD47C,0.185000*%
G04 #@! TD*
G04 APERTURE END LIST*
D10*
X143320000Y-33890000D03*
X143320000Y-35490000D03*
D11*
X139450000Y-95550000D03*
X137625000Y-95550000D03*
D12*
X67650000Y-31350000D03*
D13*
X109550000Y-116550000D03*
D14*
X116050000Y-116550000D03*
X109550000Y-121050000D03*
X116050000Y-121050000D03*
D15*
X213548750Y-110425000D03*
X213548750Y-116125000D03*
D16*
X227598750Y-104575000D03*
X226598750Y-117725000D03*
D17*
X224098750Y-109235000D03*
X223698750Y-110335000D03*
X224098750Y-111435000D03*
X224298750Y-112535000D03*
X224098750Y-113635000D03*
X224298750Y-114735000D03*
X224098750Y-115835000D03*
X224098750Y-116935000D03*
D12*
X67650000Y-148050000D03*
D11*
X125350000Y-112450000D03*
X123525000Y-112450000D03*
D12*
X226950000Y-148050000D03*
D18*
X130900000Y-113012500D03*
X131400000Y-113012500D03*
X131900000Y-113012500D03*
X132400000Y-113012500D03*
X132900000Y-113012500D03*
X133400000Y-113012500D03*
X133900000Y-113012500D03*
X134400000Y-113012500D03*
X134900000Y-113012500D03*
X135400000Y-113012500D03*
X135900000Y-113012500D03*
X136400000Y-113012500D03*
D19*
X137812500Y-111600000D03*
X137812500Y-111100000D03*
X137812500Y-110600000D03*
X137812500Y-110100000D03*
X137812500Y-109600000D03*
X137812500Y-109100000D03*
X137812500Y-108600000D03*
X137812500Y-108100000D03*
X137812500Y-107600000D03*
X137812500Y-107100000D03*
X137812500Y-106600000D03*
X137812500Y-106100000D03*
D18*
X136400000Y-104687500D03*
X135900000Y-104687500D03*
X135400000Y-104687500D03*
X134900000Y-104687500D03*
X134400000Y-104687500D03*
X133900000Y-104687500D03*
X133400000Y-104687500D03*
X132900000Y-104687500D03*
X132400000Y-104687500D03*
X131900000Y-104687500D03*
X131400000Y-104687500D03*
X130900000Y-104687500D03*
D19*
X129487500Y-106100000D03*
X129487500Y-106600000D03*
X129487500Y-107100000D03*
X129487500Y-107600000D03*
X129487500Y-108100000D03*
X129487500Y-108600000D03*
X129487500Y-109100000D03*
X129487500Y-109600000D03*
X129487500Y-110100000D03*
X129487500Y-110600000D03*
X129487500Y-111100000D03*
X129487500Y-111600000D03*
D20*
X219850000Y-36025000D03*
X219850000Y-37850000D03*
D21*
X197150000Y-43562500D03*
X197150000Y-45637500D03*
D22*
X69650000Y-122387500D03*
X69650000Y-120312500D03*
D20*
X136050000Y-83425000D03*
X136050000Y-85250000D03*
D23*
X129750000Y-117975000D03*
X129750000Y-120175000D03*
X131350000Y-120175000D03*
X131350000Y-117975000D03*
D24*
X138737500Y-133550000D03*
X138737500Y-135650000D03*
D25*
X151325000Y-35100000D03*
X153150000Y-35100000D03*
D26*
X127812500Y-117987500D03*
X127812500Y-119712500D03*
D11*
X136650000Y-135750000D03*
X134825000Y-135750000D03*
D25*
X173075000Y-42812500D03*
X174900000Y-42812500D03*
X131025000Y-135750000D03*
X132850000Y-135750000D03*
D20*
X197150000Y-39687500D03*
X197150000Y-41512500D03*
D21*
X119050000Y-117912500D03*
X119050000Y-119987500D03*
D27*
X138350000Y-34240000D03*
X137550000Y-34240000D03*
X136250000Y-34240000D03*
X135250000Y-34240000D03*
X134750000Y-34240000D03*
X133750000Y-34240000D03*
X132450000Y-34240000D03*
X131650000Y-34240000D03*
X131950000Y-34240000D03*
X132750000Y-34240000D03*
X133250000Y-34240000D03*
X134250000Y-34240000D03*
X135750000Y-34240000D03*
X136750000Y-34240000D03*
X137250000Y-34240000D03*
X138050000Y-34240000D03*
D28*
X140620000Y-33090000D03*
D29*
X140620000Y-29090000D03*
D28*
X129380000Y-33090000D03*
D29*
X129380000Y-29090000D03*
D20*
X176650000Y-40937500D03*
X176650000Y-42762500D03*
D25*
X223337500Y-121950000D03*
X225162500Y-121950000D03*
D30*
X115250000Y-95270000D03*
X115250000Y-97810000D03*
X115250000Y-100350000D03*
X115250000Y-102890000D03*
X115250000Y-105430000D03*
X115250000Y-107970000D03*
D13*
X179650000Y-42850000D03*
D14*
X186150000Y-42850000D03*
X179650000Y-47350000D03*
X186150000Y-47350000D03*
D12*
X92650000Y-99750000D03*
D31*
X198900000Y-39512500D03*
X198900000Y-37687500D03*
X222100000Y-39762500D03*
X222100000Y-37937500D03*
D11*
X195312500Y-41600000D03*
X193487500Y-41600000D03*
D21*
X219850000Y-40062500D03*
X219850000Y-42137500D03*
D12*
X226950000Y-31350000D03*
D32*
X131412500Y-122275000D03*
X129687500Y-122275000D03*
D31*
X136737500Y-133512500D03*
X136737500Y-131687500D03*
D25*
X194987500Y-37600000D03*
X196812500Y-37600000D03*
D14*
X201825000Y-37850000D03*
X201825000Y-40350000D03*
X201825000Y-42850000D03*
D13*
X216325000Y-37850000D03*
D14*
X216325000Y-42850000D03*
D33*
X209325000Y-34750000D03*
X209325000Y-45950000D03*
D22*
X129850000Y-41225000D03*
X129850000Y-39150000D03*
D21*
X176650000Y-44812500D03*
X176650000Y-46887500D03*
D34*
X151100000Y-37100000D03*
X153200000Y-37100000D03*
D20*
X138720000Y-37077500D03*
X138720000Y-38902500D03*
D35*
X80650000Y-114150000D03*
D36*
X78650000Y-114150000D03*
D12*
X202950000Y-104150000D03*
D31*
X145650000Y-136262500D03*
X145650000Y-134437500D03*
D37*
X125675000Y-46850000D03*
X127750000Y-46850000D03*
D38*
X146800000Y-39150000D03*
X148400000Y-39150000D03*
D20*
X136150000Y-67950000D03*
X136150000Y-69775000D03*
D39*
X150900000Y-39150000D03*
X150900000Y-40100000D03*
X150900000Y-41050000D03*
X153400000Y-41050000D03*
X153400000Y-39150000D03*
D25*
X130007500Y-36290000D03*
X131832500Y-36290000D03*
D21*
X148850000Y-41025000D03*
X148850000Y-43100000D03*
D20*
X71850000Y-120237500D03*
X71850000Y-122062500D03*
D34*
X125350000Y-114350000D03*
X127450000Y-114350000D03*
D22*
X198900000Y-35637500D03*
X198900000Y-33562500D03*
X134137500Y-133787500D03*
X134137500Y-131712500D03*
D21*
X155650000Y-39112500D03*
X155650000Y-41187500D03*
X146350000Y-41025000D03*
X146350000Y-43100000D03*
D40*
X134137500Y-139787500D03*
X136637500Y-139787500D03*
X139137500Y-139787500D03*
D41*
X138270000Y-35540000D03*
X157150000Y-41150000D03*
X127650000Y-92350000D03*
X104250000Y-97150000D03*
X133850000Y-107950000D03*
X104250000Y-104950000D03*
X134050000Y-109750000D03*
X127550000Y-121450000D03*
X130650000Y-102950000D03*
X138450000Y-131687500D03*
X148850000Y-44800000D03*
X139450000Y-105850000D03*
X155650000Y-42550000D03*
X227550000Y-116250000D03*
X126550000Y-119750000D03*
X74850000Y-120550000D03*
X73925000Y-96425000D03*
X127550000Y-110750000D03*
X146350000Y-44800000D03*
X134150000Y-115550000D03*
X225750000Y-105050000D03*
X154850000Y-35100000D03*
X132450000Y-109550000D03*
X214950000Y-108150000D03*
X70750000Y-99550000D03*
X128050000Y-48750000D03*
X131781250Y-39081250D03*
X122150000Y-112450000D03*
X127550000Y-94350000D03*
X214950000Y-106750000D03*
X219850000Y-34350000D03*
X157150000Y-39150000D03*
X195487500Y-39687500D03*
X130724999Y-109561986D03*
X129650000Y-103950000D03*
X155650000Y-37650000D03*
X125750000Y-48750000D03*
X127650000Y-111950000D03*
X136450000Y-109350000D03*
X133850000Y-106150000D03*
X218050000Y-118950000D03*
X138050000Y-104550000D03*
X134050000Y-110950000D03*
X226050000Y-112550000D03*
X175050000Y-40950000D03*
X131950000Y-41212500D03*
X123850000Y-117912500D03*
X133550000Y-116250000D03*
X70450000Y-118550000D03*
X134150000Y-117150000D03*
X137250000Y-36790000D03*
X145600000Y-39150000D03*
X136850000Y-66150000D03*
X136816639Y-81433361D03*
X138375000Y-99325000D03*
X145650000Y-143850000D03*
X88750000Y-126450000D03*
X134250000Y-126150000D03*
X71450000Y-118550000D03*
X216986250Y-111950000D03*
X220986250Y-112550000D03*
X220986250Y-115800000D03*
X127250000Y-109600000D03*
X124450000Y-133950000D03*
X137150000Y-100650000D03*
X142250000Y-116550000D03*
X135650000Y-101550000D03*
X138750000Y-50150000D03*
X122850000Y-95350000D03*
X123150000Y-105450000D03*
X126850000Y-50150000D03*
X124850000Y-93950000D03*
X125600000Y-105500000D03*
X127050000Y-53150000D03*
X138750000Y-53550000D03*
X138750000Y-52550000D03*
X128650000Y-52550000D03*
X126850000Y-105550000D03*
X125850000Y-93350000D03*
X123850000Y-94650000D03*
X126850000Y-51950000D03*
X138750000Y-51350000D03*
X124400000Y-105500000D03*
X85350000Y-125450000D03*
X80650000Y-50950000D03*
X80650000Y-56250000D03*
X80650000Y-87650000D03*
X80650000Y-68550000D03*
X80650000Y-72350000D03*
X99150000Y-125150000D03*
X99050000Y-92650000D03*
X99050000Y-88550000D03*
X99150000Y-56250000D03*
X99150000Y-50150000D03*
X99150000Y-72350000D03*
X99150000Y-68950000D03*
X117650000Y-56250000D03*
X118400000Y-87850000D03*
X117650000Y-72350000D03*
X120650000Y-125950000D03*
X117650000Y-50350000D03*
X117650000Y-68750000D03*
X118400000Y-92850000D03*
X157150000Y-74350000D03*
X157150000Y-106850000D03*
X157150000Y-102250000D03*
X156650000Y-87150000D03*
X157450000Y-128350000D03*
X157150000Y-70150000D03*
X157150000Y-104950000D03*
X157350000Y-124000000D03*
X156650000Y-89550000D03*
X175150000Y-73750000D03*
X174900000Y-106100000D03*
X175400000Y-89550000D03*
X175400000Y-87150000D03*
X175150000Y-69550000D03*
X174900000Y-103850000D03*
X193650000Y-89600000D03*
X193650000Y-92600000D03*
X194150000Y-69950000D03*
X194150000Y-73750000D03*
X193650000Y-124050000D03*
X193650000Y-128050000D03*
X193650000Y-87150000D03*
D42*
X212150000Y-97350000D03*
D41*
X135570000Y-36340000D03*
X134450000Y-41550000D03*
X134250000Y-36360000D03*
X135350000Y-41550000D03*
X225950000Y-114750000D03*
X199750000Y-112850000D03*
X199750000Y-106950000D03*
X225250000Y-119950000D03*
D43*
X153150000Y-35100000D02*
X154850000Y-35100000D01*
X143320000Y-35490000D02*
X138320000Y-35490000D01*
X131781250Y-39081250D02*
X131650000Y-39212500D01*
X155650000Y-41187500D02*
X157112500Y-41187500D01*
X131650000Y-34240000D02*
X131650000Y-34647500D01*
X129687500Y-120237500D02*
X129750000Y-120175000D01*
X136737500Y-131687500D02*
X138450000Y-131687500D01*
X138350000Y-35460000D02*
X138350000Y-34240000D01*
X131650000Y-39212500D02*
X130050000Y-39212500D01*
X127750000Y-48450000D02*
X127750000Y-46850000D01*
X116050000Y-121050000D02*
X117987500Y-121050000D01*
X216325000Y-42850000D02*
X219137500Y-42850000D01*
X129287500Y-119712500D02*
X129750000Y-120175000D01*
X146350000Y-43100000D02*
X147650000Y-43100000D01*
X201062500Y-33562500D02*
X198900000Y-33562500D01*
X131350000Y-117975000D02*
X131350000Y-118350000D01*
X123525000Y-112450000D02*
X122150000Y-112450000D01*
X227598750Y-104575000D02*
X226225000Y-104575000D01*
X134150000Y-115550000D02*
X134400000Y-115300000D01*
X201825000Y-40350000D02*
X204650000Y-40350000D01*
X138720000Y-37077500D02*
X138720000Y-35990000D01*
X129687500Y-122275000D02*
X129687500Y-120237500D01*
X150900000Y-40100000D02*
X154362500Y-40100000D01*
X138720000Y-35990000D02*
X138270000Y-35540000D01*
X134400000Y-115300000D02*
X134400000Y-113012500D01*
X136820000Y-31890000D02*
X138350000Y-33420000D01*
X176650000Y-46887500D02*
X179187500Y-46887500D01*
X131350000Y-118350000D02*
X129750000Y-119950000D01*
X127812500Y-119712500D02*
X129287500Y-119712500D01*
X148850000Y-43100000D02*
X148850000Y-44800000D01*
X226598750Y-117725000D02*
X226386250Y-117512500D01*
X157112500Y-41187500D02*
X157150000Y-41150000D01*
X226225000Y-104575000D02*
X225750000Y-105050000D01*
X138350000Y-33420000D02*
X138350000Y-34240000D01*
X128050000Y-48750000D02*
X127750000Y-48450000D01*
X138320000Y-35490000D02*
X138270000Y-35540000D01*
X139450000Y-105850000D02*
X138700000Y-106600000D01*
X127775000Y-119750000D02*
X127812500Y-119712500D01*
X204650000Y-43350000D02*
X204650000Y-40350000D01*
X219137500Y-42850000D02*
X219850000Y-42137500D01*
X130650000Y-102950000D02*
X131400000Y-103700000D01*
X202362500Y-45637500D02*
X204650000Y-43350000D01*
X204650000Y-37150000D02*
X201062500Y-33562500D01*
X146350000Y-43100000D02*
X146350000Y-44800000D01*
X226598750Y-117725000D02*
X226598750Y-117201250D01*
X129750000Y-119950000D02*
X129750000Y-120175000D01*
X131400000Y-103700000D02*
X131400000Y-104687500D01*
X126550000Y-119750000D02*
X127775000Y-119750000D01*
X127900000Y-111100000D02*
X129487500Y-111100000D01*
X127550000Y-121450000D02*
X128375000Y-122275000D01*
X138270000Y-35540000D02*
X138350000Y-35460000D01*
X131650000Y-34647500D02*
X130007500Y-36290000D01*
X117987500Y-121050000D02*
X119050000Y-119987500D01*
X128375000Y-122275000D02*
X129687500Y-122275000D01*
X147650000Y-43100000D02*
X148850000Y-43100000D01*
X127550000Y-110750000D02*
X127900000Y-111100000D01*
X179187500Y-46887500D02*
X179650000Y-47350000D01*
X155650000Y-41187500D02*
X155650000Y-42550000D01*
X197150000Y-45637500D02*
X202362500Y-45637500D01*
X136712500Y-131712500D02*
X136737500Y-131687500D01*
X138700000Y-106600000D02*
X137812500Y-106600000D01*
X154362500Y-40100000D02*
X155650000Y-41387500D01*
X133020000Y-31890000D02*
X136820000Y-31890000D01*
X131650000Y-33260000D02*
X133020000Y-31890000D01*
X226598750Y-117201250D02*
X227550000Y-116250000D01*
X204650000Y-40350000D02*
X204650000Y-37150000D01*
X131650000Y-34240000D02*
X131650000Y-33260000D01*
X134137500Y-131712500D02*
X136712500Y-131712500D01*
X224313750Y-112550000D02*
X224298750Y-112535000D01*
X128000000Y-111600000D02*
X129487500Y-111600000D01*
X176637500Y-40950000D02*
X176650000Y-40937500D01*
X130387500Y-104687500D02*
X130900000Y-104687500D01*
X197150000Y-39687500D02*
X198725000Y-39687500D01*
X129650000Y-103950000D02*
X130387500Y-104687500D01*
X157112500Y-39112500D02*
X157150000Y-39150000D01*
X155612500Y-39150000D02*
X155650000Y-39112500D01*
X175050000Y-40950000D02*
X176637500Y-40950000D01*
X153400000Y-39150000D02*
X155612500Y-39150000D01*
X127650000Y-111950000D02*
X128000000Y-111600000D01*
X226050000Y-112550000D02*
X224313750Y-112550000D01*
X138050000Y-105250000D02*
X137812500Y-105487500D01*
X155650000Y-39112500D02*
X155650000Y-37650000D01*
X137812500Y-105487500D02*
X137812500Y-106100000D01*
X153200000Y-38950000D02*
X153200000Y-37100000D01*
X125675000Y-46850000D02*
X125675000Y-48675000D01*
X198725000Y-39687500D02*
X198900000Y-39512500D01*
X197150000Y-39687500D02*
X195487500Y-39687500D01*
X219850000Y-36025000D02*
X219850000Y-34350000D01*
X153400000Y-39150000D02*
X153200000Y-38950000D01*
X130900000Y-113012500D02*
X129487500Y-111600000D01*
X138050000Y-104550000D02*
X138050000Y-105250000D01*
X130050000Y-41287500D02*
X131875000Y-41287500D01*
X125675000Y-48675000D02*
X125750000Y-48750000D01*
X155650000Y-39112500D02*
X157112500Y-39112500D01*
X131875000Y-41287500D02*
X131950000Y-41212500D01*
D44*
X116050000Y-116550000D02*
X117412500Y-117912500D01*
X117412500Y-117912500D02*
X119050000Y-117912500D01*
X133550000Y-115050000D02*
X133900000Y-114700000D01*
X133550000Y-116250000D02*
X133550000Y-115050000D01*
X123850000Y-117912500D02*
X119050000Y-117912500D01*
X133900000Y-114700000D02*
X133900000Y-113012500D01*
D43*
X134825000Y-135750000D02*
X132850000Y-135750000D01*
X134137500Y-135062500D02*
X134825000Y-135750000D01*
X134137500Y-133787500D02*
X134137500Y-135062500D01*
X127812500Y-117987500D02*
X129737500Y-117987500D01*
X129737500Y-117987500D02*
X129750000Y-117975000D01*
D44*
X129750000Y-117003120D02*
X129750000Y-117975000D01*
X132900000Y-113012500D02*
X132900000Y-113853120D01*
X132900000Y-113853120D02*
X129750000Y-117003120D01*
D43*
X131412500Y-122275000D02*
X131412500Y-120237500D01*
X131412500Y-120237500D02*
X131350000Y-120175000D01*
D44*
X133400000Y-114634314D02*
X133400000Y-113012500D01*
X132650000Y-118875000D02*
X132650000Y-115384314D01*
X132650000Y-115384314D02*
X133400000Y-114634314D01*
X131350000Y-120175000D02*
X132650000Y-118875000D01*
D43*
X139550000Y-124850000D02*
X139550000Y-111650000D01*
X69650000Y-122387500D02*
X76012500Y-128750000D01*
X135650000Y-128750000D02*
X139550000Y-124850000D01*
X76012500Y-128750000D02*
X135650000Y-128750000D01*
X139550000Y-111650000D02*
X139000000Y-111100000D01*
X139000000Y-111100000D02*
X137812500Y-111100000D01*
X69650000Y-119350000D02*
X70450000Y-118550000D01*
X69650000Y-120312500D02*
X69650000Y-119350000D01*
D44*
X134150000Y-117150000D02*
X134900000Y-116400000D01*
X134900000Y-116400000D02*
X134900000Y-113012500D01*
D43*
X198900000Y-37687500D02*
X196900000Y-37687500D01*
X198900000Y-35637500D02*
X198900000Y-37687500D01*
D44*
X196900000Y-37687500D02*
X196812500Y-37600000D01*
X201662500Y-37687500D02*
X201825000Y-37850000D01*
D43*
X198900000Y-37687500D02*
X201662500Y-37687500D01*
X222100000Y-37937500D02*
X219937500Y-37937500D01*
X216325000Y-37850000D02*
X219850000Y-37850000D01*
D44*
X219937500Y-37937500D02*
X219850000Y-37850000D01*
D43*
X219850000Y-40062500D02*
X219850000Y-37850000D01*
D44*
X216825000Y-37350000D02*
X216325000Y-37850000D01*
X174900000Y-42812500D02*
X176600000Y-42812500D01*
X179562500Y-42762500D02*
X179650000Y-42850000D01*
X176600000Y-42812500D02*
X176650000Y-42762500D01*
X176650000Y-44812500D02*
X176650000Y-42762500D01*
X176650000Y-42762500D02*
X179562500Y-42762500D01*
D43*
X195312500Y-41600000D02*
X197062500Y-41600000D01*
X200487500Y-41512500D02*
X201825000Y-42850000D01*
X197150000Y-43562500D02*
X197150000Y-41512500D01*
X197150000Y-41512500D02*
X200487500Y-41512500D01*
D44*
X197062500Y-41600000D02*
X197150000Y-41512500D01*
X146800000Y-40575000D02*
X146350000Y-41025000D01*
D43*
X137250000Y-33320000D02*
X137250000Y-34240000D01*
D45*
X145600000Y-39150000D02*
X145850000Y-39150000D01*
X146800000Y-39150000D02*
X145600000Y-39150000D01*
D43*
X132750000Y-34240000D02*
X132750000Y-33360000D01*
X133620000Y-32490000D02*
X136420000Y-32490000D01*
X132750000Y-33360000D02*
X133620000Y-32490000D01*
D44*
X137250000Y-36790000D02*
X137250000Y-34240000D01*
D43*
X146800000Y-39150000D02*
X146800000Y-40575000D01*
X136420000Y-32490000D02*
X137250000Y-33320000D01*
X148850000Y-41025000D02*
X148875000Y-41050000D01*
X148400000Y-39312500D02*
X148400000Y-40575000D01*
X148875000Y-41050000D02*
X150900000Y-41050000D01*
D45*
X148562500Y-39150000D02*
X148400000Y-39312500D01*
D44*
X148400000Y-40575000D02*
X148850000Y-41025000D01*
D45*
X150900000Y-39150000D02*
X148562500Y-39150000D01*
D43*
X131400000Y-114000000D02*
X131050000Y-114350000D01*
X131050000Y-114350000D02*
X127450000Y-114350000D01*
X131400000Y-113012500D02*
X131400000Y-114000000D01*
X125350000Y-114350000D02*
X125350000Y-112450000D01*
X136775000Y-133550000D02*
X136737500Y-133512500D01*
X138737500Y-133550000D02*
X136775000Y-133550000D01*
D44*
X137100000Y-135750000D02*
X137200000Y-135650000D01*
X136650000Y-135750000D02*
X137100000Y-135750000D01*
X137200000Y-135650000D02*
X138737500Y-135650000D01*
D43*
X136650000Y-139775000D02*
X136637500Y-139787500D01*
D44*
X136637500Y-135762500D02*
X136650000Y-135750000D01*
D43*
X136650000Y-135750000D02*
X136650000Y-139775000D01*
X136850000Y-66150000D02*
X136150000Y-66850000D01*
X136150000Y-66850000D02*
X136150000Y-67950000D01*
X136050000Y-83425000D02*
X136050000Y-82200000D01*
X136050000Y-82200000D02*
X136816639Y-81433361D01*
X139450000Y-98250000D02*
X139450000Y-95550000D01*
X138375000Y-99325000D02*
X139450000Y-98250000D01*
X145650000Y-143850000D02*
X145650000Y-136262500D01*
X133650000Y-126750000D02*
X134250000Y-126150000D01*
X89050000Y-126750000D02*
X133650000Y-126750000D01*
X88750000Y-126450000D02*
X89050000Y-126750000D01*
X151100000Y-37100000D02*
X151100000Y-35325000D01*
X151100000Y-35325000D02*
X151325000Y-35100000D01*
D44*
X126277500Y-102890000D02*
X129487500Y-106100000D01*
X115250000Y-102890000D02*
X126277500Y-102890000D01*
X115250000Y-97810000D02*
X127310000Y-97810000D01*
X127310000Y-97810000D02*
X131900000Y-102400000D01*
X131900000Y-102400000D02*
X131900000Y-104687500D01*
D43*
X143320000Y-33890000D02*
X141420000Y-33890000D01*
X141420000Y-33890000D02*
X140620000Y-33090000D01*
D45*
X140620000Y-33090000D02*
X140620000Y-29090000D01*
D43*
X71850000Y-118950000D02*
X71450000Y-118550000D01*
X71850000Y-120237500D02*
X71850000Y-118950000D01*
D44*
X138032500Y-38902500D02*
X138720000Y-38902500D01*
X136520000Y-36190761D02*
X136520000Y-37390000D01*
X136250000Y-34240000D02*
X136250000Y-35920761D01*
X136250000Y-35920761D02*
X136520000Y-36190761D01*
X136520000Y-37390000D02*
X138032500Y-38902500D01*
X132020000Y-36290000D02*
X131832500Y-36290000D01*
X133250000Y-35060000D02*
X132020000Y-36290000D01*
X133250000Y-34240000D02*
X133250000Y-35060000D01*
X206650000Y-114350000D02*
X221686250Y-114350000D01*
X202900000Y-110600000D02*
X206650000Y-114350000D01*
X137812500Y-110600000D02*
X202900000Y-110600000D01*
X222401250Y-113635000D02*
X224098750Y-113635000D01*
X221686250Y-114350000D02*
X222401250Y-113635000D01*
X137812500Y-108600000D02*
X206700000Y-108600000D01*
X206700000Y-108600000D02*
X208525000Y-110425000D01*
X208525000Y-110425000D02*
X213548750Y-110425000D01*
D46*
X218486250Y-112750000D02*
X207450000Y-112750000D01*
X219801250Y-111435000D02*
X218486250Y-112750000D01*
X207450000Y-112750000D02*
X204300000Y-109600000D01*
X204300000Y-109600000D02*
X137812500Y-109600000D01*
X224098750Y-111435000D02*
X219801250Y-111435000D01*
X218601250Y-110335000D02*
X216986250Y-111950000D01*
X208450000Y-111950000D02*
X207950000Y-111950000D01*
X223698750Y-110335000D02*
X218601250Y-110335000D01*
X216986250Y-111950000D02*
X208450000Y-111950000D01*
X205100000Y-109100000D02*
X137812500Y-109100000D01*
X207950000Y-111950000D02*
X205100000Y-109100000D01*
X207250000Y-113650000D02*
X203700000Y-110100000D01*
X220986250Y-112550000D02*
X219886250Y-113650000D01*
X220986250Y-115800000D02*
X221021250Y-115835000D01*
X207550000Y-113650000D02*
X207250000Y-113650000D01*
X203700000Y-110100000D02*
X137812500Y-110100000D01*
X219886250Y-113650000D02*
X207550000Y-113650000D01*
X221021250Y-115835000D02*
X224098750Y-115835000D01*
D43*
X127250000Y-109600000D02*
X129487500Y-109600000D01*
X126250000Y-135750000D02*
X131025000Y-135750000D01*
X124450000Y-133950000D02*
X126250000Y-135750000D01*
X137812500Y-124187500D02*
X134450000Y-127550000D01*
X134450000Y-127550000D02*
X77350000Y-127550000D01*
X77350000Y-127550000D02*
X71862500Y-122062500D01*
X71862500Y-122062500D02*
X71850000Y-122062500D01*
X137812500Y-111600000D02*
X137812500Y-124187500D01*
X135400000Y-103350000D02*
X135400000Y-104687500D01*
X137150000Y-100650000D02*
X137150000Y-101150000D01*
X142250000Y-131037500D02*
X145650000Y-134437500D01*
X135400000Y-102900000D02*
X135400000Y-103350000D01*
X135400000Y-103100000D02*
X135400000Y-103350000D01*
X137150000Y-101150000D02*
X135400000Y-102900000D01*
X142250000Y-116550000D02*
X142250000Y-131037500D01*
X134400000Y-104687500D02*
X134400000Y-101680761D01*
X137625000Y-98455761D02*
X137625000Y-95550000D01*
X134400000Y-101680761D02*
X137625000Y-98455761D01*
X133900000Y-101350000D02*
X136050000Y-99200000D01*
X136050000Y-99200000D02*
X136050000Y-85250000D01*
X133900000Y-104687500D02*
X133900000Y-101350000D01*
X134350000Y-99900000D02*
X134350000Y-71575000D01*
X133400000Y-104687500D02*
X133400000Y-100850000D01*
X134350000Y-71575000D02*
X136150000Y-69775000D01*
X133400000Y-100850000D02*
X134350000Y-99900000D01*
X134900000Y-102300000D02*
X134900000Y-104687500D01*
X135650000Y-101550000D02*
X134900000Y-102300000D01*
X122850000Y-53950000D02*
X126650000Y-50150000D01*
X122850000Y-95350000D02*
X122850000Y-53950000D01*
X126650000Y-50150000D02*
X126850000Y-50150000D01*
X123150000Y-105450000D02*
X126300000Y-108600000D01*
X167150000Y-37600000D02*
X154600000Y-50150000D01*
X154600000Y-50150000D02*
X138750000Y-50150000D01*
X194987500Y-37600000D02*
X167150000Y-37600000D01*
X126300000Y-108600000D02*
X129487500Y-108600000D01*
X222100000Y-39762500D02*
X222100000Y-45500000D01*
X222100000Y-45500000D02*
X214050000Y-53550000D01*
X125600000Y-105500000D02*
X127700000Y-107600000D01*
X127700000Y-107600000D02*
X129487500Y-107600000D01*
X214050000Y-53550000D02*
X138750000Y-53550000D01*
X124850000Y-55350000D02*
X124850000Y-93950000D01*
X127050000Y-53150000D02*
X124850000Y-55350000D01*
X128400000Y-107100000D02*
X129487500Y-107100000D01*
X159250000Y-52550000D02*
X138750000Y-52550000D01*
X173075000Y-42812500D02*
X168987500Y-42812500D01*
X128650000Y-52950000D02*
X125850000Y-55750000D01*
X125850000Y-55750000D02*
X125850000Y-93350000D01*
X126850000Y-105550000D02*
X128400000Y-107100000D01*
X128650000Y-52550000D02*
X128650000Y-52950000D01*
X168987500Y-42812500D02*
X159250000Y-52550000D01*
X193487500Y-41600000D02*
X192700000Y-41600000D01*
X192700000Y-41600000D02*
X189850000Y-38750000D01*
X189850000Y-38750000D02*
X167450000Y-38750000D01*
X154850000Y-51350000D02*
X138750000Y-51350000D01*
X127000000Y-108100000D02*
X129487500Y-108100000D01*
X123850000Y-54950000D02*
X123850000Y-94650000D01*
X126850000Y-51950000D02*
X123850000Y-54950000D01*
X167450000Y-38750000D02*
X154850000Y-51350000D01*
X124400000Y-105500000D02*
X127000000Y-108100000D01*
X80650000Y-56250000D02*
X80650000Y-56255000D01*
X80650000Y-50950000D02*
X80650000Y-56250000D01*
X86750000Y-124050000D02*
X132350000Y-124050000D01*
X132350000Y-124050000D02*
X135400000Y-121000000D01*
X85450000Y-125350000D02*
X85450000Y-92450000D01*
X80650000Y-68550000D02*
X80650000Y-72350000D01*
X85450000Y-92450000D02*
X80650000Y-87650000D01*
X85350000Y-125450000D02*
X86750000Y-124050000D01*
X135400000Y-121000000D02*
X135400000Y-113012500D01*
X85350000Y-125450000D02*
X85450000Y-125350000D01*
X135900000Y-121700000D02*
X135900000Y-113012500D01*
X99150000Y-125150000D02*
X132450000Y-125150000D01*
X99150000Y-68950000D02*
X99150000Y-72350000D01*
X132450000Y-125150000D02*
X135900000Y-121700000D01*
X99150000Y-56250000D02*
X99150000Y-56255000D01*
X99150000Y-50150000D02*
X99150000Y-56250000D01*
X99050000Y-88550000D02*
X99050000Y-92650000D01*
X117650000Y-50350000D02*
X117650000Y-56250000D01*
X118400000Y-87850000D02*
X118400000Y-92850000D01*
X136400000Y-122400000D02*
X136400000Y-113012500D01*
X132850000Y-125950000D02*
X136400000Y-122400000D01*
X117650000Y-56250000D02*
X117650000Y-56255000D01*
X120650000Y-125950000D02*
X132850000Y-125950000D01*
X117650000Y-68750000D02*
X117650000Y-72350000D01*
X157150000Y-106850000D02*
X140950000Y-106850000D01*
X157150000Y-70150000D02*
X157150000Y-74350000D01*
X140950000Y-106850000D02*
X140200000Y-107600000D01*
X157150000Y-104950000D02*
X157150000Y-102250000D01*
X140200000Y-107600000D02*
X137812500Y-107600000D01*
X156650000Y-87150000D02*
X156650000Y-89550000D01*
X157350000Y-124000000D02*
X157350000Y-128250000D01*
X157350000Y-128250000D02*
X157450000Y-128350000D01*
X140648529Y-106150000D02*
X139698529Y-107100000D01*
X175400000Y-87150000D02*
X175400000Y-89550000D01*
X174900000Y-106100000D02*
X174900000Y-103850000D01*
X174900000Y-106100000D02*
X174850000Y-106150000D01*
X174850000Y-106150000D02*
X140648529Y-106150000D01*
X175150000Y-73750000D02*
X175150000Y-69550000D01*
X175150000Y-69550000D02*
X175250000Y-69650000D01*
X139698529Y-107100000D02*
X137812500Y-107100000D01*
X136400000Y-104100000D02*
X147900000Y-92600000D01*
X193650000Y-124050000D02*
X193650000Y-128050000D01*
X194150000Y-69950000D02*
X194150000Y-73750000D01*
X136400000Y-104687500D02*
X136400000Y-104100000D01*
X147900000Y-92600000D02*
X193650000Y-92600000D01*
X193650000Y-87150000D02*
X193650000Y-89600000D01*
X206150000Y-97350000D02*
X212150000Y-97350000D01*
X200150000Y-91350000D02*
X206150000Y-97350000D01*
X135900000Y-103300000D02*
X147850000Y-91350000D01*
X147850000Y-91350000D02*
X200150000Y-91350000D01*
X135900000Y-104687500D02*
X135900000Y-103300000D01*
D47*
X135750000Y-36160000D02*
X135570000Y-36340000D01*
X135075000Y-35350000D02*
X135750000Y-35350000D01*
X134750000Y-34240000D02*
X134750000Y-35025000D01*
X135750000Y-34240000D02*
X135750000Y-36160000D01*
D44*
X135570000Y-36340000D02*
X135670000Y-36340000D01*
D47*
X134750000Y-35025000D02*
X135075000Y-35350000D01*
X132457500Y-103523749D02*
X132400000Y-103581249D01*
X134450000Y-41550000D02*
X134707499Y-41807499D01*
X132400000Y-103581249D02*
X132400000Y-104687500D01*
X134707499Y-41807499D02*
X134707499Y-42870263D01*
X134707499Y-42870263D02*
X132457500Y-45120262D01*
X132457500Y-45120262D02*
X132457500Y-103523749D01*
D44*
X135020000Y-33190000D02*
X135250000Y-33420000D01*
X135250000Y-33420000D02*
X135250000Y-34240000D01*
X134520000Y-33190000D02*
X135020000Y-33190000D01*
X134250000Y-34240000D02*
X134250000Y-33460000D01*
X134250000Y-33460000D02*
X134520000Y-33190000D01*
D47*
X134250000Y-34240000D02*
X134250000Y-36360000D01*
X132900000Y-103581249D02*
X132900000Y-104687500D01*
X132842500Y-45279738D02*
X132842500Y-103523749D01*
X132842500Y-103523749D02*
X132900000Y-103581249D01*
X135350000Y-41550000D02*
X135092501Y-41807499D01*
X135092501Y-41807499D02*
X135092501Y-43029737D01*
X135092501Y-43029737D02*
X132842500Y-45279738D01*
D43*
X225950000Y-114750000D02*
X224313750Y-114750000D01*
X224313750Y-114750000D02*
X224298750Y-114735000D01*
X199750000Y-112850000D02*
X199750000Y-114450000D01*
X222737500Y-121350000D02*
X223337500Y-121950000D01*
X140800000Y-108100000D02*
X137812500Y-108100000D01*
X199050000Y-107650000D02*
X141250000Y-107650000D01*
X199750000Y-114450000D02*
X206650000Y-121350000D01*
X141250000Y-107650000D02*
X140800000Y-108100000D01*
X199750000Y-106950000D02*
X199050000Y-107650000D01*
X206650000Y-121350000D02*
X222737500Y-121350000D01*
X225162500Y-120037500D02*
X225250000Y-119950000D01*
X225162500Y-121950000D02*
X225162500Y-120037500D01*
M02*
