G04 #@! TF.GenerationSoftware,KiCad,Pcbnew,8.0.3*
G04 #@! TF.CreationDate,2024-08-13T11:44:20+03:00*
G04 #@! TF.ProjectId,Keyboard_stm32,4b657962-6f61-4726-945f-73746d33322e,rev?*
G04 #@! TF.SameCoordinates,Original*
G04 #@! TF.FileFunction,Copper,L4,Bot*
G04 #@! TF.FilePolarity,Positive*
%FSLAX46Y46*%
G04 Gerber Fmt 4.6, Leading zero omitted, Abs format (unit mm)*
G04 Created by KiCad (PCBNEW 8.0.3) date 2024-08-13 11:44:20*
%MOMM*%
%LPD*%
G01*
G04 APERTURE LIST*
G04 Aperture macros list*
%AMRoundRect*
0 Rectangle with rounded corners*
0 $1 Rounding radius*
0 $2 $3 $4 $5 $6 $7 $8 $9 X,Y pos of 4 corners*
0 Add a 4 corners polygon primitive as box body*
4,1,4,$2,$3,$4,$5,$6,$7,$8,$9,$2,$3,0*
0 Add four circle primitives for the rounded corners*
1,1,$1+$1,$2,$3*
1,1,$1+$1,$4,$5*
1,1,$1+$1,$6,$7*
1,1,$1+$1,$8,$9*
0 Add four rect primitives between the rounded corners*
20,1,$1+$1,$2,$3,$4,$5,0*
20,1,$1+$1,$4,$5,$6,$7,0*
20,1,$1+$1,$6,$7,$8,$9,0*
20,1,$1+$1,$8,$9,$2,$3,0*%
G04 Aperture macros list end*
G04 #@! TA.AperFunction,SMDPad,CuDef*
%ADD10R,2.550000X2.500000*%
G04 #@! TD*
G04 #@! TA.AperFunction,ComponentPad*
%ADD11C,5.000000*%
G04 #@! TD*
G04 #@! TA.AperFunction,ComponentPad*
%ADD12R,1.500000X1.500000*%
G04 #@! TD*
G04 #@! TA.AperFunction,ComponentPad*
%ADD13C,1.500000*%
G04 #@! TD*
G04 #@! TA.AperFunction,ComponentPad*
%ADD14O,1.000000X1.800000*%
G04 #@! TD*
G04 #@! TA.AperFunction,ComponentPad*
%ADD15O,1.000000X2.200000*%
G04 #@! TD*
G04 #@! TA.AperFunction,ComponentPad*
%ADD16C,1.550000*%
G04 #@! TD*
G04 #@! TA.AperFunction,ComponentPad*
%ADD17C,4.350000*%
G04 #@! TD*
G04 #@! TA.AperFunction,ComponentPad*
%ADD18R,1.100000X1.100000*%
G04 #@! TD*
G04 #@! TA.AperFunction,ComponentPad*
%ADD19C,1.100000*%
G04 #@! TD*
G04 #@! TA.AperFunction,SMDPad,CuDef*
%ADD20R,0.740000X1.020000*%
G04 #@! TD*
G04 #@! TA.AperFunction,SMDPad,CuDef*
%ADD21RoundRect,0.250000X0.475000X-0.337500X0.475000X0.337500X-0.475000X0.337500X-0.475000X-0.337500X0*%
G04 #@! TD*
G04 #@! TA.AperFunction,SMDPad,CuDef*
%ADD22RoundRect,0.237500X-0.237500X0.250000X-0.237500X-0.250000X0.237500X-0.250000X0.237500X0.250000X0*%
G04 #@! TD*
G04 #@! TA.AperFunction,SMDPad,CuDef*
%ADD23RoundRect,0.250000X-0.475000X0.337500X-0.475000X-0.337500X0.475000X-0.337500X0.475000X0.337500X0*%
G04 #@! TD*
G04 #@! TA.AperFunction,SMDPad,CuDef*
%ADD24RoundRect,0.250000X0.337500X0.475000X-0.337500X0.475000X-0.337500X-0.475000X0.337500X-0.475000X0*%
G04 #@! TD*
G04 #@! TA.AperFunction,SMDPad,CuDef*
%ADD25RoundRect,0.250000X0.650000X-0.412500X0.650000X0.412500X-0.650000X0.412500X-0.650000X-0.412500X0*%
G04 #@! TD*
G04 #@! TA.AperFunction,SMDPad,CuDef*
%ADD26R,1.700000X2.100000*%
G04 #@! TD*
G04 #@! TA.AperFunction,SMDPad,CuDef*
%ADD27RoundRect,0.200000X0.200000X-0.750000X0.200000X0.750000X-0.200000X0.750000X-0.200000X-0.750000X0*%
G04 #@! TD*
G04 #@! TA.AperFunction,SMDPad,CuDef*
%ADD28R,1.020000X0.740000*%
G04 #@! TD*
G04 #@! TA.AperFunction,SMDPad,CuDef*
%ADD29RoundRect,0.250000X-0.337500X-0.475000X0.337500X-0.475000X0.337500X0.475000X-0.337500X0.475000X0*%
G04 #@! TD*
G04 #@! TA.AperFunction,ComponentPad*
%ADD30C,1.524000*%
G04 #@! TD*
G04 #@! TA.AperFunction,SMDPad,CuDef*
%ADD31RoundRect,0.250000X-0.250000X0.250000X-0.250000X-0.250000X0.250000X-0.250000X0.250000X0.250000X0*%
G04 #@! TD*
G04 #@! TA.AperFunction,SMDPad,CuDef*
%ADD32R,0.600000X1.200000*%
G04 #@! TD*
G04 #@! TA.AperFunction,SMDPad,CuDef*
%ADD33R,0.450000X1.400000*%
G04 #@! TD*
G04 #@! TA.AperFunction,SMDPad,CuDef*
%ADD34RoundRect,0.237500X0.237500X-0.250000X0.237500X0.250000X-0.237500X0.250000X-0.237500X-0.250000X0*%
G04 #@! TD*
G04 #@! TA.AperFunction,SMDPad,CuDef*
%ADD35R,2.850000X2.850000*%
G04 #@! TD*
G04 #@! TA.AperFunction,ViaPad*
%ADD36C,0.600000*%
G04 #@! TD*
G04 #@! TA.AperFunction,ViaPad*
%ADD37C,0.650000*%
G04 #@! TD*
G04 #@! TA.AperFunction,Conductor*
%ADD38C,0.300000*%
G04 #@! TD*
G04 #@! TA.AperFunction,Conductor*
%ADD39C,0.500000*%
G04 #@! TD*
G04 #@! TA.AperFunction,Conductor*
%ADD40C,0.400000*%
G04 #@! TD*
G04 #@! TA.AperFunction,Conductor*
%ADD41C,0.200000*%
G04 #@! TD*
G04 #@! TA.AperFunction,Conductor*
%ADD42C,0.190000*%
G04 #@! TD*
G04 #@! TA.AperFunction,Conductor*
%ADD43C,0.185000*%
G04 #@! TD*
G04 APERTURE END LIST*
D10*
X201740000Y-61810000D03*
X215165000Y-59270000D03*
X164740000Y-98810000D03*
X178165000Y-96270000D03*
D11*
X67650000Y-31350000D03*
D12*
X109550000Y-116550000D03*
D13*
X116050000Y-116550000D03*
X109550000Y-121050000D03*
X116050000Y-121050000D03*
D10*
X70240000Y-38810000D03*
X83665000Y-36270000D03*
D11*
X67650000Y-148050000D03*
D10*
X70240000Y-135310000D03*
X83665000Y-132770000D03*
X183240000Y-135810000D03*
X196665000Y-133270000D03*
X146240000Y-80310000D03*
X159665000Y-77770000D03*
D11*
X226950000Y-148050000D03*
D10*
X88740000Y-135310000D03*
X102165000Y-132770000D03*
X70240000Y-61810000D03*
X83665000Y-59270000D03*
X201740000Y-127810000D03*
X215165000Y-125270000D03*
D14*
X140620000Y-33090000D03*
D15*
X140620000Y-29090000D03*
D14*
X129380000Y-33090000D03*
D15*
X129380000Y-29090000D03*
D10*
X88740000Y-80310000D03*
X102165000Y-77770000D03*
D16*
X115250000Y-95270000D03*
X115250000Y-97810000D03*
X115250000Y-100350000D03*
X115250000Y-102890000D03*
X115250000Y-105430000D03*
X115250000Y-107970000D03*
D12*
X179650000Y-42850000D03*
D13*
X186150000Y-42850000D03*
X179650000Y-47350000D03*
X186150000Y-47350000D03*
D11*
X92650000Y-99750000D03*
D10*
X88740000Y-61810000D03*
X102165000Y-59270000D03*
D11*
X226950000Y-31350000D03*
D10*
X164740000Y-80310000D03*
X178165000Y-77770000D03*
X155240000Y-135810000D03*
X168665000Y-133270000D03*
X146240000Y-117310000D03*
X159665000Y-114770000D03*
X88740000Y-38810000D03*
X102165000Y-36270000D03*
X183240000Y-80310000D03*
X196665000Y-77770000D03*
X183240000Y-61810000D03*
X196665000Y-59270000D03*
X164740000Y-117310000D03*
X178165000Y-114770000D03*
D13*
X201825000Y-37850000D03*
X201825000Y-40350000D03*
X201825000Y-42850000D03*
D12*
X216325000Y-37850000D03*
D13*
X216325000Y-42850000D03*
D17*
X209325000Y-34750000D03*
X209325000Y-45950000D03*
D10*
X107240000Y-38810000D03*
X120665000Y-36270000D03*
X183240000Y-117310000D03*
X196665000Y-114770000D03*
X146240000Y-98810000D03*
X159665000Y-96270000D03*
X107240000Y-135310000D03*
X120665000Y-132770000D03*
D18*
X80650000Y-114150000D03*
D19*
X78650000Y-114150000D03*
D11*
X202950000Y-104150000D03*
D10*
X201740000Y-89810000D03*
X215165000Y-87270000D03*
X164740000Y-61810000D03*
X178165000Y-59270000D03*
X146240000Y-61810000D03*
X159665000Y-59270000D03*
X107240000Y-80310000D03*
X120665000Y-77770000D03*
X88740000Y-116810000D03*
X102165000Y-114270000D03*
X183240000Y-98810000D03*
X196665000Y-96270000D03*
X107240000Y-61810000D03*
X120665000Y-59270000D03*
X70240000Y-80310000D03*
X83665000Y-77770000D03*
D20*
X88750000Y-70350000D03*
X88750000Y-66950000D03*
X183250000Y-88350000D03*
X183250000Y-84950000D03*
D21*
X132050000Y-112987500D03*
X132050000Y-110912500D03*
D22*
X216950000Y-115437500D03*
X216950000Y-117262500D03*
D20*
X144950000Y-105450000D03*
X144950000Y-102050000D03*
D23*
X74850000Y-116912500D03*
X74850000Y-118987500D03*
D20*
X107250000Y-143850000D03*
X107250000Y-140450000D03*
X183250000Y-143850000D03*
X183250000Y-140450000D03*
D24*
X137650000Y-110750000D03*
X135575000Y-110750000D03*
D25*
X70650000Y-109475000D03*
X70650000Y-106350000D03*
D20*
X201650000Y-72050000D03*
X201650000Y-68650000D03*
X70250000Y-70350000D03*
X70250000Y-66950000D03*
D26*
X106300000Y-95290000D03*
X111000000Y-95290000D03*
D20*
X70250000Y-143850000D03*
X70250000Y-140450000D03*
X181750000Y-105450000D03*
X181750000Y-102050000D03*
X88650000Y-48250000D03*
X88650000Y-44850000D03*
D27*
X225000000Y-117150000D03*
X223100000Y-117150000D03*
X224050000Y-114150000D03*
D23*
X74850000Y-112912500D03*
X74850000Y-114987500D03*
D20*
X70250000Y-89550000D03*
X70250000Y-86150000D03*
X183250000Y-126150000D03*
X183250000Y-122750000D03*
D22*
X219350000Y-115437500D03*
X219350000Y-117262500D03*
D20*
X107250000Y-89450000D03*
X107250000Y-86050000D03*
D21*
X129150000Y-94725000D03*
X129150000Y-92650000D03*
D20*
X107250000Y-70350000D03*
X107250000Y-66950000D03*
D23*
X137450000Y-106112500D03*
X137450000Y-108187500D03*
D28*
X198350000Y-85450000D03*
X201750000Y-85450000D03*
D29*
X130412500Y-105950000D03*
X132487500Y-105950000D03*
D24*
X226061250Y-110950000D03*
X223986250Y-110950000D03*
D20*
X146250000Y-88350000D03*
X146250000Y-84950000D03*
D30*
X134137500Y-139787500D03*
X136637500Y-139787500D03*
X139137500Y-139787500D03*
D20*
X164750000Y-126050000D03*
X164750000Y-122650000D03*
X88750000Y-143850000D03*
X88750000Y-140450000D03*
D24*
X226025000Y-108650000D03*
X223950000Y-108650000D03*
D31*
X139450000Y-110950000D03*
X139450000Y-112550000D03*
D20*
X163150000Y-105450000D03*
X163150000Y-102050000D03*
D32*
X133970000Y-37640000D03*
X134920000Y-37640000D03*
X135870000Y-37640000D03*
X135870000Y-40140000D03*
X134920000Y-40140000D03*
X133970000Y-40140000D03*
D23*
X216950000Y-106412500D03*
X216950000Y-108487500D03*
D20*
X88750000Y-89450000D03*
X88750000Y-86050000D03*
X107250000Y-48250000D03*
X107250000Y-44850000D03*
D24*
X137687500Y-113000000D03*
X135612500Y-113000000D03*
D20*
X146250000Y-72050000D03*
X146250000Y-68650000D03*
X164650000Y-72050000D03*
X164650000Y-68650000D03*
X164750000Y-88350000D03*
X164750000Y-84950000D03*
D23*
X135250000Y-106075000D03*
X135250000Y-108150000D03*
D26*
X106300000Y-107090000D03*
X111000000Y-107090000D03*
D20*
X201550000Y-133650000D03*
X201550000Y-130250000D03*
X146250000Y-126150000D03*
X146250000Y-122750000D03*
D21*
X129800000Y-112987500D03*
X129800000Y-110912500D03*
D26*
X106300000Y-103090000D03*
X111000000Y-103090000D03*
D29*
X130412500Y-108150000D03*
X132487500Y-108150000D03*
D33*
X72625000Y-116112500D03*
X71975000Y-116112500D03*
X71325000Y-116112500D03*
X70675000Y-116112500D03*
X70675000Y-111712500D03*
X71325000Y-111712500D03*
X71975000Y-111712500D03*
X72625000Y-111712500D03*
D23*
X219350000Y-106412500D03*
X219350000Y-108487500D03*
D24*
X137687500Y-115150000D03*
X135612500Y-115150000D03*
D34*
X140850000Y-123012500D03*
X140850000Y-121187500D03*
D20*
X88750000Y-124550000D03*
X88750000Y-121150000D03*
X183250000Y-72050000D03*
X183250000Y-68650000D03*
D23*
X221750000Y-106400000D03*
X221750000Y-108475000D03*
D26*
X106300000Y-99090000D03*
X111000000Y-99090000D03*
D20*
X70250000Y-48250000D03*
X70250000Y-44850000D03*
D35*
X77375000Y-103075000D03*
X77375000Y-96425000D03*
X70725000Y-103075000D03*
X70725000Y-96425000D03*
D20*
X155250000Y-143850000D03*
X155250000Y-140450000D03*
D36*
X138270000Y-35540000D03*
X157150000Y-41150000D03*
X127650000Y-92350000D03*
X104250000Y-97150000D03*
X133850000Y-107950000D03*
X104250000Y-104950000D03*
X134050000Y-109750000D03*
X127550000Y-121450000D03*
X130650000Y-102950000D03*
X138450000Y-131687500D03*
X148850000Y-44800000D03*
X139450000Y-105850000D03*
X155650000Y-42550000D03*
X227550000Y-116250000D03*
X126550000Y-119750000D03*
X74850000Y-120550000D03*
X73925000Y-96425000D03*
X127550000Y-110750000D03*
X146350000Y-44800000D03*
X134150000Y-115550000D03*
X225750000Y-105050000D03*
X154850000Y-35100000D03*
X132450000Y-109550000D03*
X214950000Y-108150000D03*
X70750000Y-99550000D03*
X128050000Y-48750000D03*
X131781250Y-39081250D03*
X122150000Y-112450000D03*
X127550000Y-94350000D03*
X214950000Y-106750000D03*
X219850000Y-34350000D03*
X157150000Y-39150000D03*
X195487500Y-39687500D03*
X130724999Y-109561986D03*
X129650000Y-103950000D03*
X155650000Y-37650000D03*
X125750000Y-48750000D03*
X127650000Y-111950000D03*
X136450000Y-109350000D03*
X133850000Y-106150000D03*
X218050000Y-118950000D03*
X138050000Y-104550000D03*
X134050000Y-110950000D03*
X226050000Y-112550000D03*
X175050000Y-40950000D03*
X131950000Y-41212500D03*
X123850000Y-117912500D03*
X133550000Y-116250000D03*
X70450000Y-118550000D03*
X134150000Y-117150000D03*
X137250000Y-36790000D03*
X145600000Y-39150000D03*
X136850000Y-66150000D03*
X136816639Y-81433361D03*
X138375000Y-99325000D03*
X145650000Y-143850000D03*
X88750000Y-126450000D03*
X134250000Y-126150000D03*
X71450000Y-118550000D03*
X216986250Y-111950000D03*
X220986250Y-112550000D03*
X220986250Y-115800000D03*
X127250000Y-109600000D03*
X124450000Y-133950000D03*
X137150000Y-100650000D03*
X142250000Y-116550000D03*
X135650000Y-101550000D03*
X138750000Y-50150000D03*
X122850000Y-95350000D03*
X123150000Y-105450000D03*
X126850000Y-50150000D03*
X124850000Y-93950000D03*
X125600000Y-105500000D03*
X127050000Y-53150000D03*
X138750000Y-53550000D03*
X138750000Y-52550000D03*
X128650000Y-52550000D03*
X126850000Y-105550000D03*
X125850000Y-93350000D03*
X123850000Y-94650000D03*
X126850000Y-51950000D03*
X138750000Y-51350000D03*
X124400000Y-105500000D03*
X85350000Y-125450000D03*
X80650000Y-50950000D03*
X80650000Y-56250000D03*
X80650000Y-87650000D03*
X80650000Y-68550000D03*
X80650000Y-72350000D03*
X99150000Y-125150000D03*
X99050000Y-92650000D03*
X99050000Y-88550000D03*
X99150000Y-56250000D03*
X99150000Y-50150000D03*
X99150000Y-72350000D03*
X99150000Y-68950000D03*
X117650000Y-56250000D03*
X118400000Y-87850000D03*
X117650000Y-72350000D03*
X120650000Y-125950000D03*
X117650000Y-50350000D03*
X117650000Y-68750000D03*
X118400000Y-92850000D03*
X157150000Y-74350000D03*
X157150000Y-106850000D03*
X157150000Y-102250000D03*
X156650000Y-87150000D03*
X157450000Y-128350000D03*
X157150000Y-70150000D03*
X157150000Y-104950000D03*
X157350000Y-124000000D03*
X156650000Y-89550000D03*
X175150000Y-73750000D03*
X174900000Y-106100000D03*
X175400000Y-89550000D03*
X175400000Y-87150000D03*
X175150000Y-69550000D03*
X174900000Y-103850000D03*
X193650000Y-89600000D03*
X193650000Y-92600000D03*
X194150000Y-69950000D03*
X194150000Y-73750000D03*
X193650000Y-124050000D03*
X193650000Y-128050000D03*
X193650000Y-87150000D03*
D37*
X212150000Y-97350000D03*
D36*
X135570000Y-36340000D03*
X134450000Y-41550000D03*
X134250000Y-36360000D03*
X135350000Y-41550000D03*
X225950000Y-114750000D03*
X199750000Y-112850000D03*
X199750000Y-106950000D03*
X225250000Y-119950000D03*
D38*
X71975000Y-116112500D02*
X71975000Y-115212500D01*
X137412500Y-108150000D02*
X137450000Y-108187500D01*
X135798896Y-114700000D02*
X135930698Y-114831802D01*
X138270000Y-35540000D02*
X135270000Y-35540000D01*
X216962500Y-108475000D02*
X216950000Y-108487500D01*
X221825000Y-108550000D02*
X221750000Y-108475000D01*
D39*
X73925000Y-96425000D02*
X70725000Y-96425000D01*
D38*
X127712500Y-110912500D02*
X129800000Y-110912500D01*
X106300000Y-104950000D02*
X106300000Y-103090000D01*
X106300000Y-95290000D02*
X106300000Y-97150000D01*
X134550000Y-115150000D02*
X135612500Y-115150000D01*
X137450000Y-108187500D02*
X137450000Y-107850000D01*
X134050000Y-109750000D02*
X134767157Y-110467157D01*
X134920000Y-35890000D02*
X134920000Y-37640000D01*
X132275000Y-108162500D02*
X132237500Y-108200000D01*
X134050000Y-109750000D02*
X132887500Y-110912500D01*
X134767157Y-110467157D02*
X135292158Y-110467157D01*
X135250000Y-108150000D02*
X137412500Y-108150000D01*
X129150000Y-92650000D02*
X127950000Y-92650000D01*
X127950000Y-92650000D02*
X127650000Y-92350000D01*
X132487500Y-104787500D02*
X132487500Y-105950000D01*
X135612500Y-113000000D02*
X135612500Y-114700000D01*
X135612500Y-114700000D02*
X135798896Y-114700000D01*
X137450000Y-107850000D02*
X139450000Y-105850000D01*
X132487500Y-109512500D02*
X132450000Y-109550000D01*
X129800000Y-110912500D02*
X132050000Y-110912500D01*
X77812500Y-114987500D02*
X78650000Y-114150000D01*
X74850000Y-118987500D02*
X74850000Y-120550000D01*
X127550000Y-110750000D02*
X127712500Y-110912500D01*
X127550000Y-110850000D02*
X127550000Y-110750000D01*
X106300000Y-107090000D02*
X106300000Y-104950000D01*
X106300000Y-97150000D02*
X106300000Y-99090000D01*
X135250000Y-108150000D02*
X134050000Y-108150000D01*
X132887500Y-110912500D02*
X132050000Y-110912500D01*
X215287500Y-108487500D02*
X214950000Y-108150000D01*
X135270000Y-35540000D02*
X134920000Y-35890000D01*
X71975000Y-115212500D02*
X72200000Y-114987500D01*
X223986250Y-108550000D02*
X221825000Y-108550000D01*
X216950000Y-108487500D02*
X215287500Y-108487500D01*
X223986250Y-110950000D02*
X223986250Y-114086250D01*
X137450000Y-108187500D02*
X137562500Y-108187500D01*
X134050000Y-108150000D02*
X133850000Y-107950000D01*
X135575000Y-110750000D02*
X135575000Y-112962500D01*
X223986250Y-114086250D02*
X224050000Y-114150000D01*
X132487500Y-108150000D02*
X132487500Y-105950000D01*
X72200000Y-114987500D02*
X74850000Y-114987500D01*
X74850000Y-114987500D02*
X77812500Y-114987500D01*
X132487500Y-108150000D02*
X132487500Y-109512500D01*
D39*
X70725000Y-99525000D02*
X70725000Y-96425000D01*
D38*
X130650000Y-102950000D02*
X132487500Y-104787500D01*
X106300000Y-97150000D02*
X104250000Y-97150000D01*
X70750000Y-99550000D02*
X70725000Y-99525000D01*
X135575000Y-112962500D02*
X135612500Y-113000000D01*
X134150000Y-115550000D02*
X134550000Y-115150000D01*
X223986250Y-108550000D02*
X223986250Y-110950000D01*
X221750000Y-108475000D02*
X216962500Y-108475000D01*
X106300000Y-104950000D02*
X104250000Y-104950000D01*
X221750000Y-106400000D02*
X216962500Y-106400000D01*
X130412500Y-104712500D02*
X130412500Y-105950000D01*
X127925000Y-94725000D02*
X127550000Y-94350000D01*
X226061250Y-108550000D02*
X223911250Y-106400000D01*
X216962500Y-106400000D02*
X216950000Y-106412500D01*
X128687500Y-112987500D02*
X129800000Y-112987500D01*
X137412500Y-106075000D02*
X137450000Y-106112500D01*
X129800000Y-112987500D02*
X129575000Y-112987500D01*
X226061250Y-112475000D02*
X226061250Y-110950000D01*
X139250000Y-110750000D02*
X139450000Y-110950000D01*
X218050000Y-117262500D02*
X218050000Y-118950000D01*
X129800000Y-112987500D02*
X132050000Y-112987500D01*
X127650000Y-111950000D02*
X128687500Y-112987500D01*
X214950000Y-106750000D02*
X215287500Y-106412500D01*
X223911250Y-106400000D02*
X221750000Y-106400000D01*
X130200000Y-108162500D02*
X130162500Y-108200000D01*
X226062500Y-112537500D02*
X226050000Y-112550000D01*
X135250000Y-106075000D02*
X133925000Y-106075000D01*
X225986250Y-112550000D02*
X226061250Y-112475000D01*
X215287500Y-106412500D02*
X216950000Y-106412500D01*
X137650000Y-110550000D02*
X136450000Y-109350000D01*
X129575000Y-112987500D02*
X129450000Y-113112500D01*
X133925000Y-106075000D02*
X133850000Y-106150000D01*
X216950000Y-117262500D02*
X218050000Y-117262500D01*
X130412500Y-108150000D02*
X130412500Y-105950000D01*
X134050000Y-110950000D02*
X134050000Y-110987500D01*
X226061250Y-108550000D02*
X226061250Y-110950000D01*
X115230000Y-95290000D02*
X115250000Y-95270000D01*
X129650000Y-103950000D02*
X130412500Y-104712500D01*
X135250000Y-106075000D02*
X137412500Y-106075000D01*
X134050000Y-110987500D02*
X132050000Y-112987500D01*
X111000000Y-95290000D02*
X115230000Y-95290000D01*
X130412500Y-109249487D02*
X130724999Y-109561986D01*
X130412500Y-108150000D02*
X130412500Y-109249487D01*
X129150000Y-94725000D02*
X127925000Y-94725000D01*
X137650000Y-110750000D02*
X139250000Y-110750000D01*
X137650000Y-110750000D02*
X137650000Y-110550000D01*
X138050000Y-104550000D02*
X138050000Y-105712500D01*
X218050000Y-117262500D02*
X219350000Y-117262500D01*
D40*
X113590000Y-107090000D02*
X115250000Y-105430000D01*
X111000000Y-107090000D02*
X113590000Y-107090000D01*
D41*
X123850000Y-117912500D02*
X123987500Y-117912500D01*
D38*
X111000000Y-111500000D02*
X111000000Y-107090000D01*
D41*
X123850000Y-117912500D02*
X125512500Y-116250000D01*
X125512500Y-116250000D02*
X133550000Y-116250000D01*
D38*
X116050000Y-116550000D02*
X111000000Y-111500000D01*
X74850000Y-116912500D02*
X74050000Y-116112500D01*
X74050000Y-116112500D02*
X72625000Y-116112500D01*
X70675000Y-116112500D02*
X70675000Y-118325000D01*
X70675000Y-118325000D02*
X70450000Y-118550000D01*
D41*
X137687500Y-113000000D02*
X137687500Y-115150000D01*
D38*
X71325000Y-111712500D02*
X71325000Y-112612500D01*
X71325000Y-112612500D02*
X71625000Y-112912500D01*
D41*
X137937500Y-112750000D02*
X137687500Y-113000000D01*
D38*
X71625000Y-112912500D02*
X74850000Y-112912500D01*
X79412500Y-112912500D02*
X80650000Y-114150000D01*
D41*
X134150000Y-117150000D02*
X135687500Y-117150000D01*
D38*
X74850000Y-112912500D02*
X79412500Y-112912500D01*
D41*
X139212500Y-112750000D02*
X137937500Y-112750000D01*
X135687500Y-117150000D02*
X137687500Y-115150000D01*
D38*
X70675000Y-111712500D02*
X70675000Y-109500000D01*
D41*
X70675000Y-109500000D02*
X70650000Y-109475000D01*
X70650000Y-103150000D02*
X70725000Y-103075000D01*
D39*
X70650000Y-106350000D02*
X70650000Y-103150000D01*
X137250000Y-36790000D02*
X137900000Y-36790000D01*
X140260000Y-39150000D02*
X145600000Y-39150000D01*
D38*
X137250000Y-37760000D02*
X136120000Y-38890000D01*
X137250000Y-36790000D02*
X137250000Y-37760000D01*
X134920000Y-39490000D02*
X134920000Y-40140000D01*
D39*
X137900000Y-36790000D02*
X140260000Y-39150000D01*
D38*
X135520000Y-38890000D02*
X134920000Y-39490000D01*
X136120000Y-38890000D02*
X135520000Y-38890000D01*
X70240000Y-44840000D02*
X70250000Y-44850000D01*
X70240000Y-38810000D02*
X70240000Y-44840000D01*
X123800000Y-53100000D02*
X107250000Y-53100000D01*
X75200000Y-53100000D02*
X88150000Y-53100000D01*
X136850000Y-66150000D02*
X123800000Y-53100000D01*
X88650000Y-53100000D02*
X106900000Y-53100000D01*
X70250000Y-48250000D02*
X70350000Y-48250000D01*
X88150000Y-53100000D02*
X88650000Y-53100000D01*
X201600000Y-72100000D02*
X201650000Y-72050000D01*
X107250000Y-48250000D02*
X107250000Y-53100000D01*
X70350000Y-48250000D02*
X75200000Y-53100000D01*
X142800000Y-72100000D02*
X201600000Y-72100000D01*
X88650000Y-48250000D02*
X88650000Y-53100000D01*
X136850000Y-66150000D02*
X142800000Y-72100000D01*
X107250000Y-53100000D02*
X106900000Y-53100000D01*
X143733278Y-88350000D02*
X145150000Y-88350000D01*
X70250000Y-70350000D02*
X88400000Y-70350000D01*
X194150000Y-88350000D02*
X144983278Y-88350000D01*
X197050000Y-85450000D02*
X198350000Y-85450000D01*
X125733278Y-70350000D02*
X136816639Y-81433361D01*
X88400000Y-70350000D02*
X106900000Y-70350000D01*
X106900000Y-70350000D02*
X125733278Y-70350000D01*
X194150000Y-88350000D02*
X197050000Y-85450000D01*
X136816639Y-81433361D02*
X143733278Y-88350000D01*
D41*
X70240000Y-66540000D02*
X70250000Y-66550000D01*
D38*
X70240000Y-61810000D02*
X70240000Y-67040000D01*
X70240000Y-67040000D02*
X70250000Y-67050000D01*
X70240000Y-86040000D02*
X70240000Y-80310000D01*
X70250000Y-86050000D02*
X70240000Y-86040000D01*
X70250000Y-86150000D02*
X70250000Y-86050000D01*
X107250000Y-91100000D02*
X106900000Y-91100000D01*
X88400000Y-91100000D02*
X88750000Y-91100000D01*
X156050000Y-103850000D02*
X161550000Y-103850000D01*
X163150000Y-105450000D02*
X181750000Y-105450000D01*
X107250000Y-89450000D02*
X107250000Y-91100000D01*
X161550000Y-103850000D02*
X163150000Y-105450000D01*
X88750000Y-89450000D02*
X88750000Y-91100000D01*
X144950000Y-105450000D02*
X154450000Y-105450000D01*
X70250000Y-89550000D02*
X72400000Y-89550000D01*
X144500000Y-105450000D02*
X144950000Y-105450000D01*
X138375000Y-99325000D02*
X144500000Y-105450000D01*
X88750000Y-91100000D02*
X106900000Y-91100000D01*
X73950000Y-91100000D02*
X88400000Y-91100000D01*
X138375000Y-99325000D02*
X130150000Y-91100000D01*
X130150000Y-91100000D02*
X107250000Y-91100000D01*
X72400000Y-89550000D02*
X73950000Y-91100000D01*
X154450000Y-105450000D02*
X156050000Y-103850000D01*
X70250000Y-143850000D02*
X183250000Y-143850000D01*
X70240000Y-140440000D02*
X70250000Y-140450000D01*
X70240000Y-135310000D02*
X70240000Y-140440000D01*
X88740000Y-38810000D02*
X88740000Y-44760000D01*
X88740000Y-44760000D02*
X88650000Y-44850000D01*
X88740000Y-66940000D02*
X88750000Y-66950000D01*
X88740000Y-61810000D02*
X88740000Y-66940000D01*
X88750000Y-86050000D02*
X88750000Y-80320000D01*
X88750000Y-80320000D02*
X88740000Y-80310000D01*
X88750000Y-121150000D02*
X88750000Y-116820000D01*
X88750000Y-116820000D02*
X88740000Y-116810000D01*
X182950000Y-126150000D02*
X194700000Y-126150000D01*
X194700000Y-126150000D02*
X201550000Y-133000000D01*
X88750000Y-124550000D02*
X88750000Y-126450000D01*
X164750000Y-126150000D02*
X182950000Y-126150000D01*
X142450000Y-126150000D02*
X164750000Y-126150000D01*
X140850000Y-126150000D02*
X142450000Y-126150000D01*
X140850000Y-123012500D02*
X140850000Y-126150000D01*
X134250000Y-126150000D02*
X142450000Y-126150000D01*
X201550000Y-133000000D02*
X201550000Y-133650000D01*
X88740000Y-135310000D02*
X88740000Y-140440000D01*
X88740000Y-140440000D02*
X88750000Y-140450000D01*
X107240000Y-38810000D02*
X107240000Y-44840000D01*
X107240000Y-44840000D02*
X107250000Y-44850000D01*
X107250000Y-66950000D02*
X107250000Y-61820000D01*
X107250000Y-61820000D02*
X107240000Y-61810000D01*
X107240000Y-85940000D02*
X107240000Y-80310000D01*
X107250000Y-86050000D02*
X107250000Y-85950000D01*
X107250000Y-85950000D02*
X107240000Y-85940000D01*
X107240000Y-140440000D02*
X107250000Y-140450000D01*
X107240000Y-135310000D02*
X107240000Y-140440000D01*
X146250000Y-67750000D02*
X146240000Y-67740000D01*
X146240000Y-67740000D02*
X146240000Y-61810000D01*
X146250000Y-68650000D02*
X146250000Y-67750000D01*
X146250000Y-84950000D02*
X146250000Y-80320000D01*
X146250000Y-80320000D02*
X146240000Y-80310000D01*
X146240000Y-100760000D02*
X144950000Y-102050000D01*
X146240000Y-98810000D02*
X146240000Y-100760000D01*
X146240000Y-122740000D02*
X146250000Y-122750000D01*
X146240000Y-117310000D02*
X146240000Y-122740000D01*
X155240000Y-140440000D02*
X155250000Y-140450000D01*
X155240000Y-135810000D02*
X155240000Y-140440000D01*
X164740000Y-68560000D02*
X164650000Y-68650000D01*
X164740000Y-61810000D02*
X164740000Y-68560000D01*
X164750000Y-84950000D02*
X164750000Y-80320000D01*
X164750000Y-80320000D02*
X164740000Y-80310000D01*
X163150000Y-100400000D02*
X164740000Y-98810000D01*
X163150000Y-102050000D02*
X163150000Y-100400000D01*
X164740000Y-117310000D02*
X164740000Y-122640000D01*
X164740000Y-122640000D02*
X164750000Y-122650000D01*
X183240000Y-61810000D02*
X183240000Y-68640000D01*
X183240000Y-68640000D02*
X183250000Y-68650000D01*
X183240000Y-117310000D02*
X183240000Y-122740000D01*
X183240000Y-122740000D02*
X183250000Y-122750000D01*
X183240000Y-135810000D02*
X183240000Y-140440000D01*
X183240000Y-140440000D02*
X183250000Y-140450000D01*
X183240000Y-80310000D02*
X183240000Y-84940000D01*
X183240000Y-84940000D02*
X183250000Y-84950000D01*
X181750000Y-100300000D02*
X183240000Y-98810000D01*
X181750000Y-102050000D02*
X181750000Y-100300000D01*
X201740000Y-61810000D02*
X201740000Y-68560000D01*
X201740000Y-68560000D02*
X201650000Y-68650000D01*
X201750000Y-85550000D02*
X201740000Y-85560000D01*
X201750000Y-85450000D02*
X201750000Y-85550000D01*
X201740000Y-85560000D02*
X201740000Y-89810000D01*
D41*
X201550000Y-127950000D02*
X201550000Y-130250000D01*
X201690000Y-127810000D02*
X201550000Y-127950000D01*
X201740000Y-127810000D02*
X201690000Y-127810000D01*
X115050000Y-103090000D02*
X115250000Y-102890000D01*
D40*
X111000000Y-103090000D02*
X115050000Y-103090000D01*
X113970000Y-99090000D02*
X115250000Y-97810000D01*
X111000000Y-99090000D02*
X113970000Y-99090000D01*
D38*
X71325000Y-116112500D02*
X71325000Y-118425000D01*
X71325000Y-118425000D02*
X71450000Y-118550000D01*
X216950000Y-115437500D02*
X216950000Y-111986250D01*
X216950000Y-111986250D02*
X216986250Y-111950000D01*
X219350000Y-115437500D02*
X220623750Y-115437500D01*
X220623750Y-115437500D02*
X220986250Y-115800000D01*
D42*
X220986250Y-115800000D02*
X220986250Y-112550000D01*
D38*
X124450000Y-133950000D02*
X123050000Y-132550000D01*
X123050000Y-132550000D02*
X123050000Y-113800000D01*
X123050000Y-113800000D02*
X127250000Y-109600000D01*
X137150000Y-101050000D02*
X142250000Y-106150000D01*
X137150000Y-100650000D02*
X137150000Y-101050000D01*
X142250000Y-106150000D02*
X142250000Y-116550000D01*
X136450000Y-101550000D02*
X140850000Y-105950000D01*
X140850000Y-105950000D02*
X140850000Y-121187500D01*
X135650000Y-101550000D02*
X136450000Y-101550000D01*
X122850000Y-105150000D02*
X122850000Y-95350000D01*
X123150000Y-105450000D02*
X122850000Y-105150000D01*
X126850000Y-50150000D02*
X138750000Y-50150000D01*
X124850000Y-104750000D02*
X125600000Y-105500000D01*
X124850000Y-93950000D02*
X124850000Y-104750000D01*
X127450000Y-53550000D02*
X138750000Y-53550000D01*
X127050000Y-53150000D02*
X127450000Y-53550000D01*
X126850000Y-105550000D02*
X125850000Y-104550000D01*
X125850000Y-104550000D02*
X125850000Y-93350000D01*
X138750000Y-52550000D02*
X128650000Y-52550000D01*
X127450000Y-51350000D02*
X138750000Y-51350000D01*
X124400000Y-105500000D02*
X123850000Y-104950000D01*
X123850000Y-104950000D02*
X123850000Y-94650000D01*
X126850000Y-51950000D02*
X127450000Y-51350000D01*
X80650000Y-72350000D02*
X80650000Y-72850000D01*
X80650000Y-72850000D02*
X83665000Y-75865000D01*
X85350000Y-125450000D02*
X83650000Y-127150000D01*
X83665000Y-75865000D02*
X83665000Y-77770000D01*
X80650000Y-87650000D02*
X80650000Y-80850000D01*
X83665000Y-59835000D02*
X83665000Y-59270000D01*
X80650000Y-80850000D02*
X83665000Y-77835000D01*
X83650000Y-127150000D02*
X83650000Y-132755000D01*
X80650000Y-68550000D02*
X80650000Y-62850000D01*
X83665000Y-77835000D02*
X83665000Y-77770000D01*
X80650000Y-56255000D02*
X83665000Y-59270000D01*
X80650000Y-39850000D02*
X83665000Y-36835000D01*
X83665000Y-36835000D02*
X83665000Y-36270000D01*
X80650000Y-50950000D02*
X80650000Y-39850000D01*
X80650000Y-62850000D02*
X83665000Y-59835000D01*
X83650000Y-132755000D02*
X83665000Y-132770000D01*
X102165000Y-114335000D02*
X102165000Y-114270000D01*
X99050000Y-92650000D02*
X99050000Y-111155000D01*
X99150000Y-72350000D02*
X99150000Y-74755000D01*
X99150000Y-50150000D02*
X99150000Y-39285000D01*
X99150000Y-39285000D02*
X102165000Y-36270000D01*
X99050000Y-111155000D02*
X102165000Y-114270000D01*
X99050000Y-88550000D02*
X99050000Y-80950000D01*
X99150000Y-125150000D02*
X99150000Y-117350000D01*
X99150000Y-125150000D02*
X99150000Y-129755000D01*
X102165000Y-59335000D02*
X102165000Y-59270000D01*
X99050000Y-80950000D02*
X102165000Y-77835000D01*
X99150000Y-68950000D02*
X99150000Y-62350000D01*
X99150000Y-129755000D02*
X102165000Y-132770000D01*
X99150000Y-117350000D02*
X102165000Y-114335000D01*
X102165000Y-77835000D02*
X102165000Y-77770000D01*
X99150000Y-74755000D02*
X102165000Y-77770000D01*
X99150000Y-62350000D02*
X102165000Y-59335000D01*
X99150000Y-56255000D02*
X102165000Y-59270000D01*
X118400000Y-122100000D02*
X120650000Y-124350000D01*
X120665000Y-36335000D02*
X120665000Y-36270000D01*
X120650000Y-124350000D02*
X120650000Y-125950000D01*
X117650000Y-56255000D02*
X120665000Y-59270000D01*
X117650000Y-39350000D02*
X120665000Y-36335000D01*
X117650000Y-62285000D02*
X120665000Y-59270000D01*
X118400000Y-87850000D02*
X118400000Y-80035000D01*
X117650000Y-68750000D02*
X117650000Y-62285000D01*
X118400000Y-92850000D02*
X118400000Y-122100000D01*
X118400000Y-80035000D02*
X120665000Y-77770000D01*
X117650000Y-74755000D02*
X120665000Y-77770000D01*
X120650000Y-125950000D02*
X120650000Y-132755000D01*
X117650000Y-50350000D02*
X117650000Y-39350000D01*
X120650000Y-132755000D02*
X120665000Y-132770000D01*
X117650000Y-72350000D02*
X117650000Y-74755000D01*
X157150000Y-74350000D02*
X157150000Y-75255000D01*
X157150000Y-102250000D02*
X157150000Y-99350000D01*
X157150000Y-112255000D02*
X159665000Y-114770000D01*
X159665000Y-96835000D02*
X159665000Y-96270000D01*
X156650000Y-89550000D02*
X156650000Y-93255000D01*
X156650000Y-93255000D02*
X159665000Y-96270000D01*
X157350000Y-117085000D02*
X159665000Y-114770000D01*
X157150000Y-70150000D02*
X157150000Y-61850000D01*
X157150000Y-99350000D02*
X159665000Y-96835000D01*
X157150000Y-106850000D02*
X157150000Y-112255000D01*
X157450000Y-128350000D02*
X163650000Y-128350000D01*
X157350000Y-124000000D02*
X157350000Y-117085000D01*
X159665000Y-77835000D02*
X159665000Y-77770000D01*
X168570000Y-133270000D02*
X168665000Y-133270000D01*
X157150000Y-61850000D02*
X159665000Y-59335000D01*
X159665000Y-59335000D02*
X159665000Y-59270000D01*
X156650000Y-80850000D02*
X159665000Y-77835000D01*
X157150000Y-75255000D02*
X159665000Y-77770000D01*
X163650000Y-128350000D02*
X168570000Y-133270000D01*
X157150000Y-106850000D02*
X157150000Y-104950000D01*
X156650000Y-87150000D02*
X156650000Y-80850000D01*
X175150000Y-69550000D02*
X175150000Y-62650000D01*
X175400000Y-87150000D02*
X175400000Y-80600000D01*
X175400000Y-89550000D02*
X175400000Y-93505000D01*
X175150000Y-74755000D02*
X175150000Y-73750000D01*
X174900000Y-111505000D02*
X178165000Y-114770000D01*
X178170000Y-59270000D02*
X178250000Y-59350000D01*
X174900000Y-106100000D02*
X174900000Y-111505000D01*
X175400000Y-80600000D02*
X178165000Y-77835000D01*
X174900000Y-99535000D02*
X174900000Y-103850000D01*
X175400000Y-93505000D02*
X178165000Y-96270000D01*
X175150000Y-62650000D02*
X178165000Y-59635000D01*
X175150000Y-74755000D02*
X178165000Y-77770000D01*
X178165000Y-59635000D02*
X178165000Y-59270000D01*
X178165000Y-77835000D02*
X178165000Y-77770000D01*
X178165000Y-96270000D02*
X174900000Y-99535000D01*
X194150000Y-112255000D02*
X196665000Y-114770000D01*
X193650000Y-128050000D02*
X193650000Y-130255000D01*
X193650000Y-93255000D02*
X196665000Y-96270000D01*
X193650000Y-117850000D02*
X196665000Y-114835000D01*
X196665000Y-96270000D02*
X194150000Y-98785000D01*
X193650000Y-130255000D02*
X196665000Y-133270000D01*
X196665000Y-77835000D02*
X196665000Y-77770000D01*
X194150000Y-75255000D02*
X194150000Y-73750000D01*
X194150000Y-75255000D02*
X196665000Y-77770000D01*
X193650000Y-124050000D02*
X193650000Y-117850000D01*
X193650000Y-80850000D02*
X196665000Y-77835000D01*
X194150000Y-98785000D02*
X194150000Y-112255000D01*
X194150000Y-69950000D02*
X194150000Y-61785000D01*
X193650000Y-87150000D02*
X193650000Y-80850000D01*
X193650000Y-92600000D02*
X193650000Y-93255000D01*
X194150000Y-61785000D02*
X196665000Y-59270000D01*
X196665000Y-114835000D02*
X196665000Y-114770000D01*
X193650000Y-89600000D02*
X193650000Y-92600000D01*
X212650000Y-61785000D02*
X212650000Y-84755000D01*
X212150000Y-97350000D02*
X212150000Y-119600000D01*
X212150000Y-90285000D02*
X212150000Y-97350000D01*
X215165000Y-87270000D02*
X212150000Y-90285000D01*
X215165000Y-122615000D02*
X215165000Y-125270000D01*
X212650000Y-84755000D02*
X215165000Y-87270000D01*
X215165000Y-59270000D02*
X212650000Y-61785000D01*
X212150000Y-119600000D02*
X215165000Y-122615000D01*
D41*
X135570000Y-36340000D02*
X135870000Y-36640000D01*
X135870000Y-36640000D02*
X135870000Y-37640000D01*
X134450000Y-41550000D02*
X134450000Y-41520001D01*
X134450000Y-41520001D02*
X133970000Y-41040001D01*
X133970000Y-41040001D02*
X133970000Y-40140000D01*
D43*
X133970000Y-37640000D02*
X133970000Y-36640000D01*
X133970000Y-36640000D02*
X134250000Y-36360000D01*
D41*
X135350000Y-41550000D02*
X135350000Y-41560001D01*
X135360001Y-41550000D02*
X135350000Y-41550000D01*
X135350000Y-41560001D02*
X135350000Y-41560001D01*
X135870000Y-40140000D02*
X135870000Y-41040001D01*
X135870000Y-41040001D02*
X135360001Y-41550000D01*
D38*
X225150000Y-115550000D02*
X224700000Y-115550000D01*
X225950000Y-114750000D02*
X225150000Y-115550000D01*
X224700000Y-115550000D02*
X223100000Y-117150000D01*
X199750000Y-106950000D02*
X199750000Y-112850000D01*
X225250000Y-119950000D02*
X225250000Y-117400000D01*
X225250000Y-117400000D02*
X225000000Y-117150000D01*
M02*
