M48
; DRILL file {KiCad 8.0.3} date 2024-08-13T11:45:31+0300
; FORMAT={-:-/ absolute / metric / decimal}
; #@! TF.CreationDate,2024-08-13T11:45:31+03:00
; #@! TF.GenerationSoftware,Kicad,Pcbnew,8.0.3
; #@! TF.FileFunction,NonPlated,1,4,NPTH
FMAT,2
METRIC
; #@! TA.AperFunction,NonPlated,NPTH,ComponentDrill
T1C1.700
; #@! TA.AperFunction,NonPlated,NPTH,ComponentDrill
T2C3.000
; #@! TA.AperFunction,NonPlated,NPTH,ComponentDrill
T3C4.000
%
G90
G05
T1
X72.57Y-41.35
X72.57Y-64.35
X72.57Y-82.85
X72.57Y-137.85
X82.73Y-41.35
X82.73Y-64.35
X82.73Y-82.85
X82.73Y-137.85
X91.07Y-41.35
X91.07Y-64.35
X91.07Y-82.85
X91.07Y-119.35
X91.07Y-137.85
X101.23Y-41.35
X101.23Y-64.35
X101.23Y-82.85
X101.23Y-119.35
X101.23Y-137.85
X109.57Y-41.35
X109.57Y-64.35
X109.57Y-82.85
X109.57Y-137.85
X119.73Y-41.35
X119.73Y-64.35
X119.73Y-82.85
X119.73Y-137.85
X148.57Y-64.35
X148.57Y-82.85
X148.57Y-101.35
X148.57Y-119.85
X157.57Y-138.35
X158.73Y-64.35
X158.73Y-82.85
X158.73Y-101.35
X158.73Y-119.85
X167.07Y-64.35
X167.07Y-82.85
X167.07Y-101.35
X167.07Y-119.85
X167.73Y-138.35
X177.23Y-64.35
X177.23Y-82.85
X177.23Y-101.35
X177.23Y-119.85
X185.57Y-64.35
X185.57Y-82.85
X185.57Y-101.35
X185.57Y-119.85
X185.57Y-138.35
X195.73Y-64.35
X195.73Y-82.85
X195.73Y-101.35
X195.73Y-119.85
X195.73Y-138.35
X204.07Y-64.35
X204.07Y-92.35
X204.07Y-130.35
X214.23Y-64.35
X214.23Y-92.35
X214.23Y-130.35
T2
X73.84Y-38.81
X73.84Y-61.81
X73.84Y-80.31
X73.84Y-135.31
X80.19Y-36.27
X80.19Y-59.27
X80.19Y-77.77
X80.19Y-132.77
X92.34Y-38.81
X92.34Y-61.81
X92.34Y-80.31
X92.34Y-116.81
X92.34Y-135.31
X98.69Y-36.27
X98.69Y-59.27
X98.69Y-77.77
X98.69Y-114.27
X98.69Y-132.77
X110.84Y-38.81
X110.84Y-61.81
X110.84Y-80.31
X110.84Y-135.31
X117.19Y-36.27
X117.19Y-59.27
X117.19Y-77.77
X117.19Y-132.77
X149.84Y-61.81
X149.84Y-80.31
X149.84Y-98.81
X149.84Y-117.31
X156.19Y-59.27
X156.19Y-77.77
X156.19Y-96.27
X156.19Y-114.77
X158.84Y-135.81
X165.19Y-133.27
X168.34Y-61.81
X168.34Y-80.31
X168.34Y-98.81
X168.34Y-117.31
X174.69Y-59.27
X174.69Y-77.77
X174.69Y-96.27
X174.69Y-114.77
X186.84Y-61.81
X186.84Y-80.31
X186.84Y-98.81
X186.84Y-117.31
X186.84Y-135.81
X193.19Y-59.27
X193.19Y-77.77
X193.19Y-96.27
X193.19Y-114.77
X193.19Y-133.27
X205.34Y-61.81
X205.34Y-89.81
X205.34Y-127.81
X211.69Y-59.27
X211.69Y-87.27
X211.69Y-125.27
T3
X77.65Y-41.35
X77.65Y-64.35
X77.65Y-82.85
X77.65Y-137.85
X96.15Y-41.35
X96.15Y-64.35
X96.15Y-82.85
X96.15Y-119.35
X96.15Y-137.85
X114.65Y-41.35
X114.65Y-64.35
X114.65Y-82.85
X114.65Y-137.85
X153.65Y-64.35
X153.65Y-82.85
X153.65Y-101.35
X153.65Y-119.85
X162.65Y-138.35
X172.15Y-64.35
X172.15Y-82.85
X172.15Y-101.35
X172.15Y-119.85
X190.65Y-64.35
X190.65Y-82.85
X190.65Y-101.35
X190.65Y-119.85
X190.65Y-138.35
X209.15Y-64.35
X209.15Y-92.35
X209.15Y-130.35
M30
